<svg width="338" height="276" viewBox="0 0 338 276" fill="none" xmlns="http://www.w3.org/2000/svg">
<path d="M58.4449 82.2269C89.8377 76.2937 104.802 53.1854 123.2 37.6198C144.865 19.2917 171.214 29.4526 193.72 32.6955C234.192 38.5086 247.955 -4.12878 292.486 1.51614C335.096 6.9209 351.741 60.3197 325.248 90.8744C298.755 121.453 299.62 130.677 305.72 152.296C311.821 173.915 322.534 214.415 279.876 218.066C243.199 221.213 222.014 230.365 205.873 246.291C189.733 262.216 130.286 306.055 102.568 239.445C89.3093 207.641 81.311 196.447 51.5514 188.28C21.7679 180.113 0.967456 157.653 0.0307151 132.191C-0.833969 108.098 16.5077 90.1298 58.4449 82.2269Z" fill="#EAE6FF"/>
<path d="M290.405 198.778C289.8 186.662 273.868 179.392 273.868 179.392C273.868 179.392 264.188 174.344 247.45 172.728C238.778 171.719 229.904 171.517 221.031 171.921C221.031 171.921 219.821 163.641 218.611 157.381C217.199 152.333 215.384 147.284 212.964 142.639C212.964 142.639 202.88 125.071 200.864 120.426C198.847 115.782 192.797 100.03 192.797 100.03C192.797 100.03 188.36 88.3179 183.52 82.4617C180.495 80.6442 178.277 78.019 176.865 74.99C176.865 74.99 179.487 68.124 179.487 67.9221C179.083 66.9124 178.882 65.7008 178.277 64.6911C177.268 63.6814 176.462 64.893 176.058 66.1046C174.243 72.3647 171.016 78.019 166.378 82.4617C159.723 89.7315 152.664 96.3955 144.799 102.454C142.783 104.069 140.564 105.483 138.144 106.694C135.926 107.704 133.707 108.31 131.489 108.714C116.565 112.147 99.625 108.916 88.3315 97.809C86.7181 98.6168 86.1131 101.848 85.5081 103.463C84.298 107.098 83.2897 110.733 82.2813 114.368C79.2563 125.273 76.4329 136.177 74.2145 147.284C73.0045 147.688 71.7945 148.294 70.7861 148.9L63.9293 153.746C63.9293 153.746 56.2658 161.42 55.4592 169.295C55.0558 174.748 55.6608 180.402 56.8708 185.854L55.0558 188.681C53.2408 192.316 52.2324 196.153 52.2324 200.192C52.2324 206.856 59.4926 215.741 59.4926 215.741C62.316 219.174 65.341 222.607 68.5677 225.838C72.3995 229.675 78.6513 229.473 83.693 227.656C88.7348 225.838 89.9448 224.223 93.7766 219.578C97.6083 214.934 96.3983 211.904 96.3983 211.904L94.1799 201.202L104.263 197.567C109.305 196.961 114.549 196.759 119.59 196.961C124.834 197.163 129.876 198.173 134.716 200.394L135.724 203.221L136.732 210.087L134.917 215.337C134.111 217.559 133.304 219.982 132.699 222.405C132.296 224.829 135.926 231.291 135.926 231.291C135.926 231.291 140.362 238.156 147.018 239.772C153.673 241.388 157.706 240.176 161.336 237.349C164.966 234.522 171.016 228.867 171.016 228.867C171.016 228.867 174.042 227.454 174.647 227.05C178.075 225.03 181.302 223.011 184.528 220.79C187.755 218.568 190.377 215.741 192.595 212.51C192.595 212.51 204.897 209.481 210.746 202.817C214.376 198.778 217.199 194.134 219.014 189.085L235.349 188.681L248.66 189.893C248.66 189.893 264.39 192.114 269.835 196.153C275.28 200.192 273.868 204.433 268.423 206.856C262.978 209.279 253.903 211.703 239.786 211.703C229.501 211.501 219.014 212.106 208.729 213.52C202.275 214.53 197.234 219.376 195.62 225.636C194.814 231.089 196.83 236.541 200.864 240.176C206.107 245.224 217.602 248.051 217.602 248.051C217.602 248.051 226.274 251.283 231.921 250.273C236.559 249.869 239.786 245.628 239.383 241.186C239.383 240.58 239.181 240.176 238.979 239.57C237.366 234.724 233.333 233.512 227.484 232.502C223.652 231.896 220.022 230.887 216.392 229.877L221.434 228.867C221.434 228.867 242.408 228.867 255.113 228.06C264.39 227.656 273.465 224.627 281.129 219.578C286.17 216.549 291.01 210.895 290.405 198.778Z" fill="#F39200"/>
<path d="M162.949 209.279C163.151 209.885 167.184 215.136 165.773 220.184C164.361 225.233 158.109 231.089 158.109 231.089C155.084 233.31 151.252 234.522 147.421 234.118C140.564 233.714 141.371 223.819 141.371 223.819L144.799 212.308C145.606 210.289 146.816 208.27 148.026 206.452C150.042 204.029 155.084 203.221 155.084 203.221C155.689 205.039 156.899 206.654 158.513 207.866C160.126 208.27 161.538 208.875 162.949 209.279Z" fill="#F980A5"/>
<path d="M79.2562 191.913C79.2562 191.913 84.903 193.124 85.9113 197.769C86.9197 202.413 88.3314 211.703 88.3314 211.703C89.1381 215.338 87.7264 218.972 84.903 221.396C80.0629 225.636 71.9961 219.174 71.9961 219.174C70.3827 217.155 68.971 214.934 67.9626 212.712C66.3493 209.077 64.1309 207.462 66.1476 202.615C66.9543 200.192 68.5677 197.971 70.5844 196.355L74.6178 194.942L79.2562 191.913Z" fill="#F980A5"/>
<path opacity="0.15" d="M66.1475 202.615C66.1475 202.615 69.5759 202.009 70.5842 200.394C71.5926 198.778 71.9959 201 75.626 199.182C77.6427 198.172 79.8611 198.98 80.8694 201V201.202C83.2895 207.058 86.9195 217.963 81.8778 222.001C85.5078 221.597 88.1296 218.366 87.9279 214.731C87.9279 210.491 87.5246 206.25 86.5162 202.009L84.9028 195.951L81.6761 192.922L78.8527 191.71L72.6009 195.345L70.1809 196.153L66.7525 199.182L66.1475 202.615Z" fill="#992811"/>
<path opacity="0.15" d="M144.396 232.906C149.639 233.108 154.681 230.079 156.899 225.232C161.336 216.751 161.134 209.481 158.916 207.664L163.151 209.481C163.151 209.481 167.185 215.539 165.975 220.386C164.765 225.232 158.311 231.291 158.311 231.291C158.311 231.291 156.294 233.108 150.244 234.118C144.194 235.127 144.396 232.906 144.396 232.906Z" fill="#992811"/>
<path d="M218.409 212.308C216.997 212.308 215.586 212.51 214.174 212.712C215.586 212.51 216.997 212.308 218.409 212.308Z" fill="#E98500"/>
<path d="M267.818 207.664L268.423 207.462C271.247 206.048 273.062 204.635 273.465 203.019C272.053 205.039 270.238 206.654 267.818 207.664Z" fill="#E98500"/>
<path d="M218.409 212.308H218.812C227.282 212.51 239.987 214.328 257.533 210.895C261.163 210.289 264.591 209.077 267.818 207.664C260.961 210.491 247.046 211.905 233.534 212.106C228.492 212.106 223.249 212.106 218.409 212.308Z" fill="#E98500"/>
<path d="M290.405 198.576C290.808 205.442 285.363 211.501 268.423 217.963C249.062 225.434 225.669 222.001 216.392 221.597C216.392 221.597 203.888 220.588 209.333 226.646C209.333 226.646 212.358 228.059 215.988 229.473C216.997 229.473 222.039 228.867 231.114 228.665C241.197 228.261 249.062 230.079 263.986 226.04C279.111 222.001 279.918 220.992 286.17 214.53C289.8 210.693 290.808 204.231 290.405 198.576Z" fill="#E98500"/>
<path d="M235.551 234.925C235.551 234.925 239.987 240.984 234.139 243.003C230.711 244.215 217.804 241.791 210.947 237.753C204.897 234.724 197.637 229.675 196.83 222.607C196.83 222.607 196.83 222.607 196.83 222.405C194.813 225.434 194.41 229.473 195.822 232.906C195.822 232.906 196.427 241.791 208.728 245.83C221.03 249.869 233.534 254.514 237.567 246.84C240.592 240.782 239.382 236.945 235.551 234.925Z" fill="#E98500"/>
<path d="M155.286 203.019L152.463 198.576C149.841 202.817 145.404 198.778 145.404 198.778L146.211 201.807L148.631 204.837L148.228 206.452L155.286 203.019Z" fill="#E98500"/>
<path d="M93.5746 191.509C92.7679 185.248 92.1629 177.171 85.3061 174.95C78.651 172.728 70.3825 175.353 70.3825 175.353C70.3825 175.353 78.8527 175.959 79.861 182.825C79.4577 185.45 77.8443 187.874 74.4159 190.499C71.5925 192.518 68.1641 193.528 64.7357 193.326C65.5424 194.942 65.1391 196.961 64.1307 198.374C62.114 201 57.6772 199.182 57.6772 199.182L60.904 202.413L65.5424 203.827L70.3825 196.153L69.5758 195.749C71.1892 195.951 73.0042 195.749 74.6176 194.74C75.2226 194.538 75.8276 194.134 76.4326 193.528C77.2393 192.922 77.8443 192.316 78.651 191.509C80.0627 191.307 81.2727 191.912 82.0794 193.124C84.7011 196.557 86.5161 200.394 87.3228 204.635L88.1295 214.732L84.9028 221.194C84.9028 221.194 85.1044 227.454 80.6677 228.059C80.6677 228.059 89.3395 226.444 93.5746 219.376C97.8097 212.308 95.188 206.856 95.188 206.856C95.188 206.856 94.3813 197.769 93.5746 191.509Z" fill="#E98500"/>
<path d="M269.835 190.297C260.558 181.816 242.609 179.796 220.829 181.816C220.829 181.614 220.829 181.614 220.829 181.412C220.627 180.806 220.829 180.402 220.829 179.796C220.829 173.94 220.426 168.084 219.619 162.429V162.228C220.022 153.14 205.502 129.11 205.502 129.11L198.444 114.772L192.393 98.011L186.142 85.8946L177.873 77.2113L177.671 77.0093C180.898 72.5667 184.125 65.7008 183.52 54.7961C176.058 50.9592 168.395 47.9301 160.933 43.8914C162.546 48.1321 163.353 52.7767 163.555 57.6232C163.756 83.2694 147.824 97.4052 142.782 100.434C142.782 100.434 148.026 98.6168 153.269 96.3955C152.866 96.5974 152.664 97.0013 152.261 97.2032C146.009 103.059 127.859 102.858 127.859 102.858C127.859 102.858 114.145 100.838 113.742 101.646C113.339 102.454 92.1631 92.9625 92.1631 92.9625L88.1297 98.011C88.1297 98.011 78.0462 108.916 74.4161 121.032C70.5843 132.946 74.2144 147.284 74.2144 147.284L96.3982 152.736C96.8015 152.736 119.994 152.131 122.414 151.727C127.657 151.121 131.086 136.177 143.791 130.119C151.454 126.484 157.908 120.628 162.344 113.358C162.344 113.156 179.89 87.1063 182.108 107.502C182.512 111.743 183.722 115.58 184.125 119.416C184.125 119.618 184.125 119.82 184.327 120.224C185.133 141.226 147.421 155.16 141.169 155.765C133.909 156.573 119.792 162.631 119.792 162.631H110.515C110.515 162.631 110.918 169.093 120.8 168.891C130.682 168.69 131.287 163.641 139.556 163.035C145.606 162.429 153.874 162.026 161.739 159.4L157.908 166.67C154.681 167.68 150.043 169.497 147.421 171.719C141.169 176.969 137.337 184.441 136.329 192.518C135.522 198.577 135.522 204.635 136.732 210.491L139.757 200.798C140.967 196.759 142.782 192.72 145.202 189.287C148.631 184.845 155.286 185.047 155.286 185.047C155.286 184.845 155.286 184.845 155.084 184.643C154.883 183.229 154.883 178.181 166.378 171.315C174.243 166.67 181.302 163.641 188.965 158.795C189.973 158.189 191.587 157.583 193.402 157.583C197.839 157.381 201.67 160.612 203.082 164.853C203.687 166.468 203.889 168.286 204.09 170.305C204.494 178.181 203.284 188.48 195.62 195.547C195.62 195.547 194.007 197.567 191.587 200.394C185.537 208.068 179.486 203.625 179.486 203.625C179.486 203.625 181.503 211.097 180.091 215.943C179.89 216.751 179.285 217.761 178.881 218.77C180.091 215.136 181.302 209.885 179.486 205.039C177.873 200.394 175.251 195.951 171.621 192.72C174.646 196.557 175.856 206.452 175.856 206.452C175.856 206.452 176.26 210.289 175.453 213.318C172.831 214.934 169.605 213.318 169.605 213.318C165.975 210.087 169.403 207.664 169.403 207.664L165.37 209.077L169.201 206.048C169.201 206.048 159.118 208.068 152.866 195.547L156.294 205.039L164.361 209.279L163.353 209.683L166.983 218.165L171.823 217.357L174.445 215.539C172.428 218.77 166.983 217.963 166.983 217.963L166.176 220.184L163.353 225.232C160.529 228.463 157.504 231.493 153.874 233.916C149.438 236.743 144.597 232.906 144.597 232.906C142.782 233.714 140.766 234.32 138.951 234.926C138.951 234.926 143.589 240.984 153.874 240.984C160.328 240.984 168.395 232.704 168.395 232.704L173.235 227.252C172.226 228.665 171.42 229.473 171.42 229.473C171.42 229.473 182.713 224.829 187.755 218.972L192.797 213.116C199.855 212.106 206.309 208.875 210.947 203.423C215.787 198.173 218.207 193.528 219.619 189.085C224.459 188.883 254.911 187.874 265.196 193.73C271.448 197.365 273.868 200.192 273.465 202.413C275.482 198.778 274.473 194.538 269.835 190.297ZM219.821 162.833C220.022 164.247 220.022 165.66 220.022 167.276C219.821 165.66 219.821 164.247 219.821 162.833Z" fill="#E98500"/>
<path d="M143.186 17.8413C140.161 15.0142 138.144 13.6006 138.144 13.6006L143.186 17.8413Z" fill="#E98500"/>
<path d="M170.008 85.8946C173.235 82.0577 176.462 79.8364 179.285 75.3938C181.705 71.5569 181.705 69.7395 182.915 65.2968C185.94 52.9785 177.268 32.7847 172.226 22.2838C167.991 13.3985 150.648 5.52291 150.648 5.52291C147.018 5.11904 136.127 1.08026 132.497 1.08026C123.422 0.676382 108.7 3.50353 100.633 7.94618C98.0117 9.35975 90.3482 17.2354 88.7349 18.447C87.1215 19.8606 83.0881 27.1304 81.6764 28.9478C78.853 32.7847 77.8446 37.4293 75.2229 41.67C70.1812 49.7475 68.5678 56.0076 69.3745 60.6522C70.1812 65.2968 70.7862 69.5375 75.0213 74.7879C78.248 79.0286 82.6847 83.2694 86.3148 87.3081C90.3482 91.9527 91.7599 91.9527 97.6084 95.3857C101.238 97.4051 105.07 99.2225 109.104 100.636C113.137 101.646 116.969 102.454 121.002 102.857C130.279 104.675 134.312 102.454 142.984 100.838C149.841 99.6264 154.681 96.3954 159.925 93.5683C163.756 91.5489 167.185 89.1256 170.008 85.8946Z" fill="#F39200"/>
<path d="M173.033 54.1901C171.016 52.7766 168.798 51.363 166.781 49.9494C165.37 48.9397 163.958 47.93 162.344 47.3242C163.958 50.5552 164.159 54.9979 164.361 58.6328C164.361 85.6926 148.631 99.4244 148.631 99.4244C148.631 99.4244 172.831 89.9333 179.486 74.384C180.495 71.9608 181.503 69.5375 182.108 66.9123C182.512 65.7007 182.713 64.691 182.915 63.4793C183.318 62.0658 183.117 61.6619 181.907 60.6522C180.293 59.2386 178.478 58.027 176.663 56.6134C175.655 55.8056 174.243 54.9979 173.033 54.1901Z" fill="#E98500"/>
<path d="M180.293 74.1821C175.655 80.2403 170.21 85.6926 164.361 90.5392C154.278 99.4245 140.564 102.05 127.859 103.059C119.389 103.665 110.919 102.05 103.457 98.4148C99.4234 96.5973 95.5917 94.5779 91.7599 92.1547C91.7599 92.1547 90.7516 94.376 99.2218 101.04C103.457 104.069 108.297 106.088 113.54 106.694C113.944 106.694 115.96 107.098 116.767 107.098C119.59 107.502 122.616 107.704 126.044 107.906C139.354 108.714 153.875 102.252 153.875 102.252C161.941 99.2225 168.798 93.3663 173.437 85.8946C180.697 73.5763 180.293 74.1821 180.293 74.1821Z" fill="#C34491"/>
<path d="M116.363 66.7103C123.269 66.7103 128.867 61.1048 128.867 54.1901C128.867 47.2754 123.269 41.6699 116.363 41.6699C109.458 41.6699 103.86 47.2754 103.86 54.1901C103.86 61.1048 109.458 66.7103 116.363 66.7103Z" fill="white"/>
<path d="M98.4151 62.4697C104.318 62.4697 109.104 57.6779 109.104 51.767C109.104 45.856 104.318 41.0642 98.4151 41.0642C92.512 41.0642 87.7266 45.856 87.7266 51.767C87.7266 57.6779 92.512 62.4697 98.4151 62.4697Z" fill="white"/>
<path d="M97.2051 67.316L101.642 66.9121L106.28 67.7199L104.062 70.7489L100.633 72.7683L98.4151 70.1431L97.2051 67.316Z" fill="#F9C9C3"/>
<path opacity="0.3" d="M159.723 159.602C154.278 150.111 146.009 124.465 146.009 124.465C146.009 124.465 104.869 152.736 94.785 152.736C90.1466 152.736 86.7182 163.035 85.5082 163.439C84.0965 163.843 83.0881 164.853 82.4831 166.064L56.871 163.843C56.871 163.843 55.4593 182.017 56.4676 173.94C57.476 165.862 73.0046 167.882 73.0046 167.882C73.0046 167.882 81.8781 168.286 81.0714 173.94C81.0714 173.94 90.9533 174.142 92.5667 182.421C93.7767 188.681 94.5834 194.941 94.785 201.404C95.9951 200.596 97.4068 199.99 98.8185 199.384C99.8268 198.98 108.297 197.365 108.297 197.365C112.129 196.759 116.162 196.759 120.196 197.163C125.439 197.769 130.481 198.98 135.321 200.596L136.329 192.316C136.329 192.316 138.548 181.412 143.186 176.565C145.606 173.738 148.631 171.315 151.858 169.497C154.076 168.286 159.32 167.074 161.74 165.458C165.975 162.429 159.723 159.602 159.723 159.602Z" fill="#992811"/>
<path d="M88.7349 47.1224C88.7349 47.1224 93.1716 50.5553 98.8184 50.5553C104.465 50.5553 104.465 50.5553 104.465 50.5553C104.465 50.5553 110.112 53.5844 117.17 53.5844C124.229 53.5844 128.666 51.9689 128.666 51.9689C128.666 51.9689 126.447 41.4681 116.162 41.872C105.877 42.2758 106.885 46.1127 106.885 46.1127C106.885 46.1127 103.86 41.0642 98.2134 41.2662C92.7683 41.2662 88.7349 47.1224 88.7349 47.1224Z" fill="#B26500"/>
<path d="M191.385 151.121C190.78 150.111 189.974 149.505 188.965 149.304L177.268 148.294L158.311 155.766L136.329 99.6266C135.523 96.3955 132.094 93.5684 128.666 93.5684L29.0404 84.885C25.8137 84.885 23.797 87.5102 24.6037 90.9432L48.4008 151.323C49.2075 154.554 52.6359 157.381 56.0643 157.381L58.2827 157.583C56.4676 157.583 54.8543 159.199 54.8543 161.016C54.8543 162.833 56.4676 164.449 58.2827 164.449L156.9 173.132C157.908 173.132 158.715 172.728 159.32 171.921L189.974 155.564C191.587 154.756 192.192 152.736 191.385 151.121Z" fill="#C5CCD9"/>
<path d="M179.285 36.0158C175.655 25.7169 161.538 -0.131236 127.254 0.474581C92.9704 1.0804 79.2568 34.4003 79.2568 34.4003C79.2568 34.4003 82.4836 29.5538 101.642 29.7557C120.801 30.1596 133.305 33.7945 133.305 33.7945C133.305 33.7945 147.825 37.8333 156.295 43.0837C164.765 48.3341 183.924 62.2679 183.924 62.2679C183.924 62.2679 182.916 46.5166 179.285 36.0158ZM129.876 24.5053L114.953 22.284L102.449 21.0723C102.449 21.0723 107.491 9.56183 122.414 10.5715C137.136 11.5812 129.876 24.5053 129.876 24.5053Z" fill="#454AFD"/>
<path d="M178.075 77.2113L183.924 62.2678L195.621 76.6055L212.158 98.011C212.158 98.011 215.788 102.252 212.561 102.252C209.334 102.252 201.066 97.6071 201.066 97.6071L191.789 94.78C191.789 94.78 187.554 86.2985 183.722 82.4617C180.092 78.8268 178.075 77.2113 178.075 77.2113Z" fill="#454AFD"/>
<path d="M159.723 163.843L186.545 150.111C186.545 150.111 188.158 148.496 191.385 151.121C194.41 153.746 187.15 157.179 187.15 157.179L160.328 171.921V169.497L157.706 165.66L159.723 163.843Z" fill="#9BA7BE"/>
<path opacity="0.5" d="M160.732 162.026C160.53 161.824 136.33 99.6265 136.33 99.6265C135.523 96.3955 132.094 93.5684 128.666 93.5684L29.0407 84.885C26.8224 84.885 25.209 86.0966 24.8057 87.7122C25.0073 87.7122 25.4107 87.7122 25.6123 87.7122L125.238 96.3955C128.464 96.3955 131.893 99.0207 132.901 102.454L155.085 158.795C158.11 166.468 148.631 164.449 148.631 164.449L149.841 166.064L157.505 166.266L157.707 165.257L157.908 165.661L160.732 162.026Z" fill="white"/>
<path opacity="0.2" d="M160.328 166.872L190.175 150.717L188.562 150.111L160.933 162.833L158.312 166.266L160.328 166.872Z" fill="white"/>
<path opacity="0.2" d="M148.631 5.11914C148.631 5.11914 164.967 15.8219 162.547 47.1224L183.924 62.2678C183.924 62.2678 184.125 42.6798 176.462 28.9479C168.798 15.2161 156.295 7.34047 148.631 5.11914Z" fill="#29358E"/>
<path d="M182.915 63.4795L177.874 77.4133L185.739 85.087L191.587 94.78C191.587 94.78 198.242 95.9916 203.082 98.4149C207.922 101.04 213.166 103.463 213.569 101.646C214.174 99.8285 206.511 89.7315 206.511 89.7315L182.915 63.4795Z" fill="#29358E"/>
<path d="M58.2827 157.583C58.2827 157.583 54.6526 157.583 54.8543 161.016C55.056 164.449 62.9211 164.853 62.9211 164.853L156.9 173.132C156.9 173.132 160.328 172.324 160.328 169.699C160.328 166.872 157.303 166.468 157.303 166.468L58.2827 157.583Z" fill="#9BA7BE"/>
<path opacity="0.5" d="M150.446 99.4244C150.446 99.4244 151.253 102.05 150.446 103.867C150.446 103.867 157.101 101.646 166.378 94.174C175.655 86.7023 176.663 78.8267 176.663 78.8267C176.663 78.8267 168.798 89.9333 150.446 99.4244Z" fill="#7C2C5F"/>
<path opacity="0.5" d="M105.272 20.8701C105.272 20.8701 112.532 11.1771 122.817 11.9848C132.699 12.7926 129.069 23.2934 129.069 23.2934L130.077 24.505L131.086 18.043C131.086 18.043 132.296 11.379 122.212 10.5713C112.129 9.76351 103.457 19.0527 103.457 19.0527C103.457 19.0527 101.239 22.0818 101.44 22.0818C101.642 22.0818 105.272 20.8701 105.272 20.8701Z" fill="#B26500"/>
<path d="M79.2568 36.0156C79.2568 36.0156 89.1386 29.7555 111.322 31.7749C133.506 33.7943 150.446 39.2466 183.117 65.2967V62.2676L159.723 45.1028C159.723 45.1028 139.153 32.7846 122.414 30.7652C105.676 28.9477 88.3319 30.3613 82.2818 32.5826C76.2317 34.804 79.2568 36.0156 79.2568 36.0156Z" fill="#B26500"/>
<path d="M160.328 158.391L179.689 149.303L174.243 148.496L167.185 152.736L158.312 155.765L160.328 158.391Z" fill="#9BA7BE"/>
<path d="M97.0032 131.533L92.3647 135.572C91.3564 136.379 89.743 136.581 88.3313 135.975L81.0712 133.148C79.4578 132.542 78.2478 131.331 77.8445 129.917L75.2227 123.051C74.6177 121.638 75.0211 120.224 76.0294 119.416L80.8695 115.58C81.8779 114.772 83.4912 114.57 84.9029 115.176L92.1631 118.003C93.7764 118.609 94.9865 119.82 95.3898 121.234L98.0115 127.898C98.4149 129.513 98.0115 130.725 97.0032 131.533Z" fill="url(#paint0_linear)"/>
<path d="M84.2979 126.686C84.4996 126.686 84.7013 126.888 84.7013 126.888C84.9029 127.09 84.9029 127.09 85.1046 127.292C85.3063 127.494 85.3063 127.696 85.3063 127.898L85.9113 129.311C86.113 129.715 86.3146 130.119 86.5163 130.321C86.718 130.725 87.1213 130.927 87.323 131.331C87.7263 131.533 88.1297 131.735 88.533 131.937C88.9364 132.139 89.5414 132.341 90.3481 132.341V130.927C90.1464 130.927 89.9447 130.725 89.743 130.725C89.5414 130.523 89.3397 130.523 89.138 130.321C88.9364 130.119 88.9364 129.917 88.7347 129.715C88.533 129.513 88.533 129.311 88.3313 129.11L87.7263 127.696C87.5247 127.292 87.323 126.888 86.9196 126.484C86.5163 126.08 85.9113 125.879 85.3063 125.677C85.7096 125.475 86.113 125.071 86.3146 124.667C86.5163 124.263 86.3146 123.859 86.3146 123.253L85.7096 121.84C85.7096 121.638 85.5079 121.436 85.5079 121.032C85.5079 120.83 85.5079 120.628 85.5079 120.426C85.5079 120.224 85.508 120.022 85.7096 119.82C85.7096 119.618 85.9113 119.618 86.113 119.416L85.1046 118.205C84.4996 118.407 84.0963 118.609 83.8946 118.811C83.4912 119.013 83.2896 119.416 83.0879 119.618C82.8862 120.022 82.8862 120.224 82.8862 120.628C82.8862 121.032 83.0879 121.436 83.0879 121.638L83.6929 123.051C83.8946 123.455 83.8946 123.859 83.8946 124.061C83.8946 124.263 83.4912 124.465 83.0879 124.465L83.6929 126.08C83.8946 126.686 84.0963 126.686 84.2979 126.686Z" fill="white"/>
<path d="M176.664 205.644C176.462 205.038 176.059 204.837 175.454 205.038C174.849 205.24 174.647 205.644 174.849 206.25C174.849 206.25 176.059 210.895 173.84 213.924C172.429 215.539 170.21 216.347 167.185 216.549C166.782 213.722 165.572 211.299 164.765 210.087C167.185 209.885 169.202 208.269 170.21 207.26C170.614 206.856 170.614 206.25 170.21 205.846C169.807 205.442 169.202 205.442 168.799 205.846C168.597 206.048 164.967 209.885 160.732 207.058C155.892 203.827 153.068 198.173 153.875 195.345C154.077 194.74 153.673 194.336 153.27 194.134C152.665 193.932 152.262 194.336 152.06 194.74C151.455 196.759 152.262 199.586 153.875 202.211C152.463 202.413 151.253 203.019 150.043 203.625C148.228 202.413 147.018 201 146.816 199.182C146.211 195.345 150.043 191.105 150.043 191.105C150.447 190.701 150.447 190.095 150.043 189.691C149.64 189.287 149.035 189.287 148.631 189.691C148.43 189.893 144.195 194.538 144.8 199.384C145.001 201.404 146.211 203.221 148.228 204.837C145.606 207.058 144.396 210.491 143.59 213.116C143.186 214.53 142.783 215.943 142.38 217.357C141.573 219.982 140.565 222.607 140.766 225.232C140.766 226.848 141.17 230.685 143.993 233.108C145.405 234.32 147.421 234.925 149.64 234.925C150.043 234.925 150.648 234.925 151.253 234.925C158.312 234.118 160.53 231.089 164.362 226.04C164.765 225.434 165.168 224.828 165.773 224.223C167.185 222.405 167.589 220.386 167.79 218.568C171.622 218.568 174.244 217.357 176.059 215.135C178.075 211.299 176.664 206.048 176.664 205.644ZM163.353 223.011C162.95 223.617 162.345 224.223 161.942 224.828C158.312 229.675 156.497 232.098 150.245 232.906C147.825 233.108 146.01 232.704 144.598 231.492C142.38 229.675 142.178 226.444 142.178 225.232C142.178 223.011 142.783 220.79 143.791 218.164C144.195 216.751 144.8 215.337 145.203 213.722C146.211 209.683 148.228 205.038 154.682 204.231C155.892 205.846 157.505 207.462 159.32 208.673C160.328 209.279 161.135 209.683 161.942 209.885C161.942 209.885 161.942 210.087 162.143 210.087C162.143 210.289 167.387 217.761 163.353 223.011Z" fill="#34374C"/>
<path d="M89.3402 189.893C90.7519 185.248 87.5252 180.2 87.3235 179.998C86.9202 179.594 86.3152 179.392 85.9118 179.796C85.5085 180.2 85.3068 180.806 85.7102 181.21C85.7102 181.21 88.7352 185.854 87.5252 189.489C87.1219 191.105 85.7102 192.316 83.8951 193.124C82.8868 192.316 81.8784 191.71 80.4667 191.307C82.2818 189.085 83.4918 186.46 83.2901 184.441C83.2901 183.835 82.6851 183.431 82.2818 183.633C81.6768 183.633 81.2734 184.239 81.4751 184.643C81.6767 187.268 78.0467 192.518 73.0049 194.74C68.5682 196.759 65.5431 192.518 65.5431 192.316C65.1398 191.912 64.5348 191.71 64.1314 192.114C63.7281 192.316 63.5264 193.124 63.9297 193.528C64.7364 194.74 66.5515 196.557 68.7698 197.163C67.7615 198.374 66.1481 200.394 65.3414 203.019C62.3164 202.413 60.2997 201.202 59.2913 199.384C57.4763 196.153 59.493 191.912 59.493 191.71C59.6947 191.105 59.493 190.701 59.0896 190.297C58.6863 190.095 58.0813 190.297 57.678 190.701C57.678 190.903 55.2579 195.951 57.4763 199.99C58.6863 202.413 61.308 204.029 64.9381 204.635C64.7364 206.452 64.9381 208.269 65.9465 210.289C66.3498 210.895 66.7531 211.702 66.9548 212.308C69.5765 217.559 71.3916 220.992 78.0467 223.011C79.055 223.415 80.2651 223.415 81.2734 223.415C82.6851 223.415 84.0968 223.011 85.3068 222.405C88.3319 220.588 89.3402 216.953 89.7436 215.337C90.1469 212.914 89.7436 210.289 89.3402 207.664C89.1386 206.25 88.9369 204.836 88.7352 203.423C88.5336 201.807 88.3319 197.769 85.7102 194.74C87.3235 193.326 88.7352 191.912 89.3402 189.893ZM86.1135 203.423C86.3152 205.038 86.5168 206.452 86.7185 207.866C87.1219 210.491 87.5252 212.914 87.1219 214.933C86.9202 216.145 86.1135 219.174 83.6935 220.588C82.2818 221.395 80.2651 221.597 78.0467 220.992C72.1982 219.376 70.7865 216.751 68.1648 211.299C67.7615 210.693 67.5598 209.885 67.1565 209.279C64.1314 203.625 70.3832 197.163 70.3832 197.163C70.3832 197.163 70.3832 196.961 70.5849 196.961C71.3916 196.961 72.3999 196.759 73.4083 196.355C75.425 195.547 77.24 194.134 78.8534 192.72C84.7018 194.336 85.7102 199.182 86.1135 203.423Z" fill="#34374C"/>
<path d="M111.121 62.2675C112.235 62.2675 113.137 61.3634 113.137 60.2481C113.137 59.1329 112.235 58.2288 111.121 58.2288C110.007 58.2288 109.104 59.1329 109.104 60.2481C109.104 61.3634 110.007 62.2675 111.121 62.2675Z" fill="#34374C"/>
<path d="M337.597 208.875C326.101 211.097 314.606 212.914 303.111 214.126C297.464 214.731 292.019 215.337 286.372 215.741C286.977 215.135 287.381 214.53 287.784 213.924L312.186 207.664L311.783 205.24H311.581L311.178 205.442C304.321 206.25 297.666 207.26 290.809 208.269C291.817 205.038 292.019 202.413 291.817 200.596C291.817 199.788 291.616 199.182 291.616 198.374L298.473 196.557H291.212C288.591 186.864 279.314 178.988 265.802 175.151C251.483 171.517 236.761 170.103 222.039 171.113C221.636 163.439 220.023 155.765 217.603 149.707C214.174 141.024 211.351 136.379 208.527 131.937C204.494 125.273 200.259 118.205 193.604 97.8089C193.402 97.203 193.201 96.5972 192.999 96.1934C194.612 96.3953 196.024 96.7992 197.436 97.203C200.662 98.4147 203.284 99.6263 205.704 100.838C208.729 102.252 210.947 103.463 212.763 103.463C213.569 103.463 214.174 103.261 214.578 102.857C214.779 102.655 214.981 102.252 215.183 101.848C215.586 98.2127 192.595 71.1529 185.134 62.2676C185.134 57.825 184.529 33.9962 170.008 17.6391C157.908 3.90729 131.893 -5.58383 107.289 3.70535C87.9284 10.9752 79.0549 32.3807 78.0465 35.2078C74.8198 39.6505 72.1981 44.497 70.9881 48.5358C69.3747 54.1901 68.3663 61.2579 71.3914 69.1335C70.7864 69.3355 70.383 69.5374 69.778 69.5374C69.173 69.7394 68.9714 70.3452 69.173 70.7491C69.3747 71.1529 69.778 71.3549 70.1814 71.3549C70.383 71.3549 70.3831 71.3549 70.5847 71.3549C71.1897 71.1529 71.7947 70.951 72.3998 70.7491C73.0048 72.1626 73.8115 73.5762 74.8198 75.1917C74.2148 75.5956 73.4081 75.9995 72.6014 76.4033C72.1981 76.6053 71.9964 77.2111 72.1981 77.8169C72.3998 78.2208 72.8031 78.2208 73.0048 78.2208C73.2064 78.2208 73.4081 78.2208 73.6098 78.0189C74.4165 77.615 75.2232 77.2111 75.8282 76.8072C76.4332 77.615 77.0382 78.6247 77.8449 79.4324C77.6432 79.6344 77.2399 79.8363 77.0382 80.0382C76.6348 80.4421 76.6348 81.0479 76.8365 81.4518C77.0382 81.6538 77.2399 81.8557 77.6432 81.8557C77.8449 81.8557 78.0465 81.8557 78.2482 81.6537C78.4499 81.4518 78.8532 81.2499 79.0549 80.846C80.0632 81.8557 81.0716 82.8654 82.08 84.077C83.895 85.8945 85.71 87.308 87.3234 88.9235L29.4439 83.8751C27.6289 83.8751 26.0155 84.6828 25.0072 85.8945C23.9988 87.308 23.5955 89.1255 24.2005 91.1449L47.9976 151.727C48.8043 155.159 52.031 157.785 55.4594 158.391C54.8544 159.198 54.4511 160.006 54.4511 161.016C54.4511 162.429 55.0561 163.439 56.0644 164.247C52.636 174.142 55.4594 183.431 56.2661 185.45C53.6444 188.883 52.2327 192.922 52.031 197.163C43.5609 199.182 34.889 201 26.4189 203.019C17.5453 205.038 8.67184 207.26 0 209.683L0.201671 210.289C9.27685 209.279 18.352 208.067 27.2255 206.856C35.6957 205.644 43.9642 204.231 52.4344 202.817C52.4344 203.221 52.636 203.625 52.636 204.029C47.9976 205.846 43.1575 207.866 38.3174 209.481C30.8556 211.904 23.1921 214.126 15.5286 215.741L16.3353 220.184C25.4105 219.376 34.284 217.962 43.1575 216.347C47.9976 215.539 52.8377 214.731 57.6778 213.722C61.5095 219.174 66.753 225.838 70.9881 228.059C73.0048 229.069 75.4248 229.675 77.8449 229.675C82.685 229.675 87.7267 227.857 91.3568 224.626L133.708 217.761C133.708 217.761 133.708 217.962 133.506 217.962C131.691 222.809 132.094 225.03 135.724 231.896C138.951 237.752 146.413 241.791 153.068 241.791C154.48 241.791 155.891 241.589 157.303 241.185C161.538 239.772 167.588 234.723 172.227 230.079C183.117 225.232 189.772 219.174 193.604 213.924H193.805H194.007C199.856 212.712 204.897 210.289 208.931 206.856C216.998 205.846 225.064 204.836 233.131 204.029C243.618 202.817 254.105 202.009 264.39 201.403C260.558 202.413 256.525 203.423 252.693 204.635C247.652 206.048 242.811 207.664 237.971 209.481C236.761 209.885 235.551 210.491 234.341 210.895C233.938 210.895 233.535 210.895 233.131 210.895C226.274 210.693 219.216 211.097 212.359 211.904C202.679 213.318 196.831 217.559 194.814 224.425C193.402 229.069 194.209 233.916 197.032 237.752C200.461 243.003 207.116 246.84 217.199 249.465C221.233 250.475 225.266 251.282 229.501 251.686H230.51C235.753 251.686 240.19 247.244 239.988 241.993C239.988 237.147 236.358 233.108 231.518 232.502C228.896 232.3 224.661 231.492 220.426 230.483C224.863 230.483 230.308 230.483 232.93 230.483C246.24 230.483 261.365 230.483 272.86 225.636C278.305 223.415 282.137 220.79 284.961 217.962C291.212 217.357 297.263 216.751 303.514 215.741C315.01 214.126 326.706 212.308 338 209.683L337.597 208.875ZM290.607 210.895L289.397 211.298C289.397 211.298 289.397 211.298 289.397 211.097C289.599 211.097 290.002 210.895 290.204 210.895C290.406 211.097 290.607 211.097 290.607 210.895ZM184.327 64.6909C197.637 80.4421 211.553 97.6069 212.763 101.04C211.553 101.242 209.132 100.03 206.309 98.8186C204.091 97.8089 201.267 96.3953 198.041 95.1837C196.226 94.5778 194.209 94.174 191.99 93.7701C188.965 86.5003 184.125 80.0382 179.084 76.8072C180.697 74.182 182.31 71.3549 183.319 68.5277C183.52 67.1142 183.924 65.9025 184.327 64.6909ZM107.692 5.5228C131.489 -3.56444 156.496 5.72474 168.193 18.8508C180.697 33.1884 182.512 53.9881 182.714 60.6521C175.655 54.5939 148.026 32.3807 118.179 29.5535C112.734 28.9477 107.894 28.7458 103.86 28.7458C102.247 28.7458 100.835 28.7458 99.4236 28.7458C98.6169 28.7458 96.1969 28.5438 95.3902 27.5341C94.9869 27.1303 94.9869 26.7264 94.9869 25.9186C95.3902 23.4954 98.6169 23.0915 98.6169 23.0915C99.6253 22.8895 100.634 22.8895 101.642 22.8895C101.844 22.8895 102.045 22.8895 102.045 22.8895C116.767 21.8798 129.473 25.3128 129.674 25.5147C130.078 25.7167 130.683 25.5147 130.884 24.9089C131.086 24.707 133.909 18.6488 131.489 14.0042C130.078 11.379 127.254 9.56158 123.019 8.95576C116.566 8.14801 111.121 11.1771 107.692 13.8023C104.667 16.2256 102.045 19.0527 101.239 20.8702C100.432 20.8702 99.4236 21.0721 98.6169 21.0721C98.4153 21.0721 93.7768 21.6779 93.1718 25.5147C92.9702 26.7264 93.3735 27.7361 93.9785 28.7458C93.9785 28.9477 94.1802 28.9477 94.3819 28.9477C87.9284 29.7555 83.895 30.9671 81.4749 32.1787C84.2983 25.9186 92.9702 11.1771 107.692 5.5228ZM103.457 21.0721C105.877 17.6391 113.541 9.96546 122.414 11.379C126.044 11.7829 128.263 13.1965 129.473 15.2159C131.086 18.245 129.876 21.8798 129.271 23.4954C126.649 22.8895 117.977 20.8702 107.49 20.8702C106.28 20.8702 104.869 20.8702 103.457 21.0721ZM74.0131 70.3452C80.4666 68.7297 85.5084 68.1238 88.7351 68.3258C88.5334 68.7297 88.3317 69.3355 88.1301 69.7394C85.105 70.3452 81.2733 71.7588 76.2315 74.384C75.4248 72.9704 74.6181 71.7588 74.0131 70.3452ZM77.4415 75.9995C81.8783 73.7781 85.3067 72.5665 87.9284 71.9607C87.9284 72.5665 88.1301 72.9704 88.3317 73.5762C85.71 74.5859 82.4833 76.2014 79.2566 78.4227C78.6516 77.615 78.0465 76.8072 77.4415 75.9995ZM83.4916 82.8654C82.4833 81.8557 81.4749 80.846 80.6683 79.8363C83.895 77.615 86.92 76.2014 89.5418 75.1917C91.5585 77.2111 93.9785 77.615 96.1969 77.413C95.7936 78.4227 95.7936 79.6344 96.1969 80.6441C97.4069 83.6731 100.634 84.279 103.255 84.279C104.869 84.279 106.079 84.077 106.28 84.077C106.885 83.8751 107.087 83.4712 107.087 82.8654C106.885 82.2596 106.482 82.0576 105.877 82.0576C105.877 82.0576 99.4236 83.2693 98.2136 79.8363C97.8103 78.8266 98.2136 77.413 99.0203 76.8072C99.4236 76.8072 99.6253 76.6053 99.827 76.6053C100.634 78.0189 103.255 80.6441 109.709 80.6441C112.129 80.6441 113.944 80.2402 115.356 79.4324C118.986 81.4518 123.221 84.6828 126.447 89.9332C126.649 90.3371 127.053 90.3371 127.254 90.3371C127.456 90.3371 127.658 90.3371 127.859 90.1352C128.263 89.9332 128.464 89.1255 128.263 88.7216C125.036 83.6731 121.002 80.2402 117.372 78.2208C118.179 77.615 118.986 76.8072 119.389 76.2014C123.624 77.8169 128.061 80.2402 131.691 84.279C132.094 84.6828 132.296 84.6828 132.699 84.6828C132.901 84.6828 133.103 84.6828 133.304 84.4809C133.708 84.077 133.708 83.4712 133.304 83.0673C129.473 78.8266 124.834 76.2014 120.599 74.5859C121.002 73.9801 121.002 73.5762 121.002 73.3743C121.204 72.7684 120.801 72.3646 120.196 72.1626C119.591 71.9607 119.187 72.3646 118.986 72.9704C118.986 72.9704 118.784 73.3743 118.582 73.9801C113.137 72.1626 108.7 71.9607 108.297 71.9607C107.692 71.9607 107.289 72.3646 107.289 72.9704C107.289 73.5762 107.692 73.9801 108.297 73.9801C108.297 73.9801 112.331 74.182 117.372 75.7975C116.767 76.4033 116.162 77.0092 115.356 77.413C111.121 75.1917 107.692 74.7878 107.289 74.5859C106.684 74.5859 106.28 74.9898 106.079 75.3936C106.079 75.9995 106.482 76.4033 106.885 76.6053C106.885 76.6053 109.305 77.0092 112.532 78.4227C111.524 78.6247 110.516 78.8266 109.305 78.8266C102.045 78.8266 101.037 75.3936 101.037 75.3936C101.037 75.3936 101.037 75.3936 101.037 75.1917C100.835 74.7878 101.037 74.384 101.239 73.9801H101.44C103.659 73.3743 106.28 69.3355 106.885 68.7297C107.087 68.5277 107.087 68.1239 107.087 67.9219C107.087 67.72 106.684 67.3161 106.482 67.3161C106.28 67.3161 102.045 65.9025 98.8186 66.5083C99.222 65.2967 100.029 64.287 101.037 63.4793C102.449 63.2773 103.659 62.6715 104.869 61.8637C107.289 65.4986 111.524 67.9219 116.162 68.1238H116.364C119.994 68.1238 123.221 66.7103 125.842 64.287C128.464 61.8637 130.078 58.4308 130.078 54.7959C130.078 53.7862 130.078 52.7765 129.876 51.9687C128.666 45.9106 123.221 41.266 116.566 41.064C112.936 41.064 109.507 42.4776 107.087 44.6989C104.869 42.2757 101.844 40.8621 98.6169 40.8621C95.5919 40.8621 92.5668 41.8718 90.5501 44.0931C89.3401 45.3048 88.5334 46.5164 87.9284 47.93C87.3234 49.1416 87.1217 50.5552 87.1217 51.9687C87.1217 54.9978 88.1301 58.0269 90.3484 60.0463C92.3652 62.2676 95.1885 63.4793 98.2136 63.4793C97.4069 64.6909 96.6002 66.1045 96.3986 67.72C96.3986 67.9219 96.3986 68.1238 96.3986 68.3258C96.8019 69.5374 98.0119 72.3646 99.4236 73.5762C99.222 73.9801 99.222 74.5859 99.222 75.1917C97.6086 75.7975 94.1802 76.6053 91.7601 74.9898C93.5752 74.3839 94.7852 74.182 94.7852 74.182C95.3902 74.182 95.7935 73.5762 95.5919 72.9704C95.3902 72.3646 94.9869 71.9607 94.3819 72.1626C94.1802 72.1626 92.5668 72.5665 90.1468 73.1723C89.9451 72.7684 89.7434 72.1626 89.7434 71.7587C92.5668 71.3549 93.9785 71.5568 94.1802 71.5568C94.7852 71.7588 95.1885 71.3549 95.3902 70.7491C95.5919 70.1432 95.1885 69.7394 94.5835 69.5374C94.3819 69.5374 92.9702 69.3355 90.3484 69.7394C90.5501 69.3355 90.7518 68.9316 90.9535 68.7297C92.9702 68.9316 93.9785 69.1335 93.9785 69.1335C94.5835 69.3355 94.9869 68.9316 95.1885 68.5277C95.3902 67.9219 94.9869 67.518 94.5835 67.3161C94.1802 67.3161 86.9201 65.0948 73.0048 68.9316C69.9797 61.4599 70.9881 54.9978 72.6014 49.3435C73.6098 45.7086 76.0298 41.064 79.0549 36.8233C79.2566 36.8233 79.2566 36.6214 79.2566 36.6214C79.2566 36.6214 84.9033 28.7458 117.776 31.9768C149.035 34.8039 178.277 60.0463 182.31 63.4793C182.109 65.0948 181.705 66.5083 181.1 68.1238C175.453 83.8751 157.303 98.0108 137.943 101.848L137.136 99.8282C136.329 95.7895 132.296 92.7604 128.666 92.7604L90.5501 89.3274C90.5501 89.1255 90.3484 89.1255 90.3484 88.9235C88.1301 87.1061 85.9117 85.0867 83.4916 82.8654ZM105.474 50.1513C106.079 48.7377 106.684 47.5261 107.692 46.5164C109.91 44.0931 113.137 42.6796 116.566 42.6796C121.809 42.6796 126.246 46.3144 127.658 51.161C116.767 53.9881 108.095 51.161 105.474 50.1513ZM128.061 52.9784C128.061 53.3823 128.061 53.7862 128.061 54.1901C128.061 57.2191 126.649 60.0463 124.431 62.2676C122.212 64.4889 119.187 65.4986 116.162 65.4986C111.726 65.4986 107.894 63.0754 106.079 59.4405C106.079 59.4405 106.079 59.2385 105.877 59.2385C105.07 57.623 104.667 55.8056 104.667 53.7862C104.667 53.1804 104.667 52.5746 104.869 51.9687C106.885 52.7765 111.524 54.1901 117.776 54.1901C120.801 54.392 124.431 53.9881 128.061 52.9784ZM103.457 49.7474C95.5919 49.5455 91.7601 48.1319 90.1468 47.3241C90.5501 46.5164 91.1551 45.7086 91.9618 44.9009C93.7768 43.0834 96.1969 42.2757 98.6169 42.2757C101.44 42.2757 103.86 43.4873 105.675 45.5067C104.667 46.9203 104.062 48.1319 103.457 49.7474ZM102.852 51.7668C102.65 52.3726 102.65 53.1804 102.65 53.9881C102.65 56.0075 103.054 58.0269 103.86 59.6424C102.247 60.6521 100.23 61.4599 98.2136 61.2579C92.9702 61.2579 88.9368 56.8153 88.9368 51.5649C88.9368 50.7571 89.1384 49.9493 89.3401 49.1416C91.1551 50.1513 95.3902 51.5649 102.852 51.7668ZM98.6169 68.1238C100.432 67.72 102.852 67.9219 104.465 68.3258C103.255 69.7394 101.844 71.3549 101.037 71.7587C100.634 71.9607 99.4236 70.3452 98.6169 68.1238ZM173.235 84.279C166.378 94.9817 155.891 102.05 139.959 106.29L138.749 103.463C152.261 100.636 164.563 93.5681 173.235 84.279ZM49.8126 150.919L26.0155 90.741C25.6122 89.3274 25.8138 88.1158 26.6205 87.308C27.2255 86.5003 28.2339 86.0964 29.4439 86.0964L128.666 94.7798C131.489 94.7798 134.514 97.203 135.321 100.232L159.118 160.41C159.521 161.823 159.32 163.035 158.513 163.843C157.908 164.651 156.9 165.055 155.69 165.055L56.4678 156.371C53.6444 156.371 50.6193 153.948 49.8126 150.919ZM160.126 165.055L187.15 150.717C188.36 150.111 189.772 150.515 190.377 151.727C190.579 152.332 190.78 152.938 190.579 153.544C190.377 154.15 189.974 154.554 189.369 154.958L161.135 169.901C161.135 169.901 161.135 169.901 161.135 169.699C161.135 168.084 160.328 166.67 159.118 166.064C159.521 165.66 159.925 165.458 160.126 165.055ZM159.723 156.775C164.765 155.159 170.21 152.332 174.848 149.101H175.05L183.924 149.707L160.933 161.823C160.933 161.016 160.933 160.208 160.732 159.4L159.723 156.775ZM85.9117 174.344C76.6348 169.901 64.3329 175.555 57.4761 183.633C56.6695 180.402 55.0561 172.93 57.6778 165.256C58.0811 165.256 58.2828 165.458 58.6862 165.458L144.598 173.132C139.959 177.575 135.523 184.441 134.716 195.143C131.288 195.547 128.061 196.153 124.632 196.759C116.566 195.345 105.272 194.74 94.9869 199.788C94.7852 198.576 94.5835 197.365 94.3819 196.153C94.7852 194.336 95.1885 178.584 85.9117 174.344ZM58.6862 163.439C57.4761 163.439 56.2661 162.429 56.2661 161.016C56.2661 159.602 57.2745 158.592 58.4845 158.592L156.9 167.276C158.11 167.276 159.32 168.286 159.32 169.699C159.32 170.305 159.118 170.911 158.715 171.315C158.311 171.718 157.706 172.122 157.101 172.122L147.421 171.315L58.6862 163.439ZM42.3508 211.298C40.1325 211.702 37.9141 212.106 35.6957 212.51C36.7041 212.106 37.9141 211.702 38.9224 211.298C43.5609 209.481 48.1993 207.664 52.8377 206.048V206.25C53.0394 206.856 53.6444 207.866 54.4511 209.279L42.3508 211.298ZM91.3568 221.193C87.1217 226.646 77.4415 229.069 71.5931 226.242C65.543 223.011 55.8628 208.471 54.8544 205.644C52.4344 199.182 53.6444 191.912 58.0811 186.46C62.7196 180.2 71.3914 175.151 79.0549 175.151C81.2733 175.151 83.4916 175.555 85.3067 176.565C93.5752 180.402 92.7685 196.153 92.7685 196.355V196.557C93.3735 201.202 94.1802 205.846 95.3902 210.289C96.1969 213.722 95.7936 215.337 91.3568 221.193ZM117.574 197.769C110.314 198.98 103.054 200.192 95.7936 201.605C102.852 197.971 110.717 197.163 117.574 197.769ZM97.0036 215.943C97.8103 213.722 97.8103 211.904 97.2053 209.077C97.0036 208.269 96.8019 207.26 96.6002 206.452C105.272 204.836 113.944 203.423 122.616 202.009C126.044 201.403 129.473 201 132.901 200.394C133.909 200.798 134.514 201 134.514 201H134.716C134.716 202.615 134.918 204.433 135.321 206.048C129.674 207.26 124.027 208.673 118.381 209.885C111.322 211.904 104.062 213.722 97.0036 215.943ZM132.296 212.712L127.053 213.52C129.876 212.914 132.699 212.308 135.523 211.702C135.523 211.904 135.321 212.106 135.321 212.308C134.313 212.308 133.304 212.51 132.296 212.712ZM156.295 239.166C149.841 241.185 140.564 237.147 137.136 230.685C133.506 224.021 133.506 222.405 135.119 218.366C135.523 217.155 136.128 215.741 136.733 214.53C138.144 211.298 139.556 207.664 140.161 204.836C140.161 204.635 142.178 188.681 151.253 186.258C152.463 185.854 153.673 185.854 155.085 185.854C163.757 185.854 173.033 193.124 177.067 201.202C180.495 207.462 180.495 214.933 176.865 221.193C175.05 223.819 162.95 237.147 156.295 239.166ZM194.814 211.298C198.041 206.048 198.847 202.211 198.847 201.807C198.847 201.202 198.646 200.798 198.041 200.596C197.436 200.596 197.032 200.798 196.831 201.403C196.831 201.605 194.209 215.337 175.655 225.636C177.067 224.021 178.075 222.809 178.479 222.203C182.31 215.337 182.31 207.058 178.68 200.192C173.638 190.297 161.538 181.412 150.648 184.441C140.363 187.268 138.346 203.625 138.144 204.836C137.943 205.442 137.943 206.25 137.539 206.856C135.119 192.114 138.548 180.604 147.421 173.334L156.9 174.142C158.11 174.142 159.32 173.536 160.126 172.728L190.579 156.573C191.587 155.967 192.394 155.16 192.595 153.948C192.797 152.736 192.797 151.727 192.192 150.515C191.587 149.303 190.579 148.697 189.369 148.294C189.167 148.294 189.167 148.092 188.965 148.092L177.672 147.284C178.882 146.476 180.092 145.668 181.1 144.861C181.504 144.457 181.705 143.851 181.302 143.447C180.899 143.043 180.294 142.841 179.89 143.245C174.647 147.486 166.378 152.534 159.32 154.756L147.421 124.465C157.908 117.599 165.168 106.896 165.37 106.29C165.773 105.886 165.572 105.281 165.168 104.877C164.765 104.473 164.16 104.675 163.757 105.079C163.757 105.281 156.496 115.781 146.615 122.445L140.766 108.108C159.925 102.857 171.823 93.7701 178.479 78.8266C183.722 82.4615 188.965 90.3371 191.587 98.2127C198.242 118.811 202.679 125.878 206.712 132.744C209.536 137.389 212.158 141.832 215.586 150.313C220.628 162.833 222.241 181.613 214.981 195.547C210.544 203.625 203.889 208.875 194.814 211.298ZM232.123 199.182C225.871 199.788 219.619 200.596 213.569 201.202C214.578 199.788 215.586 198.374 216.594 196.557C220.829 195.951 226.073 195.143 230.308 194.538L252.29 191.71C255.113 192.114 257.937 192.72 260.558 193.528C263.584 194.336 266.205 195.345 268.02 196.557C256.122 197.163 244.223 197.971 232.123 199.182ZM253.298 208.067C259.348 206.452 265.197 204.836 271.247 203.423C270.642 204.635 268.827 206.048 265.197 207.664C259.953 209.885 252.693 210.491 245.03 210.895C247.652 209.683 250.475 208.875 253.298 208.067ZM271.852 223.415C260.76 228.059 245.837 228.059 232.728 228.059C228.493 228.059 219.619 228.059 215.183 228.261C214.981 228.261 214.779 228.261 214.779 228.463C212.964 227.857 211.553 227.05 210.544 226.444C210.141 226.04 209.536 226.242 209.132 226.646C208.729 227.05 208.931 227.656 209.334 228.059C213.973 231.492 226.073 233.714 231.115 234.32C234.946 234.723 237.77 237.954 237.77 241.791C237.77 246.032 234.341 249.465 230.308 249.465H229.501C225.468 249.061 221.434 248.253 217.603 247.244C207.922 244.618 201.671 241.185 198.646 236.339C196.226 232.906 195.621 228.665 196.831 224.626C198.444 218.568 203.889 214.933 212.763 213.52C219.418 212.712 226.476 212.51 233.131 212.712C244.828 212.712 258.138 212.712 266.407 209.279C271.852 207.058 274.272 204.635 274.272 201.403C274.272 198.98 272.659 194.538 261.567 191.508C244.828 187.066 225.871 187.672 220.224 188.076C221.636 183.027 222.241 177.777 222.241 172.728C236.761 171.718 251.282 173.132 265.6 176.767C280.121 180.604 289.599 189.691 290.204 200.192C290.002 205.038 288.994 216.347 271.852 223.415Z" fill="#34374C"/>
<path d="M100.029 33.3904C94.18 34.1981 90.1466 36.8233 89.945 36.8233C89.5416 37.2272 89.34 37.833 89.7433 38.2369C89.945 38.4389 90.3483 38.6408 90.55 38.6408C90.7516 38.6408 90.9533 38.6408 91.155 38.4389C91.155 38.4389 94.7851 36.0156 100.23 35.2078C100.835 35.2078 101.239 34.602 101.037 33.9962C101.037 33.7943 100.432 33.3904 100.029 33.3904Z" fill="#34374C"/>
<path d="M97.0035 60.2482C98.1173 60.2482 99.0202 59.3441 99.0202 58.2289C99.0202 57.1136 98.1173 56.2095 97.0035 56.2095C95.8897 56.2095 94.9868 57.1136 94.9868 58.2289C94.9868 59.3441 95.8897 60.2482 97.0035 60.2482Z" fill="#34374C"/>
<path d="M116.364 33.9961C115.759 33.9961 115.356 34.4 115.154 34.8038C115.154 35.4097 115.558 35.8135 115.961 36.0155C122.414 36.8232 127.658 41.4678 127.86 41.4678C128.061 41.6698 128.263 41.6698 128.465 41.6698C128.666 41.6698 129.07 41.4678 129.271 41.2659C129.675 40.862 129.675 40.2562 129.271 39.8523C129.07 39.6504 123.423 34.8038 116.364 33.9961Z" fill="#34374C"/>
<path d="M131.086 73.5763C120.195 66.7104 108.7 69.1337 108.297 69.1337C107.692 69.3356 107.49 69.7395 107.49 70.3453C107.692 70.9511 108.095 71.1531 108.7 71.1531C108.902 71.1531 119.59 68.7298 129.876 75.1918C130.077 75.3938 130.279 75.3938 130.481 75.3938C130.884 75.3938 131.086 75.1918 131.287 74.9899C131.691 74.586 131.691 73.9802 131.086 73.5763Z" fill="#34374C"/>
<path d="M76.8366 130.119C77.4416 131.735 78.8533 133.148 80.6683 133.956L87.9285 136.783C88.7351 136.985 89.3402 137.187 90.1468 137.187C91.1552 137.187 92.1635 136.783 92.9702 136.177L97.8103 132.341C99.222 131.331 99.6254 129.513 98.8187 127.696L96.197 121.032C95.5919 119.416 94.1802 118.003 92.3652 117.195L85.1051 114.368C83.29 113.56 81.2733 113.762 80.0633 114.974L75.2232 118.811C73.8115 119.82 73.4082 121.638 74.2149 123.455L76.8366 130.119ZM76.6349 120.224L81.475 116.387C81.8783 115.983 82.4834 115.983 83.0884 115.983C83.4917 115.983 84.0967 115.983 84.5001 116.185L91.7602 119.013C92.9702 119.416 93.9786 120.426 94.5836 121.638L97.2053 128.302C97.6087 129.311 97.407 130.321 96.802 130.725L91.9619 134.562C91.1552 135.168 90.1468 135.168 88.9368 134.764L81.6767 131.937C80.4666 131.533 79.4583 130.523 78.8533 129.311L76.2316 122.647C75.8282 121.638 75.8282 120.83 76.6349 120.224Z" fill="#34374C"/>
<path d="M65.1401 72.5666L19.9658 68.5278C19.3608 68.5278 18.5542 67.922 18.3525 67.1142C18.1508 66.5084 18.3525 65.9026 18.9575 65.9026L64.1317 69.9414C64.7367 69.9414 65.5434 70.5472 65.7451 71.3549C66.1484 72.1627 65.9468 72.7685 65.1401 72.5666Z" fill="#00D5C1"/>
<path d="M94.5839 86.5004L50.0147 82.2597C49.4097 82.2597 48.603 81.6539 48.4013 80.8462C48.1996 80.2403 48.4013 79.6345 49.0063 79.6345L93.5755 83.8752C94.1805 83.8752 94.9872 84.4811 95.1889 85.2888C95.5923 86.0966 95.1889 86.5004 94.5839 86.5004Z" fill="#FFAB07"/>
<path d="M45.1744 81.6538L24.604 79.8364C23.999 79.8364 23.1923 79.2306 22.9907 78.4228C22.789 77.817 22.9907 77.2112 23.5957 77.2112L44.1661 79.0286C44.7711 79.0286 45.5778 79.6345 45.7794 80.4422C45.9811 81.25 45.7794 81.8558 45.1744 81.6538Z" fill="#C34491"/>
<path d="M86.1135 80.0383L35.2925 75.3938C34.6875 75.3938 33.8808 74.7879 33.6791 73.9802C33.4775 73.3744 33.6791 72.7686 34.2842 72.7686L85.1052 77.4131C85.7102 77.4131 86.5169 78.019 86.7185 78.8267C87.1219 79.4325 86.7185 80.0383 86.1135 80.0383Z" fill="#FF2666"/>
<path d="M30.8559 74.9898L22.3858 74.1821C21.7808 74.1821 20.9741 73.5763 20.7724 72.7685C20.5707 72.1627 20.7724 71.5569 21.3774 71.5569L29.8476 72.5666C30.4526 72.5666 31.2593 73.1724 31.4609 73.9802C31.6626 74.586 31.4609 74.9898 30.8559 74.9898Z" fill="#FFAB07"/>
<path d="M29.233 63.5287C29.6143 63.1223 29.397 62.2976 28.7476 61.6867C28.0982 61.0758 27.2626 60.91 26.8813 61.3164C26.5 61.7228 26.7173 62.5475 27.3667 63.1584C28.0161 63.7693 28.8517 63.9351 29.233 63.5287Z" fill="#454AFD"/>
<path d="M23.7716 62.9598C24.1529 62.5534 23.9355 61.7287 23.2862 61.1178C22.6368 60.5069 21.8012 60.3411 21.4199 60.7475C21.0386 61.1539 21.2559 61.9786 21.9053 62.5895C22.5547 63.2004 23.3902 63.3662 23.7716 62.9598Z" fill="#454AFD"/>
<path d="M18.3106 62.391C18.6919 61.9846 18.4746 61.1599 17.8252 60.549C17.1758 59.9381 16.3403 59.7723 15.959 60.1787C15.5777 60.5851 15.795 61.4098 16.4444 62.0207C17.0938 62.6316 17.9293 62.7974 18.3106 62.391Z" fill="#454AFD"/>
<path d="M37.5108 64.2871C37.3091 64.2871 37.1074 64.2871 36.9057 64.0852L30.654 58.8348C30.2506 58.4309 30.2506 58.027 30.4523 57.6231L32.6707 53.9882C32.8723 53.5843 33.4774 53.3824 34.0824 53.5843C34.4857 53.7863 34.6874 54.594 34.4857 54.9979L32.6707 58.027L38.3174 62.8735C38.7208 63.2774 38.7208 63.8832 38.5191 64.2871C38.1158 64.0852 37.9141 64.2871 37.5108 64.2871Z" fill="#454AFD"/>
<path d="M45.5777 65.4987C45.1744 65.4987 44.9727 65.2968 44.771 65.0948L37.1076 54.1901C36.7042 53.7862 36.9059 53.1804 37.3092 52.7765C37.7126 52.3727 38.3176 52.5746 38.7209 52.9785L46.3844 63.8832C46.7877 64.2871 46.5861 64.8929 46.1827 65.2968C45.9811 65.4987 45.7794 65.4987 45.5777 65.4987Z" fill="#454AFD"/>
<path d="M49.6112 65.2966C49.4096 65.2966 49.2079 65.2966 49.0062 65.0947C48.6029 64.8928 48.4012 64.085 48.6029 63.6811L50.4179 60.6521L44.7712 55.8055C44.3678 55.4017 44.3678 54.7958 44.5695 54.392C44.9728 53.9881 45.5778 53.9881 45.9812 54.19L52.4346 59.4404C52.838 59.8443 52.838 60.2482 52.6363 60.6521L50.2163 64.4889C50.2163 65.0947 50.0146 65.2966 49.6112 65.2966Z" fill="#454AFD"/>
<defs>
<linearGradient id="paint0_linear" x1="82.6168" y1="115.145" x2="84.5166" y2="136.831" gradientUnits="userSpaceOnUse">
<stop stop-color="#F48F41"/>
<stop offset="1" stop-color="#F05E2D"/>
</linearGradient>
</defs>
</svg>
