<svg width="338" height="269" viewBox="0 0 338 269" fill="none" xmlns="http://www.w3.org/2000/svg">
<path d="M335.24 155.983C329.395 139.691 320.184 134.733 311.434 124.284C300.736 111.499 293.509 102.219 296.307 85.8206C300.842 58.9739 302.79 -7.96588 231.726 0.782331C206.255 3.93452 186.133 23.4498 171.467 42.9296C158.997 59.5051 136.608 60.9573 118.541 64.8178C96.3647 69.5638 73.7985 76.7536 53.287 87.2373C11.0596 108.878 -1.55197 139.975 0.148459 179.784C0.679845 191.826 2.38028 210.775 22.6792 232.911C50.0987 262.839 89.9526 266.841 137.954 253.099C148.936 249.947 159.316 245.024 170.121 241.305C181.351 237.444 193.006 234.894 204.838 233.761C232.399 231.105 260.952 235.921 287.38 227.705C301.373 223.348 314.197 215.415 324.294 204.825C336.941 191.614 341.44 173.161 335.24 155.983Z" fill="#FF4954" fill-opacity="0.1"/>
<path d="M326.948 220.926C317.936 220.926 308.887 221.126 299.856 221.818C297.598 221.982 295.322 222.182 293.046 222.401C296.915 221.211 300.688 219.732 304.335 217.976L311.964 214.335L303.77 212.223C300.186 211.339 296.53 210.778 292.846 210.548C289.204 210.293 285.672 210.184 282.104 210.184C274.966 210.184 267.884 210.584 260.801 211.294C253.719 212.004 246.8 213.206 239.826 214.153L227.773 215.974C233.06 214.839 238.233 213.23 243.231 211.167L257.487 205.158L241.975 204.339C229.254 203.775 216.51 204.171 203.849 205.523C191.213 206.742 178.741 208.727 166.342 210.73L158.804 211.968L169.164 210.147C173.461 209.346 177.776 208.472 182.091 207.398C186.564 206.37 190.92 204.887 195.091 202.974L211.987 194.78L193.252 196.71C179.961 198.076 166.742 199.933 153.578 202.045C140.415 204.157 127.36 206.506 114.232 209C101.105 211.495 88.2143 215.191 75.3417 218.104C66.6409 220.137 57.8244 221.639 48.9412 222.601L50.8529 221.818C55.4412 219.997 60.2115 218.559 65.0182 217.157C74.5952 214.353 84.4818 211.913 94.1499 209.237C103.818 206.56 113.723 204.612 123.591 202.209C133.562 199.9 143.368 196.925 152.941 193.305L166.943 187.843L151.976 188.499C140.106 189.081 128.291 190.492 116.618 192.723C104.965 194.853 93.4944 197.748 82.1331 200.734C70.7717 203.72 59.4468 206.706 48.0126 209.109C42.3077 210.323 36.5724 211.397 30.8067 212.332C38.4295 209.977 46.0948 207.726 53.8025 205.577C67.1667 201.845 80.549 197.948 93.6036 193.087L93.0756 191.357C86.7031 192.978 80.3305 194.416 73.8123 195.49C67.2941 196.565 60.7759 197.311 54.2395 198.276C47.7031 199.241 41.2031 200.461 34.7577 201.917C28.3123 203.374 22.0126 204.976 15.549 206.651C21.958 205.14 28.3852 203.647 34.8669 202.427C41.3487 201.207 47.8305 200.133 54.3669 199.332C60.9034 198.531 67.4762 197.912 74.0308 196.947L77.3992 196.419C69.3697 198.822 61.2675 201.007 53.1289 203.119C39.6919 206.615 26.2731 210.311 13.0728 214.644L0 218.923L13.7101 217.922C25.509 217.029 37.2359 215.357 48.8137 212.915C60.3936 210.548 71.8095 207.598 83.1709 204.721C94.5322 201.845 105.93 199.114 117.419 197.129C121.206 196.455 125.011 195.909 128.798 195.417C126.668 195.945 124.52 196.474 122.353 196.965C112.557 199.241 102.653 201.262 92.7661 203.738C82.8796 206.214 73.2115 208.636 63.3613 211.422C58.4636 212.805 53.5658 214.298 48.7955 216.101C46.3739 217.011 43.9524 217.922 41.5126 219.178C38.896 220.378 36.4916 221.995 34.3936 223.967L29.3501 228.974L36.4146 229.137C50.1611 229.374 63.5252 226.898 76.5798 224.058L79.7297 223.329L68.0952 226.971L92.1653 226.625C117.655 226.261 142.654 221.745 167.38 217.812C179.742 215.828 192.105 213.989 204.45 212.714L207.727 212.405C201.118 213.406 194.472 214.226 187.79 215.227C178.686 216.52 169.583 217.849 160.588 219.906C155.984 220.929 151.453 222.255 147.024 223.875C142.326 225.524 137.956 227.99 134.115 231.158L125.758 238.441L136.682 237.13C150.683 235.455 164.594 233.27 178.431 230.922C192.269 228.573 206.052 225.988 219.853 223.803L240.591 220.616C247.51 219.633 254.501 218.431 261.275 217.721C268.048 217.011 275.057 216.629 281.94 216.574C284.762 216.574 287.602 216.574 290.424 216.775C287.62 217.649 284.78 218.431 281.885 219.087C275.076 220.653 268.084 221.818 261.056 222.983C247.018 225.314 232.598 227.663 218.924 233.107L198.496 241.209L220.345 238.496C229.303 237.391 238.224 236.105 247.109 234.636L273.655 230.066C282.468 228.573 291.298 227.335 300.165 226.57C304.007 226.242 307.849 226.006 311.709 225.805L309.997 226.224C304.535 227.535 298.818 228.591 293.174 229.72C287.529 230.849 281.849 232.032 276.314 233.726C270.707 235.237 265.45 237.828 260.838 241.354C265.692 238.316 271.06 236.187 276.678 235.073C282.231 233.78 287.894 232.979 293.574 232.214C299.255 231.45 304.99 230.776 310.707 229.793C316.521 228.844 322.224 227.313 327.731 225.223L338 221.108L326.948 220.926ZM177.485 224.221C171.986 225.144 166.524 226.024 161.098 226.861L162.263 226.57C170.966 224.622 179.924 223.329 188.919 222.091L194.836 221.29C188.973 222.273 183.22 223.275 177.485 224.221Z" fill="#34374C"/>
<path d="M297.798 214.444C297.179 202.136 280.866 194.653 280.866 194.653C280.866 194.653 270.979 189.518 253.791 187.898C244.839 186.905 235.819 186.667 226.826 187.188C226.826 187.188 225.679 178.794 224.387 172.421C223.029 167.187 221.125 162.109 218.706 157.273C218.706 157.273 208.346 139.375 206.343 134.532C204.34 129.689 198.259 113.667 198.259 113.667C198.259 113.667 193.707 101.65 188.773 95.6778C186.752 92.6736 183.821 91.9089 182.601 90.2156C179.961 102.141 157.712 119.893 141.434 120.84C138.697 121.524 135.88 121.836 133.059 121.769C109.972 120.786 102.234 116.58 94.8236 106.511C93.2396 107.403 85.4833 117.435 84.7368 118.874C83.7354 120.877 76.7074 132.074 75.1052 141.542C73.2844 152.921 76.0883 155.252 76.7074 161.879C75.4821 162.301 74.2995 162.837 73.1752 163.482L66.22 168.379C66.22 168.379 58.2816 176.172 57.5533 184.274C57.2203 189.936 57.6737 195.616 58.9007 201.153L57.0799 203.975C55.2289 207.619 54.2621 211.649 54.2578 215.737C54.2578 222.473 61.5407 231.632 61.5407 231.632C61.5407 231.632 66.8026 238.168 70.79 242.01C74.7774 245.851 81.0043 245.76 86.1752 243.83C91.3461 241.9 92.5841 240.189 96.5169 235.601C100.45 231.013 99.3026 227.954 99.3026 227.954L96.9903 217.029L107.423 213.26C112.641 212.705 117.891 212.511 123.136 212.678C128.471 212.808 133.727 214.002 138.594 216.192L139.577 219.087L140.67 226.151L138.849 231.613C137.947 233.987 137.211 236.421 136.646 238.896C136.263 241.354 139.905 248 139.905 248C139.905 248 144.384 255.028 151.248 256.758C158.112 258.487 162.172 257.231 165.814 254.281C169.455 251.332 175.591 245.524 175.591 245.524C175.591 245.524 178.723 244.049 179.233 243.703C179.742 243.357 184.221 240.826 189.228 237.239C192.414 234.89 195.189 232.029 197.44 228.773C197.44 228.773 209.948 225.641 216.121 218.959C219.828 214.915 222.671 210.157 224.478 204.976L241.192 204.576L254.793 205.814C254.793 205.814 270.961 207.999 276.405 212.223C281.849 216.447 280.501 220.744 274.894 223.147C269.286 225.55 259.927 227.863 245.361 227.844C234.733 227.594 224.102 228.203 213.572 229.665C210.367 230.213 207.391 231.682 205.008 233.894C202.625 236.106 200.938 238.964 200.153 242.119C199.715 244.872 199.987 247.692 200.943 250.311C201.898 252.93 203.507 255.261 205.615 257.085C210.859 262.238 222.639 265.115 222.639 265.115C222.639 265.115 231.597 268.356 237.205 267.427C238.455 267.304 239.662 266.905 240.739 266.259C241.816 265.612 242.736 264.735 243.433 263.69C244.13 262.644 244.586 261.458 244.768 260.215C244.951 258.972 244.855 257.704 244.488 256.503C242.922 251.441 238.679 250.367 232.707 249.365C228.877 248.709 225.094 247.803 221.382 246.653L226.517 245.597C226.517 245.597 247.892 245.597 260.983 244.886C270.491 244.416 279.698 241.397 287.639 236.147C293.465 232.633 298.417 226.752 297.798 214.444Z" fill="#F39200"/>
<path d="M141.907 25.2156C141.907 25.2156 167.98 44.2968 168.272 70.4971C168.563 96.6974 152.122 111.099 146.987 114.431C146.987 114.431 160.406 109.716 165.941 106.092C171.716 102.082 176.9 97.2835 181.344 91.836C184.986 87.2478 190.084 79.0909 188.427 64.7982" fill="#757073"/>
<path d="M174.79 99.1372C178.195 95.1498 181.508 92.9103 184.367 88.5041C186.861 84.6806 186.934 82.7324 188.008 78.2898C191.049 65.6722 186.57 53.8192 178.777 44.6428C175.223 40.8331 171.197 37.4924 166.797 34.7016C165.577 33.8823 165.377 26.3627 165.377 26.3627L163.556 25.4341L157.948 29.7128L155.272 28.2562L147.479 25.6526C143.853 25.2275 140.206 25.0026 136.554 24.9789C127.087 24.6148 112.248 24.9789 103.982 29.4397L95.224 34.1008L92.0741 31.3333L88.7058 26.4719H86.3388L84.9186 29.5307L84.3542 34.9929L85.7016 39.5265L86.9943 41.5475C83.5734 45.4086 80.5252 49.5845 77.8906 54.0195C72.829 62.2674 71.0083 68.6218 71.9186 73.2464C72.829 77.8711 73.3752 82.3501 77.6175 87.8122C80.9859 92.0727 85.5195 96.5699 89.0881 100.557C93.203 105.273 94.5503 105.382 100.577 108.751C104.34 110.845 108.268 112.629 112.321 114.085C116.352 115.104 120.445 115.858 124.574 116.343C134.024 118.164 138.266 115.924 146.987 114.322C154.088 113.011 158.84 109.879 164.23 107.039C168.225 105.11 171.811 102.426 174.79 99.1372Z" fill="#F39200"/>
<g style="mix-blend-mode:multiply" opacity="0.3">
<path d="M76.6345 161.861C76.6345 161.861 79.4202 169.144 90.5449 172.094C96.2685 173.361 102.223 173.116 107.824 171.384C111.588 170.333 115.612 170.756 119.076 172.567C124.538 175.48 134.989 178.667 151.011 175.134C176.775 169.454 184.859 153.286 184.859 153.286C184.859 153.286 172.114 166.886 146.951 171.985C121.789 177.083 115.234 164.119 115.234 164.119C107.395 168.744 98.0629 170.135 89.2158 167.997C75.1051 164.21 76.8166 159.44 76.8166 159.44L76.6345 161.861Z" fill="#992811"/>
</g>
<path d="M225.515 177.228C225.515 177.064 225.515 176.937 225.515 176.773C225.697 167.378 210.95 143.235 210.95 143.235L203.667 128.506L197.513 111.464L191.176 99.1372L182.728 90.3067L178.268 85.2997L168.854 98.7549C165.625 103.65 161.454 107.853 156.583 111.118C150.119 116.816 131.548 116.58 131.548 116.58C131.548 116.58 117.619 114.632 116.982 115.287C116.345 115.943 94.9692 106.183 94.9692 106.183L91.0364 111.427C91.0364 111.427 80.8221 122.643 76.9258 134.896C74.654 142.92 74.654 151.416 76.9258 159.44L84.7731 166.522C85.1737 166.522 95.1513 169.381 97.5182 169.126C102.98 168.58 102.38 170.291 115.27 164.101C119.986 161.825 130.838 148.042 137.756 147.15C147.534 145.875 176.938 111.627 180.78 110.499C183.766 109.625 186.242 112.119 187.28 121.223C187.772 125.52 188.846 129.525 189.41 133.44C190.849 143.527 200.881 163.3 206.471 171.22C212.06 179.14 214.846 198.185 200.845 210.748L196.821 215.773C190.539 223.693 184.367 219.087 184.367 219.087C184.367 219.087 186.37 226.788 184.913 231.613C183.457 236.438 176.01 245.524 176.01 245.524C176.01 245.524 187.608 240.717 192.742 234.781L197.877 228.846C205.069 227.907 211.689 224.426 216.539 219.032C223.822 211.112 225.934 204.612 226.626 197.948L226.863 197.584C226.863 197.584 226.863 197.183 226.753 196.492C226.644 195.8 226.753 195.436 226.863 194.908C226.872 188.988 226.421 183.078 225.515 177.228ZM225.515 177.665C225.625 179.013 225.716 180.542 225.716 182.217C225.643 180.688 225.588 179.158 225.534 177.665H225.515Z" fill="#E98500"/>
<path d="M152.723 34.1736C154.602 33.1096 156.288 31.737 157.712 30.1133C157.874 29.9758 158.044 29.8481 158.221 29.731C155.208 28.3148 152.052 27.2223 148.808 26.4719C144.769 25.6554 140.672 25.1562 136.555 24.9789C141.407 28.0854 146.004 31.5741 150.301 35.4117L152.723 34.1736Z" fill="#E98500"/>
<path d="M185.532 55.3123C181.193 48.3027 175.794 42.0073 169.528 36.6498C168.368 35.783 167.267 34.8402 166.232 33.8277C166.032 32.9173 165.595 26.8543 165.286 26.3627C164.703 25.4888 162.664 26.8361 162.718 30.1863C162.409 34.7199 165.286 42.3669 163.683 45.3347C163.119 46.3725 162.7 47.8109 161.99 48.2843C166.273 55.1267 168.643 62.9921 168.854 71.0616C168.854 98.7003 152.723 112.811 152.723 112.811C152.723 112.811 177.485 103.143 184.294 87.1204C191.104 71.098 188.882 61.3389 185.532 55.3123Z" fill="#E98500"/>
<path d="M138.375 147.969C138.375 147.969 132.604 152.211 131.475 155.871C130.346 159.531 148.462 161.024 160.934 153.723C173.406 146.421 185.478 134.04 188.245 127.723L194.727 129.434L193.853 145.165L185.714 152.339C185.714 152.339 175.536 165.994 152.249 170.746C128.962 175.498 124.665 170.746 124.665 170.746L115.325 164.046L126.249 155.179L130.455 150.245L134.224 147.914L138.375 147.969Z" fill="#E98500"/>
<g style="mix-blend-mode:multiply" opacity="0.1">
<path d="M219.726 228.627C221.183 228.345 222.666 228.217 224.15 228.245C222.639 228.336 221.146 228.463 219.726 228.627Z" fill="#992811"/>
</g>
<g style="mix-blend-mode:multiply" opacity="0.1">
<path d="M280.501 218.741C280.155 220.562 278.262 221.909 275.331 223.256L274.766 223.493C277.057 222.433 279.034 220.795 280.501 218.741Z" fill="#992811"/>
</g>
<g style="mix-blend-mode:multiply" opacity="0.1">
<path d="M274.766 223.493C271.42 225.106 267.866 226.246 264.206 226.879C246.235 230.302 233.254 228.409 224.605 228.245H224.15C229.066 227.954 234.382 228.027 239.717 227.972C253.482 227.844 267.647 226.461 274.766 223.493Z" fill="#992811"/>
</g>
<g style="mix-blend-mode:multiply" opacity="0.3">
<path d="M184.859 152.339C184.859 152.339 182.783 172.367 165.978 180.378C163.301 181.634 158.094 183.236 155.873 184.402C152.552 186.324 149.573 188.785 147.06 191.685C142.381 196.728 140.123 207.835 140.123 207.835L138.994 216.21C133.97 214.509 128.784 213.331 123.518 212.696C119.485 212.333 115.425 212.419 111.41 212.951C111.41 212.951 102.671 214.644 101.633 214.972C100.183 215.588 98.7673 216.281 97.3908 217.047C97.0294 210.542 96.2571 204.065 95.0785 197.657C93.2578 189.19 83.262 189.045 83.262 189.045C83.262 189.045 83.262 170.473 96.0071 169.126C102.598 168.348 109.05 166.663 115.179 164.119C115.179 164.119 125.594 175.353 144.311 172.44C160.952 169.836 178.595 160.659 184.859 152.339Z" fill="#992811"/>
</g>
<g style="mix-blend-mode:multiply" opacity="0.1">
<path d="M271.798 209.109C260.546 202.609 224.587 204.394 224.587 204.394L226.535 196.929C248.894 194.889 267.301 196.929 276.733 205.595C281.558 210.074 282.504 214.426 280.174 218.031C280.647 215.773 278.28 212.933 271.798 209.109Z" fill="#992811"/>
</g>
<g style="mix-blend-mode:multiply" opacity="0.1">
<path d="M180.908 228.008L178.814 231.358L176.01 233.179L171.112 233.944L167.471 225.204L173.497 223.092C173.497 223.092 170.002 225.641 173.789 228.955C173.752 228.955 178.158 231.122 180.908 228.008Z" fill="#992811"/>
</g>
<g style="mix-blend-mode:multiply" opacity="0.1">
<path d="M237.004 245.105C227.755 245.451 222.548 245.888 221.583 245.979C217.832 244.65 214.718 243.139 214.718 243.139C209.074 237.021 222.001 237.877 222.001 237.877C231.542 238.405 255.43 241.755 275.203 234.235C292.609 227.571 298.181 221.49 297.78 214.353C298.272 219.997 297.27 226.843 293.392 230.739C287.02 237.185 286.109 238.259 270.633 242.429C255.157 246.598 247.291 244.704 237.004 245.105Z" fill="#992811"/>
</g>
<g style="mix-blend-mode:multiply" opacity="0.1">
<path d="M201.992 238.241C201.985 238.326 201.985 238.411 201.992 238.496C202.756 245.779 210.221 250.913 216.43 254.045C223.586 258.178 236.658 260.636 240.209 259.507C246.163 257.559 241.793 251.441 241.738 251.368C245.635 253.408 246.927 257.267 243.777 263.185C239.608 271.032 226.826 266.353 214.191 262.183C201.555 258.014 200.899 248.983 200.899 248.983C200.219 247.234 199.964 245.348 200.153 243.481C200.343 241.613 200.973 239.818 201.992 238.241Z" fill="#992811"/>
</g>
<g style="mix-blend-mode:multiply" opacity="0.1">
<path d="M59.8474 214.954C59.8474 214.954 64.3446 216.884 66.3656 214.225C66.9443 213.488 67.3124 212.608 67.4311 211.678C67.5497 210.749 67.4143 209.804 67.0393 208.945L72.9567 211.877L67.9679 219.742L63.2158 218.213L59.8474 214.954Z" fill="#992811"/>
</g>
<g style="mix-blend-mode:multiply" opacity="0.1">
<path d="M142.49 251.168C144.474 250.643 146.42 249.986 148.317 249.202C148.317 249.202 153.214 252.989 157.839 250.185C161.434 247.69 164.684 244.734 167.507 241.391L170.366 236.256L171.185 233.944C171.185 233.944 176.793 234.709 178.887 231.358C180.98 228.008 180.252 221.854 180.252 221.854C180.252 221.854 178.996 211.877 175.955 207.853C179.69 211.297 182.48 215.641 184.057 220.47C187.134 229.119 181.527 238.878 181.527 238.878L172.751 248.765C172.751 248.765 164.466 257.231 157.784 257.267C147.17 257.304 142.49 251.168 142.49 251.168Z" fill="#992811"/>
</g>
<g style="mix-blend-mode:multiply" opacity="0.1">
<path d="M149.391 214.353C149.391 214.353 153.852 218.632 156.565 214.225L159.514 218.704L152.359 222.073L152.741 220.47L150.247 217.412L149.391 214.353Z" fill="#992811"/>
</g>
<g style="mix-blend-mode:multiply" opacity="0.1">
<path d="M173.461 221.49C173.461 221.49 163.028 223.438 156.728 210.748L160.37 220.471L168.927 224.986L173.461 221.49Z" fill="#992811"/>
</g>
<g style="mix-blend-mode:multiply" opacity="0.1">
<path d="M98.3193 223.092L96.4986 207.088C95.7521 200.715 94.9874 192.522 88.1414 190.137C81.2955 187.752 72.9384 190.501 72.9384 190.501C72.9384 190.501 81.5504 191.229 82.57 198.148C82.1694 200.843 80.4033 203.21 76.9804 206.032C74.1143 208.061 70.6574 209.086 67.1484 208.945C68.4504 210.251 70.14 211.1 71.9648 211.366C73.7895 211.632 75.6513 211.3 77.2717 210.42C77.9536 210.155 78.5734 209.752 79.0924 209.237C79.9085 208.609 80.6425 207.881 81.2773 207.07C81.9579 206.992 82.6469 207.101 83.2696 207.387C83.8923 207.673 84.4249 208.123 84.8095 208.69C87.4399 212.177 89.2733 216.198 90.1806 220.47L91.0728 230.794L87.7409 237.403C87.7409 237.403 87.9776 243.812 83.3165 244.449C83.3165 244.449 92.2563 242.92 96.5896 235.655C100.923 228.391 98.3193 223.092 98.3193 223.092Z" fill="#992811"/>
</g>
<g style="mix-blend-mode:multiply" opacity="0.1">
<path d="M165.978 180.378C165.978 180.378 155.709 189.482 159.514 200.133C159.514 200.133 152.704 199.842 149.154 204.466C146.695 208.09 144.849 212.095 143.692 216.319L140.688 226.151C139.452 220.115 139.286 213.91 140.196 207.816C141.076 199.561 145.107 191.963 151.448 186.605C155.945 182.781 165.978 180.378 165.978 180.378Z" fill="#992811"/>
</g>
<path d="M82.2059 123.535C82.2059 123.535 74.2676 147.769 88.8516 155.325C103.436 162.881 128.598 150.682 128.598 150.682L136.354 146.331C133.652 144.437 130.526 143.237 127.251 142.835C123.779 142.578 120.294 142.541 116.818 142.726C116.818 142.726 120.022 147.842 109.135 148.006C98.2465 148.17 97.2451 145.256 97.2451 145.256V142.653C97.2451 142.653 82.5701 131.31 88.8516 114.049L82.2059 123.535Z" fill="#F39200"/>
<path d="M107.15 143.363C111.635 143.363 115.27 142.099 115.27 140.541C115.27 138.982 111.635 137.719 107.15 137.719C102.665 137.719 99.0293 138.982 99.0293 140.541C99.0293 142.099 102.665 143.363 107.15 143.363Z" fill="#F39200"/>
<g style="mix-blend-mode:multiply" opacity="0.3">
<path d="M101.214 148.443C101.214 148.443 103.8 149.826 109.936 149.644C116.071 149.462 120.095 146.458 119.713 143.363L116.29 142.634C116.29 142.634 117.728 146.367 111.283 147.623C107.984 148.381 104.593 148.657 101.214 148.443Z" fill="#992811"/>
</g>
<path d="M185.041 87.1203C180.24 93.2443 174.816 98.8521 168.854 103.853C158.494 112.956 144.493 115.651 131.529 116.598C122.929 117.322 114.296 115.652 106.585 111.773C102.468 109.91 98.4892 107.756 94.6779 105.328C94.6779 105.328 93.6401 107.531 102.307 114.431C106.587 117.594 111.598 119.623 116.873 120.33C117.31 120.33 116.508 123.772 118.184 123.772C120.15 123.772 119.458 120.749 120.113 120.84C122.936 121.223 126.085 121.496 129.636 121.696C143.346 122.497 158.021 115.979 158.021 115.979C166.387 112.818 173.442 106.93 178.049 99.2645C185.532 86.4648 185.041 87.1203 185.041 87.1203Z" fill="#C34491"/>
<path d="M122.881 75.85C130.795 75.85 137.21 69.4347 137.21 61.5209C137.21 53.6071 130.795 47.1918 122.881 47.1918C114.967 47.1918 108.552 53.6071 108.552 61.5209C108.552 69.4347 114.967 75.85 122.881 75.85Z" fill="white"/>
<path d="M102.38 71.0616C109.016 71.0616 114.396 65.6815 114.396 59.0448C114.396 52.4081 109.016 47.028 102.38 47.028C95.7429 47.028 90.3628 52.4081 90.3628 59.0448C90.3628 65.6815 95.7429 71.0616 102.38 71.0616Z" fill="white"/>
<path d="M102.307 76.0321L106.822 75.6862L111.428 76.3416L109.153 79.4551L105.766 81.6035L103.454 78.9817L102.307 76.0321Z" fill="#F9C9C3"/>
<path d="M162.901 30.6779C161.462 31.3528 160.349 32.5706 159.805 34.0644C158.567 36.8501 156.401 43.7689 156.401 43.7689L162.045 47.8655C162.045 47.8655 164.849 42.0392 164.339 38.0882C164.032 35.5877 163.552 33.1115 162.901 30.6779Z" fill="#F9C9C3"/>
<path d="M89.6345 61.8304H137.501C137.683 59.4233 137.176 57.0143 136.042 54.8837C134.907 52.7532 133.191 50.9886 131.093 49.7954C129.048 48.6167 126.775 47.8884 124.427 47.6592C122.078 47.4299 119.707 47.7051 117.473 48.4662L112.685 51.6889C110.812 49.9585 108.584 48.6578 106.156 47.8779C103.728 47.098 101.159 46.8576 98.6289 47.1735C89.8894 48.1931 89.6345 61.8304 89.6345 61.8304Z" fill="#CC6F00"/>
<path d="M119.185 115.178C119.185 115.178 117.71 114.959 116.927 117.363C116.144 119.766 116.417 123.79 118.111 123.771C119.804 123.753 120.696 120.257 120.696 120.257C120.696 120.257 121.625 115.724 119.185 115.178Z" fill="#757073"/>
<path d="M118.93 123.771C116.704 124.532 114.562 125.521 112.539 126.721C111.538 127.722 111.884 132.456 111.884 132.456C111.884 132.456 112.12 134.678 115.379 136.098C118.639 137.518 119.494 137.573 121.57 136.626C123.374 135.928 124.894 134.646 125.885 132.984C126.035 130.904 125.931 128.813 125.576 126.757L120.113 123.644L118.93 123.771Z" fill="url(#paint0_linear)"/>
<path d="M115.962 131C116.059 131.033 116.142 131.097 116.199 131.182C116.255 131.272 116.298 131.37 116.326 131.473C116.337 131.601 116.337 131.728 116.326 131.856V132.821C116.324 133.062 116.361 133.301 116.435 133.531C116.493 133.761 116.605 133.973 116.763 134.15C116.943 134.357 117.159 134.53 117.4 134.66C117.7 134.82 118.018 134.942 118.347 135.024L118.693 134.186C118.564 134.146 118.446 134.077 118.347 133.986C118.258 133.899 118.189 133.793 118.147 133.676C118.091 133.549 118.055 133.414 118.038 133.276C118.019 133.125 118.019 132.972 118.038 132.821V131.856C118.038 131.552 117.949 131.254 117.783 131C117.58 130.722 117.302 130.507 116.982 130.381C117.305 130.269 117.585 130.059 117.783 129.78C117.949 129.526 118.038 129.228 118.038 128.924V127.959C118.019 127.808 118.019 127.655 118.038 127.504C118.052 127.366 118.089 127.23 118.147 127.104C118.185 126.985 118.254 126.878 118.347 126.794C118.442 126.696 118.561 126.627 118.693 126.594L118.347 125.756C118.019 125.832 117.701 125.948 117.4 126.102C117.163 126.238 116.948 126.41 116.763 126.612C116.647 126.782 116.567 126.974 116.526 127.176C116.452 127.406 116.415 127.645 116.417 127.886V128.997C116.428 129.233 116.371 129.466 116.253 129.671C116.187 129.755 116.1 129.823 116.002 129.867C115.904 129.911 115.797 129.931 115.689 129.926V131C115.779 130.98 115.872 130.98 115.962 131Z" fill="white"/>
<path d="M167.507 225.204C167.744 225.805 171.84 231.195 170.366 236.256C168.891 241.318 162.518 247.363 162.518 247.363C159.404 249.745 155.493 250.84 151.594 250.422C144.566 249.985 145.458 239.861 145.458 239.861L148.954 228.008C149.845 225.899 150.988 223.906 152.359 222.073C154.361 219.524 159.514 218.704 159.514 218.704C159.514 218.704 160.734 222.346 163.028 223.438C164.486 224.112 165.982 224.702 167.507 225.204Z" fill="#F980A5"/>
<path d="M81.769 207.288C81.769 207.288 87.4315 208.436 88.6514 213.224C89.8713 218.013 91.2004 227.444 91.2004 227.444C91.5541 229.273 91.4018 231.163 90.7601 232.912C90.1184 234.661 89.0116 236.201 87.5589 237.367C82.5337 241.664 74.4133 235.182 74.4133 235.182C72.7072 233.174 71.2802 230.945 70.171 228.555C68.3503 224.749 66.311 223.256 68.3503 218.322C69.1952 215.774 70.7566 213.524 72.8474 211.84L77.0533 210.384L81.769 207.288Z" fill="#F980A5"/>
<g style="mix-blend-mode:multiply" opacity="0.15">
<path d="M68.4595 218.358C68.4595 218.358 71.9189 217.721 72.9567 216.137C73.9945 214.553 74.4679 216.774 78.1822 214.954C78.672 214.712 79.206 214.574 79.7513 214.546C80.2967 214.519 80.8419 214.603 81.3534 214.794C81.865 214.985 82.3321 215.279 82.7261 215.657C83.12 216.035 83.4325 216.49 83.6443 216.993C86.1205 222.965 89.8166 234.181 84.7368 238.223C86.5342 238.017 88.1858 237.134 89.3559 235.754C90.526 234.374 91.1269 232.601 91.0365 230.794C91.132 226.445 90.6731 222.1 89.671 217.867L88.0687 211.658L84.7732 208.69L81.769 207.288L75.36 210.93L72.9567 211.767L69.3152 214.844L68.4595 218.358Z" fill="#992811"/>
</g>
<g style="mix-blend-mode:multiply" opacity="0.15">
<path d="M148.316 249.165C150.956 249.245 153.562 248.547 155.808 247.158C158.055 245.77 159.843 243.751 160.952 241.354C165.431 232.76 165.176 225.277 163.028 223.402L167.434 225.223C167.434 225.223 171.64 231.322 170.293 236.274C168.945 241.227 162.445 247.381 162.445 247.381C162.445 247.381 160.442 249.202 154.252 250.385C148.062 251.569 148.316 249.165 148.316 249.165Z" fill="#992811"/>
</g>
<path opacity="0.1" d="M91.2184 36.1399C91.2184 36.1399 84.7912 31.1693 85.8837 27.5642C86.9761 23.9592 83.2618 34.6469 85.1372 38.1062L86.9579 41.5474L91.2184 36.1399Z" fill="black"/>
<path opacity="0.3" d="M156.583 111.118L157.966 115.979C163.396 113.973 168.235 110.636 172.04 106.274C175.711 101.804 178.841 96.9145 181.363 91.7086C175.439 100.706 166.737 107.522 156.583 111.118Z" fill="black"/>
<path opacity="0.2" d="M165.286 26.3627C165.286 26.3627 159.277 32.4985 157.839 38.1428L156.401 43.787L162.045 47.8655C162.045 47.8655 166.87 41.2016 166.633 34.7016C166.396 28.2016 165.286 26.3627 165.286 26.3627Z" fill="black"/>
<g style="mix-blend-mode:multiply" opacity="0.3">
<path d="M94.5686 108.022C94.5686 108.022 99.7213 120.767 118.111 123.772C136.5 126.776 166.56 122.606 180.252 96.8795C180.252 96.8795 172.641 108.769 161.863 113.958C151.084 119.147 137.338 122.461 128.689 121.714C120.041 120.968 107.66 121.059 94.5686 108.022Z" fill="#992811"/>
</g>
<g style="mix-blend-mode:multiply" opacity="0.3">
<path d="M126.067 125.629L121.333 122.916C120.848 122.629 120.295 122.478 119.731 122.478C119.168 122.478 118.614 122.629 118.129 122.916H118.256L119.003 123.225C121.151 124.118 123.664 125.155 124.665 127.431C125.2 128.763 125.312 130.226 124.986 131.624C124.661 133.021 123.913 134.284 122.845 135.242C121.814 136.11 120.586 136.712 119.269 136.994C117.951 137.277 116.585 137.232 115.289 136.863C114.137 136.554 113.068 135.994 112.157 135.224C112.427 135.786 112.858 136.255 113.395 136.571L118.129 139.302C118.614 139.589 119.168 139.74 119.731 139.74C120.295 139.74 120.848 139.589 121.333 139.302L126.067 136.571C126.553 136.291 126.957 135.887 127.238 135.402C127.52 134.916 127.668 134.365 127.67 133.804V128.342C127.655 127.79 127.501 127.252 127.22 126.777C126.94 126.303 126.543 125.907 126.067 125.629Z" fill="#992811"/>
</g>
<path d="M111.611 94.4034C111.425 94.4064 111.243 94.3589 111.082 94.2659C110.922 94.1728 110.79 94.0378 110.7 93.8753C109.203 91.2589 107.205 88.9635 104.819 87.1204C104.604 86.9773 104.453 86.7548 104.401 86.5014C104.255 84.7874 104.378 83.0613 104.765 81.3851C104.793 81.2533 104.847 81.1283 104.923 81.0174C105 80.9066 105.098 80.812 105.211 80.7392C105.325 80.6663 105.452 80.6168 105.584 80.5933C105.717 80.5698 105.853 80.5728 105.985 80.6022C106.252 80.6592 106.486 80.8192 106.636 81.0476C106.786 81.276 106.84 81.5543 106.786 81.8221C106.501 83.1011 106.36 84.4081 106.367 85.7185C108.849 87.6771 110.932 90.0938 112.503 92.8375C112.57 92.9555 112.613 93.0857 112.629 93.2206C112.646 93.3554 112.635 93.4922 112.598 93.6228C112.56 93.7534 112.497 93.8752 112.412 93.9811C112.327 94.087 112.222 94.1749 112.102 94.2395C111.956 94.3371 111.786 94.3937 111.611 94.4034Z" fill="#34374C"/>
<path d="M100.431 91.8906C100.293 91.8863 100.157 91.8554 100.031 91.7996C99.7814 91.6913 99.5844 91.4895 99.4823 91.2375C99.3801 90.9856 99.3809 90.7036 99.4845 90.4522C100.691 88.1909 102.611 86.3921 104.947 85.336C105.071 85.2822 105.205 85.2537 105.34 85.2521C105.475 85.2506 105.609 85.2759 105.735 85.3268C105.86 85.3776 105.974 85.4529 106.07 85.5483C106.166 85.6436 106.242 85.7571 106.294 85.8822C106.351 86.0049 106.382 86.1378 106.386 86.273C106.391 86.4082 106.367 86.5428 106.318 86.6687C106.268 86.7946 106.194 86.9092 106.099 87.0056C106.004 87.102 105.891 87.1781 105.766 87.2295C103.895 88.0732 102.34 89.4883 101.323 91.2716C101.246 91.4471 101.122 91.5978 100.965 91.7071C100.807 91.8163 100.623 91.8799 100.431 91.8906Z" fill="#34374C"/>
<path d="M168.053 226.005C166.488 225.992 164.962 225.517 163.665 224.64C158.422 221.162 154.562 214.426 155.727 210.475C155.748 210.328 155.799 210.188 155.878 210.064C155.957 209.939 156.062 209.833 156.185 209.752C156.308 209.671 156.447 209.617 156.593 209.594C156.739 209.571 156.888 209.579 157.03 209.618C157.172 209.658 157.305 209.727 157.418 209.821C157.532 209.915 157.624 210.033 157.688 210.165C157.753 210.298 157.788 210.443 157.792 210.591C157.796 210.738 157.769 210.885 157.712 211.021C156.947 213.788 159.933 219.706 164.812 222.91C169.164 225.787 172.897 221.818 173.042 221.636C173.23 221.442 173.487 221.329 173.756 221.321C174.026 221.314 174.289 221.411 174.488 221.594C174.687 221.776 174.807 222.029 174.823 222.299C174.838 222.568 174.748 222.833 174.572 223.038C173.737 223.941 172.731 224.668 171.611 225.178C170.492 225.688 169.283 225.969 168.053 226.005Z" fill="#34374C"/>
<path d="M171.148 234.745H170.948C170.673 234.745 170.409 234.636 170.214 234.441C170.02 234.247 169.91 233.983 169.91 233.707C169.91 233.432 170.02 233.168 170.214 232.973C170.409 232.779 170.673 232.67 170.948 232.67H171.148C174.499 232.67 176.902 231.777 178.286 229.993C180.653 226.934 179.396 222.164 179.378 222.127C179.321 221.991 179.294 221.845 179.298 221.697C179.302 221.55 179.337 221.405 179.402 221.272C179.466 221.139 179.558 221.022 179.672 220.928C179.785 220.833 179.917 220.764 180.06 220.725C180.202 220.686 180.351 220.678 180.497 220.701C180.642 220.724 180.782 220.777 180.905 220.858C181.028 220.939 181.133 221.046 181.212 221.17C181.291 221.295 181.342 221.435 181.363 221.581C181.363 221.818 182.91 227.353 179.924 231.231C178.085 233.562 175.136 234.745 171.148 234.745Z" fill="#34374C"/>
<path d="M153.36 221.508C153.174 221.505 152.993 221.455 152.832 221.363C151.678 220.744 150.681 219.87 149.917 218.806C149.153 217.743 148.643 216.518 148.426 215.227C147.752 210.256 152.067 205.541 152.249 205.34C152.344 205.243 152.458 205.166 152.583 205.114C152.708 205.061 152.842 205.034 152.978 205.034C153.113 205.034 153.248 205.061 153.373 205.114C153.498 205.166 153.611 205.243 153.706 205.34C153.897 205.534 154.004 205.796 154.004 206.069C154.004 206.341 153.897 206.603 153.706 206.797C153.706 206.797 149.864 211.021 150.429 215.027C150.609 216.008 151.011 216.934 151.604 217.736C152.197 218.537 152.966 219.193 153.852 219.651C154.085 219.794 154.252 220.024 154.317 220.29C154.382 220.556 154.339 220.837 154.198 221.071C154.1 221.203 153.975 221.311 153.829 221.387C153.684 221.463 153.524 221.504 153.36 221.508Z" fill="#34374C"/>
<path d="M153.196 251.386C151.116 251.462 149.081 250.768 147.479 249.438C146.435 248.387 145.609 247.14 145.05 245.768C144.49 244.396 144.208 242.927 144.22 241.445C144.362 238.708 144.978 236.015 146.041 233.489C146.496 232.087 146.969 230.648 147.37 229.119C148.517 224.585 151.011 218.468 159.259 217.83C159.514 217.841 159.756 217.945 159.939 218.123C160.122 218.301 160.233 218.54 160.251 218.794C160.269 219.049 160.193 219.301 160.037 219.503C159.881 219.704 159.656 219.841 159.405 219.888C152.577 220.416 150.447 225.35 149.355 229.629C148.954 231.231 148.462 232.706 147.989 234.144C147.048 236.465 146.501 238.926 146.369 241.427C146.336 243.844 147.251 246.177 148.918 247.927C149.721 248.537 150.643 248.973 151.624 249.208C152.605 249.443 153.624 249.472 154.616 249.293C160.934 248.546 162.792 246.052 166.469 241.099L167.926 239.188C172.059 233.725 166.651 226.151 166.597 226.078C166.515 225.969 166.456 225.844 166.423 225.711C166.389 225.578 166.383 225.44 166.403 225.305C166.423 225.169 166.47 225.039 166.541 224.922C166.612 224.805 166.705 224.703 166.815 224.622C167.041 224.463 167.32 224.399 167.592 224.443C167.864 224.488 168.108 224.637 168.272 224.858C168.527 225.223 174.626 233.78 169.565 240.426L168.126 242.246C164.485 247.162 162.063 250.403 154.853 251.241C154.305 251.328 153.751 251.377 153.196 251.386Z" fill="#34374C"/>
<path d="M156.801 258.269C153.233 258.2 149.741 257.229 146.65 255.446C143.558 253.663 140.969 251.126 139.122 248.073C135.353 241.099 134.971 238.696 136.864 233.78C137.392 232.451 137.957 231.085 138.539 229.702C139.923 226.711 141.02 223.595 141.817 220.398C141.944 219.232 144.074 202.518 154.562 199.623C165.686 196.564 178.14 205.632 183.329 215.809C185.199 219.257 186.166 223.122 186.14 227.044C186.115 230.966 185.098 234.818 183.184 238.241C181.508 241.209 168.618 255.265 161.153 257.613C159.745 258.054 158.277 258.275 156.801 258.269ZM159.022 201.098C157.707 201.095 156.397 201.266 155.126 201.608C145.804 204.266 143.838 220.562 143.838 220.725C143.021 224.089 141.875 227.364 140.415 230.503C139.85 231.85 139.286 233.216 138.776 234.527C137.21 238.605 137.21 240.244 140.906 247.09C144.42 253.59 153.961 257.741 160.534 255.647C167.107 253.553 179.833 239.971 181.381 237.239C183.125 234.108 184.05 230.587 184.069 227.003C184.088 223.419 183.201 219.888 181.49 216.738C177.303 208.563 167.853 201.171 159.022 201.171V201.098Z" fill="#34374C"/>
<path d="M72.5197 212.751C71.1154 212.671 69.7503 212.258 68.5376 211.546C67.3248 210.833 66.2994 209.842 65.5463 208.654C65.3966 208.412 65.3489 208.121 65.4138 207.845C65.4787 207.568 65.6508 207.329 65.8922 207.179C66.1337 207.029 66.4247 206.982 66.7013 207.047C66.9778 207.112 67.2173 207.284 67.367 207.525C67.4945 207.725 70.444 212.113 75.0687 210.074C80.276 207.78 84.1723 202.573 83.8264 199.787C83.8113 199.653 83.8229 199.517 83.8605 199.388C83.8982 199.258 83.9612 199.137 84.0459 199.032C84.1306 198.927 84.2352 198.84 84.3538 198.776C84.4724 198.712 84.6026 198.672 84.7368 198.658C85.0086 198.632 85.2798 198.712 85.4937 198.882C85.7076 199.052 85.8474 199.298 85.8838 199.568C86.3026 203.574 81.5505 209.473 75.9062 211.968C74.8493 212.476 73.6926 212.744 72.5197 212.751Z" fill="#34374C"/>
<path d="M67.3669 220.543H67.203C63.1974 219.906 60.4845 218.267 59.1008 215.682C56.8613 211.458 59.1008 206.342 59.2829 206.123C59.4298 205.942 59.6337 205.815 59.8616 205.764C60.0895 205.712 60.3281 205.739 60.5387 205.84C60.7493 205.941 60.9196 206.111 61.0221 206.321C61.1247 206.53 61.1533 206.769 61.1036 206.997C61.1036 206.997 59.1008 211.421 60.8669 214.735C61.9229 216.702 64.1442 217.976 67.4761 218.504C67.7466 218.526 67.9973 218.654 68.1731 218.861C68.349 219.067 68.4355 219.335 68.4138 219.606C68.3921 219.876 68.2638 220.127 68.0572 220.303C67.8507 220.478 67.5827 220.565 67.3123 220.543H67.3669Z" fill="#34374C"/>
<path d="M86.357 210.638C86.123 210.629 85.8991 210.541 85.7215 210.388C85.5439 210.236 85.4231 210.028 85.3789 209.798C85.3346 209.568 85.3693 209.33 85.4775 209.122C85.5856 208.914 85.7609 208.749 85.9747 208.654C86.9012 208.356 87.7472 207.85 88.4479 207.175C89.1485 206.499 89.6852 205.672 90.0167 204.757C91.2002 200.989 88.196 196.346 88.196 196.309C88.0463 196.068 87.9986 195.777 88.0635 195.5C88.1284 195.224 88.3005 194.984 88.5419 194.834C88.7833 194.685 89.0744 194.637 89.3509 194.702C89.6275 194.767 89.867 194.939 90.0167 195.18C90.1623 195.399 93.5671 200.643 92.0923 205.358C91.6803 206.57 90.9945 207.67 90.0882 208.573C89.1819 209.476 88.0796 210.158 86.8668 210.566C86.7022 210.618 86.5298 210.643 86.357 210.638Z" fill="#34374C"/>
<path d="M83.2619 239.606C82.1624 239.597 81.0704 239.425 80.021 239.097C73.1933 237.112 71.3908 233.634 68.6597 228.263C68.3319 227.608 67.986 226.916 67.6037 226.206C63.7801 218.923 71.063 211.64 71.3726 211.385C71.5667 211.194 71.8283 211.087 72.1009 211.087C72.3734 211.087 72.635 211.194 72.8291 211.385C72.926 211.48 73.003 211.593 73.0556 211.718C73.1081 211.844 73.1352 211.978 73.1352 212.113C73.1352 212.249 73.1081 212.383 73.0556 212.508C73.003 212.633 72.926 212.747 72.8291 212.842C72.8291 212.842 66.3474 219.36 69.4426 225.241C69.8249 225.969 70.1891 226.661 70.5168 227.335C73.2661 232.688 74.6499 235.382 80.6219 237.13C81.5434 237.468 82.526 237.607 83.5051 237.538C84.4841 237.469 85.4375 237.193 86.3025 236.73C88.1862 235.321 89.4415 233.229 89.7983 230.903C90.0798 228.471 89.9506 226.01 89.416 223.62C89.1793 222.164 88.9608 220.653 88.8151 219.069C88.4692 214.79 87.2129 209.674 80.7311 208.053C80.5986 208.021 80.4739 207.963 80.3643 207.883C80.2546 207.802 80.1623 207.7 80.0927 207.583C80.0231 207.466 79.9777 207.336 79.9591 207.201C79.9405 207.066 79.9492 206.928 79.9846 206.797C80.0143 206.665 80.0704 206.541 80.1494 206.431C80.2284 206.322 80.3288 206.229 80.4444 206.16C80.5601 206.09 80.6887 206.044 80.8224 206.025C80.9562 206.007 81.0923 206.015 81.2227 206.05C89.07 208.017 90.4902 214.317 90.8726 218.796C91 220.325 91.2367 221.782 91.4552 223.22C92.0315 225.832 92.1547 228.523 91.8193 231.176C91.6121 232.631 91.1134 234.029 90.3532 235.287C89.593 236.545 88.5868 237.636 87.395 238.496C86.1468 239.242 84.7159 239.626 83.2619 239.606Z" fill="#34374C"/>
<path d="M79.8571 245.797C77.4123 245.834 74.9929 245.297 72.7927 244.231C65.8921 240.681 55.8781 225.204 54.6946 221.982C53.4172 218.359 53.0745 214.472 53.6983 210.682C54.3221 206.891 55.8922 203.319 58.2633 200.297C64.8907 191.339 78.4005 184.602 88.6148 189.372C98.2829 193.888 97.7185 210.347 97.5728 211.476C97.8176 214.684 98.3724 217.861 99.2297 220.962C99.5574 222.4 99.8851 223.821 100.176 225.186C101.196 230.248 100.45 232.469 95.6792 238.605C93.7248 240.884 91.2963 242.708 88.5633 243.95C85.8304 245.192 82.859 245.823 79.8571 245.797ZM81.2773 189.882C73.3935 189.882 64.6722 195.035 59.8655 201.535C57.7005 204.282 56.2689 207.535 55.7052 210.987C55.1415 214.439 55.4641 217.978 56.6428 221.272C57.6806 224.148 67.5672 239.188 73.7395 242.392C79.9117 245.597 89.5798 243.011 94.0042 237.33C98.6652 231.34 98.9383 229.756 98.1008 225.587C97.8277 224.221 97.4818 222.819 97.154 221.417C96.2637 218.161 95.6965 214.825 95.4608 211.458C95.4608 211.294 96.2255 195.272 87.6862 191.302C85.6804 190.363 83.492 189.879 81.2773 189.882Z" fill="#34374C"/>
<path d="M198.46 229.702C198.212 229.69 197.977 229.59 197.797 229.42C197.617 229.25 197.504 229.022 197.477 228.775C197.451 228.529 197.513 228.282 197.653 228.078C197.793 227.874 198.002 227.726 198.241 227.662C202.964 226.783 207.423 224.838 211.282 221.977C215.14 219.115 218.296 215.412 220.509 211.148C228.065 196.965 226.28 177.738 221.164 164.975C218.704 158.739 215.655 152.753 212.06 147.095C207.8 140.122 203.394 132.893 196.53 111.773C193.744 103.179 187.863 94.7127 182.219 91.1987C181.991 91.0461 181.83 90.8121 181.769 90.5447C181.708 90.2772 181.752 89.9966 181.891 89.7603C182.04 89.5337 182.271 89.3732 182.535 89.3122C182.8 89.2512 183.078 89.2943 183.311 89.4326C189.429 93.2561 195.528 101.977 198.496 111.136C205.287 132.019 209.621 139.138 213.826 146.021C217.475 151.786 220.572 157.882 223.076 164.228C228.374 177.447 230.195 197.384 222.329 212.15C219.982 216.687 216.629 220.628 212.527 223.673C208.425 226.718 203.682 228.786 198.66 229.72L198.46 229.702Z" fill="#34374C"/>
<path d="M140.852 226.952C140.617 226.949 140.389 226.866 140.208 226.718C140.026 226.569 139.9 226.363 139.85 226.133C137.01 212.532 138.539 201.389 144.384 192.977C149.539 185.879 157.2 181.004 165.814 179.34C165.949 179.32 166.087 179.326 166.219 179.359C166.352 179.392 166.477 179.451 166.586 179.532C166.696 179.613 166.789 179.715 166.86 179.832C166.93 179.949 166.977 180.079 166.997 180.214C167.018 180.349 167.011 180.487 166.978 180.619C166.945 180.752 166.887 180.877 166.805 180.987C166.724 181.097 166.622 181.19 166.505 181.26C166.388 181.33 166.258 181.377 166.123 181.397C158.097 183.014 150.959 187.556 146.095 194.143C140.633 202.063 139.195 212.678 141.908 225.678C141.957 225.945 141.901 226.221 141.752 226.448C141.602 226.675 141.371 226.836 141.106 226.898L140.852 226.952Z" fill="#34374C"/>
<path d="M175.81 246.398C175.571 246.4 175.339 246.321 175.152 246.173C174.965 246.024 174.835 245.816 174.784 245.583C174.733 245.35 174.763 245.107 174.87 244.893C174.978 244.68 175.155 244.511 175.373 244.413C199.042 233.78 202.065 217.412 202.101 217.248C202.15 216.98 202.3 216.742 202.521 216.582C202.741 216.423 203.015 216.355 203.284 216.392C203.551 216.441 203.788 216.592 203.944 216.813C204.101 217.034 204.164 217.308 204.122 217.576C204.013 218.286 201.009 235.182 176.228 246.307C176.095 246.361 175.953 246.392 175.81 246.398Z" fill="#34374C"/>
<path d="M98.0643 217.339C97.8752 217.338 97.6898 217.285 97.5291 217.186C97.3683 217.086 97.2384 216.944 97.154 216.774C97.0316 216.532 97.0087 216.252 97.0904 215.993C97.1721 215.735 97.3517 215.518 97.5909 215.391C115.907 206.069 138.23 214.644 139.158 215.008C139.414 215.112 139.618 215.313 139.726 215.568C139.833 215.822 139.836 216.109 139.732 216.365C139.628 216.621 139.427 216.825 139.172 216.932C138.918 217.04 138.631 217.042 138.375 216.938C138.157 216.847 115.98 208.326 98.5013 217.23C98.3652 217.297 98.2162 217.334 98.0643 217.339Z" fill="#34374C"/>
<path d="M59.0281 201.954C58.8179 201.952 58.6132 201.887 58.4409 201.767C58.2686 201.647 58.1368 201.477 58.0631 201.28C57.9538 200.989 47.8306 173.004 76.4525 160.55C76.7038 160.447 76.9858 160.446 77.2377 160.548C77.4897 160.65 77.6915 160.847 77.7998 161.097C77.8566 161.219 77.8881 161.352 77.8922 161.487C77.8962 161.622 77.8729 161.757 77.8236 161.883C77.7742 162.009 77.6999 162.123 77.6051 162.22C77.5102 162.316 77.3969 162.392 77.2718 162.444C50.4707 174.115 59.5925 199.477 59.9931 200.552C60.0879 200.808 60.078 201.091 59.9655 201.34C59.8531 201.588 59.6471 201.783 59.3922 201.881C59.275 201.923 59.1523 201.947 59.0281 201.954Z" fill="#34374C"/>
<path d="M236.112 268.356C235.748 268.356 235.384 268.356 235.02 268.356C230.802 267.845 226.624 267.054 222.511 265.989C212.188 263.294 205.433 259.398 201.864 254.081C200.512 252.112 199.614 249.867 199.237 247.509C198.859 245.15 199.01 242.737 199.679 240.444C201.646 233.507 207.672 229.228 217.595 227.699C224.629 226.887 231.711 226.577 238.789 226.77C250.55 226.77 263.878 226.77 272.017 223.402C277.989 220.926 278.754 218.85 278.754 217.321C278.754 214.153 274.602 211.203 267.338 209.255C247.473 203.902 225.024 205.923 224.805 205.959C224.664 205.986 224.518 205.983 224.378 205.951C224.237 205.918 224.105 205.857 223.99 205.77C223.874 205.684 223.778 205.574 223.707 205.448C223.637 205.323 223.593 205.184 223.579 205.04C223.565 204.897 223.581 204.752 223.626 204.615C223.671 204.478 223.745 204.352 223.841 204.245C223.938 204.138 224.055 204.052 224.187 203.993C224.319 203.934 224.461 203.903 224.605 203.902C224.842 203.902 247.637 201.808 267.884 207.252C279.136 210.293 280.811 214.863 280.811 217.321C280.811 220.543 278.353 223.001 272.818 225.295C264.279 228.828 250.751 228.828 238.807 228.828C231.827 228.635 224.842 228.939 217.905 229.738C208.801 231.122 203.339 234.909 201.664 241.008C201.064 243.007 200.917 245.114 201.232 247.176C201.547 249.239 202.316 251.206 203.485 252.934C206.762 257.814 213.116 261.419 222.948 263.986C226.966 265.028 231.047 265.806 235.165 266.316C237.216 266.531 239.269 265.926 240.875 264.633C242.482 263.341 243.512 261.465 243.741 259.416C243.861 258.401 243.776 257.372 243.492 256.39C243.207 255.408 242.728 254.493 242.084 253.699C241.446 252.898 240.656 252.232 239.759 251.738C238.862 251.244 237.876 250.933 236.859 250.822C231.651 250.239 219.38 247.927 214.573 244.45C214.443 244.378 214.33 244.28 214.242 244.162C214.153 244.044 214.091 243.908 214.059 243.763C214.027 243.619 214.027 243.469 214.057 243.325C214.088 243.18 214.149 243.044 214.237 242.925C214.325 242.806 214.437 242.707 214.566 242.634C214.695 242.562 214.838 242.518 214.985 242.506C215.132 242.493 215.281 242.512 215.42 242.562C215.559 242.611 215.686 242.69 215.793 242.793C219.817 245.706 230.887 248.073 237.095 248.783C238.385 248.925 239.635 249.321 240.771 249.948C241.908 250.575 242.909 251.421 243.718 252.436C244.527 253.451 245.127 254.616 245.484 255.864C245.841 257.112 245.948 258.418 245.798 259.707C245.511 262.08 244.369 264.266 242.586 265.858C240.803 267.45 238.502 268.338 236.112 268.356Z" fill="#34374C"/>
<path d="M220.909 246.689C220.66 246.656 220.431 246.533 220.265 246.344C220.1 246.155 220.008 245.912 220.008 245.66C220.008 245.409 220.1 245.166 220.265 244.977C220.431 244.788 220.66 244.665 220.909 244.632C225.333 244.359 234.346 244.359 238.679 244.359C252.262 244.359 267.447 244.359 278.845 239.643C296.36 232.36 297.543 220.817 297.252 216.192C296.56 205.377 286.874 196.164 271.999 192.158C257.401 188.377 242.29 186.969 227.245 187.989L227.008 185.931C242.311 184.85 257.687 186.283 272.527 190.174C288.276 194.416 298.527 204.339 299.291 216.046C299.619 221.126 298.363 233.78 279.609 241.536C267.829 246.416 252.426 246.416 238.843 246.416C234.346 246.416 225.37 246.416 221.018 246.689H220.909Z" fill="#34374C"/>
<path d="M106.13 82.6413C103.654 82.6413 101.815 78.1805 101.269 76.7057C101.224 76.5264 101.224 76.3388 101.269 76.1595C101.269 75.8318 102.106 71.6623 104.819 69.9508C104.939 69.8779 105.072 69.8292 105.21 69.8076C105.348 69.786 105.49 69.7918 105.626 69.8248C105.762 69.8577 105.89 69.9172 106.003 69.9997C106.116 70.0823 106.212 70.1863 106.285 70.3058C106.358 70.4254 106.407 70.5581 106.428 70.6965C106.45 70.8349 106.444 70.9761 106.411 71.1122C106.378 71.2483 106.319 71.3766 106.236 71.4897C106.154 71.6029 106.05 71.6986 105.93 71.7715C104.926 72.5326 104.177 73.5801 103.781 74.7757C106.464 74.491 109.177 74.7511 111.756 75.5404C111.908 75.5918 112.047 75.6754 112.163 75.7854C112.279 75.8954 112.37 76.0292 112.43 76.1777C112.484 76.3305 112.503 76.4937 112.484 76.6547C112.465 76.8158 112.409 76.9703 112.321 77.1063C111.793 77.8892 109.08 81.8584 106.859 82.5685C106.623 82.6418 106.375 82.6666 106.13 82.6413ZM103.581 76.9242C104.546 79.1455 105.748 80.5657 106.148 80.5657C107.607 79.7172 108.853 78.5463 109.79 77.1427C107.76 76.6242 105.642 76.5497 103.581 76.9242Z" fill="#34374C"/>
<path d="M162.045 48.885C161.897 48.8875 161.75 48.8579 161.615 48.7981C161.48 48.7384 161.359 48.65 161.262 48.5391C161.071 48.3449 160.963 48.0833 160.963 47.8108C160.963 47.5382 161.071 47.2766 161.262 47.0825C163.206 45.0598 164.555 42.5396 165.158 39.7996C165.697 35.7701 165.518 31.6771 164.63 27.7099C164.59 27.4315 164.471 27.1704 164.287 26.9575C164.103 26.7446 163.862 26.5887 163.592 26.5082C163.325 26.4192 163.037 26.4079 162.763 26.4756C162.489 26.5432 162.24 26.6871 162.045 26.8906C159.773 29.4349 157.34 31.8311 154.762 34.0643C152.504 35.6665 147.224 39.0348 146.987 39.1805C146.746 39.3254 146.457 39.3684 146.184 39.3001C145.91 39.2318 145.676 39.0578 145.531 38.8164C145.386 38.5749 145.343 38.2858 145.411 38.0127C145.479 37.7395 145.653 37.5046 145.895 37.3598C145.895 37.3598 151.357 33.8822 153.578 32.2982C156.137 30.1405 158.569 27.8365 160.861 25.3976C161.326 24.9441 161.903 24.6231 162.534 24.4677C163.164 24.3124 163.824 24.3284 164.446 24.5141C165.069 24.6998 165.63 25.0484 166.072 25.5239C166.514 25.9994 166.821 26.5844 166.961 27.2183C167.634 31.315 168.272 36.8864 167.452 40.1637C166.755 43.3036 165.183 46.182 162.919 48.4662C162.822 48.6056 162.69 48.7174 162.537 48.7908C162.384 48.8641 162.214 48.8966 162.045 48.885Z" fill="#34374C"/>
<path d="M156.4 44.8248H156.237C155.967 44.78 155.725 44.6306 155.565 44.409C155.405 44.1874 155.339 43.9115 155.381 43.6413C155.849 41.1719 156.6 38.7647 157.62 36.4676C162.117 25.962 164.066 25.5432 164.703 25.343C164.915 25.2841 165.137 25.2765 165.353 25.3208C165.568 25.3651 165.77 25.4601 165.941 25.5979C166.135 25.7354 166.275 25.9364 166.336 26.1661C166.398 26.3957 166.377 26.6396 166.277 26.8556C166.178 27.0716 166.006 27.2461 165.792 27.3489C165.578 27.4517 165.334 27.4763 165.103 27.4186C164.703 27.6735 162.991 29.2393 159.532 37.3052C158.571 39.4367 157.862 41.6732 157.42 43.969C157.371 44.2055 157.244 44.4186 157.059 44.5738C156.874 44.7291 156.642 44.8175 156.4 44.8248Z" fill="#34374C"/>
<path d="M162.882 48.0657C162.786 48.0835 162.687 48.0835 162.591 48.0657C162.461 48.0281 162.341 47.9652 162.236 47.8807C162.131 47.7961 162.043 47.6915 161.979 47.5729C161.915 47.4544 161.874 47.3243 161.861 47.1901C161.847 47.0559 161.86 46.9203 161.899 46.7912C162.709 43.9593 163.203 41.0467 163.374 38.1063C163.179 35.2007 162.508 32.3468 161.389 29.6582C161.336 29.534 161.307 29.4003 161.305 29.265C161.304 29.1297 161.329 28.9954 161.38 28.87C161.431 28.7446 161.506 28.6306 161.602 28.5346C161.697 28.4386 161.81 28.3625 161.936 28.3108C162.059 28.2545 162.193 28.2239 162.329 28.221C162.465 28.2182 162.601 28.2431 162.727 28.2942C162.853 28.3453 162.967 28.4216 163.063 28.5183C163.158 28.6151 163.233 28.7304 163.283 28.857C164.526 31.8008 165.259 34.9348 165.45 38.1245C165.282 41.2467 164.75 44.3385 163.866 47.3374C163.8 47.5473 163.669 47.731 163.493 47.8619C163.316 47.9928 163.102 48.0642 162.882 48.0657Z" fill="#34374C"/>
<path d="M86.4846 41.9845C86.3048 41.9825 86.1285 41.9346 85.9724 41.8454C85.8162 41.7562 85.6855 41.6286 85.5925 41.4747C84.3296 39.4055 83.5711 37.0684 83.3781 34.652C83.1852 32.2356 83.5633 29.8077 84.4818 27.5643C84.7124 26.9691 85.11 26.4531 85.6268 26.0785C86.1436 25.7038 86.7576 25.4864 87.395 25.4523C88.0456 25.4129 88.6936 25.5642 89.2596 25.8876C89.8256 26.211 90.2849 26.6925 90.5813 27.273C91.7266 29.6982 93.5072 31.7682 95.7339 33.2632C95.9754 33.396 96.1542 33.6193 96.231 33.8839C96.3078 34.1485 96.2764 34.4328 96.1436 34.6743C96.0108 34.9157 95.7875 35.0945 95.5229 35.1713C95.2583 35.2482 94.974 35.2167 94.7325 35.0839C92.1573 33.3942 90.0924 31.0334 88.7605 28.2562C88.6452 28.033 88.4656 27.8495 88.2449 27.7294C88.0242 27.6093 87.7725 27.5581 87.5224 27.5825C87.2803 27.5965 87.0471 27.6794 86.8504 27.8213C86.6536 27.9632 86.5015 28.1583 86.4118 28.3837C85.6294 30.3313 85.3109 32.4343 85.4816 34.5263C85.6522 36.6182 86.3073 38.6418 87.395 40.4369C87.5347 40.6736 87.5749 40.956 87.5066 41.2223C87.4383 41.4885 87.2672 41.7168 87.0308 41.8571C86.8633 41.9472 86.6748 41.9911 86.4846 41.9845Z" fill="#34374C"/>
<path d="M74.2675 89.9242C74.0385 89.9322 73.8134 89.8628 73.6286 89.7271C73.4439 89.5915 73.3102 89.3976 73.2492 89.1767C73.1882 88.9557 73.2034 88.7207 73.2923 88.5095C73.3813 88.2983 73.5388 88.1231 73.7395 88.0124C88.7969 79.1637 98.993 81.8584 99.4118 81.9676C99.6774 82.0401 99.9033 82.215 100.04 82.454C100.176 82.6931 100.213 82.9766 100.14 83.2421C100.068 83.5077 99.8927 83.7337 99.6537 83.8702C99.4146 84.0068 99.1312 84.0429 98.8656 83.9704C98.8656 83.9704 89.0336 81.4214 74.7773 89.7786C74.6229 89.8704 74.4472 89.9206 74.2675 89.9242Z" fill="#34374C"/>
<path d="M77.7997 96.4242C77.6519 96.4267 77.5054 96.3971 77.3702 96.3374C77.235 96.2776 77.1144 96.1892 77.0168 96.0782C76.8371 95.8724 76.746 95.6039 76.763 95.3313C76.7801 95.0586 76.9039 94.8036 77.1078 94.6217C90.2717 83.0965 99.2843 84.1525 99.6666 84.1889C99.9374 84.2296 100.182 84.3738 100.348 84.5912C100.515 84.8086 100.59 85.0822 100.559 85.3542C100.523 85.627 100.379 85.8742 100.161 86.0415C99.9424 86.2088 99.6663 86.2825 99.3935 86.2463C99.3025 86.2463 90.8543 85.336 78.4733 96.1693C78.2891 96.3364 78.0484 96.4275 77.7997 96.4242Z" fill="#34374C"/>
<path d="M71.6821 83.1875C71.472 83.1861 71.2672 83.121 71.0949 83.0007C70.9226 82.8804 70.7909 82.7106 70.7171 82.5138C70.6282 82.2553 70.6429 81.9722 70.7584 81.7243C70.8739 81.4764 71.081 81.283 71.3362 81.1847C87.7228 75.1763 99.7396 79.6007 100.249 79.801C100.391 79.837 100.523 79.9025 100.638 79.9932C100.752 80.0839 100.846 80.1977 100.913 80.3272C100.981 80.4567 101.02 80.599 101.029 80.7447C101.038 80.8905 101.015 81.0364 100.964 81.173C100.912 81.3096 100.833 81.4338 100.73 81.5375C100.627 81.6411 100.503 81.7219 100.367 81.7746C100.231 81.8272 100.085 81.8506 99.9395 81.843C99.7937 81.8355 99.6511 81.7973 99.5211 81.7309C99.3936 81.7309 87.6681 77.3976 72.0463 83.1329C71.9286 83.1703 71.8056 83.1887 71.6821 83.1875Z" fill="#34374C"/>
<path d="M138.375 97.9173C138.113 97.9176 137.86 97.8202 137.665 97.6441C125.485 86.2646 113.377 85.4271 113.268 85.4271C112.994 85.4083 112.738 85.2838 112.555 85.08C112.371 84.8761 112.274 84.6088 112.284 84.3346C112.291 84.199 112.325 84.0662 112.384 83.9439C112.443 83.8216 112.526 83.7123 112.628 83.6224C112.729 83.5325 112.848 83.4638 112.977 83.4204C113.105 83.377 113.241 83.3598 113.377 83.3696C113.905 83.3696 126.359 84.2436 139.086 96.1147C139.277 96.3089 139.384 96.5705 139.384 96.843C139.384 97.1156 139.277 97.3772 139.086 97.5713C138.997 97.6741 138.888 97.7578 138.766 97.8173C138.644 97.8767 138.511 97.9108 138.375 97.9173Z" fill="#34374C"/>
<path d="M133.059 103.853C132.894 103.853 132.732 103.813 132.587 103.737C132.441 103.661 132.315 103.551 132.221 103.416C122.408 89.9787 112.339 87.539 112.193 87.5025C111.958 87.4132 111.763 87.2413 111.645 87.0188C111.527 86.7964 111.494 86.5386 111.552 86.2935C111.609 86.0484 111.755 85.8327 111.96 85.6867C112.165 85.5406 112.416 85.4742 112.667 85.4997C113.104 85.4997 123.591 88.1398 133.86 102.196C134.019 102.421 134.083 102.7 134.038 102.972C133.994 103.244 133.845 103.489 133.623 103.652C133.459 103.773 133.263 103.843 133.059 103.853Z" fill="#34374C"/>
<path d="M136.354 88.4676C136.168 88.4733 135.984 88.4225 135.826 88.322C123.081 80.6931 113.377 83.0783 113.286 83.0965C113.155 83.13 113.02 83.1375 112.887 83.1185C112.753 83.0996 112.625 83.0546 112.509 82.9861C112.394 82.9176 112.292 82.827 112.212 82.7194C112.131 82.6119 112.072 82.4894 112.039 82.3591C112.005 82.2288 111.998 82.0932 112.017 81.96C112.035 81.8268 112.08 81.6986 112.149 81.5828C112.217 81.467 112.308 81.3658 112.416 81.285C112.523 81.2042 112.646 81.1454 112.776 81.1119C113.195 81.0027 123.427 78.4901 136.882 86.5741C137.119 86.7143 137.29 86.9426 137.358 87.2089C137.426 87.4751 137.386 87.7576 137.247 87.9943C137.149 88.1414 137.017 88.2618 136.861 88.3445C136.705 88.4272 136.531 88.4695 136.354 88.4676Z" fill="#34374C"/>
<path d="M130.055 117.599C112.466 117.599 99.7396 111.937 84.5365 97.4439C69.3334 82.9509 70.2984 70.133 73.0113 60.8472C75.9791 50.9971 88.0323 33.0993 108.151 27.0363C115.76 24.6771 123.673 23.4501 131.639 23.3949C140.78 23.2451 149.848 25.0451 158.24 28.675C158.397 28.7016 158.546 28.764 158.675 28.8574C158.804 28.9508 158.909 29.0727 158.984 29.2136C159.058 29.3544 159.099 29.5105 159.104 29.6698C159.108 29.8291 159.076 29.9872 159.009 30.1319C158.942 30.2766 158.843 30.4041 158.72 30.5044C158.596 30.6047 158.451 30.6752 158.295 30.7104C158.14 30.7456 157.979 30.7445 157.824 30.7073C157.669 30.67 157.524 30.5977 157.402 30.4957C149.274 26.9841 140.491 25.2461 131.639 25.3977C123.88 25.4311 116.168 26.6091 108.752 28.8935C89.4161 34.7562 77.7998 51.9075 75.0869 61.3388C72.3741 70.7702 71.5547 81.9859 86.0113 95.9327C100.923 110.225 112.885 115.524 130.055 115.524C155.654 115.524 178.686 101.122 186.097 80.5475C191.686 64.9985 184.021 47.7744 166.069 35.5937C165.946 35.5221 165.839 35.4258 165.754 35.311C165.67 35.1961 165.61 35.0652 165.579 34.9263C165.548 34.7874 165.545 34.6435 165.572 34.5036C165.598 34.3636 165.653 34.2307 165.733 34.1129C165.813 33.9952 165.917 33.8952 166.037 33.8193C166.158 33.7433 166.293 33.6929 166.433 33.6712C166.574 33.6496 166.718 33.6572 166.856 33.6935C166.993 33.7298 167.122 33.794 167.234 33.8823C186.006 46.6274 193.962 64.8346 188.045 81.2212C180.343 102.615 156.492 117.636 130.055 117.636V117.599Z" fill="#34374C"/>
<path d="M131.711 122.734H131.511C127.618 122.738 123.729 122.458 119.877 121.896L119.057 121.75L118.092 121.587L116.599 121.314C96.3348 117.126 93.4034 105.2 93.2941 104.69C93.2545 104.554 93.2431 104.412 93.2607 104.271C93.2783 104.13 93.3246 103.995 93.3966 103.873C93.4685 103.751 93.5648 103.645 93.6793 103.561C93.7938 103.478 93.9242 103.419 94.0625 103.387C94.2007 103.356 94.3439 103.354 94.4831 103.38C94.6224 103.406 94.7548 103.461 94.8721 103.54C94.9895 103.62 95.0893 103.722 95.1655 103.842C95.2417 103.961 95.2926 104.095 95.3151 104.235C95.3151 104.344 98.1555 115.396 117.018 119.293L118.438 119.547L119.44 119.73L120.168 119.893C123.924 120.44 127.715 120.714 131.511 120.713H131.693C140.597 120.713 169.601 118.419 181.818 89.9424C181.841 89.7836 181.901 89.6324 181.993 89.5006C182.085 89.3689 182.205 89.2602 182.346 89.1831C182.487 89.106 182.644 89.0626 182.804 89.0563C182.965 89.0501 183.124 89.0811 183.271 89.1469C183.417 89.2128 183.546 89.3117 183.648 89.4359C183.749 89.5601 183.821 89.7062 183.857 89.8627C183.892 90.0192 183.891 90.1818 183.853 90.3378C183.816 90.4938 183.742 90.6389 183.639 90.7617C171.021 120.349 140.943 122.734 131.711 122.734Z" fill="#34374C"/>
<path d="M117.965 138.356C117.327 138.36 116.699 138.197 116.144 137.882L112.357 135.697C111.807 135.38 111.349 134.924 111.03 134.374C110.71 133.825 110.54 133.201 110.536 132.566V128.196C110.543 127.564 110.715 126.944 111.034 126.398C111.353 125.852 111.809 125.399 112.357 125.083L116.144 122.898C116.698 122.578 117.326 122.41 117.965 122.41C118.604 122.41 119.232 122.578 119.786 122.898L123.573 125.083C124.121 125.399 124.576 125.852 124.896 126.398C125.215 126.944 125.387 127.564 125.394 128.196V132.639C125.39 133.274 125.22 133.898 124.9 134.447C124.581 134.996 124.123 135.453 123.573 135.77L119.786 137.955C119.224 138.244 118.596 138.382 117.965 138.356ZM117.965 124.482C117.697 124.481 117.434 124.55 117.2 124.682L113.395 126.867C113.162 127.002 112.968 127.195 112.834 127.429C112.7 127.662 112.629 127.927 112.63 128.196V132.639C112.628 132.911 112.698 133.178 112.832 133.415C112.966 133.651 113.16 133.848 113.395 133.986L117.182 136.171C117.418 136.305 117.685 136.375 117.956 136.375C118.227 136.375 118.494 136.305 118.73 136.171L122.517 133.986C122.751 133.848 122.946 133.651 123.08 133.415C123.214 133.178 123.284 132.911 123.281 132.639V128.269C123.282 128 123.212 127.735 123.078 127.502C122.943 127.268 122.75 127.074 122.517 126.94L118.73 124.755C118.501 124.602 118.239 124.508 117.965 124.482Z" fill="#34374C"/>
<path d="M119.258 138.374H117.965C117.818 138.393 117.669 138.381 117.528 138.339C117.386 138.296 117.255 138.223 117.144 138.126C117.033 138.029 116.944 137.909 116.883 137.774C116.822 137.639 116.79 137.493 116.79 137.345C116.79 137.197 116.822 137.051 116.883 136.917C116.944 136.782 117.033 136.662 117.144 136.564C117.255 136.467 117.386 136.394 117.528 136.352C117.669 136.309 117.818 136.297 117.965 136.317H119.786C120.016 136.297 120.239 136.229 120.441 136.116L124.228 133.913C124.466 133.782 124.664 133.59 124.802 133.356C124.94 133.122 125.012 132.855 125.011 132.584V128.214C125.008 127.944 124.934 127.678 124.797 127.445C124.66 127.212 124.464 127.019 124.228 126.885L120.441 124.7C120.208 124.568 119.944 124.499 119.676 124.5H117.856C117.709 124.52 117.56 124.508 117.418 124.465C117.277 124.422 117.146 124.35 117.035 124.252C116.924 124.155 116.834 124.035 116.773 123.9C116.712 123.765 116.681 123.619 116.681 123.471C116.681 123.323 116.712 123.177 116.773 123.043C116.834 122.908 116.924 122.788 117.035 122.69C117.146 122.593 117.277 122.521 117.418 122.478C117.56 122.435 117.709 122.423 117.856 122.443H119.676C120.314 122.438 120.942 122.601 121.497 122.916L125.284 125.101C125.832 125.417 126.288 125.87 126.607 126.416C126.926 126.962 127.098 127.582 127.105 128.214V132.639C127.101 133.274 126.931 133.898 126.612 134.447C126.292 134.996 125.835 135.453 125.284 135.77L121.497 137.955C121.018 138.23 120.482 138.392 119.931 138.429L119.258 138.374Z" fill="#34374C"/>
<path d="M119.494 124.482C119.327 124.482 119.163 124.442 119.014 124.366C118.865 124.29 118.737 124.18 118.639 124.045C118.483 123.82 118.422 123.542 118.47 123.273C118.518 123.004 118.67 122.764 118.894 122.606C119.078 122.427 119.193 122.188 119.221 121.933C118.914 121.814 118.584 121.77 118.256 121.805C117.619 121.805 117.455 121.969 117.455 121.969C117.491 122.218 117.585 122.455 117.728 122.661C117.803 122.773 117.855 122.899 117.881 123.031C117.907 123.164 117.906 123.3 117.879 123.432C117.852 123.564 117.799 123.689 117.723 123.801C117.647 123.912 117.55 124.008 117.437 124.081C117.327 124.159 117.202 124.214 117.07 124.243C116.938 124.272 116.801 124.273 116.669 124.248C116.536 124.222 116.41 124.17 116.298 124.095C116.186 124.019 116.09 123.922 116.017 123.808C115.728 123.405 115.541 122.936 115.475 122.445C115.408 121.953 115.463 121.452 115.634 120.986C115.906 120.561 116.289 120.22 116.742 119.998C117.195 119.776 117.7 119.684 118.202 119.73C120.332 119.73 120.987 120.695 121.169 121.295C121.302 121.848 121.27 122.428 121.076 122.962C120.881 123.496 120.534 123.961 120.077 124.3C119.906 124.42 119.703 124.483 119.494 124.482Z" fill="#34374C"/>
<path d="M120.168 122.606C119.958 122.605 119.753 122.54 119.581 122.419C119.409 122.299 119.277 122.129 119.203 121.933C118.898 121.005 118.816 120.018 118.965 119.053C119.113 118.088 119.488 117.172 120.059 116.379C119.811 116.295 119.555 116.24 119.294 116.216C119.024 116.247 118.765 116.339 118.535 116.484C118.305 116.629 118.11 116.823 117.965 117.053C117.634 117.526 117.431 118.075 117.373 118.649C117.316 119.223 117.407 119.802 117.637 120.33C117.75 120.577 117.762 120.858 117.67 121.113C117.578 121.369 117.39 121.578 117.146 121.696C117.022 121.755 116.889 121.788 116.753 121.795C116.617 121.802 116.48 121.783 116.352 121.737C116.223 121.691 116.105 121.621 116.004 121.529C115.903 121.438 115.82 121.328 115.762 121.204C115.381 120.342 115.229 119.396 115.321 118.458C115.414 117.52 115.748 116.622 116.29 115.851C116.631 115.311 117.109 114.87 117.674 114.573C118.24 114.276 118.874 114.133 119.513 114.158C122.244 114.449 122.426 116.161 122.444 116.361C122.453 116.509 122.429 116.657 122.376 116.795C122.323 116.933 122.24 117.059 122.134 117.162C121.611 117.682 121.242 118.337 121.069 119.053C120.895 119.77 120.924 120.521 121.151 121.223C121.24 121.481 121.225 121.764 121.11 122.012C120.995 122.26 120.787 122.453 120.532 122.552C120.414 122.588 120.291 122.606 120.168 122.606Z" fill="#34374C"/>
<path d="M137.72 148.169C137.47 148.136 137.242 148.013 137.076 147.824C136.91 147.635 136.819 147.392 136.819 147.141C136.819 146.889 136.91 146.646 137.076 146.457C137.242 146.268 137.47 146.145 137.72 146.112C137.884 146.112 144.711 145.456 161.389 127.595C161.585 127.434 161.833 127.349 162.086 127.358C162.34 127.367 162.581 127.469 162.765 127.644C162.949 127.818 163.062 128.054 163.084 128.307C163.105 128.56 163.034 128.812 162.882 129.015C145.148 147.933 137.975 148.169 137.683 148.169H137.72Z" fill="#34374C"/>
<path d="M137.374 174.133C120.769 174.133 114.669 165.12 114.378 164.647C114.303 164.535 114.251 164.409 114.225 164.277C114.2 164.144 114.2 164.008 114.227 163.876C114.254 163.744 114.307 163.619 114.383 163.507C114.459 163.396 114.556 163.3 114.669 163.227C114.902 163.081 115.183 163.032 115.451 163.09C115.72 163.148 115.955 163.308 116.108 163.536C116.108 163.664 124.72 176.118 149.354 170.655C174.371 165.084 183.948 151.865 183.948 151.738C184.106 151.515 184.345 151.362 184.615 151.315C184.884 151.267 185.162 151.327 185.386 151.483C185.61 151.641 185.762 151.88 185.81 152.15C185.858 152.419 185.797 152.697 185.641 152.921C185.241 153.504 175.536 166.923 149.737 172.658C145.681 173.597 141.536 174.092 137.374 174.133Z" fill="#34374C"/>
<path d="M97.4817 170.164C92.375 170.213 87.3306 169.04 82.7703 166.741C82.5757 166.594 82.439 166.383 82.3843 166.145C82.3297 165.908 82.3604 165.658 82.4712 165.441C82.582 165.224 82.7658 165.053 82.9902 164.957C83.2147 164.862 83.4656 164.849 83.6988 164.92C87.972 167.072 92.6977 168.17 97.4817 168.124C113.577 168.124 123.846 155.962 127.214 151.956L127.451 151.683C131.092 147.314 134.461 145.547 137.902 146.221C138.158 146.284 138.381 146.442 138.525 146.663C138.669 146.884 138.723 147.152 138.677 147.412C138.63 147.671 138.487 147.904 138.275 148.061C138.064 148.219 137.8 148.29 137.538 148.26C135.899 147.951 133.204 148.151 129.017 153.085L128.78 153.358C125.266 157.455 114.542 170.164 97.4817 170.164Z" fill="#34374C"/>
<path d="M137.72 148.169C137.505 148.173 137.295 148.11 137.119 147.987C131.511 144 125.284 142.671 116.964 143.654C116.691 143.685 116.417 143.606 116.202 143.436C115.987 143.265 115.848 143.016 115.817 142.744C115.799 142.61 115.808 142.473 115.843 142.343C115.878 142.212 115.939 142.09 116.022 141.983C116.105 141.877 116.209 141.787 116.327 141.721C116.444 141.655 116.574 141.612 116.709 141.597C125.594 140.541 132.258 141.997 138.321 146.312C138.541 146.473 138.69 146.714 138.734 146.983C138.778 147.252 138.715 147.528 138.557 147.751C138.459 147.88 138.333 147.985 138.188 148.058C138.042 148.131 137.882 148.169 137.72 148.169Z" fill="#34374C"/>
<path d="M97.2451 143.563C97.0454 143.562 96.8499 143.505 96.6807 143.399C94.0275 141.611 91.8924 139.156 90.4902 136.28C90.452 136.055 90.4891 135.824 90.5957 135.622C90.7023 135.42 90.8724 135.259 91.0797 135.164C91.287 135.068 91.52 135.044 91.7425 135.094C91.9651 135.145 92.1649 135.267 92.3109 135.443C93.552 137.972 95.4355 140.132 97.7731 141.706C97.936 141.833 98.0563 142.007 98.118 142.205C98.1798 142.402 98.18 142.613 98.1188 142.811C98.0576 143.008 97.9377 143.183 97.7752 143.31C97.6126 143.438 97.4151 143.514 97.2087 143.527L97.2451 143.563Z" fill="#34374C"/>
<path d="M107.132 149.025C99.8487 149.025 96.2073 147.204 96.2073 143.854C96.2073 140.213 101.069 135.661 107.132 135.661C113.195 135.661 118.056 140.14 118.056 143.854C118.038 147.204 114.36 149.025 107.132 149.025ZM107.132 137.718C102.088 137.718 98.2829 141.36 98.2829 143.854C98.2829 146.567 103.745 146.968 107.132 146.968C110.518 146.968 115.962 146.567 115.962 143.854C115.962 141.414 112.175 137.682 107.132 137.682V137.718Z" fill="#34374C"/>
<path d="M83.2256 166.85C83.0315 166.849 82.8417 166.793 82.6794 166.686C72.7018 160.259 70.608 147.914 76.8348 131.928C80.6065 121.923 86.5802 112.894 94.3138 105.51C94.4147 105.418 94.5328 105.348 94.6612 105.303C94.7895 105.259 94.9256 105.24 95.0613 105.248C95.197 105.257 95.3297 105.292 95.4515 105.353C95.5733 105.413 95.6817 105.498 95.7704 105.601C95.9478 105.809 96.0359 106.079 96.0154 106.351C95.995 106.624 95.8677 106.878 95.6612 107.057C88.227 114.251 82.4541 122.981 78.7466 132.639C72.8292 147.878 74.65 159.039 83.7536 164.938C83.9822 165.091 84.1423 165.326 84.2001 165.595C84.2579 165.863 84.2088 166.144 84.0631 166.377C83.9733 166.518 83.8498 166.636 83.7037 166.718C83.5576 166.801 83.3934 166.846 83.2256 166.85Z" fill="#34374C"/>
<path d="M121.479 65.3809C122.756 65.3809 123.791 64.3456 123.791 63.0686C123.791 61.7915 122.756 60.7562 121.479 60.7562C120.202 60.7562 119.167 61.7915 119.167 63.0686C119.167 64.3456 120.202 65.3809 121.479 65.3809Z" fill="#34374C"/>
<path d="M104.018 65.3809C105.295 65.3809 106.33 64.3456 106.33 63.0686C106.33 61.7915 105.295 60.7562 104.018 60.7562C102.741 60.7562 101.706 61.7915 101.706 63.0686C101.706 64.3456 102.741 65.3809 104.018 65.3809Z" fill="#34374C"/>
<path d="M122.917 77.1791H122.626C118.512 77.1117 114.589 75.4313 111.702 72.4998C110.266 71.0709 109.134 69.3668 108.374 67.4897C107.613 65.6125 107.239 63.6011 107.275 61.576C107.311 59.5509 107.755 57.5538 108.581 55.7047C109.408 53.8555 110.599 52.1924 112.084 50.815C114.312 48.7102 117.105 47.3012 120.122 46.7607C123.139 46.2201 126.248 46.5716 129.068 47.7718C131.888 48.9721 134.296 50.9691 135.998 53.518C137.7 56.067 138.621 59.057 138.649 62.1217C138.615 64.1494 138.171 66.1494 137.345 68.0016C136.519 69.8538 135.328 71.5201 133.842 72.9004C130.888 75.682 126.974 77.215 122.917 77.1791ZM122.917 48.5937C119.419 48.5589 116.039 49.8614 113.468 52.2351C112.162 53.4314 111.113 54.8816 110.387 56.497C109.661 58.1125 109.272 59.8591 109.244 61.6301C109.21 63.3801 109.53 65.1189 110.184 66.7426C110.838 68.3662 111.812 69.8413 113.049 71.0797C115.593 73.6238 119.026 75.08 122.624 75.1412C126.221 75.2023 129.702 73.8636 132.331 71.4074C133.63 70.2209 134.674 68.7827 135.4 67.1802C136.126 65.5777 136.519 63.8443 136.555 62.0853C136.564 58.523 135.161 55.1023 132.652 52.5732C130.144 50.044 126.735 48.613 123.172 48.5937H122.917Z" fill="#34374C"/>
<path d="M102.216 72.2085H101.961C100.222 72.1925 98.5039 71.8337 96.9042 71.1526C95.3046 70.4715 93.855 69.4815 92.6386 68.2393C91.4159 67.031 90.4526 65.5858 89.8077 63.9923C89.1628 62.3988 88.8498 60.6905 88.8879 58.9718C88.9183 57.2594 89.2935 55.5707 89.9911 54.0066C90.6887 52.4425 91.6944 51.035 92.9481 49.8682C95.4478 47.521 98.7502 46.2182 102.179 46.2267H102.434C104.493 46.2633 106.516 46.7753 108.345 47.7228C110.174 48.6703 111.759 50.0277 112.976 51.6889C113.071 51.7964 113.143 51.9224 113.187 52.0591C113.231 52.1958 113.247 52.3401 113.232 52.483C113.218 52.6258 113.173 52.7641 113.103 52.8891C113.032 53.014 112.936 53.1229 112.821 53.2089C112.706 53.2948 112.574 53.356 112.434 53.3885C112.294 53.4209 112.149 53.424 112.008 53.3975C111.867 53.371 111.733 53.3155 111.614 53.2345C111.496 53.1535 111.395 53.0488 111.319 52.927C110.35 51.6505 109.123 50.5913 107.719 49.8179C106.315 49.0445 104.764 48.574 103.167 48.4368C101.57 48.2995 99.9616 48.4986 98.4461 49.0211C96.9306 49.5436 95.5415 50.378 94.3683 51.4704C93.3118 52.4555 92.4646 53.6431 91.8769 54.9626C91.2893 56.2821 90.9733 57.7064 90.9478 59.1506C90.9223 60.5948 91.1878 62.0293 91.7286 63.3687C92.2693 64.7081 93.0741 65.9249 94.0952 66.9466C96.083 68.925 98.725 70.1093 101.525 70.2769C104.324 70.4446 107.088 69.584 109.298 67.857C109.512 67.6915 109.782 67.6161 110.051 67.6467C110.319 67.6773 110.565 67.8115 110.737 68.0208C110.824 68.1263 110.889 68.2482 110.928 68.3793C110.967 68.5104 110.979 68.648 110.963 68.7839C110.948 68.9198 110.906 69.0512 110.839 69.1704C110.771 69.2895 110.681 69.3939 110.573 69.4774C108.168 71.2904 105.227 72.2512 102.216 72.2085Z" fill="#34374C"/>
<path d="M137.538 62.8864H90.1989C90.0523 62.9059 89.9033 62.8939 89.7617 62.8511C89.6201 62.8084 89.4894 62.7359 89.3781 62.6385C89.2668 62.5411 89.1777 62.421 89.1166 62.2863C89.0555 62.1517 89.0239 62.0055 89.0239 61.8576C89.0239 61.7098 89.0555 61.5636 89.1166 61.4289C89.1777 61.2943 89.2668 61.1742 89.3781 61.0768C89.4894 60.9794 89.6201 60.9069 89.7617 60.8641C89.9033 60.8214 90.0523 60.8094 90.1989 60.8289H137.538C137.684 60.8094 137.833 60.8214 137.975 60.8641C138.117 60.9069 138.247 60.9794 138.359 61.0768C138.47 61.1742 138.559 61.2943 138.62 61.4289C138.681 61.5636 138.713 61.7098 138.713 61.8576C138.713 62.0055 138.681 62.1517 138.62 62.2863C138.559 62.421 138.47 62.5411 138.359 62.6385C138.247 62.7359 138.117 62.8084 137.975 62.8511C137.833 62.8939 137.684 62.9059 137.538 62.8864Z" fill="#34374C"/>
<defs>
<linearGradient id="paint0_linear" x1="118.93" y1="123.771" x2="118.93" y2="137.336" gradientUnits="userSpaceOnUse">
<stop stop-color="#F48F41"/>
<stop offset="1" stop-color="#F05E2D"/>
</linearGradient>
</defs>
</svg>
