<svg width="64" height="48" viewBox="0 0 64 48" fill="none" xmlns="http://www.w3.org/2000/svg">
<path d="M57.8002 26.7001C57.8002 39.6 46.3002 46.5 32.0002 46.5C17.7002 46.5 6.2002 39.6 6.2002 26.7001C6.2002 13.8001 17.8002 1.80005 32.0002 1.80005C46.2002 1.80005 57.8002 13.8001 57.8002 26.7001Z" stroke="#70B545" stroke-width="2" stroke-miterlimit="10" stroke-linecap="round" stroke-linejoin="round"/>
<path d="M1 19.6L9.8 21.3" stroke="#70B545" stroke-width="2" stroke-miterlimit="10" stroke-linecap="round" stroke-linejoin="round"/>
<path d="M1 27.1H9.8" stroke="#70B545" stroke-width="2" stroke-miterlimit="10" stroke-linecap="round" stroke-linejoin="round"/>
<path d="M63.0002 19.6L54.2002 21.3" stroke="#70B545" stroke-width="2" stroke-miterlimit="10" stroke-linecap="round" stroke-linejoin="round"/>
<path d="M63.0002 27.1H54.2002" stroke="#70B545" stroke-width="2" stroke-miterlimit="10" stroke-linecap="round" stroke-linejoin="round"/>
<path d="M14.4004 8.5V1.2C14.4004 1.1 14.5004 1 14.6004 1C14.6004 1 14.6004 1 14.7004 1L19.6004 4.9" stroke="#70B545" stroke-width="2" stroke-miterlimit="10" stroke-linecap="round" stroke-linejoin="round"/>
<path d="M44.5 4.9L49.4 1C49.4 1 49.4 1 49.5 1C49.6 1 49.7 1.1 49.7 1.2V8.5" stroke="#70B545" stroke-width="2" stroke-miterlimit="10" stroke-linecap="round" stroke-linejoin="round"/>
<path d="M32 28.1V30.5" stroke="#70B545" stroke-width="2" stroke-miterlimit="10" stroke-linecap="round" stroke-linejoin="round"/>
<path d="M34.1999 25.9L32.4999 27.6C32.1999 27.9 31.7999 27.9 31.5999 27.6L29.8999 25.9C29.4999 25.5 29.7999 24.8 30.3999 24.8H33.7999C34.2999 24.7 34.5999 25.4 34.1999 25.9Z" stroke="#70B545" stroke-width="2" stroke-miterlimit="10" stroke-linecap="round" stroke-linejoin="round"/>
<path d="M28.0996 21C28.0996 18.8 26.2996 17 24.0996 17C21.8996 17 20.0996 18.8 20.0996 21" stroke="#70B545" stroke-width="2" stroke-miterlimit="10" stroke-linecap="round" stroke-linejoin="round"/>
<path d="M35.8994 21C35.8994 18.8 37.6994 17 39.8994 17C42.0994 17 43.8994 18.8 43.8994 21" stroke="#70B545" stroke-width="2" stroke-miterlimit="10" stroke-linecap="round" stroke-linejoin="round"/>
<path d="M21.7998 32.3C22.4998 34.3 24.3998 35.8 26.6998 35.8C29.5998 35.8 31.9998 33.4 31.9998 30.5" stroke="#70B545" stroke-width="2" stroke-miterlimit="10" stroke-linecap="round" stroke-linejoin="round"/>
<path d="M32 30.5C32 33.4 34.4 35.8 37.3 35.8C39.6 35.8 41.5 34.3 42.2 32.3" stroke="#70B545" stroke-width="2" stroke-miterlimit="10" stroke-linecap="round" stroke-linejoin="round"/>
</svg>
