<svg width="48" height="36" viewBox="0 0 48 36" fill="none" xmlns="http://www.w3.org/2000/svg">
<path d="M25 25C25 24.4 24.6 24 24 24H16C15.4 24 15 24.4 15 25C15 25.6 15.4 26 16 26H24C24.6 26 25 25.6 25 25Z" fill="#454AFD"/>
<path d="M23 22C23 21.4 22.6 21 22 21H14C13.4 21 13 21.4 13 22C13 22.6 13.4 23 14 23H22C22.6 23 23 22.6 23 22Z" fill="#454AFD"/>
<path d="M17 16C17 16.6 17.4 17 18 17H22C22.6 17 23 16.6 23 16C23 15.4 22.6 15 22 15H18C17.4 15 17 15.4 17 16Z" fill="#454AFD"/>
<path d="M31 16C31 15.4 30.6 15 30 15H25C24.4 15 24 15.4 24 16C24 16.6 24.4 17 25 17H30C30.6 17 31 16.6 31 16Z" fill="#454AFD"/>
<path d="M25 23H26C26.6 23 27 22.6 27 22C27 21.4 26.6 21 26 21H25C24.4 21 24 21.4 24 22C24 22.6 24.4 23 25 23Z" fill="#454AFD"/>
<path d="M29 25C29 25.6 29.4 26 30 26H34C34.6 26 35 25.6 35 25C35 24.4 34.6 24 34 24H30C29.4 24 29 24.4 29 25Z" fill="#454AFD"/>
<path d="M31 23C31.6 23 32 22.6 32 22C32 21.4 31.6 21 31 21H29C28.4 21 28 21.4 28 22C28 22.6 28.4 23 29 23H31Z" fill="#454AFD"/>
<path d="M26 18C25.4 18 25 18.4 25 19C25 19.6 25.4 20 26 20H28C28.6 20 29 19.6 29 19C29 18.4 28.6 18 28 18H26Z" fill="#454AFD"/>
<path d="M23 18H21C20.4 18 20 18.4 20 19C20 19.6 20.4 20 21 20H23C23.6 20 24 19.6 24 19C24 18.4 23.6 18 23 18Z" fill="#454AFD"/>
<path d="M17 18C16.4 18 16 18.4 16 19C16 19.6 16.4 20 17 20H18C18.6 20 19 19.6 19 19C19 18.4 18.6 18 18 18H17Z" fill="#454AFD"/>
<path d="M27 26C27.5523 26 28 25.5523 28 25C28 24.4477 27.5523 24 27 24C26.4477 24 26 24.4477 26 25C26 25.5523 26.4477 26 27 26Z" fill="#454AFD"/>
<path d="M15 17C15.5523 17 16 16.5523 16 16C16 15.4477 15.5523 15 15 15C14.4477 15 14 15.4477 14 16C14 16.5523 14.4477 17 15 17Z" fill="#454AFD"/>
<path d="M18.3 11.7C18.5 11.9 18.8 12 19 12C19.2 12 19.5 11.9 19.7 11.7C20.1 11.3 20.1 10.7 19.7 10.3L18.4 9L19.7 7.7C20.1 7.3 20.1 6.7 19.7 6.3C19.3 5.9 18.7 5.9 18.3 6.3L16.3 8.3C15.9 8.7 15.9 9.3 16.3 9.7L18.3 11.7Z" fill="#454AFD"/>
<path d="M28.3 11.7C28.5 11.9 28.8 12 29 12C29.2 12 29.5 11.9 29.7 11.7L31.7 9.7C32.1 9.3 32.1 8.7 31.7 8.3L29.7 6.3C29.3 5.9 28.7 5.9 28.3 6.3C27.9 6.7 27.9 7.3 28.3 7.7L29.6 9L28.3 10.3C27.9 10.7 27.9 11.3 28.3 11.7Z" fill="#454AFD"/>
<path d="M22.7001 12.8999C22.8001 12.8999 22.9001 12.9999 23.0001 12.9999C23.4001 12.9999 23.8001 12.6999 23.9001 12.2999L25.9001 6.2999C26.1001 5.7999 25.8001 5.1999 25.3001 4.9999C24.8001 4.7999 24.2001 5.0999 24.0001 5.5999L22.0001 11.5999C21.9001 12.1999 22.2001 12.7999 22.7001 12.8999Z" fill="#454AFD"/>
<path d="M46 29V5C46 2.2 43.8 0 41 0H7C4.2 0 2 2.2 2 5V29C0.9 29 0 29.9 0 31V33C0 34.7 1.3 36 3 36H45C46.7 36 48 34.7 48 33V31C48 29.9 47.1 29 46 29ZM4 5C4 3.3 5.3 2 7 2H41C42.7 2 44 3.3 44 5V29H29.7C29.1 29 28.4 29.2 27.9 29.6L27 30.3C26.8 30.4 26.6 30.5 26.4 30.5H21.7C21.5 30.5 21.3 30.4 21.1 30.3L20.2 29.6C19.6 29.2 19 29 18.3 29H4V5ZM46 33C46 33.6 45.6 34 45 34H3C2.4 34 2 33.6 2 33V31H18.3C18.5 31 18.7 31.1 18.9 31.2L19.8 31.9C20.3 32.3 21 32.5 21.6 32.5H26.3C26.9 32.5 27.6 32.3 28.1 31.9L29 31.2C29.2 31.1 29.4 31 29.6 31H46V33Z" fill="#454AFD"/>
</svg>
