<svg width="48" height="48" viewBox="0 0 48 48" fill="none" xmlns="http://www.w3.org/2000/svg">
<path d="M22 41H10C5 41 1 37 1 32V13H33V21" stroke="#454AFD" stroke-width="2" stroke-miterlimit="10" stroke-linecap="round" stroke-linejoin="round"/>
<path d="M36 24C29.4 24 24 29.4 24 36C24 42.6 29.4 48 36 48C42.6 48 48 42.6 48 36C48 29.4 42.6 24 36 24ZM36 46C30.5 46 26 41.5 26 36C26 30.5 30.5 26 36 26C41.5 26 46 30.5 46 36C46 41.5 41.5 46 36 46Z" fill="#454AFD"/>
<path d="M13.2 4.69995C12.9 4.29995 12.7 3.99995 12.7 3.49995C12.7 2.99995 12.9 2.69995 13.2 2.29995C13.4 1.99995 13.7 1.59995 13.9 1.09995C14 0.699946 13.8 0.199946 13.4 0.0999463C13 -5.37112e-05 12.5 0.199946 12.4 0.599946C12.3 0.899946 12.1 1.09995 11.9 1.29995C11.5 1.79995 11 2.39995 11 3.49995C11 4.59995 11.5 5.19995 11.9 5.69995C12.2 6.09995 12.4 6.39995 12.4 6.89995C12.4 7.39995 12.2 7.69995 11.9 8.19995C11.5 8.59995 11 9.19995 11 10.1999C11 10.5999 11.4 10.9999 11.8 10.9999C12.3 10.9999 12.6 10.5999 12.6 10.1999C12.6 9.79995 12.8 9.49995 13.1 9.09995C13.5 8.49995 14 7.89995 14 6.79995C14 5.79995 13.5 5.19995 13.2 4.69995Z" fill="#454AFD"/>
<path d="M18.2 4.69995C17.9 4.29995 17.7 3.99995 17.7 3.49995C17.7 2.99995 17.9 2.69995 18.2 2.29995C18.4 1.99995 18.7 1.59995 18.9 1.09995C19 0.699946 18.8 0.199946 18.4 0.0999463C18 -5.37112e-05 17.5 0.199946 17.4 0.599946C17.3 0.899946 17.1 1.09995 16.9 1.29995C16.5 1.79995 16 2.39995 16 3.49995C16 4.59995 16.5 5.19995 16.9 5.69995C17.2 6.09995 17.4 6.39995 17.4 6.89995C17.4 7.39995 17.2 7.69995 16.9 8.19995C16.5 8.59995 16 9.19995 16 10.1999C16 10.5999 16.4 10.9999 16.8 10.9999C17.3 10.9999 17.6 10.5999 17.6 10.1999C17.6 9.79995 17.8 9.49995 18.1 9.09995C18.5 8.49995 19 7.89995 19 6.79995C19 5.79995 18.5 5.19995 18.2 4.69995Z" fill="#454AFD"/>
<path d="M23.2 4.69995C22.9 4.29995 22.7 3.99995 22.7 3.49995C22.7 2.99995 22.9 2.69995 23.2 2.29995C23.4 1.99995 23.7 1.59995 23.9 1.09995C24 0.699946 23.8 0.199946 23.4 0.0999463C23 -5.37112e-05 22.5 0.199946 22.4 0.599946C22.3 0.899946 22.1 1.09995 21.9 1.29995C21.5 1.79995 21 2.39995 21 3.49995C21 4.59995 21.5 5.19995 21.9 5.69995C22.2 6.09995 22.4 6.39995 22.4 6.89995C22.4 7.39995 22.2 7.69995 21.9 8.19995C21.5 8.59995 21 9.19995 21 10.1999C21 10.5999 21.4 10.9999 21.8 10.9999C22.3 10.9999 22.6 10.5999 22.6 10.1999C22.6 9.79995 22.8 9.49995 23.1 9.09995C23.5 8.49995 24 7.89995 24 6.79995C24 5.79995 23.5 5.19995 23.2 4.69995Z" fill="#454AFD"/>
<path d="M33 18H36C38.2 18 40 19.8 40 22" stroke="#454AFD" stroke-width="2" stroke-miterlimit="10" stroke-linecap="round" stroke-linejoin="round"/>
<path d="M12.5 36C8.9 36 6 33.1 6 29.5V26" stroke="#454AFD" stroke-width="2" stroke-miterlimit="10" stroke-linecap="round" stroke-linejoin="round"/>
<path d="M16 37C16.5523 37 17 36.5523 17 36C17 35.4477 16.5523 35 16 35C15.4477 35 15 35.4477 15 36C15 36.5523 15.4477 37 16 37Z" fill="#454AFD"/>
<path d="M27 18H1" stroke="#454AFD" stroke-width="2" stroke-miterlimit="10" stroke-linecap="round" stroke-linejoin="round"/>
<path d="M34 41H36.5C37.9 41 39 39.9 39 38.5C39 37.1 37.9 36 36.5 36H35.5C34.1 36 33 34.9 33 33.5C33 32.1 34.1 31 35.5 31H38" stroke="#454AFD" stroke-width="2" stroke-miterlimit="10" stroke-linecap="round" stroke-linejoin="round"/>
<path d="M36 29V31" stroke="#454AFD" stroke-width="2" stroke-miterlimit="10" stroke-linecap="round" stroke-linejoin="round"/>
<path d="M36 41V43" stroke="#454AFD" stroke-width="2" stroke-miterlimit="10" stroke-linecap="round" stroke-linejoin="round"/>
</svg>
