<svg width="244" height="203" viewBox="0 0 244 203" fill="none" xmlns="http://www.w3.org/2000/svg">
<path d="M123.054 15.0499C104.41 28.6575 83.6636 30.4424 61.7681 26.095C39.8903 21.7477 21.5821 20.9701 7.25021 41.4875C-7.06406 62.005 -1.70946 100.636 37.1158 110.162C74.1208 119.245 80.2883 149.005 86.8623 170.141C94.8146 195.784 118.689 206.44 143.359 201.315C168.029 196.19 174.798 178.041 184.341 150.013C193.883 122.002 205.158 118.538 221.752 110.162C242.075 99.8942 259.323 68.8972 222.159 51.3663C173.596 28.4631 177.272 -24.5006 123.054 15.0499Z" fill="#EAE6FF"/>
<path d="M84.8648 87.6786C84.8648 87.6786 84.5399 92.2687 87.6299 99.4304C90.7199 106.592 97.6535 111.341 97.6535 111.341H168.565C172.188 108.011 175.253 104.12 177.642 99.8175C181.098 93.2434 181.043 88.5565 181.043 88.5565C181.043 88.5565 173.771 78.4085 153.392 75.0558C133.013 71.7031 120.487 74.1018 109.751 75.6849C99.0153 77.2679 84.8648 87.6786 84.8648 87.6786Z" fill="#F39200"/>
<path d="M55.3747 158.176L59.0108 158.452C59.0108 158.452 58.9209 167.792 62.4672 167.633C66.0135 167.474 68.6334 164.771 68.6334 164.771L69.5805 166.734C69.5805 166.734 67.2785 171.006 68.7026 173.17C70.1266 175.333 74.1499 173.647 74.1499 173.647L79.1271 170.322C79.2906 169.657 79.2924 168.964 79.1325 168.298C78.9725 167.633 78.6554 167.016 78.2077 166.499C76.6592 164.722 73.0231 159.793 73.0231 159.793L66.8638 150.081C66.8638 150.081 64.4235 148.484 62.4672 149.314C60.5109 150.143 58.4647 150.288 55.3608 150.696C52.257 151.104 50.1209 150.862 48.7591 153.047C47.3973 155.231 46.6853 156.71 46.6853 156.71C46.6853 156.71 42.662 156.178 39.9867 159.012C37.3115 161.847 37.6848 167.999 37.6848 167.999C37.6848 167.999 39.2125 173.578 41.2034 172.147C42.3393 171.353 43.3746 170.425 44.2865 169.382C44.2865 169.382 48.0816 170.695 49.7131 169.382C51.0406 168.155 52.2025 166.761 53.1695 165.234L55.3747 158.176Z" fill="#F39200"/>
<path d="M82.0582 111.341C82.0582 111.341 76.2306 108.03 74.5923 99.714C72.954 91.3979 79.2654 78.9756 79.2654 78.9756C79.2654 78.9756 91.3766 55.0019 107.103 43.0635C122.83 31.1251 133.089 31.4984 133.089 31.4984C133.089 31.4984 145.781 31.9961 154.988 39.061C164.196 46.1259 171.579 51.5041 177.801 62.0461C184.022 72.5881 188.619 82.8537 188.619 82.8537C188.619 82.8537 192.822 95.8359 191.661 99.4444C190.824 101.89 189.726 104.238 188.384 106.447L183.124 111.362H168.607C168.607 111.362 175.125 105.832 177.683 99.8385C179.227 96.2211 180.368 92.4447 181.084 88.5775C181.084 88.5775 179.404 83.4344 162.482 77.676C145.559 71.9176 127.137 73.3831 127.137 73.3831C127.137 73.3831 109.35 73.4384 97.0866 79.7982C84.8233 86.158 84.8993 89.4762 84.8993 89.4762C84.8993 89.4762 86.2819 99.002 89.7383 103.046C93.1947 107.09 99.2503 111.341 97.7226 111.341H82.0582Z" fill="#C9EA63"/>
<path d="M77.9312 127.725L81.3393 169.063L79.1686 170.321C79.1686 170.321 80.4821 168.379 78.2492 166.499C76.0164 164.618 73.0646 159.793 73.0646 159.793L66.9053 150.081L65.1909 149.313L67.7072 144.938L74.4334 132.937L77.9312 127.725Z" fill="#C9EA63"/>
<path d="M187.755 124.58L183.649 174.352C183.649 174.352 192.781 173.591 196.915 171.587C201.048 169.582 206.129 166.748 206.143 163.008C206.157 159.268 204.291 153.89 204.291 153.89L197.205 139.601L190.223 127.725L187.755 124.58Z" fill="#C9EA63"/>
<path d="M113.677 74.9247C118.85 77.4119 124.529 78.6683 130.268 78.5954C139.628 78.3949 152.244 75.2358 152.244 75.2358C152.244 75.2358 143.81 73.3901 130.704 73.4039C117.597 73.4177 113.677 74.9247 113.677 74.9247Z" fill="#CC6F00"/>
<path d="M113.677 74.9248L108.299 76.1899C108.299 76.1899 107.221 84.1534 114.97 87.8034C122.719 91.4534 127.807 87.361 127.807 87.361L131.955 83.7041C131.955 83.7041 134.029 89.3657 143.202 89.9256C152.375 90.4856 156.087 82.0312 156.087 82.0312L157.228 76.1899L152.272 75.2359" fill="white"/>
<path d="M128.837 91.6397C128.837 91.6397 129.529 95.3243 133.061 95.345C136.594 95.3657 137.064 91.6397 137.064 91.6397C137.064 91.6397 136.455 90.0429 132.715 89.9253C128.976 89.8078 128.837 91.6397 128.837 91.6397Z" fill="#F9C9C3"/>
<path d="M41.5698 171.137C41.5698 171.137 41.8394 173.052 48.061 174.269C54.2825 175.486 67.7141 174.269 67.7141 174.269L68.751 173.17C68.751 173.17 67.6657 171.898 68.751 169.921C69.8363 167.944 70.1336 167.474 70.1336 167.474L68.7095 164.771L66.0343 167.681L64.8176 170.301L62.4742 167.612C61.8497 167.539 61.2625 167.277 60.7916 166.861C60.3207 166.444 59.9888 165.893 59.8404 165.282C59.4256 163.208 59.004 158.432 59.004 158.432L56.3563 158.252C56.3563 158.252 54.0889 163.748 52.4575 167.01C50.8261 170.273 48.5725 169.755 48.5725 169.755L46.6784 172.133L45.2544 169.596L44.2796 169.319L41.5698 171.137Z" fill="#34353F"/>
<path d="M62.481 167.632L64.8244 170.321L66.0411 167.701L62.481 167.632Z" fill="#F9C9C3"/>
<path d="M68.7162 173.169L67.1885 174.987L69.5941 174.393L68.7162 173.169Z" fill="#F9C9C3"/>
<path d="M45.2544 169.596L46.6784 172.133L48.5725 169.734L45.2544 169.596Z" fill="#F9C9C3"/>
<path d="M113.677 74.9249C113.677 74.9249 122.844 74.2959 128.837 73.6806C134.83 73.0654 152.271 75.236 152.271 75.236" fill="white"/>
<path d="M84.8645 88.5571C84.8645 88.5571 85.5074 96.659 88.4868 101.111C91.4662 105.563 97.6532 111.342 97.6532 111.342H88.3347C88.3347 111.342 83.9935 107.132 81.9819 101.906C79.9702 96.6797 83.7585 88.7092 84.8645 88.5571Z" fill="url(#paint0_linear)"/>
<path d="M180.566 88.564C180.566 88.564 180.566 94.1633 178.36 98.2834C176.155 102.403 168.565 111.342 168.565 111.342H175.893C175.893 111.342 183.324 105.576 184.278 100.482C185.232 95.3869 182.909 91.3084 180.566 88.564Z" fill="url(#paint1_linear)"/>
<path opacity="0.15" d="M84.8645 110.996C84.8645 110.996 78.4217 107.761 77.9516 96.4445C77.9516 96.4445 76.4239 75.706 113.988 66.5673C113.988 66.5673 96.3812 69.6988 98.4067 61.3688C99.9067 55.3409 105.167 46.4095 117.666 36.0195C117.666 36.0195 99.6095 45.2205 86.6894 65.8691C73.7694 86.5177 74.3293 95.4075 74.592 99.7142C74.8547 104.021 80.0393 109.613 80.0393 109.613L82.0579 111.355L84.8645 110.996Z" fill="#34374C"/>
<path opacity="0.15" d="M180.565 110.996C180.565 110.996 188.951 105.169 188.329 97.0045C187.706 88.8404 183.967 72.6299 154.518 66.0627C158.716 65.6482 162.95 65.783 167.113 66.4636C173.044 67.6112 166.837 49.6171 154.394 39.6143C154.394 39.6143 161.604 41.0314 172.92 55.5137C179.828 64.4212 185.313 74.3461 189.179 84.9347C189.179 84.9347 192.02 94.1357 191.585 99.4516C191.149 104.768 186.144 109.351 186.144 109.351L182.384 111.805L180.565 110.996Z" fill="#34374C"/>
<path opacity="0.25" d="M85.1895 89.1378C85.1895 89.1378 100.543 76.5496 131.568 76.6947C162.592 76.8399 173.736 84.126 180.02 88.564H180.566C180.566 88.564 176.57 80.4553 160.933 76.8537C145.296 73.2522 127.095 73.5702 127.095 73.5702C127.095 73.5702 109.467 73.8605 97.045 79.7917C84.6227 85.7229 84.8646 88.571 84.8646 88.571L85.1895 89.1378Z" fill="#34374C"/>
<path opacity="0.25" d="M89.5377 84.2778C89.5377 84.2778 89.7382 100.986 103.564 111.369H97.6603C97.6603 111.369 91.7844 109.8 88.4939 101.138C85.2034 92.4764 84.8716 88.5845 84.8716 88.5845L89.5377 84.2778Z" fill="#34374C"/>
<path opacity="0.25" d="M176.529 84.5059C176.529 84.5059 175.215 103.17 162.973 110.844L168.565 111.341C168.565 111.341 174.365 106.025 177.649 99.797C180.932 93.5686 181.043 88.7365 181.043 88.7365L176.529 84.5059Z" fill="#34374C"/>
<path opacity="0.5" d="M80.6544 99.894C80.6544 99.894 76.9284 91.9926 87.7055 81.9207C98.4826 71.8487 115.841 68.3231 134.021 68.1296C152.202 67.936 167.403 73.2865 178.644 82.8124C189.884 92.3383 183.635 103.979 183.635 103.979C183.635 103.979 186.918 95.2762 181.029 88.7298C175.139 82.1833 166.297 78.6371 158.272 75.9895C150.246 73.3419 141.584 73.8396 130.855 73.3488C120.127 72.858 110.31 74.9871 100.314 78.2569C90.3185 81.5266 79.2511 88.4394 80.6544 99.894Z" fill="#9292FF"/>
<path opacity="0.15" d="M194.239 133.918C194.239 133.918 202.134 152.542 199.016 157.975C196.514 162.337 184.555 163.429 184.555 163.429L183.649 174.386C183.649 174.386 194.806 173.833 199.396 170.494C203.986 167.155 205.293 165.303 206.143 161.342C206.993 157.381 194.239 133.918 194.239 133.918Z" fill="#34374C"/>
<path opacity="0.15" d="M70.3613 154.816C70.3613 154.816 74.8063 159.123 75.5805 160.595C76.3547 162.067 79.8872 159.212 80.0324 157.035L81.3389 169.063L79.1683 170.321C79.3137 169.351 79.1982 168.359 78.8338 167.448C78.4693 166.537 77.869 165.739 77.0944 165.137C74.4122 162.842 70.3613 154.816 70.3613 154.816Z" fill="#34374C"/>
<path opacity="0.15" d="M74.4055 132.937C74.4055 132.937 68.336 148.442 71.4883 150.433C74.6405 152.424 73.251 151.92 73.251 151.92L67.6793 150.689L65.6055 149.493L74.4055 132.937Z" fill="#34374C"/>
<path opacity="0.15" d="M67.6792 165.607C67.6792 165.607 59.8124 168.199 59.6258 155.673C59.6258 155.673 55.8307 151.996 52.713 151.982C49.5953 151.968 48.4201 153.62 47.0652 155.971C45.7103 158.321 44.7218 155.024 42.959 156.379C41.1962 157.733 37.5808 161.681 37.7467 165.607C37.9126 169.534 40.2768 172.002 41.2031 171.829C42.1295 171.656 44.3139 169.326 44.3139 169.326C44.3139 169.326 46.9961 171.642 49.7405 169.326C52.4849 167.01 56.3906 158.266 56.3906 158.266L59.0451 158.466C59.0451 158.466 58.7064 166.831 63.2619 167.57C67.8175 168.31 67.6792 165.607 67.6792 165.607Z" fill="#34374C"/>
<path opacity="0.4" d="M69.594 158.21C69.594 158.21 71.0388 164.003 72.4006 165.123L70.2922 167.197L68.647 164.757L69.594 158.21Z" fill="#34374C"/>
<path opacity="0.15" d="M77.9034 167.211C77.9034 167.211 77.6752 168.766 73.8317 170.342C69.9882 171.919 69.2692 170.543 69.2692 169.603C69.2692 168.663 68.1355 172.43 68.9443 173.605C69.7531 174.78 72.3385 174.38 73.6589 173.833C74.9792 173.287 79.1684 170.322 79.1684 170.322L78.7536 167.211H77.9034Z" fill="#34374C"/>
<path opacity="0.15" d="M66.8772 173.64C66.8772 173.64 64.7135 170.183 65.8818 168.047C66.5747 166.781 67.515 165.667 68.6469 164.771L70.2922 167.211L68.405 170.017L68.239 173.052L66.8772 173.64Z" fill="#34374C"/>
<path opacity="0.15" d="M49.4432 170.294C49.4432 170.294 47.9777 171.103 53.895 173.509C56.5565 174.594 62.4808 174.594 62.4808 174.594C59.0589 174.947 55.6134 175.012 52.1807 174.787C48.6609 174.559 45.218 173.655 42.0396 172.126L44.2793 169.361L45.5789 170.101L47.0168 172.52L48.3993 169.962L49.4432 170.294Z" fill="#34374C"/>
<path opacity="0.15" d="M60.725 166.533C59.8886 165.621 59.46 163.734 59.2388 162.012L59.0106 158.452C59.0106 158.452 56.2455 157.54 56.3561 158.252C56.4667 158.964 53.0933 165.711 53.0933 165.711C53.0933 165.711 55.3745 162.455 57.241 165.13C57.8218 166.03 58.5923 166.793 59.4985 167.365C60.4048 167.937 61.4249 168.304 62.4878 168.441L63.2344 167.556C63.2344 167.556 62.4809 168.441 60.725 166.533Z" fill="#34374C"/>
<path opacity="0.25" d="M129.632 91.4605C129.632 91.4605 129.922 93.41 132.563 93.2994C135.204 93.1888 135.722 92.2486 135.618 91.4605C135.515 90.6725 137.208 91.7025 136.628 92.8431C136.047 93.9837 132.708 95.3594 132.708 95.3594L130.005 94.1427C130.005 94.1427 128.768 92.7602 128.754 92.0689C128.74 91.3776 129.632 91.4605 129.632 91.4605Z" fill="#34374C"/>
<path d="M130.731 121.918V125.457C130.731 125.457 132.28 126.957 134.513 125.457V121.918" stroke="#34374C" stroke-width="1.93" stroke-linecap="round" stroke-linejoin="round"/>
<path d="M84.8647 88.5566C85.6182 108.078 106.751 121.918 132.715 121.918C158.68 121.918 179.812 108.092 180.566 88.5636" stroke="#34374C" stroke-width="1.93" stroke-linecap="round" stroke-linejoin="round"/>
<path d="M160.934 117.694C167.376 113.471 170.418 109.129 170.418 109.129" stroke="#34374C" stroke-width="1.93" stroke-linecap="round" stroke-linejoin="round"/>
<path d="M134.513 125.568C139.761 125.484 144.968 124.61 149.956 122.976" stroke="#34374C" stroke-width="1.93" stroke-linecap="round" stroke-linejoin="round"/>
<path d="M94.9854 109.129C94.9854 109.129 105.154 124.497 130.732 125.513" stroke="#34374C" stroke-width="1.93" stroke-linecap="round" stroke-linejoin="round"/>
<path d="M134.789 125.934L138.985 128.361C139.66 128.749 140.169 129.371 140.416 130.11M124.793 132.937V131.126C124.792 130.565 124.94 130.014 125.22 129.529C125.5 129.043 125.904 128.64 126.39 128.361L130.703 125.872L124.793 132.937Z" stroke="#34374C" stroke-width="1.93" stroke-linecap="round" stroke-linejoin="round"/>
<path d="M130.703 134.589C130.815 134.641 130.91 134.722 130.98 134.824C131.057 134.931 131.112 135.054 131.139 135.184C131.179 135.339 131.198 135.5 131.194 135.661V136.856C131.192 137.156 131.234 137.454 131.319 137.741C131.403 138.028 131.547 138.294 131.74 138.522C131.963 138.778 132.23 138.991 132.528 139.151C132.9 139.355 133.298 139.506 133.71 139.601L134.125 138.557C133.969 138.509 133.826 138.424 133.71 138.308C133.599 138.197 133.51 138.066 133.448 137.921C133.378 137.765 133.332 137.6 133.309 137.43C133.281 137.24 133.267 137.048 133.268 136.856V135.661C133.271 135.285 133.163 134.917 132.957 134.603C132.711 134.249 132.36 133.981 131.955 133.836C132.359 133.692 132.71 133.426 132.957 133.075C133.164 132.759 133.272 132.388 133.268 132.011V130.815C133.267 130.625 133.281 130.435 133.309 130.248C133.332 130.076 133.378 129.909 133.448 129.75C133.51 129.608 133.599 129.479 133.71 129.37C133.827 129.254 133.969 129.167 134.125 129.114L133.71 128.077C133.3 128.176 132.903 128.325 132.528 128.52C132.23 128.683 131.963 128.898 131.74 129.156C131.546 129.38 131.402 129.644 131.319 129.93C131.235 130.217 131.193 130.515 131.194 130.815V132.011C131.211 132.307 131.136 132.601 130.98 132.854C130.903 132.963 130.799 133.051 130.677 133.107C130.556 133.162 130.422 133.185 130.289 133.172V134.499C130.432 134.496 130.574 134.527 130.703 134.589Z" fill="white"/>
<path d="M90.8098 113.968C85.6044 117.127 73.272 131.313 65.6333 149.493" stroke="#34374C" stroke-width="1.93" stroke-linecap="round" stroke-linejoin="round"/>
<path d="M136.655 92.0896C136.655 90.707 134.893 89.9189 132.715 89.9189C130.538 89.9189 128.782 90.6863 128.782 92.0896C128.782 93.4929 131.547 95.3593 132.715 95.3593C133.883 95.3593 136.655 93.4929 136.655 92.0896Z" stroke="#34374C" stroke-width="1.93" stroke-linecap="round" stroke-linejoin="round"/>
<path d="M125.906 97.5918C125.906 97.5918 112.64 95.1377 99.3745 100.481" stroke="#34374C" stroke-width="1.93" stroke-linecap="round" stroke-linejoin="round"/>
<path d="M125.906 99.4375C125.906 99.4375 115.661 98.9398 102.057 105.659" stroke="#34374C" stroke-width="1.93" stroke-linecap="round" stroke-linejoin="round"/>
<path d="M125.864 95.9742C125.864 95.9742 116.366 90.7896 101.49 93.769" stroke="#34374C" stroke-width="1.93" stroke-linecap="round" stroke-linejoin="round"/>
<path d="M139.531 97.5918C139.531 97.5918 152.797 95.1377 166.063 100.481" stroke="#34374C" stroke-width="1.93" stroke-linecap="round" stroke-linejoin="round"/>
<path d="M139.531 99.4375C139.531 99.4375 149.769 98.9398 163.374 105.659" stroke="#34374C" stroke-width="1.93" stroke-linecap="round" stroke-linejoin="round"/>
<path d="M139.566 95.9742C139.566 95.9742 149.064 90.7896 163.941 93.769" stroke="#34374C" stroke-width="1.93" stroke-linecap="round" stroke-linejoin="round"/>
<path d="M142.013 85.4181C143.193 85.4181 144.149 84.4618 144.149 83.2821C144.149 82.1023 143.193 81.146 142.013 81.146C140.833 81.146 139.877 82.1023 139.877 83.2821C139.877 84.4618 140.833 85.4181 142.013 85.4181Z" fill="#34374C"/>
<path d="M122.712 85.2521C123.831 85.2521 124.737 84.3453 124.737 83.2266C124.737 82.108 123.831 81.2012 122.712 81.2012C121.593 81.2012 120.687 82.108 120.687 83.2266C120.687 84.3453 121.593 85.2521 122.712 85.2521Z" fill="#34374C"/>
<path d="M108.299 76.7012C108.282 80.0649 109.602 83.2976 111.967 85.6891C114.333 88.0806 117.551 89.4352 120.915 89.4553C123.095 89.5107 125.253 89.0121 127.187 88.0062C129.121 87.0003 130.769 85.52 131.975 83.7039" stroke="#34374C" stroke-width="1.93" stroke-linecap="round" stroke-linejoin="round"/>
<path d="M132.715 95.3589V99.8177" stroke="#34374C" stroke-width="1.93" stroke-linecap="round" stroke-linejoin="round"/>
<path d="M132.715 142.698C132.715 142.698 128.028 133.677 115.011 127.269C101.994 120.861 96.8098 120.024 88.9776 115.787C79.5554 110.692 75.5045 105.77 74.592 99.7142C73.4652 92.2898 77.4608 80.4758 86.6894 65.8414C98.4274 47.3012 118.571 31.4985 133.088 31.4985C146.416 31.4985 172.104 43.8103 187.7 80.5173C190.389 86.8564 193.423 96.8661 190.465 103.233C186.206 112.316 170.867 118.538 163.47 121.158C152.119 125.174 136.794 131.997 132.812 142.726" stroke="#34374C" stroke-width="1.93" stroke-linecap="round" stroke-linejoin="round"/>
<path d="M131.187 140.355C131.187 140.355 125.74 131.168 112.523 123.024C99.3054 114.881 100.992 117.674 90.9685 112.379C84.8507 109.13 81.2422 102.742 81.2422 97.5506C81.2422 86.6007 97.7223 73.4663 132.3 73.4663C166.878 73.4663 183.863 86.6007 184.686 95.9537C185.605 106.323 174.427 113.284 163.449 116.803C151.905 120.508 136.745 130.303 134.54 139.256" stroke="#34374C" stroke-width="1.93" stroke-linecap="round" stroke-linejoin="round"/>
<path d="M136.655 92.0896C136.655 90.707 134.893 89.9189 132.715 89.9189C130.538 89.9189 128.782 90.6863 128.782 92.0896C128.782 93.4929 131.547 95.3593 132.715 95.3593C133.883 95.3593 136.655 93.4929 136.655 92.0896Z" stroke="#34374C" stroke-width="1.93" stroke-linecap="round" stroke-linejoin="round"/>
<path d="M125.906 97.5918C125.906 97.5918 112.64 95.1377 99.3745 100.481" stroke="#34374C" stroke-width="1.93" stroke-linecap="round" stroke-linejoin="round"/>
<path d="M125.906 99.4375C125.906 99.4375 115.661 98.9398 102.057 105.659" stroke="#34374C" stroke-width="1.93" stroke-linecap="round" stroke-linejoin="round"/>
<path d="M125.864 95.9742C125.864 95.9742 116.366 90.7896 101.49 93.769" stroke="#34374C" stroke-width="1.93" stroke-linecap="round" stroke-linejoin="round"/>
<path d="M139.531 97.5918C139.531 97.5918 152.797 95.1377 166.063 100.481" stroke="#34374C" stroke-width="1.93" stroke-linecap="round" stroke-linejoin="round"/>
<path d="M139.531 99.4375C139.531 99.4375 149.769 98.9398 163.374 105.659" stroke="#34374C" stroke-width="1.93" stroke-linecap="round" stroke-linejoin="round"/>
<path d="M139.566 95.9742C139.566 95.9742 149.064 90.7896 163.941 93.769" stroke="#34374C" stroke-width="1.93" stroke-linecap="round" stroke-linejoin="round"/>
<path d="M142.013 85.4186C143.193 85.4186 144.149 84.4623 144.149 83.2826C144.149 82.1028 143.193 81.1465 142.013 81.1465C140.833 81.1465 139.877 82.1028 139.877 83.2826C139.877 84.4623 140.833 85.4186 142.013 85.4186Z" fill="#34374C"/>
<path d="M130.386 73.9087C130.168 74.8147 130.049 75.742 130.033 76.6738C130.064 80.2068 131.472 83.5883 133.959 86.0981C136.446 88.6079 139.814 90.0477 143.347 90.1108C146.879 90.1738 150.297 88.8553 152.872 86.4358C155.446 84.0164 156.975 80.6874 157.131 77.1577C157.131 76.819 157.131 76.4664 157.131 76.1554" stroke="#34374C" stroke-width="1.93" stroke-linecap="round" stroke-linejoin="round"/>
<path d="M122.712 85.2526C123.831 85.2526 124.738 84.3457 124.738 83.2271C124.738 82.1085 123.831 81.2017 122.712 81.2017C121.594 81.2017 120.687 82.1085 120.687 83.2271C120.687 84.3457 121.594 85.2526 122.712 85.2526Z" fill="#34374C"/>
<path d="M108.32 76.1899V76.7015C108.303 80.0652 109.623 83.298 111.988 85.6894C114.354 88.0809 117.572 89.4355 120.936 89.4556C123.115 89.511 125.274 89.0124 127.208 88.0065C129.142 87.0006 130.79 85.5203 131.996 83.7042" stroke="#34374C" stroke-width="1.93" stroke-linecap="round" stroke-linejoin="round"/>
<path d="M132.715 95.3589V99.8177" stroke="#34374C" stroke-width="1.93" stroke-linecap="round" stroke-linejoin="round"/>
<path d="M132.715 99.8179C132.715 99.8179 135.743 106.157 144.149 104.498" stroke="#34374C" stroke-width="1.93" stroke-linecap="round" stroke-linejoin="round"/>
<path d="M132.715 99.8179C132.715 99.8179 129.687 106.157 121.288 104.498" stroke="#34374C" stroke-width="1.93" stroke-linecap="round" stroke-linejoin="round"/>
<path d="M80.6546 156.075C80.6546 156.075 78.0553 153.309 72.4629 151.671C70.8979 151.213 69.298 150.885 67.6792 150.689" stroke="#34374C" stroke-width="1.93" stroke-linecap="round" stroke-linejoin="round"/>
<path d="M99.9553 145.173C95.932 151.256 93.1254 156.047 91.2866 159.393C89.2017 163.194 86.1058 166.345 82.3414 168.497L79.1685 170.322" stroke="#34374C" stroke-width="1.93" stroke-linecap="round" stroke-linejoin="round"/>
<path d="M174.621 112.627C181.582 117.57 189.601 124.959 194.951 135.225C205.625 155.708 206.938 158.618 206.143 163.021C205.051 169.056 195.94 174.773 174.987 174.773" stroke="#34374C" stroke-width="1.93" stroke-linecap="round" stroke-linejoin="round"/>
<path d="M189.946 150.758C186.324 149.251 174.614 150.709 167.369 154.906" stroke="#34374C" stroke-width="1.93" stroke-linecap="round" stroke-linejoin="round"/>
<path d="M46.6782 156.703C45.1439 156.368 43.5427 156.533 42.1088 157.173C39.6893 158.252 37.4772 162.337 37.6777 167.978C37.8782 173.619 44.0651 171.752 44.5352 168.517" stroke="#34374C" stroke-width="1.93" stroke-linecap="round" stroke-linejoin="round"/>
<path d="M56.356 156.537C56.356 156.537 55.7062 158.853 54.4964 161.943C53.2867 165.033 51.7728 169.063 48.7173 169.672C44.4521 170.522 43.4912 167.321 43.7539 164.771C44.0166 162.22 45.5581 159.054 47.4384 155.224C49.3187 151.394 51.2681 150.862 54.4273 151.076H54.5171C56.5546 151.172 58.5905 150.857 60.5036 150.15C61.6599 149.683 62.8822 149.401 64.126 149.313C66.0754 149.313 67.5824 150.005 69.3659 153.074C71.1494 156.143 72.9951 160.25 74.8961 162.676C76.7972 165.102 78.9954 166.651 79.1337 168.6C79.272 170.55 77.9862 171.891 75.2349 173.17C72.4836 174.448 69.7046 175.589 68.7161 173.17C67.7275 170.75 69.4074 167.321 72.2762 165.51" stroke="#34374C" stroke-width="1.93" stroke-linecap="round" stroke-linejoin="round"/>
<path d="M59.6259 155.673C59.4548 158.003 59.4156 160.341 59.5084 162.676C59.6397 166.92 61.7274 167.743 64.4096 167.702C67.0917 167.66 69.2485 164.632 69.2485 161.072C69.3014 159.007 69.0165 156.948 68.4052 154.975" stroke="#34374C" stroke-width="1.93" stroke-linecap="round" stroke-linejoin="round"/>
<path d="M55.7134 158.618C55.7134 158.618 57.8909 157.872 59.4878 158.618" stroke="#34374C" stroke-width="1.93" stroke-linecap="round" stroke-linejoin="round"/>
<path d="M68.647 164.771C69.194 165.686 69.6127 166.672 69.8913 167.702" stroke="#34374C" stroke-width="1.93" stroke-linecap="round" stroke-linejoin="round"/>
<path d="M68.7161 173.169C67.7068 174.552 64.0361 174.78 55.3744 174.78C46.7126 174.78 42.0326 173.301 42.0396 171.324" stroke="#34374C" stroke-width="1.93" stroke-linecap="round" stroke-linejoin="round"/>
<path d="M66.0342 167.474C65.68 168.399 65.1959 169.27 64.5964 170.059C63.7552 169.378 63.0373 168.557 62.4741 167.633" stroke="#34374C" stroke-width="1.93" stroke-linecap="round" stroke-linejoin="round"/>
<path d="M69.5942 174.393C68.7091 174.657 67.7983 174.823 66.8774 174.891C67.1859 173.992 67.6338 173.148 68.2047 172.389" stroke="#34374C" stroke-width="1.93" stroke-linecap="round" stroke-linejoin="round"/>
<path d="M48.752 169.755C48.2077 170.638 47.5474 171.445 46.7888 172.153C46.0964 171.341 45.5682 170.402 45.2334 169.388" stroke="#34374C" stroke-width="1.93" stroke-linecap="round" stroke-linejoin="round"/>
<path d="M42.4128 171.137C42.2139 171.833 41.9208 172.498 41.5418 173.114C40.9231 172.693 40.3924 172.155 39.9795 171.531" stroke="#34374C" stroke-width="1.93" stroke-linecap="round" stroke-linejoin="round"/>
<path d="M182.287 111.341H83.1432C82.3033 111.338 81.472 111.51 80.7022 111.846C79.9323 112.182 79.2409 112.674 78.6719 113.292C78.1029 113.91 77.6687 114.639 77.3972 115.434C77.1256 116.229 77.0225 117.072 77.0945 117.909L81.9335 176.439C82.0618 177.949 82.7527 179.356 83.8692 180.38C84.9857 181.404 86.4463 181.972 87.9615 181.97H177.462C178.976 181.97 180.435 181.402 181.55 180.378C182.665 179.353 183.355 177.948 183.483 176.439L188.322 117.909C188.394 117.073 188.291 116.231 188.02 115.438C187.749 114.644 187.317 113.915 186.749 113.297C186.182 112.68 185.492 112.187 184.724 111.85C183.955 111.513 183.126 111.34 182.287 111.341Z" fill="#72748C" stroke="#34374C" stroke-width="1.93" stroke-linecap="round" stroke-linejoin="round"/>
<path d="M138.909 143.583L134.982 141.315C134.347 140.944 133.624 140.748 132.888 140.748C132.152 140.748 131.429 140.944 130.793 141.315L126.867 143.583C126.235 143.954 125.711 144.485 125.347 145.121C124.983 145.758 124.792 146.479 124.793 147.212V151.781C124.792 152.515 124.983 153.235 125.347 153.872C125.711 154.509 126.235 155.039 126.867 155.411L130.8 157.678C131.437 158.045 132.16 158.238 132.895 158.238C133.63 158.238 134.352 158.045 134.989 157.678L138.916 155.411C139.548 155.039 140.071 154.508 140.435 153.871C140.799 153.235 140.99 152.514 140.99 151.781V147.24C140.994 146.501 140.804 145.774 140.439 145.133C140.074 144.491 139.546 143.956 138.909 143.583Z" fill="white"/>
<path d="M138.148 154.063L134.222 156.33C133.816 156.564 133.356 156.688 132.888 156.688C132.419 156.688 131.959 156.564 131.554 156.33L127.62 154.063C127.217 153.827 126.882 153.49 126.649 153.085C126.416 152.68 126.293 152.221 126.293 151.754V147.212C126.292 146.745 126.414 146.285 126.647 145.88C126.88 145.474 127.216 145.138 127.62 144.903L131.554 142.636C131.959 142.402 132.419 142.278 132.888 142.278C133.356 142.278 133.816 142.402 134.222 142.636L138.148 144.903C138.554 145.137 138.89 145.474 139.125 145.879C139.359 146.284 139.482 146.744 139.483 147.212V151.781C139.476 152.245 139.35 152.698 139.116 153.098C138.882 153.498 138.549 153.83 138.148 154.063Z" fill="url(#paint2_linear)"/>
<path d="M131.208 150.109C131.297 150.156 131.375 150.222 131.436 150.302C131.5 150.394 131.547 150.497 131.574 150.606C131.604 150.738 131.617 150.872 131.616 151.007V152.003C131.614 152.253 131.649 152.502 131.719 152.742C131.791 152.981 131.911 153.202 132.072 153.392C132.258 153.606 132.481 153.786 132.729 153.924C133.041 154.09 133.373 154.215 133.717 154.298L134.063 153.427C133.933 153.382 133.815 153.309 133.717 153.212C133.624 153.122 133.549 153.014 133.496 152.894C133.441 152.761 133.401 152.622 133.379 152.48C133.368 152.321 133.368 152.161 133.379 152.003V151.007C133.38 150.691 133.288 150.381 133.116 150.115C132.908 149.823 132.617 149.601 132.279 149.479C132.617 149.358 132.908 149.136 133.116 148.843C133.29 148.579 133.382 148.268 133.379 147.952V146.942C133.368 146.784 133.368 146.624 133.379 146.465C133.401 146.323 133.441 146.184 133.496 146.051C133.549 145.931 133.624 145.824 133.717 145.733C133.813 145.634 133.932 145.56 134.063 145.518L133.717 144.654C133.373 144.737 133.041 144.862 132.729 145.028C132.48 145.161 132.257 145.339 132.072 145.553C131.91 145.742 131.789 145.964 131.719 146.203C131.649 146.443 131.614 146.692 131.616 146.942V147.938C131.625 148.181 131.563 148.421 131.436 148.629C131.373 148.72 131.288 148.792 131.189 148.84C131.089 148.887 130.979 148.907 130.869 148.899V150.012C130.988 150.016 131.104 150.049 131.208 150.109Z" fill="white"/>
<g style="mix-blend-mode:multiply" opacity="0.1">
<path d="M136.068 149.376C123.244 150.012 109.688 148.636 97.4251 144.772C91.8948 143.03 85.0926 140.299 79.6177 136.303L82.9151 176.287C83.0368 177.776 83.7148 179.163 84.814 180.174C85.9132 181.185 87.353 181.745 88.8463 181.741H176.929C178.422 181.743 179.861 181.183 180.96 180.172C182.059 179.162 182.737 177.775 182.861 176.287L186.165 136.193C171.005 144.578 153.135 148.532 136.068 149.376Z" fill="#72748C"/>
</g>
<path opacity="0.64" d="M124.648 119.347L145.138 119.208C147.35 119.208 147.357 115.752 145.138 115.752L124.648 115.89C122.436 115.89 122.429 119.347 124.648 119.347Z" fill="#7B7D96"/>
<path opacity="0.64" d="M151.297 119.056C155.337 119.546 159.409 119.735 163.477 119.623C165.689 119.568 165.696 116.125 163.477 116.167C159.409 116.272 155.338 116.082 151.297 115.6C149.106 115.337 149.126 118.773 151.297 119.056Z" fill="#7B7D96"/>
<defs>
<linearGradient id="paint0_linear" x1="89.5306" y1="88.5571" x2="89.5306" y2="111.342" gradientUnits="userSpaceOnUse">
<stop offset="0.5"/>
<stop offset="1" stop-opacity="0.9"/>
</linearGradient>
<linearGradient id="paint1_linear" x1="3384.37" y1="1991.64" x2="3384.37" y2="2742.17" gradientUnits="userSpaceOnUse">
<stop offset="0.5"/>
<stop offset="1" stop-opacity="0.9"/>
</linearGradient>
<linearGradient id="paint2_linear" x1="132.888" y1="142.449" x2="132.888" y2="156.745" gradientUnits="userSpaceOnUse">
<stop stop-color="#F18D41"/>
<stop offset="1" stop-color="#EA5E30"/>
</linearGradient>
</defs>
</svg>
