<svg width="42" height="46" viewBox="0 0 42 46" fill="none" xmlns="http://www.w3.org/2000/svg">
<path d="M25.5 27.8999C26.3284 27.8999 27 27.2283 27 26.3999C27 25.5715 26.3284 24.8999 25.5 24.8999C24.6716 24.8999 24 25.5715 24 26.3999C24 27.2283 24.6716 27.8999 25.5 27.8999Z" fill="#454AFD"/>
<path d="M33.5 27.8999C34.3284 27.8999 35 27.2283 35 26.3999C35 25.5715 34.3284 24.8999 33.5 24.8999C32.6716 24.8999 32 25.5715 32 26.3999C32 27.2283 32.6716 27.8999 33.5 27.8999Z" fill="#454AFD"/>
<path d="M29.5 23.8999C30.3284 23.8999 31 23.2283 31 22.3999C31 21.5715 30.3284 20.8999 29.5 20.8999C28.6716 20.8999 28 21.5715 28 22.3999C28 23.2283 28.6716 23.8999 29.5 23.8999Z" fill="#454AFD"/>
<path d="M29.5 31.8999C30.3284 31.8999 31 31.2283 31 30.3999C31 29.5715 30.3284 28.8999 29.5 28.8999C28.6716 28.8999 28 29.5715 28 30.3999C28 31.2283 28.6716 31.8999 29.5 31.8999Z" fill="#454AFD"/>
<path d="M17.0001 24.8999H14.0001V21.8999C14.0001 21.2999 13.6001 20.8999 13.0001 20.8999C12.4001 20.8999 12.0001 21.2999 12.0001 21.8999V24.8999H9.1001C8.5001 24.8999 8.1001 25.2999 8.1001 25.8999C8.1001 26.4999 8.5001 26.8999 9.1001 26.8999H12.0001V29.8999C12.0001 30.4999 12.4001 30.8999 13.0001 30.8999C13.6001 30.8999 14.0001 30.4999 14.0001 29.8999V26.8999H17.0001C17.6001 26.8999 18.0001 26.4999 18.0001 25.8999C18.0001 25.2999 17.6001 24.8999 17.0001 24.8999Z" fill="#454AFD"/>
<path d="M38.8 22.4C37.6 17.1 34.2 13.9 29.7 13.9C27.7 13.9 25.9 14.5 24.4 15.6C24.4 13.9 23.3 12.5 21.9 12.4V9.8C21.9 9.3 22.3 8.9 22.8 8.9H27.4C29.3 8.9 30.9 7.3 30.9 5.3V1C30.9 0.4 30.5 0 29.9 0C29.3 0 28.9 0.4 28.9 1V5.3C28.9 6.2 28.2 6.9 27.4 6.9H22.8C21.2 6.9 19.9 8.2 19.9 9.8V12.4C18.5 12.5 17.4 13.9 17.4 15.6C15.9 14.5 14.1 13.9 12.1 13.9C7.6 13.9 4.2 17.1 3 22.4C1 31.8 0 37.1 0 39.1C0 42.7 2.8 45.4 6.5 45.4C9.7 45.4 12.1 42.7 13 41.1C13.6 40.1 14.1 38.9 14.7 37.8C14.7 37.7 14.8 37.7 14.8 37.6C15.2 38.3 16 38.9 16.9 38.9H18.2C19.5 38.9 20.5 37.9 20.5 36.6V35.9H21.5V36.6C21.5 37.9 22.5 38.9 23.8 38.9H25.1C26 38.9 26.8 38.4 27.2 37.6C27.2 37.7 27.3 37.7 27.3 37.8C27.8 38.9 28.4 40.1 29 41.1C29.9 42.7 32.2 45.4 35.5 45.4C39.2 45.4 42 42.7 42 39.1C42 37.1 41 31.8 38.8 22.4ZM20.2 14.4H21.8C22.1 14.4 22.5 14.9 22.5 15.6V16.5C21.5 16.3 20.5 16.3 19.5 16.5V15.6C19.5 14.9 19.9 14.4 20.2 14.4ZM18.5 36.5C18.5 36.7 18.4 36.8 18.2 36.8H16.9C16.7 36.8 16.6 36.7 16.6 36.5V35.8H18.6V36.5H18.5ZM25.2 36.9H23.9C23.7 36.9 23.6 36.8 23.6 36.6V35.9H25.6V36.6C25.5 36.7 25.4 36.9 25.2 36.9ZM35.5 43.4C33.2 43.4 31.4 41.3 30.7 40.2C30.2 39.2 29.6 38.1 29.1 37C28.7 36.1 28.3 35.2 27.9 34.5C27.7 34.2 27.4 34 27 34H26.6H26.5H26.4H22.6H22.5H22.4H19.6H19.5H19.4H15.6H15.5H15.4H15C14.6 34 14.3 34.2 14.1 34.5C13.7 35.2 13.3 36.1 12.9 37C12.4 38.1 11.9 39.3 11.3 40.2C10.7 41.3 8.9 43.4 6.5 43.4C3.9 43.4 2 41.6 2 39.1C2 37.4 3 31.9 5.1 22.9C6.1 18.5 8.8 15.9 12.2 15.9C14.3 15.9 16.3 16.8 17.5 18.4C17.7 18.7 18 18.8 18.4 18.8C18.4 18.8 18.4 18.8 18.5 18.8C18.7 18.8 18.8 18.7 19 18.7C20.3 18.3 21.8 18.3 23.1 18.7C23.2 18.8 23.4 18.8 23.6 18.8C23.6 18.8 23.6 18.8 23.7 18.8C24 18.8 24.4 18.7 24.6 18.4C25.8 16.8 27.8 15.9 29.9 15.9C33.4 15.9 36 18.5 37 22.9C39.1 31.9 40.1 37.4 40.1 39.1C40 41.6 38.1 43.4 35.5 43.4Z" fill="#454AFD"/>
</svg>
