<svg width="48" height="36" viewBox="0 0 48 36" fill="none" xmlns="http://www.w3.org/2000/svg">
<path d="M43 12H29.7C28.3 5.2 22.2 0 15 0C6.7 0 0 6.7 0 15C0 22.3 5.2 28.5 12.3 29.8L16.2 33.7C16.4 33.9 16.6 34 16.9 34C17 34 17.2 34 17.3 33.9C17.7 33.7 17.9 33.4 17.9 33V29.7C19.4 29.4 20.8 28.9 22.1 28.2C22.6 30.4 24.6 32 26.9 32H27.9V35C27.9 35.4 28.1 35.8 28.5 35.9C28.7 36 28.9 36 29 36C29.3 36 29.5 35.9 29.7 35.7L33.4 32H43C45.8 32 48 29.8 48 27V17C48 14.2 45.8 12 43 12ZM16.9 27.9C16.4 27.9 16 28.4 16 28.9V30.6L13.5 28.1C13.4 28 13.2 27.9 13 27.8C6.6 26.8 2 21.4 2 15C2 7.8 7.8 2 15 2C22.2 2 28 7.8 28 15C28 21.4 23.2 27 16.9 27.9ZM46 27C46 28.7 44.7 30 43 30H33C32.7 30 32.4 30.2 32.2 30.4L30 32.6V31C30 30.4 29.6 30 29 30H27C25.3 30 24 28.7 24 27C27.7 24.2 30 19.9 30 15C30 14.7 30 14.3 29.9 14H43C44.7 14 46 15.3 46 17V27Z" fill="#454AFD"/>
<path d="M40.3 17.8L34 24.1L31.7 21.8C31.3 21.4 30.7 21.4 30.3 21.8C29.9 22.2 29.9 22.8 30.3 23.2L33.3 26.2C33.5 26.4 33.8 26.5 34 26.5C34.2 26.5 34.5 26.4 34.7 26.2L41.7 19.2C42.1 18.8 42.1 18.2 41.7 17.8C41.3 17.4 40.7 17.4 40.3 17.8Z" fill="#454AFD"/>
<path d="M15 5C11.7 5 9 7.7 9 11C9 11.6 9.4 12 10 12C10.6 12 11 11.6 11 11C11 8.8 12.8 7 15 7C17.2 7 19 8.8 19 11C19 12.5 18.1 13.9 16.8 14.6C15.1 15.4 14 17 14 18.8V19C14 19.6 14.4 20 15 20C15.6 20 16 19.6 16 19V18.8C16 17.8 16.6 16.9 17.6 16.4C19.7 15.4 21 13.3 21 11C21 7.7 18.3 5 15 5Z" fill="#454AFD"/>
<path d="M15 23C15.5523 23 16 22.5523 16 22C16 21.4477 15.5523 21 15 21C14.4477 21 14 21.4477 14 22C14 22.5523 14.4477 23 15 23Z" fill="#454AFD"/>
</svg>
