<svg id="be00a7a9-67fd-49c5-90de-e7c3d7a98cc8" data-name="Слой 2" xmlns="http://www.w3.org/2000/svg" viewBox="0 0 120 100">
  <circle cx="60" cy="50" r="44" fill="#f0e9fc"/>
  <path d="M95.62,69.66H81.86v-5.3c0-3.62,4.52-3.55,4.52-3.55H90a3.54,3.54,0,0,0,0-7.08H77.82a3.52,3.52,0,0,1-3.55-3.55c.08-2.38,2.58-3.39,2.58-3.39L90,46.64a3.56,3.56,0,0,0,3.54-3.55V9.35h0V7.83A1.83,1.83,0,0,0,91.73,6H14a1.83,1.83,0,0,0-1.83,1.83V80A1.83,1.83,0,0,0,14,81.83H58.63S58.63,93.47,70.8,94A12.12,12.12,0,0,0,79,90.85h8.48a12.17,12.17,0,1,0,8.17-21.19Z" fill="#fff"/>
  <path d="M79,90.84h8.49a12.17,12.17,0,1,0,8.17-21.19H70.8A12.17,12.17,0,1,0,79,90.85" fill="#c5abf1"/>
  <circle cx="70.8" cy="81.83" r="5.43" fill="#fff"/>
  <rect x="88.43" y="75.93" width="11.96" height="5.08" rx="2.54" transform="translate(-15.95 24.69) rotate(-13.75)" fill="#e2d5f8"/>
  <rect x="90.14" y="82.91" width="11.96" height="5.08" rx="2.54" transform="translate(-17.56 25.3) rotate(-13.75)" fill="#e2d5f8"/>
  <rect x="19" y="64.27" width="6.79" height="3.17" rx="1.58" fill="#c5abf1"/>
  <rect x="19" y="71.59" width="6.79" height="3.17" rx="1.58" fill="#c5abf1"/>
  <rect x="19" y="56.96" width="6.79" height="3.17" rx="1.58" fill="#c5abf1"/>
  <rect x="19" y="13.07" width="6.79" height="3.17" rx="1.58" fill="#c5abf1"/>
  <rect x="19" y="42.33" width="6.79" height="3.17" rx="1.58" fill="#c5abf1"/>
  <rect x="19" y="20.39" width="6.79" height="3.17" rx="1.58" fill="#c5abf1"/>
  <rect x="19" y="35.02" width="6.79" height="3.17" rx="1.58" fill="#c5abf1"/>
  <rect x="19" y="27.7" width="6.79" height="3.17" rx="1.58" fill="#c5abf1"/>
  <rect x="19" y="49.65" width="6.79" height="3.17" rx="1.58" fill="#c5abf1"/>
  <g>
    <g>
      <circle cx="70.8" cy="81.83" r="5.43" fill="none" stroke="#6f2cdd" stroke-linecap="round" stroke-linejoin="round" stroke-width="1"/>
      <line x1="70.8" y1="79.68" x2="70.8" y2="83.98" fill="none" stroke="#6f2cdd" stroke-linecap="round" stroke-linejoin="round" stroke-width="1"/>
      <line x1="68.65" y1="81.83" x2="72.95" y2="81.83" fill="none" stroke="#6f2cdd" stroke-linecap="round" stroke-linejoin="round" stroke-width="1"/>
      <line x1="78.96" y1="85.45" x2="81.52" y2="85.45" fill="none" stroke="#6f2cdd" stroke-linecap="round" stroke-linejoin="round" stroke-width="1"/>
      <line x1="84.44" y1="85.45" x2="87" y2="85.45" fill="none" stroke="#6f2cdd" stroke-linecap="round" stroke-linejoin="round" stroke-width="1"/>
      <rect x="88.43" y="75.93" width="11.96" height="5.08" rx="2.54" transform="translate(-15.95 24.69) rotate(-13.75)" fill="none" stroke="#6f2cdd" stroke-linecap="round" stroke-linejoin="round" stroke-width="1"/>
      <rect x="90.14" y="82.91" width="11.96" height="5.08" rx="2.54" transform="translate(-17.56 25.3) rotate(-13.75)" fill="none" stroke="#6f2cdd" stroke-linecap="round" stroke-linejoin="round" stroke-width="1"/>
      <path d="M79,90.84h8.49a12.17,12.17,0,1,0,8.17-21.19H70.8A12.17,12.17,0,1,0,79,90.85" fill="none" stroke="#6f2cdd" stroke-linecap="round" stroke-linejoin="round" stroke-width="1"/>
      <path d="M90,53.73H77.82a3.56,3.56,0,0,1-3.55-3.55h0a3.56,3.56,0,0,1,3.55-3.54H90" fill="none" stroke="#6f2cdd" stroke-linecap="round" stroke-linejoin="round" stroke-width="1"/>
      <path d="M90,46.64a3.56,3.56,0,0,0,3.54-3.55h0V9.34" fill="none" stroke="#6f2cdd" stroke-linecap="round" stroke-linejoin="round" stroke-width="1"/>
      <path d="M90,53.73a3.55,3.55,0,0,1,3.54,3.54h0A3.55,3.55,0,0,1,90,60.81h-4.6a3.56,3.56,0,0,0-3.55,3.55h0v5.3" fill="none" stroke="#6f2cdd" stroke-linecap="round" stroke-linejoin="round" stroke-width="1"/>
      <path d="M55,81.83H14A1.83,1.83,0,0,1,12.21,80V7.83A1.83,1.83,0,0,1,14,6H91.73a1.83,1.83,0,0,1,1.82,1.83V9.34" fill="none" stroke="#6f2cdd" stroke-linecap="round" stroke-linejoin="round" stroke-width="1"/>
    </g>
    <g>
      <g>
        <g>
          <rect x="19" y="13.07" width="6.79" height="3.17" rx="1.58" fill="none" stroke="#6f2cdd" stroke-linecap="round" stroke-linejoin="round" stroke-width="1"/>
          <rect x="29.25" y="13.07" width="44.36" height="3.17" rx="1.58" fill="#e2d5f8" stroke="#6f2cdd" stroke-miterlimit="10" stroke-width="1"/>
        </g>
        <g>
          <rect x="19" y="42.33" width="6.79" height="3.17" rx="1.58" fill="none" stroke="#6f2cdd" stroke-linecap="round" stroke-linejoin="round" stroke-width="1"/>
          <rect x="29.25" y="42.33" width="37.3" height="3.17" rx="1.58" fill="#e2d5f8" stroke="#6f2cdd" stroke-miterlimit="10" stroke-width="1"/>
        </g>
        <g>
          <rect x="19" y="20.39" width="6.79" height="3.17" rx="1.58" fill="none" stroke="#6f2cdd" stroke-linecap="round" stroke-linejoin="round" stroke-width="1"/>
          <rect x="29.25" y="20.39" width="17.42" height="3.17" rx="1.58" fill="#e2d5f8" stroke="#6f2cdd" stroke-miterlimit="10" stroke-width="1"/>
          <rect x="50.15" y="20.39" width="10.49" height="3.17" rx="1.58" fill="#e2d5f8" stroke="#6f2cdd" stroke-miterlimit="10" stroke-width="1"/>
        </g>
        <g>
          <rect x="19" y="35.02" width="6.79" height="3.17" rx="1.58" fill="none" stroke="#6f2cdd" stroke-linecap="round" stroke-linejoin="round" stroke-width="1"/>
          <rect x="29.25" y="35.02" width="31.4" height="3.17" rx="1.58" fill="#e2d5f8" stroke="#6f2cdd" stroke-miterlimit="10" stroke-width="1"/>
        </g>
        <g>
          <rect x="19" y="27.7" width="6.79" height="3.17" rx="1.58" fill="none" stroke="#6f2cdd" stroke-linecap="round" stroke-linejoin="round" stroke-width="1"/>
          <rect x="29.25" y="27.7" width="25.08" height="3.17" rx="1.58" fill="#e2d5f8" stroke="#6f2cdd" stroke-miterlimit="10" stroke-width="1"/>
          <rect x="57.9" y="27.7" width="13.88" height="3.17" rx="1.58" fill="#e2d5f8" stroke="#6f2cdd" stroke-miterlimit="10" stroke-width="1"/>
        </g>
        <g>
          <rect x="19" y="49.65" width="6.79" height="3.17" rx="1.58" fill="none" stroke="#6f2cdd" stroke-linecap="round" stroke-linejoin="round" stroke-width="1"/>
          <rect x="29.25" y="49.65" width="25.08" height="3.17" rx="1.58" fill="#e2d5f8" stroke="#6f2cdd" stroke-miterlimit="10" stroke-width="1"/>
        </g>
      </g>
      <g>
        <g>
          <rect x="19" y="64.27" width="6.79" height="3.17" rx="1.58" fill="none" stroke="#6f2cdd" stroke-linecap="round" stroke-linejoin="round" stroke-width="1"/>
          <rect x="29.25" y="64.27" width="11.98" height="3.17" rx="1.58" fill="#e2d5f8" stroke="#6f2cdd" stroke-miterlimit="10" stroke-width="1"/>
        </g>
        <g>
          <rect x="19" y="71.59" width="6.79" height="3.17" rx="1.58" fill="none" stroke="#6f2cdd" stroke-linecap="round" stroke-linejoin="round" stroke-width="1"/>
          <rect x="29.25" y="71.59" width="21.99" height="3.17" rx="1.58" fill="#e2d5f8" stroke="#6f2cdd" stroke-miterlimit="10" stroke-width="1"/>
        </g>
        <g>
          <rect x="19" y="56.96" width="6.79" height="3.17" rx="1.58" fill="none" stroke="#6f2cdd" stroke-linecap="round" stroke-linejoin="round" stroke-width="1"/>
          <rect x="50.16" y="56.96" width="6.79" height="3.17" rx="1.58" fill="#e2d5f8" stroke="#6f2cdd" stroke-miterlimit="10" stroke-width="1"/>
          <rect x="29.25" y="56.96" width="17.87" height="3.17" rx="1.58" fill="#e2d5f8" stroke="#6f2cdd" stroke-miterlimit="10" stroke-width="1"/>
        </g>
      </g>
    </g>
  </g>
</svg>
