<svg width="48" height="38" viewBox="0 0 48 38" fill="none" xmlns="http://www.w3.org/2000/svg">
<path d="M5 5C5.55228 5 6 4.55228 6 4C6 3.44772 5.55228 3 5 3C4.44772 3 4 3.44772 4 4C4 4.55228 4.44772 5 5 5Z" fill="#454AFD"/>
<path d="M8 5C8.55228 5 9 4.55228 9 4C9 3.44772 8.55228 3 8 3C7.44772 3 7 3.44772 7 4C7 4.55228 7.44772 5 8 5Z" fill="#454AFD"/>
<path d="M11 5C11.5523 5 12 4.55228 12 4C12 3.44772 11.5523 3 11 3C10.4477 3 10 3.44772 10 4C10 4.55228 10.4477 5 11 5Z" fill="#454AFD"/>
<path d="M43 6H5C4.4 6 4 6.4 4 7C4 7.6 4.4 8 5 8H14V34C14 34.6 14.4 35 15 35C15.6 35 16 34.6 16 34V8H43C43.6 8 44 7.6 44 7C44 6.4 43.6 6 43 6Z" fill="#454AFD"/>
<path d="M40 22H34C33.4 22 33 22.4 33 23C33 23.6 33.4 24 34 24H40C40.6 24 41 23.6 41 23C41 22.4 40.6 22 40 22Z" fill="#454AFD"/>
<path d="M31 22H19C18.4 22 18 22.4 18 23C18 23.6 18.4 24 19 24H31C31.6 24 32 23.6 32 23C32 22.4 31.6 22 31 22Z" fill="#454AFD"/>
<path d="M31 27H19C18.4 27 18 27.4 18 28C18 28.6 18.4 29 19 29H31C31.6 29 32 28.6 32 28C32 27.4 31.6 27 31 27Z" fill="#454AFD"/>
<path d="M35 27H34C33.4 27 33 27.4 33 28C33 28.6 33.4 29 34 29H35C35.6 29 36 28.6 36 28C36 27.4 35.6 27 35 27Z" fill="#454AFD"/>
<path d="M23 30H19C18.4 30 18 30.4 18 31C18 31.6 18.4 32 19 32H23C23.6 32 24 31.6 24 31C24 30.4 23.6 30 23 30Z" fill="#454AFD"/>
<path d="M30 30H26C25.4 30 25 30.4 25 31C25 31.6 25.4 32 26 32H30C30.6 32 31 31.6 31 31C31 30.4 30.6 30 30 30Z" fill="#454AFD"/>
<path d="M43 0H5C2.2 0 0 2.2 0 5V33C0 35.8 2.2 38 5 38H43C45.8 38 48 35.8 48 33V5C48 2.2 45.8 0 43 0ZM46 33C46 34.7 44.7 36 43 36H5C3.3 36 2 34.7 2 33V5C2 3.3 3.3 2 5 2H43C44.7 2 46 3.3 46 5V33Z" fill="#454AFD"/>
<path d="M5 13H6C6.6 13 7 12.6 7 12C7 11.4 6.6 11 6 11H5C4.4 11 4 11.4 4 12C4 12.6 4.4 13 5 13Z" fill="#454AFD"/>
<path d="M11.0001 11H9.1001C8.5001 11 8.1001 11.4 8.1001 12C8.1001 12.6 8.5001 13 9.1001 13H11.0001C11.6001 13 12.0001 12.6 12.0001 12C12.0001 11.4 11.6001 11 11.0001 11Z" fill="#454AFD"/>
<path d="M5 16H10C10.6 16 11 15.6 11 15C11 14.4 10.6 14 10 14H5C4.4 14 4 14.4 4 15C4 15.6 4.4 16 5 16Z" fill="#454AFD"/>
<path d="M5 29H6C6.6 29 7 28.6 7 28C7 27.4 6.6 27 6 27H5C4.4 27 4 27.4 4 28C4 28.6 4.4 29 5 29Z" fill="#454AFD"/>
<path d="M11.0001 27H9.1001C8.5001 27 8.1001 27.4 8.1001 28C8.1001 28.6 8.5001 29 9.1001 29H11.0001C11.6001 29 12.0001 28.6 12.0001 28C12.0001 27.4 11.6001 27 11.0001 27Z" fill="#454AFD"/>
<path d="M10 30H5C4.4 30 4 30.4 4 31C4 31.6 4.4 32 5 32H10C10.6 32 11 31.6 11 31C11 30.4 10.6 30 10 30Z" fill="#454AFD"/>
<path d="M5 24H9C9.6 24 10 23.6 10 23C10 22.4 9.6 22 9 22H5C4.4 22 4 22.4 4 23C4 23.6 4.4 24 5 24Z" fill="#454AFD"/>
<path d="M11 19H10C9.4 19 9 19.4 9 20C9 20.6 9.4 21 10 21H11C11.6 21 12 20.6 12 20C12 19.4 11.6 19 11 19Z" fill="#454AFD"/>
<path d="M5 21H6.9C7.5 21 7.9 20.6 7.9 20C7.9 19.4 7.5 19 6.9 19H5C4.4 19 4 19.4 4 20C4 20.6 4.4 21 5 21Z" fill="#454AFD"/>
<path d="M21.7 12.3C21.3 11.9 20.7 11.9 20.3 12.3L18.3 14.3C17.9 14.7 17.9 15.3 18.3 15.7L20.3 17.7C20.5 17.9 20.8 18 21 18C21.2 18 21.5 17.9 21.7 17.7C22.1 17.3 22.1 16.7 21.7 16.3L20.4 15L21.7 13.7C22.1 13.3 22.1 12.7 21.7 12.3Z" fill="#454AFD"/>
<path d="M30.3 17.7C30.5 17.9 30.8 18 31 18C31.2 18 31.5 17.9 31.7 17.7L33.7 15.7C34.1 15.3 34.1 14.7 33.7 14.3L31.7 12.3C31.3 11.9 30.7 11.9 30.3 12.3C29.9 12.7 29.9 13.3 30.3 13.7L31.6 15L30.3 16.3C29.9 16.7 29.9 17.3 30.3 17.7Z" fill="#454AFD"/>
<path d="M24.9999 18.9999C25.3999 18.9999 25.7999 18.6999 25.8999 18.2999L27.8999 12.2999C28.0999 11.7999 27.7999 11.1999 27.2999 10.9999C26.7999 10.7999 26.1999 11.0999 25.9999 11.5999L23.9999 17.5999C23.7999 18.0999 24.0999 18.6999 24.5999 18.8999C24.7999 18.9999 24.8999 18.9999 24.9999 18.9999Z" fill="#454AFD"/>
</svg>
