<svg width="244" height="190" viewBox="0 0 244 190" fill="none" xmlns="http://www.w3.org/2000/svg">
<path d="M242.008 113.435C237.788 101.672 231.139 98.0913 224.822 90.5471C217.099 81.315 211.882 74.6147 213.902 62.7742C217.176 43.3894 218.582 -4.94466 167.282 1.37201C148.894 3.64806 134.368 17.7391 123.781 31.8046C114.779 43.773 98.6166 44.8215 85.5741 47.609C69.565 51.0359 53.2747 56.2273 38.4675 63.7971C7.98384 79.4226 -1.12036 101.876 0.107172 130.621C0.490775 139.316 1.71831 152.998 16.372 168.981C36.1659 190.591 64.9362 193.481 99.5884 183.558C107.516 181.282 115.009 177.727 122.809 175.042C130.916 172.255 139.33 170.413 147.871 169.595C167.768 167.677 188.38 171.155 207.458 165.222C217.559 162.076 226.817 156.348 234.105 148.701C243.235 139.162 246.483 125.839 242.008 113.435Z" fill="#EAE6FF"/>
<path d="M92.8343 141.997C97.0513 140.902 101.263 139.807 105.491 138.793L118.18 135.716C122.408 134.697 126.647 133.709 130.897 132.753C135.135 131.789 139.385 130.825 143.635 129.899L144.101 131.92C139.27 133.202 134.473 134.604 129.708 136.126C124.944 137.649 120.197 139.235 115.469 140.885L111.926 142.134L110.157 142.769C109.549 142.983 108.946 143.186 108.344 143.383C105.945 144.171 103.563 144.922 101.224 145.721C98.8859 146.521 96.52 147.331 94.2473 148.268C93.1191 148.733 92.0073 149.232 90.9613 149.785C90.458 150.052 89.9698 150.346 89.4991 150.667C89.1418 150.9 88.8269 151.193 88.568 151.532L87.2975 149.341C88.5258 149.28 89.7409 149.059 90.912 148.684C92.1333 148.317 93.371 147.819 94.6799 147.342C97.2977 146.428 99.8334 145.573 102.429 144.714C107.594 143.01 112.807 141.362 118.07 139.933C123.333 138.503 128.41 136.778 133.69 135.332C138.969 133.886 144.38 132.682 149.939 132.369L153.701 132.156L150.7 134.434C149.748 135.137 148.723 135.738 147.644 136.225C146.613 136.701 145.558 137.125 144.484 137.495C142.359 138.24 140.218 138.843 138.082 139.418C135.946 139.993 133.816 140.513 131.718 141.132C130.661 141.433 129.648 141.751 128.607 142.107L125.458 143.147C121.258 144.5 117.057 145.787 112.939 147.288C110.885 148.038 108.859 148.859 106.882 149.774C104.908 150.659 103.027 151.74 101.268 153L100.825 151.997C105.425 151.209 109.894 149.736 114.319 148.164C116.51 147.37 118.733 146.521 120.946 145.716C123.158 144.911 125.393 144.122 127.583 143.295C131.965 141.652 136.39 139.916 140.902 138.47C143.159 137.747 145.442 137.101 147.775 136.603C150.13 136.06 152.546 135.83 154.961 135.918L156.341 136L155.36 136.986C154.534 137.765 153.582 138.4 152.546 138.865C151.567 139.329 150.563 139.738 149.539 140.091C147.513 140.803 145.459 141.384 143.427 141.97C141.395 142.556 139.347 143.109 137.441 143.848C135.535 144.588 133.542 145.453 131.598 146.28L119.932 151.296C117.979 152.129 116.017 152.943 114.045 153.739L113.3 154.035C113.043 154.139 112.78 154.232 112.523 154.325L111.011 154.845C110.047 155.163 109.111 155.568 108.82 155.984L107.627 154.15C112.555 152.808 117.441 151.072 122.304 149.27C127.167 147.468 132.074 145.623 137.091 144.106C142.02 142.583 146.948 140.82 152.042 139.483C157.135 138.147 162.48 137.227 167.924 137.479L170.722 137.605L169.178 139.911C168.565 140.766 167.789 141.492 166.894 142.046C166.145 142.537 165.365 142.982 164.561 143.377C163.006 144.16 161.445 144.818 159.895 145.458L157.606 146.406L155.333 147.403C153.778 148.071 152.217 148.695 150.662 149.308C147.556 150.53 144.462 151.702 141.461 153.005C138.503 154.223 135.679 155.743 133.032 157.54L132.173 154.385C133.113 154.464 134.057 154.294 134.911 153.892C135.525 153.668 136.15 153.476 136.784 153.317L138.525 152.896C140.82 152.348 143.104 151.702 145.393 151.055C149.966 149.758 154.544 148.356 159.194 147.101L160.941 146.641C161.489 146.499 162.064 146.346 162.628 146.187L166.04 145.179C168.329 144.489 170.64 143.799 172.984 143.18C175.35 142.539 177.749 142.023 180.169 141.636C182.719 141.175 185.327 141.145 187.886 141.548L191.544 142.227L188.581 144.489C186.318 146.149 183.833 147.483 181.199 148.454C178.658 149.445 176.095 150.245 173.559 151.028C171.024 151.811 168.51 152.567 166.089 153.46C163.704 154.262 161.431 155.367 159.326 156.746L158.088 154.177C161.702 153.191 165.295 151.986 168.91 150.749C172.524 149.511 176.144 148.284 179.83 147.184C183.52 146.057 187.279 145.172 191.084 144.533C194.932 143.863 198.847 143.657 202.744 143.919L204.135 144.029L203.62 145.305C203.413 145.798 203.103 146.24 202.711 146.603C202.375 146.915 202.008 147.193 201.616 147.43C200.905 147.857 200.159 148.223 199.387 148.525C197.892 149.133 196.391 149.621 194.907 150.081C193.423 150.541 191.955 151.012 190.526 151.554C189.832 151.812 189.155 152.114 188.499 152.457C187.913 152.741 187.392 153.144 186.971 153.64L186.687 152.452C188.105 153.23 190.022 153.257 191.862 153.158C192.798 153.109 193.746 153.016 194.704 152.934L197.579 152.726L209.031 151.866C216.665 151.256 224.296 150.606 231.923 149.916L231.962 150.245C224.36 151.231 216.748 152.091 209.13 152.912L197.733 154.15L194.885 154.435C193.938 154.544 192.979 154.659 192.004 154.73C191.01 154.818 190.01 154.829 189.014 154.763C187.944 154.701 186.897 154.424 185.936 153.947L185.109 153.52L185.657 152.753C186.206 152.032 186.91 151.443 187.716 151.028C188.422 150.63 189.154 150.281 189.907 149.982C191.391 149.38 192.875 148.887 194.343 148.383C195.811 147.879 197.267 147.386 198.636 146.789C199.302 146.509 199.944 146.174 200.553 145.787C201.051 145.512 201.458 145.1 201.725 144.599L202.602 145.979C198.874 145.819 195.142 146.109 191.484 146.844C187.792 147.581 184.144 148.526 180.558 149.675C176.955 150.815 173.378 152.091 169.786 153.372C166.193 154.654 162.579 155.941 158.833 157.019L150.837 159.331L157.595 154.451C159.889 152.88 162.373 151.606 164.988 150.661C167.524 149.692 170.065 148.881 172.579 148.065C175.093 147.249 177.579 146.422 179.956 145.453C182.288 144.566 184.489 143.369 186.5 141.893L187.196 144.834C185.02 144.532 182.809 144.589 180.651 145.004C178.365 145.375 176.1 145.868 173.866 146.483C171.593 147.096 169.326 147.791 167.048 148.492L163.592 149.538C163.011 149.708 162.42 149.878 161.823 150.037L160.103 150.491C155.525 151.718 150.963 153.109 146.341 154.418C144.029 155.07 141.707 155.7 139.358 156.28L137.616 156.702C137.093 156.831 136.577 156.99 136.072 157.178C135.429 157.425 134.768 157.621 134.095 157.764C133.347 157.896 132.584 157.926 131.828 157.852L127.118 157.386L130.951 154.697C133.818 152.772 136.878 151.151 140.081 149.862C143.197 148.542 146.33 147.386 149.424 146.198C150.968 145.606 152.502 145.004 154.008 144.374L156.308 143.388L158.635 142.446C160.169 141.827 161.68 141.209 163.099 140.508C163.791 140.174 164.462 139.799 165.109 139.385C165.638 139.072 166.105 138.666 166.489 138.185L167.732 140.612C162.759 140.338 157.721 141.159 152.776 142.397C147.83 143.635 142.918 145.332 137.885 146.806C132.852 148.279 128.104 149.977 123.175 151.713C118.246 153.449 113.317 155.152 108.191 156.401L104.872 157.206L106.975 154.571C107.432 154.02 108.014 153.586 108.673 153.306C109.207 153.071 109.756 152.87 110.316 152.704L111.816 152.227L112.528 151.981L113.267 151.702C115.239 150.972 117.205 150.208 119.166 149.413L130.94 144.653C132.912 143.859 134.873 143.082 136.872 142.32C138.87 141.559 140.99 141.061 143.038 140.513C145.086 139.965 147.118 139.418 149.101 138.777C150.084 138.465 151.049 138.099 151.992 137.682C152.9 137.3 153.738 136.77 154.473 136.115L154.873 137.211C152.575 137.083 150.27 137.268 148.022 137.758C145.735 138.225 143.474 138.808 141.247 139.505C136.762 140.874 132.386 142.594 127.961 144.237C125.738 145.07 123.509 145.803 121.313 146.636C119.116 147.468 116.931 148.306 114.686 149.117C110.256 150.813 105.695 152.146 101.049 153.104L98.7162 153.553L100.606 152.102C102.403 150.769 104.329 149.62 106.356 148.673C108.36 147.704 110.409 146.849 112.468 146.05C116.592 144.407 120.787 143.038 124.933 141.586L128.032 140.491C129.062 140.108 130.141 139.741 131.198 139.396C133.323 138.733 135.442 138.142 137.545 137.523C139.648 136.904 141.735 136.258 143.75 135.496C144.758 135.113 145.749 134.702 146.686 134.237C147.606 133.796 148.478 133.26 149.287 132.638L150.07 134.675C144.78 135.097 139.555 136.395 134.396 137.923C129.237 139.451 124.106 141.209 118.826 142.747C113.547 144.286 108.475 145.825 103.333 147.545L95.6657 150.119C94.4225 150.563 93.1355 151.077 91.7499 151.488C90.3292 151.932 88.856 152.186 87.3687 152.244L84.6304 152.315L86.0707 150.07C86.5335 149.378 87.1315 148.788 87.8287 148.334C88.3955 147.947 88.9843 147.594 89.5922 147.277C90.7696 146.658 91.958 146.143 93.1465 145.634C95.5233 144.675 97.9221 143.854 100.321 143.065C102.72 142.277 105.135 141.559 107.512 140.814C108.103 140.628 108.694 140.436 109.27 140.267L111.049 139.659L114.62 138.448C119.39 136.855 124.177 135.299 129.007 133.875C133.838 132.452 138.69 131.137 143.586 129.927L144.051 131.942L131.258 134.434L118.47 137.008L105.688 139.631L92.911 142.298L92.8343 141.997Z" fill="#34374C"/>
<path d="M71.4976 42.9754L68.1459 39.1089L69.893 36.5787L70.5392 33.4297L67.4942 29.6946L60.8183 26.4087L55.9934 26.7866L51.9188 28.5446L48.3262 32.6191L46.9899 36.5568L46.7161 39.328L48.5343 45.3193L50.002 47.5757C50.002 47.5757 52.1927 47.9864 52.2967 47.9864C52.4008 47.9864 56.6123 47.4716 56.6123 47.4716L59.2465 51.8913L65.7855 46.5844L71.4976 42.9754Z" fill="#006893"/>
<g style="mix-blend-mode:multiply">
<path d="M57.8446 85.5723L67.7682 109.839L64.2084 110.661L62.3628 110.179L58.803 107.166L54.7941 100.392L53.0854 94.6086L53.1512 89.7126L54.7941 87.1112L57.8446 85.5723Z" fill="#006893"/>
</g>
<path d="M106.526 52.4004L109.724 49.7552L111.959 49.7114L116.022 51.2613L120.995 54.9142L124.785 59.7062L127.249 64.5858L127.156 67.598L125.009 70.8839L106.526 52.4004Z" fill="#006893"/>
<path d="M20.5926 122.194C20.5926 123.004 20.3524 123.796 19.9023 124.47C19.4521 125.144 18.8123 125.669 18.0638 125.979C17.3153 126.289 16.4916 126.37 15.697 126.212C14.9023 126.054 14.1724 125.664 13.5995 125.091C13.0266 124.518 12.6364 123.788 12.4784 122.993C12.3203 122.199 12.4014 121.375 12.7115 120.626C13.0215 119.878 13.5466 119.238 14.2203 118.788C14.8939 118.338 15.6859 118.098 16.4961 118.098C17.5826 118.098 18.6246 118.529 19.3928 119.297C20.161 120.066 20.5926 121.108 20.5926 122.194Z" fill="#006893"/>
<path d="M160.065 28.1884C160.062 28.9915 159.82 29.7756 159.371 30.4414C158.922 31.1071 158.285 31.6247 157.542 31.9285C156.799 32.2323 155.982 32.3087 155.195 32.148C154.408 31.9874 153.687 31.5968 153.122 31.0259C152.557 30.455 152.174 29.7293 152.022 28.9408C151.87 28.1522 151.955 27.3363 152.267 26.5962C152.579 25.8561 153.103 25.2252 153.774 24.7833C154.445 24.3414 155.231 24.1084 156.034 24.1139C156.566 24.1167 157.093 24.2244 157.583 24.4307C158.074 24.637 158.519 24.938 158.894 25.3163C159.268 25.6947 159.564 26.1431 159.765 26.6359C159.966 27.1287 160.068 27.6562 160.065 28.1884Z" fill="#006893"/>
<path d="M165.158 114.11L160.169 114.056L158.504 118.672L157.217 124.625L156.894 135.36L158.077 144.642L160.224 151.565L166.823 151.351L175.356 148.881L181.205 144.642L184.48 138.098L184.962 134.932L187.59 132.139L189.036 128.114L187.913 122.857L184.748 119.045L182.333 118.136L177.875 117.971L177.179 120.387L174.069 122.802L171.007 123.284L167.519 118.349L163.816 120.228L161.938 120.118L162.157 117.971L165.158 114.11Z" fill="#006893"/>
<path d="M160.974 93.2393L159.523 94.4168L159.736 96.35L161.883 98.7104L164.298 101.449L165.213 104.883L163.493 114.056L165.317 114.165L169.293 111.75L174.386 110.25H178.466L177.07 107.188L176.478 103.114L177.93 99.9426L179.217 96.4541L178.789 94.1484L176.319 91.6785L171.867 88.1406L168 85.0244L166.659 85.6159L164.194 89.5864L160.974 93.2393Z" fill="#006893"/>
<path d="M119.002 122.074L117.194 123.695L115.42 125.579L113.613 128.295L113.235 131.422L114.407 133.909L117.72 136.357L121.225 137.83L125.448 138.241L129.1 138.016L128.082 138.881L122.205 139.599L117.419 138.92L113.536 137.6L110.031 134.812L108.224 131.307V128.635L109.352 126.072L110.973 124.489L112.857 123.432L116.515 122.265L119.002 122.074Z" fill="#006893"/>
<g style="mix-blend-mode:multiply">
<path d="M20.5926 122.194C20.5926 123.004 20.3524 123.796 19.9023 124.47C19.4521 125.144 18.8123 125.669 18.0638 125.979C17.3153 126.289 16.4916 126.37 15.697 126.212C14.9023 126.054 14.1724 125.664 13.5995 125.091C13.0266 124.518 12.6364 123.788 12.4784 122.993C12.3203 122.199 12.4014 121.375 12.7115 120.626C13.0215 119.878 13.5466 119.238 14.2203 118.788C14.8939 118.338 15.6859 118.098 16.4961 118.098C17.5826 118.098 18.6246 118.529 19.3928 119.297C20.161 120.066 20.5926 121.108 20.5926 122.194Z" fill="#006893"/>
</g>
<g style="mix-blend-mode:multiply">
<path d="M132.266 125.393L133.733 127.539L135.053 130.48L135.092 132.211L133.733 135.229L130.042 137.978L123.865 138.169L119.04 137.227L116.176 135.568L118.848 135.152L122.583 133.569L127.518 129.686L132.266 125.393Z" fill="#006893"/>
</g>
<g style="mix-blend-mode:multiply">
<path d="M132.266 125.393L133.733 127.539L135.053 130.48L135.092 132.211L133.733 135.229L130.042 137.978L123.865 138.169L119.04 137.227L116.176 135.568L118.848 135.152L122.583 133.569L127.518 129.686L132.266 125.393Z" fill="#006893"/>
</g>
<path d="M132.266 125.393L133.733 127.539L135.053 130.48L135.092 132.211L133.733 135.229L130.042 137.978L123.865 138.169L119.04 137.227L116.176 135.568L118.848 135.152L122.583 133.569L127.518 129.686L132.266 125.393Z" fill="#032235"/>
<path d="M54.0438 76.1796L64.2686 101.575L72.1165 121.29C72.1165 121.29 74.6741 128.777 78.1408 128.957C83.346 129.12 88.5221 128.123 93.2945 126.038C99.1325 123.481 110.82 116.728 115.929 112.714C121.039 108.7 131.444 99.0224 134.73 93.3596C138.016 87.6968 138.931 85.1448 135.645 81.8588C132.359 78.5728 111 57.4004 111 57.4004L97.8565 43.8896C97.8565 43.8896 94.0229 40.9706 89.6416 42.7943C85.2603 44.618 78.1408 47.1756 70.2928 53.0191C62.4449 58.8626 55.6868 65.2264 54.7722 67.784C53.8576 70.3415 51.8532 71.6176 54.0438 76.1796Z" fill="#8FBBEF"/>
<path d="M57.3297 63.9505L54.7721 59.2023C54.6804 58.7614 54.6818 58.3062 54.7761 57.8658C54.8704 57.4254 55.0556 57.0095 55.3198 56.6448C56.7802 54.2284 58.6308 52.0707 60.7964 50.2591C63.5347 48.0684 70.6542 43.5009 73.3925 42.5918C76.1308 41.6827 77.96 40.5819 79.603 41.858C80.7873 42.8711 81.8299 44.0389 82.7027 45.3301L57.3297 63.9505Z" fill="#8FBBEF"/>
<path d="M52.8662 92.2975C52.8068 92.8947 52.8438 93.4975 52.9757 94.0829C53.1017 94.5484 53.1948 95.0249 53.2934 95.5013C53.4517 95.9346 53.5762 96.3796 53.6658 96.8321C53.6735 97.2675 53.7455 97.6993 53.8793 98.1137C54.1018 98.9835 54.4005 99.832 54.772 100.649C55.5771 102.095 56.0755 103.705 57.0558 105.031C57.6034 105.77 58.3209 106.531 58.9342 107.292L60.0734 108.694L59.3669 111.241L57.5815 112.271L52.4883 113.678L49.1257 114.275L46.5791 113.081C46.3052 112.725 46.0314 112.369 45.7466 112.019C45.4618 111.668 44.7499 110.343 44.2241 110.326C44.1584 109.894 39.0323 110.228 38.5011 110.064C38.1685 109.986 37.8467 109.869 37.5427 109.713C37.2305 109.51 37.1922 109.165 37.0936 108.831C36.8923 108.223 36.8619 107.572 37.006 106.947C37.0827 106.739 37.2524 106.542 37.3401 106.318C37.4672 106.013 37.627 105.723 37.8165 105.452C38.1252 104.963 38.563 104.569 39.0816 104.313C39.6293 104.023 40.4343 103.908 40.8396 103.459C41.1132 103.091 41.2645 102.647 41.2722 102.188C41.2722 102.216 41.0751 101.997 41.0532 101.964C41.0161 101.835 40.9904 101.703 40.9765 101.569C40.9108 101.317 40.8451 101.066 40.7848 100.814L41.5406 96.3173L46.2012 93.2833L50.21 91.2241L52.8662 92.2975Z" fill="#8FBBEF"/>
<path d="M114.379 50.3467L114.467 48.3423L115.108 46.88L117.298 45.374L122.408 41.7211L124.144 41.5404L126.702 42.4988L128.843 43.6872L130.716 42.5426L133.909 41.4473L135.963 42.088L136.56 43.5941L135.919 46.2393L134.32 49.3007L135.552 51.809L136.466 55.0018L130.442 63.4029L126.882 63.4467L123.963 58.3809L119.122 53.6327L114.379 50.3467Z" fill="#8FBBEF"/>
<path d="M115.31 113.465L119.352 112.851H123.936L127.019 106.345L124.007 105.595L119.007 110.524L115.31 113.465Z" fill="#8FBBEF"/>
<path d="M141.872 92.9985L142.491 90.6709L143.926 87.5219L146.324 84.1648L150.295 81.2238L153.236 80.605L155.153 81.2896L157.688 81.0157L159.742 81.2896L161.248 83.3433L162.343 85.1944L162.546 86.7004L161.522 87.9984L158.784 88.6172L156.111 89.3675L154.879 91.2843L154.265 93.9569L153.992 96.7609L152.075 98.6777L148.444 95.6656L144.681 94.0226L141.872 92.9985Z" fill="#8FBBEF"/>
<path d="M116.477 135.508L113.667 132.841L112.983 130.031L114.352 126.745L116.614 124.078L123.251 119.078L129.276 113.327L131.811 110.042L134.068 109.357L133.246 116.411L140.3 113.536L140.366 116.411L132.425 125.036L125.239 131.811L119.418 135.097L116.477 135.508Z" fill="#8FBBEF"/>
<path d="M146.872 112.78L151.456 113.809L159.671 115.107L158.028 120.244L157.004 126.197L157.206 137.769L158.236 145.913L159.26 149.336L151.867 149.818L143.86 148.788L143.586 141.466L147.211 139.067L153.718 133.251L150.979 127.703L146.324 121.887L144.681 120.518L146.872 112.78Z" fill="#8FBBEF"/>
<path d="M167.612 118.601L170.969 123.322L173.844 122.774L176.993 120.447L177.88 117.917L174.458 113.875L167.612 118.601Z" fill="#8FBBEF"/>
<path d="M153.991 96.6293L155.634 97.9492L157.595 96.9908L159.424 94.8932L160.974 93.2064L162.387 91.2896L166.955 85.3092L164.397 84.2139L162.206 84.4384L162.436 86.766L160.29 88.3651L156.089 89.5043L154.857 91.1472L153.991 96.6293Z" fill="#8FBBEF"/>
<path d="M168.822 95.5338L169.326 97.8614L171.423 99.2744L173.433 99.1374L175.487 97.2644L175.394 95.03L173.023 93.0201L171.106 92.8394L169.507 93.8909L168.822 95.5338Z" fill="#8FBBEF"/>
<path d="M162.984 120.496L161.889 120.129L162.343 118.032L164.079 115.25L168.548 112.325L174.162 110.271H178.455L179.321 110.956L179.277 111.964L174.846 113.787L168.822 117.665L163.121 120.54" fill="#8FBBEF"/>
<path d="M171.347 115.753L175.805 121.361L177.086 119.899L172.793 114.79" fill="#B8DCFF"/>
<g style="mix-blend-mode:multiply" opacity="0.5">
<path d="M178.543 136.625C176.9 136.625 174.195 134.834 173.132 133.58C171.834 132.052 171.254 129.867 170.202 128.104C166.982 131.483 161.839 133.985 157.551 133.876C157.271 133.867 156.995 133.807 156.735 133.701C156.472 138.022 157.332 142.786 158.499 146.921C158.63 147.387 159.594 151.516 160.224 151.598C165.673 152.051 171.146 151.079 176.106 148.778C184.414 144.944 184.989 134.966 184.989 134.966C184.989 134.966 182.837 136.625 178.543 136.625Z" fill="#006893"/>
</g>
<path d="M153.548 133.021L151.385 128.224L147.124 122.879L144.489 120.688L146.68 112.309L140.53 117.851L140.256 116.208L132.08 125.94L134.916 129.188L135.053 132.835L134.845 133.081C134.845 133.136 134.845 133.186 134.801 133.24C134.131 134.791 132.999 136.097 131.559 136.981L131.066 137.567L130.015 137.83C128.369 138.576 126.6 139.014 124.796 139.122L122.884 139.599L114.368 137.956L110.173 134.779L107.742 129.642L109.297 126.06L111.729 123.963L115.316 122.408L119.149 121.86L124.692 117.736L131.937 110.036L128.624 110.918L131.669 105.573L127.748 105.025L123.826 112.594L117.802 113.141L115.507 113.207L111.384 116.318L98.2671 123.552C98.2671 123.552 98.3328 127.808 98.7381 129.576C99.1433 131.345 101.58 137.556 103.541 139.38C105.502 141.203 111.312 146.006 115.436 147.359C119.56 148.712 131.121 151.28 136.663 151.078C142.206 150.875 144.035 150.941 144.035 150.941L143.558 141.411L150.01 136.74L153.548 133.021Z" fill="#FFD009"/>
<path d="M139.418 92.8672L128.876 110.644L134.013 109.5L133.202 116.734L140.366 113.689L140.705 117.879L146.587 112.605L148.411 113.35L153.816 107.468L157.332 100.775L153.953 96.4489L152.266 98.6833L148.679 95.841L144.555 94.083L139.418 92.8672Z" fill="#FFD009"/>
<path d="M153.953 96.4487L152.261 98.6832L150.338 97.1552C150.306 97.2538 150.284 97.3469 150.251 97.4455C148.356 102.567 144.989 107.014 140.574 110.228L140.398 114.061L140.705 117.857L146.587 112.583L148.411 113.328L153.843 107.468L157.359 100.775L153.953 96.4487Z" fill="#FF9700"/>
<path d="M106.164 119.445C106.829 121.826 107.878 124.083 109.27 126.126C108.834 126.923 108.483 127.764 108.224 128.635C108.224 128.635 107.928 132.813 110.146 134.845C112.364 136.877 116.296 139.161 118.941 139.434C121.586 139.708 128.618 139.708 131.537 137.337C133.221 136.034 134.462 134.244 135.092 132.211C135.092 132.211 142.759 136.926 153.712 133.251C150.519 136.696 143.717 141.532 143.717 141.532L144.013 150.935L129.708 150.568L122.496 149.292L114.648 146.921L107.161 142.813L101.411 136.329L98.5848 130.053L98.2507 123.58L106.164 119.445Z" fill="#FF9700"/>
<path d="M139.062 107.938L133.328 116.383L140.3 113.535L140.207 107.489L139.062 107.938Z" fill="#FF9700"/>
<g style="mix-blend-mode:multiply">
<path d="M153.953 96.4487L152.31 98.6394C152.304 98.7611 152.288 98.882 152.261 99.0008C152.929 99.9154 153.548 100.874 153.548 102.057C153.548 103.557 152.42 104.899 151.598 106.044C150.437 107.687 149.435 109.467 148.088 110.973C147.611 111.52 147.042 111.997 146.489 112.517L146.571 112.654L146.598 112.627L148.422 113.371L153.844 107.468L157.36 100.775L153.953 96.4487Z" fill="#FF9700"/>
</g>
<path opacity="0.5" d="M140.459 94.8825C139.367 95.9715 138.461 97.2312 137.775 98.612C136.866 100.474 137.89 101.301 139.363 99.9866C140.152 99.2747 141.647 97.5879 141.888 96.5145C142.042 95.808 142.096 95.0906 141.286 94.762C140.19 94.3129 139.593 96.0544 138.892 96.75" fill="#F2FF76"/>
<path opacity="0.5" d="M55.5499 66.6396L83.3436 128.799L80.1945 129.21L76.0762 128.41L74.707 127.041L66.9029 107.736L53.4962 74.7395C53.1673 74.3196 52.9455 73.8259 52.8501 73.3011C52.7547 72.7763 52.7885 72.2362 52.9485 71.7274C53.4962 69.9256 55.5499 66.6396 55.5499 66.6396Z" fill="#026E9C"/>
<path opacity="0.5" d="M58.4251 53.085L61.9849 59.2461L59.3835 62.2582L57.4557 64.3339L54.7174 58.9942C54.6542 58.1368 54.8447 57.2797 55.2651 56.5297C55.9606 55.4125 58.4251 53.085 58.4251 53.085Z" fill="#026E9C"/>
<path opacity="0.5" d="M134.823 50.4834L128.618 52.5371L131.401 58.9721L131.674 61.5735L135.097 57.3291L136.329 54.8647L135.919 51.9895L134.823 50.4834Z" fill="#026E9C"/>
<path opacity="0.5" d="M126.882 106.482L124.281 105.66L119.352 110.315L115.519 113.19L120.447 112.78L123.87 112.643L126.882 106.482Z" fill="#026E9C"/>
<g style="mix-blend-mode:multiply">
<path d="M157.069 89.1646L157.414 91.0102L158.712 93.272L159.879 94.0935L159.194 95.4626L156.932 97.5164L155.497 98.064L154.057 96.6949L154.402 92.6531L155.563 90.0518L157.069 89.1646Z" fill="#026E9C"/>
</g>
<path opacity="0.5" d="M161.588 84.1646C161.588 84.1646 161.588 86.4264 159.468 86.7659C157.349 87.1055 154.95 87.6586 153.373 89.4385C151.795 91.2184 151.801 95.3916 150.569 95.3258C149.336 95.2601 146.116 94.5701 146.116 94.5701L149.95 96.8319L151.867 98.5406L153.17 98.1299L154.057 95.9392L154.742 92.3137L155.908 89.6411C155.908 89.6411 158.439 89.0278 158.647 88.9566L161.177 88.1351L162.683 86.3552L161.588 84.1646Z" fill="#026E9C"/>
<path d="M157.069 89.1646L157.414 91.0103L158.647 92.9983L159.879 94.0936L161.04 93.409L161.314 92.3794L160.29 91.9687L159.123 88.7539L157.069 89.1646Z" fill="#026E9C"/>
<path opacity="0.5" d="M162.272 87.1108C162.272 87.1108 164.6 87.8611 165.421 87.3847C166.243 86.9082 164.123 89.641 164.123 89.641L162.683 91.4209L161.111 92.7901L159.605 90.8733L159.123 88.7538L161.385 87.7954L162.272 87.1108Z" fill="#026E9C"/>
<path opacity="0.5" d="M140.3 115.929C140.3 115.929 128.591 129.007 124.818 131.948C121.044 134.889 117.014 136.329 115.299 134.483C114.443 133.515 113.813 132.368 113.454 131.126C113.454 131.126 121.395 135.781 134.949 116C136.705 115.327 138.418 114.549 140.081 113.672L140.3 115.929Z" fill="#026E9C"/>
<path opacity="0.5" d="M52.5816 92.3355L50.6648 91.4209L49.3887 91.514L41.7215 96.3498L40.7193 99.5482L40.9931 102.834L38.3424 105.299L36.6995 108.037L37.4333 109.313L39.4378 110.228H44.2791L45.922 112.418L49.3887 114.335L57.8774 112.325L59.2466 111.41L60.0681 108.765L56.1414 103.382L53.3154 95.9884L52.5816 92.3355Z" fill="#026E9C"/>
<path opacity="0.5" d="M118.667 52.4718L120.65 51.3053L123.733 53.2933L126.127 56.3711L124.62 58.7699L126.263 62.0558L126.745 63.2169L128.525 63.6276L129.96 63.5619L131.4 62.1928L131.674 60.4129L129.757 54.3174L125.579 49.7335L119.763 46.4476L117.298 45.8999L114.9 47.1321L114.489 48.7039L114.626 50.4181L118.596 52.6744" fill="#026E9C"/>
<path opacity="0.5" d="M124.785 54.2734L121.406 55.4618L124.347 58.9723L126.127 56.3709L124.418 54.2515" fill="#026E9C"/>
<path opacity="0.5" d="M129.801 44.5086C129.801 44.5086 132.633 46.2392 136.466 44.4593C136.532 44.8043 135.645 47.2688 135.645 47.2688L134.341 49.3882L132.151 46.7868L128.591 43.709L129.801 44.5086Z" fill="#026E9C"/>
<path opacity="0.5" d="M152.748 133.958C153.28 134.504 153.92 134.933 154.627 135.216C155.335 135.499 156.094 135.63 156.856 135.601C156.856 138.476 157.814 144.27 157.814 144.27L159.32 149.473H152.349L143.723 148.926V141.554L152.748 133.958Z" fill="#026E9C"/>
<path opacity="0.5" d="M170.021 116.964L174.107 122.545L171.171 123.289L167.781 118.284L170.021 116.964Z" fill="#026E9C"/>
<path opacity="0.5" d="M168.411 112.249C168.411 112.249 165.711 118.054 171.347 115.754C176.982 113.453 166.686 118.054 166.111 119.209C165.536 120.365 161.45 121.4 162.026 118.919C162.601 116.438 166.746 112.763 168.411 112.249Z" fill="#026E9C"/>
<path opacity="0.5" d="M169.216 94.9316L169.967 96.832L172.092 98.6721C172.092 98.6721 173.302 99.2472 173.127 99.2472H170.821L168.926 97.0566L169.216 94.9316Z" fill="#026E9C"/>
<path opacity="0.5" d="M52.5816 92.3355L50.6648 91.4209L49.3887 91.514L41.7215 96.3498L40.7193 99.5482L40.9931 102.834L38.3424 105.299L36.6995 108.037L37.4333 109.313L39.4378 110.228H44.2791L45.922 112.418L49.3887 114.335L57.8774 112.325L59.2466 111.41L60.0681 108.765L56.1414 103.382L53.3154 95.9884L52.5816 92.3355Z" fill="#026E9C"/>
<g style="mix-blend-mode:multiply" opacity="0.5">
<path d="M57.401 112.309C57.0881 112.345 56.771 112.308 56.4754 112.199C56.2171 112.099 55.9517 112.019 55.6813 111.958C55.3865 111.891 55.111 111.757 54.8756 111.568C54.6403 111.378 54.4513 111.137 54.3231 110.863C53.6921 110.635 53.1035 110.304 52.5816 109.883C51.4315 108.775 50.4184 107.534 49.564 106.186C48.2715 104.056 47.4938 101.92 47.6581 99.5209C47.5154 98.9408 47.4274 98.3486 47.3952 97.752C47.335 96.235 47.2255 94.2853 47.795 92.8231C47.8498 92.6807 47.91 92.5383 47.9648 92.4014L41.7215 96.339L40.7193 99.5374L40.9931 102.823L38.3424 105.288L36.6995 108.026L37.4333 109.302L39.4378 110.217H44.2791L45.922 112.407L49.3887 114.324L57.7405 112.347L57.401 112.309Z" fill="#026E9C"/>
</g>
<g style="mix-blend-mode:multiply" opacity="0.5">
<path d="M51.4861 97.9439V100.819L52.9538 104.001L53.8739 105.408L57.0503 104.795L53.6877 97.0293L51.7325 97.7632" fill="#026E9C"/>
</g>
<g style="mix-blend-mode:multiply">
<path d="M52.3788 38.4518L58.0032 40.9217L57.1106 41.8801L55.8783 43.8681L55.5059 45.3304L56.6122 47.4717L54.3668 47.9153H50.8015L49.1531 46.2011L49.29 42.7016L51.0754 39.7552L53.3372 37.0771" fill="#006893"/>
</g>
<g style="mix-blend-mode:multiply" opacity="0.5">
<path d="M44.1476 109.691C43.3231 108.548 42.5906 107.341 41.957 106.082C41.4294 105.117 41.0456 104.08 40.8179 103.004L38.3424 105.299L36.6995 108.037L37.4333 109.313L39.4378 110.228H44.2188C44.176 110.052 44.1521 109.872 44.1476 109.691Z" fill="#026E9C"/>
</g>
<g style="mix-blend-mode:multiply">
<path d="M157.069 89.1646L157.414 91.0103L158.647 92.9983L159.879 94.0936L161.04 93.409L161.314 92.3794L160.29 91.9687L159.123 88.7539L157.069 89.1646Z" fill="#026E9C"/>
</g>
<g style="mix-blend-mode:multiply" opacity="0.5">
<path d="M51.4861 97.9439V100.819L52.9538 104.001L53.8739 105.408L57.0503 104.795L53.6877 97.0293L51.7325 97.7632" fill="#026E9C"/>
</g>
<g style="mix-blend-mode:multiply" opacity="0.5">
<path d="M44.1476 109.691C43.3231 108.548 42.5906 107.341 41.957 106.082C41.4294 105.117 41.0456 104.08 40.8179 103.004L38.3424 105.299L36.6995 108.037L37.4333 109.313L39.4378 110.228H44.2188C44.176 110.052 44.1521 109.872 44.1476 109.691Z" fill="#026E9C"/>
</g>
<path opacity="0.8" d="M151.779 135.272C150.372 136.236 149.183 137.49 147.759 138.438C146.954 138.985 143.52 140.47 143.531 141.576C143.531 143.964 143.602 146.351 143.63 148.739L145.191 148.876L144.824 141.937C146.121 141.226 147.372 140.434 148.57 139.566C150.501 138.238 152.247 136.66 153.762 134.873L152.984 134.089C152.608 134.509 152.206 134.905 151.779 135.272Z" fill="#026E9C"/>
<g style="mix-blend-mode:multiply">
<path d="M125.239 60.3413L117.983 64.1749L121.406 67.5978L125.102 71.0207L127.293 67.5978L127.156 64.8595L125.239 60.3413Z" fill="#006893"/>
</g>
<g style="mix-blend-mode:multiply">
<path d="M168.515 100.48C167.452 98.6008 166.11 96.8945 164.534 95.4193C162.206 93.0917 163.302 90.7642 163.302 90.7642L160.7 93.3601L159.331 94.8661L160.153 96.7829L162.891 99.795L164.671 102.533L165.218 104.861L164.808 108.831L163.438 114.171H164.797C164.797 114.171 165.755 114.034 168.083 112.528C168.63 112.178 168.822 112.747 168.997 112.117C169.107 111.729 169.512 102.375 168.515 100.48Z" fill="#006893"/>
</g>
<g style="mix-blend-mode:multiply" opacity="0.5">
<path d="M183.11 128.859C181.14 128.843 179.219 128.236 177.597 127.117C175.974 125.999 174.724 124.419 174.008 122.583L171.379 123.185L170.284 126.061L170.558 128.799L172.064 132.769L175.213 135.234L178.225 136.466L181.374 136.329L184.512 134.982L187.524 132.107L189.031 128.136L188.916 126.899C187.246 128.168 185.207 128.856 183.11 128.859Z" fill="#006893"/>
</g>
<g style="mix-blend-mode:multiply">
<path d="M58.0582 41.1294L62.6257 48.8897L58.9728 51.9895L55.5061 45.33C55.5061 45.33 56.7821 41.0363 58.0582 41.1294Z" fill="#006893"/>
</g>
<g style="mix-blend-mode:multiply">
<path d="M52.4938 38.7584C52.4938 38.7584 48.0577 32.3453 52.4938 28.2598C50.3908 29.4482 47.5648 31.6388 47.1048 36.9511C46.6448 42.2634 48.5671 45.6041 48.5671 45.6041C49.1475 43.243 50.2372 41.0373 51.7599 39.1417C54.3175 35.927 52.4938 38.7584 52.4938 38.7584Z" fill="#006893"/>
</g>
<g style="mix-blend-mode:multiply">
<path d="M57.8446 85.5723L67.7682 109.839L64.2084 110.661L62.3628 110.179L58.803 107.166L54.7941 100.392L53.0854 94.6086L53.1512 89.7126L54.7941 87.1112L57.8446 85.5723Z" fill="#006893"/>
</g>
<path d="M159.643 84.422C159.769 84.8601 158.762 85.5173 157.398 85.9171C156.034 86.3169 154.829 86.2621 154.704 85.824C154.578 85.3858 155.585 84.7287 156.949 84.3343C158.313 83.94 159.517 83.9893 159.643 84.422Z" fill="#B8DCFF"/>
<path d="M153.975 83.7536C154.182 83.5998 154.408 83.4745 154.649 83.3812C155.847 82.9003 157.089 82.5336 158.356 82.2859C158.159 81.8971 157.025 81.7875 155.711 82.0559C154.397 82.3242 153.268 82.9267 153.356 83.3703C153.394 83.5619 153.624 83.6879 153.975 83.7536Z" fill="#B8DCFF"/>
<path d="M149.78 83.354C149.902 83.2076 150.039 83.0754 150.191 82.9597C150.96 82.3897 151.782 81.8928 152.644 81.4755C152.43 81.2291 151.598 81.366 150.705 81.8096C149.813 82.2532 149.117 82.9049 149.265 83.2006C149.325 83.3266 149.517 83.3704 149.78 83.354Z" fill="#B8DCFF"/>
<path d="M123.279 126.318C126.532 123.75 128.509 120.842 127.693 119.807C126.877 118.771 123.585 120.026 120.332 122.594C117.079 125.163 115.102 128.071 115.918 129.106C116.734 130.141 120.026 128.887 123.279 126.318Z" fill="#B8DCFF"/>
<g style="mix-blend-mode:multiply">
<path d="M123.865 138.169C123.865 138.169 119.889 138.815 115.31 134.483C112.955 132.265 112.966 131.121 113.273 130.469C113.223 130.148 113.238 129.82 113.317 129.505L113.18 129.472C111.263 129.061 108.936 126.734 108.936 126.734C106.608 128.514 108.662 135.907 116.192 138.782C123.722 141.658 131.028 137.605 131.028 137.605L123.865 138.169Z" fill="#006893"/>
</g>
<g style="mix-blend-mode:multiply">
<path d="M165.476 113.278C165.714 112.742 165.923 112.194 166.1 111.635C166.232 111.159 166.341 110.671 166.478 110.189C167.349 106.274 167.053 101.58 164.539 98.7542C163.378 97.4453 161.905 96.2843 161.04 94.7508C160.786 94.3255 160.673 93.8311 160.717 93.3379L159.348 94.844L160.169 96.7608L162.907 99.7729L164.687 102.511L165.235 104.839L164.824 108.809L163.455 114.149H164.797C164.959 114.117 165.119 114.072 165.273 114.012C165.301 113.758 165.369 113.51 165.476 113.278Z" fill="#006893"/>
</g>
<path d="M84.488 73.0469L81.3225 72.2528L78.0639 72.5212L74.3672 74.3668L71.2839 78.0635L68.0254 85.0188L66.4426 90.4789L66.8808 93.031L68.113 94.8821L70.6705 96.2896L72.8667 96.9906L81.1418 97.4342L87.8342 95.6707L91.5309 93.3815L93.0315 89.6848L93.1191 86.607L95.4959 87.5708L98.9243 87.8392L103.152 86.251L106.06 83.8741L109.05 77.8882L110.633 70.933L109.845 65.6535L107.199 61.8692L101.832 59.0488L94.6142 57.3784L91.1804 57.8165L88.5407 59.0488L86.6019 61.6009L85.0192 66.004L84.488 73.0469Z" fill="white"/>
<path d="M104.79 112.648L103.235 109.614C103.235 109.614 103.021 107.851 103.443 107.385C103.864 106.92 106.811 104.817 106.811 104.817L110.77 101.454L112.578 101.618L115.48 104.778L110.551 109.406L104.79 112.648Z" fill="white"/>
<path opacity="0.7" d="M71.2237 96.4871L71.158 98.5409L73.4855 101.142L78.1406 101.761L85.534 101.964L89.981 100.732L92.9931 97.9932L95.2549 90.8736L97.1005 91.6951H100.797C100.797 91.6951 106 90.8079 107.506 89.6414C109.012 88.4749 113.317 83.1407 113.864 77.3903C114.412 71.6399 113.246 69.6519 112.424 69.0385C111.876 68.6407 111.278 68.3184 110.644 68.0801L110.507 71.1579L109.757 75.4735L107.084 82.4561L102.774 86.6293L98.7435 87.8834L95.118 87.4727L93.13 86.7224L92.9274 89.8002L90.5998 94.2527L86.832 96.3064L82.1002 97.3086L76.1417 97.3798L71.2237 96.4871Z" fill="#026E9C"/>
<path d="M96.9199 114.675L101.805 114.127L104.954 112.659L103.799 110.841L102.999 108.492L104.423 106.405L107.347 104.406C107.347 104.406 110.234 101.481 110.852 101.481C111.585 101.6 112.301 101.808 112.983 102.1L115.382 104.943L117.375 102.632L119.681 97.2207L116.619 97.3083L109.965 98.9075L104.423 102.013L100.869 105.874L98.6067 110.041L96.9199 114.675Z" fill="#D3244E"/>
<path d="M87.6919 108.021L88.5353 109.883L90.5781 111.969L92.5277 113.344L95.5453 114.45L97.1007 114.587L97.8126 111.657L99.1434 108.508L100.25 106.865L101.668 105.047L103.579 103.004L105.885 100.923L108.678 99.3238L111.74 98.0807L116.712 97.1496L119.637 97.2811L119.818 95.1945L119.549 92.626L118.043 89.5646L116.044 87.3027L113.339 91.1144L108.016 96.3501L103.399 99.7674L97.1007 103.716L87.6919 108.021Z" fill="#34374C"/>
<path d="M157.157 26.1127C157.102 26.3687 156.965 26.5997 156.766 26.7704C156.568 26.9412 156.319 27.0424 156.058 27.0585C155.797 27.0746 155.537 27.0048 155.319 26.8598C155.102 26.7147 154.937 26.5024 154.851 26.2551C154.818 25.7677 155.311 25.3405 155.946 25.3022C156.214 25.2549 156.489 25.3129 156.715 25.464C156.94 25.615 157.099 25.8475 157.157 26.1127Z" fill="#00A5D8"/>
<path d="M87.3524 90.0736C87.3524 90.6293 87.1876 91.1725 86.8789 91.6345C86.5702 92.0965 86.1314 92.4566 85.618 92.6693C85.1047 92.8819 84.5398 92.9375 83.9948 92.8291C83.4498 92.7207 82.9492 92.4532 82.5563 92.0602C82.1634 91.6673 81.8958 91.1667 81.7874 90.6217C81.679 90.0768 81.7346 89.5119 81.9473 88.9985C82.1599 88.4851 82.52 88.0464 82.982 87.7376C83.444 87.4289 83.9872 87.2642 84.5429 87.2642C85.288 87.2642 86.0026 87.5602 86.5295 88.087C87.0564 88.6139 87.3524 89.3285 87.3524 90.0736Z" fill="#34374C"/>
<path d="M97.6866 83.5787C99.2352 83.5787 100.491 82.3233 100.491 80.7747C100.491 79.2261 99.2352 77.9707 97.6866 77.9707C96.138 77.9707 94.8826 79.2261 94.8826 80.7747C94.8826 82.3233 96.138 83.5787 97.6866 83.5787Z" fill="#34374C"/>
<path d="M74.2908 54.0431L77.8889 58.9227C77.8889 58.9227 87.4017 52.7287 97.1336 54.4757C93.541 52.2194 84.8387 49.8371 74.2908 54.0431Z" fill="#34374C"/>
<path d="M71.9248 63.8301L75.2108 68.6166C75.2108 68.6166 70.1559 71.5685 65.6377 80.1175C66.0156 74.6354 67.9652 67.4118 71.9248 63.8301Z" fill="#34374C"/>
<path d="M59.0986 51.9896L55.8674 46.1351C54.8487 44.6893 56.541 41.7538 59.6462 39.5632C62.7514 37.3726 66.1031 36.7592 67.1218 38.205L71.5907 43.2818" stroke="#34374C" stroke-width="1.44" stroke-linecap="round" stroke-linejoin="round"/>
<path d="M57.4229 64.0054L54.9639 59.4817C53.6057 57.5649 58.0856 52.0719 64.9587 47.2142C71.8318 42.3565 78.5132 39.9796 79.8714 41.9019L83.004 45.0728" stroke="#34374C" stroke-width="1.44" stroke-linecap="round" stroke-linejoin="round"/>
<path d="M115.053 113.541C130.628 101.295 140.656 88.3158 136.866 82.9542L102.364 48.5503L97.1007 43.2764C93.6669 40.2369 82.9438 44.054 70.8131 52.5866C58.6825 61.1191 51.5082 69.8597 53.2333 74.2191L65.8294 105.233L74.592 126.827C76.8921 130.08 83.6119 129.68 92.2047 126.411C92.2759 126.422 105.354 121.164 115.053 113.541Z" stroke="#34374C" stroke-width="1.44" stroke-linecap="round" stroke-linejoin="round"/>
<path d="M56.3603 47.5482C53.1565 48.5614 50.4785 48.3971 49.3831 46.8472C47.5978 44.3006 50.7304 38.9883 56.4096 34.9794C62.0888 30.9706 68.1459 29.7821 69.9423 32.3288C71.0376 33.8896 70.2873 36.5019 68.2171 39.2073" stroke="#34374C" stroke-width="1.44" stroke-linecap="round" stroke-linejoin="round"/>
<path d="M49.4762 46.984C45.1278 40.8228 46.1902 32.5805 51.8859 28.5717C57.5815 24.5628 65.6705 26.3044 70.0517 32.4655" stroke="#34374C" stroke-width="1.44" stroke-linecap="round" stroke-linejoin="round"/>
<path d="M87.5332 81.8205C86.138 79.6529 85.1922 77.2271 84.7519 74.6871C84.3116 72.1471 84.3859 69.5445 84.9702 67.0338C86.9418 58.4355 89.9594 54.6293 103.158 59.5582C116.357 64.4871 108.322 80.8841 106.159 83.7538C103.996 86.6235 96.3396 92.3739 87.5332 81.8205Z" stroke="#34374C" stroke-width="1.44" stroke-linecap="round" stroke-linejoin="round"/>
<path d="M84.4115 73.1291C84.4115 73.1291 76.7114 69.3448 71.7661 77.5103C66.8207 85.6759 63.9455 93.2555 70.2162 96.2019C76.4869 99.1483 88.6887 96.7496 91.1915 93.6279C93.6943 90.5063 93.0919 86.585 93.0919 86.585" stroke="#34374C" stroke-width="1.44" stroke-linecap="round" stroke-linejoin="round"/>
<path d="M71.295 96.7988C71.295 96.7988 70.008 101.394 78.0751 101.903C86.1421 102.412 91.7665 102.292 94.3022 94.9696C96.8378 87.6474 93.5793 87.7734 93.53 87.4722" stroke="#34374C" stroke-width="1.44" stroke-linecap="round" stroke-linejoin="round"/>
<path d="M95.3101 91.41C95.3101 91.41 104.434 93.1789 108.755 88.6224C113.076 84.0659 114.779 74.6297 113.772 71.508C112.764 68.3864 110.371 67.8716 110.371 67.8716" stroke="#34374C" stroke-width="1.44" stroke-linecap="round" stroke-linejoin="round"/>
<path d="M118.394 52.8327L120.436 51.25C121.049 51.4382 121.635 51.7012 122.183 52.0332C123.165 52.649 124.034 53.4288 124.752 54.3388C125.296 54.9991 125.763 55.7194 126.143 56.4856L124.352 58.9829" stroke="#34374C" stroke-width="1.44" stroke-linecap="round" stroke-linejoin="round"/>
<path d="M127.008 63.304C128.651 63.7859 129.982 63.6983 130.781 62.9152C132.709 61.0422 131.296 55.4177 126.981 50.9926C122.665 46.5675 117.085 45.0122 115.162 46.8852C114.39 47.6355 114.242 48.917 114.615 50.4724" stroke="#34374C" stroke-width="1.44" stroke-linecap="round" stroke-linejoin="round"/>
<path d="M125.042 70.7741L126.685 68.2604C128.695 66.4586 126.493 60.6589 121.597 55.6369C116.701 50.6148 110.956 48.2544 108.777 50.3793L106.329 52.4823" stroke="#34374C" stroke-width="1.44" stroke-linecap="round" stroke-linejoin="round"/>
<path d="M115.14 46.8852L121.712 42.148C123.421 40.4776 127.923 42.3287 131.773 46.2773C135.623 50.2259 137.359 54.7824 135.645 56.4473L130.716 62.9152" stroke="#34374C" stroke-width="1.44" stroke-linecap="round" stroke-linejoin="round"/>
<path d="M134.341 49.076C136.39 46.1077 137.112 43.3584 135.93 42.1426C134.747 40.9268 131.943 41.595 128.903 43.583" stroke="#34374C" stroke-width="1.44" stroke-linecap="round" stroke-linejoin="round"/>
<path d="M135.929 42.1426C135.929 42.1426 143.323 31.5509 154.44 28.5278" stroke="#34374C" stroke-width="1.44" stroke-linecap="round" stroke-linejoin="round"/>
<path d="M153.011 31.2114C153.58 31.7971 154.31 32.2009 155.109 32.3716C155.908 32.5423 156.739 32.4723 157.498 32.1705C158.257 31.8686 158.91 31.3485 159.373 30.6758C159.836 30.0032 160.09 29.2082 160.101 28.3916C160.113 27.5749 159.882 26.7731 159.438 26.0877C158.993 25.4023 158.356 24.864 157.606 24.5409C156.856 24.2178 156.026 24.1244 155.223 24.2726C154.42 24.4208 153.679 24.8039 153.093 25.3733C152.31 26.1375 151.861 27.181 151.846 28.2754C151.83 29.3697 152.249 30.4255 153.011 31.2114V31.2114Z" stroke="#34374C" stroke-width="1.44" stroke-linecap="round" stroke-linejoin="round"/>
<path d="M53.622 96.8374L51.3546 98.108C51.2921 98.7463 51.3068 99.3899 51.3985 100.025C51.5926 101.165 51.9777 102.265 52.5376 103.278C52.9417 104.043 53.4343 104.758 54.0053 105.408L56.9955 104.724" stroke="#34374C" stroke-width="1.44" stroke-linecap="round" stroke-linejoin="round"/>
<path d="M59.9694 108.793C59.7887 110.474 59.1863 111.69 58.1512 112.128C55.6813 113.18 51.0316 109.707 48.6165 104.023C46.2013 98.3381 46.9133 92.5822 49.3887 91.5307C50.3799 91.109 51.6176 91.4704 52.9046 92.4234" stroke="#34374C" stroke-width="1.44" stroke-linecap="round" stroke-linejoin="round"/>
<path d="M67.6093 109.899L65.0134 110.447C62.2149 111.635 57.7131 107.363 54.9639 100.912C52.2146 94.4604 52.2584 88.2499 55.057 87.0561L57.7022 85.6924" stroke="#34374C" stroke-width="1.44" stroke-linecap="round" stroke-linejoin="round"/>
<path d="M49.3886 91.5303L42.4717 95.7856C40.2811 96.7221 40.2427 101.591 42.406 106.668C44.5692 111.744 48.0962 115.096 50.2978 114.17L58.1512 112.139" stroke="#34374C" stroke-width="1.44" stroke-linecap="round" stroke-linejoin="round"/>
<path d="M43.956 110.101C40.451 110.835 37.6579 110.441 36.9952 108.88C36.3326 107.319 38.0194 104.992 41.0315 102.96" stroke="#34374C" stroke-width="1.44" stroke-linecap="round" stroke-linejoin="round"/>
<path d="M36.995 108.88C36.995 108.88 24.3989 111.619 17.2793 120.715" stroke="#34374C" stroke-width="1.44" stroke-linecap="round" stroke-linejoin="round"/>
<path d="M20.3189 120.43C20.6357 121.181 20.7229 122.009 20.5695 122.809C20.4162 123.61 20.029 124.347 19.4571 124.927C18.8851 125.508 18.1539 125.906 17.3559 126.071C16.5578 126.237 15.7287 126.162 14.9732 125.856C14.2176 125.551 13.5696 125.028 13.1108 124.355C12.6521 123.681 12.4032 122.886 12.3957 122.072C12.3881 121.257 12.6222 120.458 13.0684 119.776C13.5146 119.094 14.1528 118.559 14.9026 118.24C15.402 118.028 15.9384 117.916 16.4809 117.911C17.0235 117.907 17.5617 118.009 18.0647 118.212C18.5678 118.416 19.0258 118.716 19.4125 119.097C19.7993 119.478 20.1073 119.931 20.3189 120.43V120.43Z" stroke="#34374C" stroke-width="1.44" stroke-linecap="round" stroke-linejoin="round"/>
<path d="M78.9788 110.337C78.9788 110.337 107.457 105.589 120.415 80.3965" stroke="#34374C" stroke-width="1.44" stroke-linecap="round" stroke-linejoin="round"/>
<path d="M87.8289 108.431C87.8289 108.431 93.6012 121.838 110.579 109.242C126.231 97.6312 117.698 88.8084 116.247 87.4995" stroke="#34374C" stroke-width="1.44" stroke-linecap="round" stroke-linejoin="round"/>
<path d="M104.806 112.528C101.8 107.927 102.884 107.44 106.997 104.587C108.092 103.825 109.702 101.755 111.039 101.509C113.054 101.136 113.903 103.108 115.212 104.587" stroke="#34374C" stroke-width="1.44" stroke-linecap="round" stroke-linejoin="round"/>
<path d="M97.0349 114.598C98.0425 109.685 100.714 105.271 104.6 102.1C108.485 98.9288 113.346 97.1958 118.361 97.1934C118.777 97.1934 119.188 97.2043 119.593 97.2262" stroke="#34374C" stroke-width="1.44" stroke-linecap="round" stroke-linejoin="round"/>
<path d="M106.991 104.789C107.46 105.591 108.01 106.341 108.634 107.029" stroke="#34374C" stroke-width="1.44" stroke-linecap="round" stroke-linejoin="round"/>
<path d="M184.961 134.812C183.8 149.188 170.104 151.696 160.114 151.696C156.379 143.027 155.103 125.135 160.114 113.908C161.505 113.908 162.973 113.957 164.463 114.077" stroke="#34374C" stroke-width="1.44" stroke-linecap="round" stroke-linejoin="round"/>
<path d="M177.809 118.032C178.447 117.899 179.096 117.833 179.748 117.834C181.589 117.834 183.389 118.381 184.92 119.404C186.451 120.427 187.645 121.881 188.349 123.582C189.054 125.283 189.238 127.155 188.879 128.961C188.52 130.767 187.633 132.426 186.331 133.728C185.029 135.03 183.37 135.917 181.564 136.276C179.758 136.635 177.886 136.451 176.185 135.746C174.484 135.042 173.03 133.848 172.007 132.317C170.984 130.786 170.438 128.986 170.438 127.145C170.433 125.796 170.725 124.463 171.292 123.24" stroke="#34374C" stroke-width="1.44" stroke-linecap="round" stroke-linejoin="round"/>
<path d="M171.752 110.934C168.878 111.866 166.235 113.396 163.997 115.425C162.228 117.101 160.163 121.915 164.413 120.025C168.986 117.999 172.447 114.395 177.196 112.725C177.743 112.539 179.277 112.276 179.386 111.454C179.748 108.837 172.88 110.584 171.752 110.934Z" stroke="#34374C" stroke-width="1.44" stroke-linecap="round" stroke-linejoin="round"/>
<path d="M98.3275 124.029C98.3275 124.029 94.8553 152.874 143.964 150.864L143.602 141.373C143.602 141.373 149.988 137.54 153.641 133.158C151.27 125.864 144.698 120.743 144.698 120.743L146.724 112.72" stroke="#34374C" stroke-width="1.44" stroke-linecap="round" stroke-linejoin="round"/>
<path d="M143.783 149.051C143.783 149.051 154.189 150.147 159.118 149.413" stroke="#34374C" stroke-width="1.44" stroke-linecap="round" stroke-linejoin="round"/>
<path d="M178.488 109.981C176.927 107.993 176.062 104.751 176.845 102.314C177.601 99.9866 179.978 97.3852 179.036 94.8112C178.253 92.6534 175.564 91.3391 173.877 90.1287C172.382 89.0334 169.824 85.2929 168.066 85.1505C166.473 85.0191 164.518 89.1703 163.378 90.4738C162.431 91.5691 160.87 92.3084 160.947 93.9185C160.996 95.0138 162.097 96.1858 162.825 96.9635C164.66 98.9241 166.363 100.277 166.626 103.026C166.815 105.981 166.487 108.946 165.657 111.789C165.388 112.807 165.076 114.094 164.49 114.899" stroke="#34374C" stroke-width="1.44" stroke-linecap="round" stroke-linejoin="round"/>
<path d="M163.543 113.908C164.271 111.131 165.438 107.144 165.153 104.132C164.89 101.394 163.187 100.03 161.352 98.0749C160.624 97.2918 159.523 96.1088 159.474 95.0245C159.474 95.0245 159.085 94.2249 160.761 93.4253" stroke="#34374C" stroke-width="1.44" stroke-linecap="round" stroke-linejoin="round"/>
<path d="M174.266 93.7871C175.657 95.0248 175.974 96.9471 174.967 98.0807C173.959 99.2144 172.02 99.1213 170.624 97.8836C169.227 96.6458 168.915 94.7236 169.917 93.5899C170.92 92.4563 172.869 92.5494 174.266 93.7871Z" stroke="#34374C" stroke-width="1.44" stroke-linecap="round" stroke-linejoin="round"/>
<path d="M174.359 98.705C173.351 99.8442 171.396 99.7675 170.005 98.5243C168.614 97.2811 168.302 95.3589 169.315 94.2197" stroke="#34374C" stroke-width="1.44" stroke-linecap="round" stroke-linejoin="round"/>
<path d="M167.771 118.552L171.084 123.223C171.084 123.223 177.01 123.295 177.919 117.999L174.633 113.984" stroke="#34374C" stroke-width="1.44" stroke-linecap="round" stroke-linejoin="round"/>
<path d="M162.059 84.4933C162.922 84.2199 163.84 84.171 164.728 84.3512C165.615 84.5313 166.442 84.9346 167.13 85.5229" stroke="#34374C" stroke-width="1.44" stroke-linecap="round" stroke-linejoin="round"/>
<path d="M161.122 92.8119C160.523 92.33 160.032 91.7264 159.683 91.0411C159.333 90.3558 159.133 89.6042 159.096 88.8359" stroke="#34374C" stroke-width="1.44" stroke-linecap="round" stroke-linejoin="round"/>
<path d="M159.802 94.0115C159.05 93.5261 158.426 92.8654 157.986 92.086C157.545 91.3067 157.3 90.432 157.272 89.5371" stroke="#34374C" stroke-width="1.44" stroke-linecap="round" stroke-linejoin="round"/>
<path d="M128.651 110.885L140.338 107.418L140.519 118.004C140.519 118.004 150.722 109.981 153.844 101.766C150.355 93.7376 139.605 92.812 139.605 92.812L128.651 110.885Z" stroke="#34374C" stroke-width="1.44" stroke-linecap="round" stroke-linejoin="round"/>
<path d="M148.394 113.317C151.56 110.211 155.547 105.649 157.294 101.038C156.533 99.2991 155.385 97.7573 153.937 96.5308" stroke="#34374C" stroke-width="1.44" stroke-linecap="round" stroke-linejoin="round"/>
<path d="M146.724 112.72C146.724 112.72 154.03 114.91 159.32 115.097" stroke="#34374C" stroke-width="1.44" stroke-linecap="round" stroke-linejoin="round"/>
<path d="M150.355 90.2656C150.454 87.8121 152.995 85.0628 155.109 84.0606C156.916 83.2063 161.133 82.4176 162.228 84.7835C163.871 88.3433 159.32 88.4857 157.299 88.9895C154.112 89.7782 154.753 93.1353 154.205 95.7422C154.03 96.5637 153.466 98.119 152.37 98.4805" stroke="#34374C" stroke-width="1.44" stroke-linecap="round" stroke-linejoin="round"/>
<path d="M161.215 83.3265C160.24 80.2432 156.774 80.8073 154.26 81.6233C149.26 83.2663 148.236 86.3386 146.976 88.8962" stroke="#34374C" stroke-width="1.44" stroke-linecap="round" stroke-linejoin="round"/>
<path d="M154.736 81.136C153.898 80.2159 152.294 80.6431 151.275 80.9553C149.691 81.5065 148.252 82.4111 147.069 83.6005C144.703 85.8514 142.14 89.6247 142.047 93.0147" stroke="#34374C" stroke-width="1.44" stroke-linecap="round" stroke-linejoin="round"/>
<path d="M134.106 109.62L133.197 116.739L139.949 113.815" stroke="#34374C" stroke-width="1.44" stroke-linecap="round" stroke-linejoin="round"/>
<path d="M132.463 105.052L140.497 101.766L145.245 94.2852" stroke="#34374C" stroke-width="1.44" stroke-linecap="round" stroke-linejoin="round"/>
<path d="M131.735 105.786C130.369 105.399 128.954 105.215 127.534 105.238L123.887 112.719C123.887 112.719 118.268 112.539 115.053 113.541" stroke="#34374C" stroke-width="1.44" stroke-linecap="round" stroke-linejoin="round"/>
<path d="M126.888 106.301C126.106 106.163 125.332 105.98 124.571 105.753" stroke="#34374C" stroke-width="1.44" stroke-linecap="round" stroke-linejoin="round"/>
<path d="M132.189 125.595C134.232 127.391 135.366 129.637 135.141 131.948C134.654 136.877 128.197 140.25 120.721 139.511C113.246 138.772 107.577 134.182 108.07 129.27C108.481 125.091 113.317 122.221 119.341 121.838" stroke="#34374C" stroke-width="1.44" stroke-linecap="round" stroke-linejoin="round"/>
<path d="M131.477 126.219C133.92 127.775 135.371 129.965 135.141 132.243C134.758 136.176 129.522 138.876 123.459 138.268C117.397 137.66 112.791 133.996 113.18 130.053" stroke="#34374C" stroke-width="1.44" stroke-linecap="round" stroke-linejoin="round"/>
<path d="M159.255 95.2437C158.827 95.9355 158.265 96.5344 157.602 97.0048C156.939 97.4752 156.188 97.8075 155.394 97.9819" stroke="#34374C" stroke-width="1.44" stroke-linecap="round" stroke-linejoin="round"/>
<path d="M132.102 109.981C130.037 112.259 128.816 114.225 126.477 116.241C125.338 117.226 124.128 118.262 122.934 119.247C121.625 120.343 120.196 121.257 118.865 122.243C117.203 123.371 115.752 124.782 114.577 126.411C114.043 127.202 113.633 128.07 113.361 128.985C112.813 130.83 113.865 134.396 115.896 135.129C122.331 137.457 134.654 122.566 139.533 117.057C139.665 116.909 140.508 115.961 140.13 116.367" stroke="#34374C" stroke-width="1.44" stroke-linecap="round" stroke-linejoin="round"/>
</svg>
