<svg id="aa29f2ef-b19d-43a6-8d13-922ffd1b4de7" data-name="Слой 2" xmlns="http://www.w3.org/2000/svg" viewBox="0 0 120 100">
  <circle cx="60" cy="50" r="44" fill="#f0e9fc"/>
  <path d="M34.72,43.67V16.94a3.27,3.27,0,0,0-3.28-3.27H4.8a3.26,3.26,0,0,0-3.27,3.27V43.67A3.26,3.26,0,0,0,4.8,46.94H15.53l8.41,8.43a.82.82,0,0,0,1.4-.58V46.94h6.1A3.27,3.27,0,0,0,34.72,43.67Z" fill="#e2d5f8"/>
  <path d="M18.08,33.71a1.54,1.54,0,0,1-1.21-.5,2,2,0,0,1-.44-1.33,5.47,5.47,0,0,1,.44-2.17,7.33,7.33,0,0,1,1.5-2.11,5.86,5.86,0,0,0,1-1.24,2.08,2.08,0,0,0,.28-1.06c0-.92-.65-1.38-1.94-1.38a7.68,7.68,0,0,0-1.77.2,7.26,7.26,0,0,0-1.6.62,2.34,2.34,0,0,1-1.56.3,1.72,1.72,0,0,1-1.06-.68,2.22,2.22,0,0,1-.42-1.24,2.66,2.66,0,0,1,.37-1.39A3,3,0,0,1,13,20.61a11,11,0,0,1,2.56-.87,13.14,13.14,0,0,1,2.54-.28,9.26,9.26,0,0,1,3.58.65,5.64,5.64,0,0,1,2.41,1.83A4.57,4.57,0,0,1,25,24.65a5.11,5.11,0,0,1-.61,2.47,7.19,7.19,0,0,1-2.16,2.28,7.27,7.27,0,0,0-1.84,1.71,4.56,4.56,0,0,0-.64,1.51,1.43,1.43,0,0,1-.5.78A1.8,1.8,0,0,1,18.08,33.71Zm-.09,7A2.84,2.84,0,0,1,15.85,40a2.89,2.89,0,0,1-.78-2.08,2.79,2.79,0,0,1,.78-2A2.87,2.87,0,0,1,18,35a2.68,2.68,0,0,1,2.89,2.83A2.92,2.92,0,0,1,20.11,40,2.78,2.78,0,0,1,18,40.76Z" fill="#fff"/>
  <path d="M115.2,4H88.56a3.28,3.28,0,0,0-3.28,3.28V34a3.28,3.28,0,0,0,3.28,3.28h6.1v7.85a.82.82,0,0,0,1.4.58l8.41-8.43H115.2A3.27,3.27,0,0,0,118.47,34V7.28A3.27,3.27,0,0,0,115.2,4Z" fill="#e2d5f8"/>
  <path d="M101.84,24.19a1.49,1.49,0,0,1-1.21-.5,1.89,1.89,0,0,1-.45-1.32,5.3,5.3,0,0,1,.45-2.17,7.14,7.14,0,0,1,1.5-2.11,6.93,6.93,0,0,0,1-1.24,2.1,2.1,0,0,0,.28-1.06c0-.93-.65-1.39-2-1.39a7.16,7.16,0,0,0-1.77.21,6.72,6.72,0,0,0-1.59.62,2.39,2.39,0,0,1-1.56.29,1.7,1.7,0,0,1-1.07-.68,2.23,2.23,0,0,1-.41-1.23,2.53,2.53,0,0,1,.37-1.39,2.93,2.93,0,0,1,1.34-1.12,11.28,11.28,0,0,1,2.57-.87,12.33,12.33,0,0,1,2.54-.28,9.26,9.26,0,0,1,3.58.65,5.47,5.47,0,0,1,2.4,1.83,4.49,4.49,0,0,1,.86,2.71,5.07,5.07,0,0,1-.61,2.46,7.21,7.21,0,0,1-2.16,2.29,7.54,7.54,0,0,0-1.85,1.71,4.7,4.7,0,0,0-.63,1.5,1.42,1.42,0,0,1-.5.78A1.74,1.74,0,0,1,101.84,24.19Zm-.09,7a2.83,2.83,0,0,1-2.14-.81,2.87,2.87,0,0,1-.78-2.08,2.78,2.78,0,0,1,.78-2,2.86,2.86,0,0,1,2.14-.8,2.7,2.7,0,0,1,2.89,2.83,2.9,2.9,0,0,1-.77,2.08A2.78,2.78,0,0,1,101.75,31.24Z" fill="#fff"/>
  <path d="M90.58,72.86H81.89a25.72,25.72,0,0,0-5.28-7l0,0-.08,0a24.41,24.41,0,0,0-10.78-5.93l-.08.29V56.42A15.51,15.51,0,0,0,75.66,42v2.76a3.07,3.07,0,1,0,0-6.13V33.68c.3,0,.58.1.89.11A17.19,17.19,0,0,0,76.63,32a16.59,16.59,0,0,0-33.17,0c0,.17,0,.32,0,.48.4.13.82.18,1.23.28h-.29v5.85a3.06,3.06,0,0,0,.06,6.12V42.6A15.54,15.54,0,0,0,55.07,56.71l-.12,0v3A25,25,0,0,0,38.21,72.85H29.52a4,4,0,0,0-4,4V92a4,4,0,0,0,4,4H90.58a4,4,0,0,0,4-4V76.86A4,4,0,0,0,90.58,72.86Z" fill="#fff"/>
  <path d="M65.77,59.76s0,5.81-5.45,5.81S55,59.76,55,59.76C42.21,62.69,38.21,72.85,38.21,72.85H81.89A26.07,26.07,0,0,0,65.77,59.76Z" fill="#d4bff5"/>
  <path d="M74.35,23.66a16.59,16.59,0,0,0-11.86-8,16.39,16.39,0,0,0-2.44-.2A16.58,16.58,0,0,0,43.46,32c0,.17,0,.32,0,.48a29.28,29.28,0,0,0,23.38-2.66,14.78,14.78,0,0,0,9.67,3.95A17.19,17.19,0,0,0,76.63,32,16.49,16.49,0,0,0,74.35,23.66Z" fill="#c5abf1"/>
  <path d="M48.34,36.2H57.4a1,1,0,0,1,1,1v2.18a4,4,0,0,1-4,4H48.34a1,1,0,0,1-1-1V37.2A1,1,0,0,1,48.34,36.2Z" fill="#e2d5f8"/>
  <path d="M62.7,36.2h6.06a4,4,0,0,1,4,4v2.18a1,1,0,0,1-1,1H62.7a1,1,0,0,1-1-1V37.2A1,1,0,0,1,62.7,36.2Z" transform="translate(134.46 79.58) rotate(-180)" fill="#e2d5f8"/>
  <rect x="25.52" y="72.86" width="69.06" height="23.14" rx="4" fill="#fff" stroke="#6f2cdd" stroke-linecap="round" stroke-linejoin="round" stroke-width="1"/>
  <g>
    <g>
      <path d="M35.65,90.32a1.79,1.79,0,0,1-1.93-1.93v-8A1.92,1.92,0,0,1,34.23,79,2.18,2.18,0,0,1,37,79a1.92,1.92,0,0,1,.51,1.41V87h3.25a1.69,1.69,0,0,1,1.24.45,1.63,1.63,0,0,1,.47,1.22A1.65,1.65,0,0,1,42,89.87a1.69,1.69,0,0,1-1.24.45Z" fill="#e2d5f8"/>
      <path d="M35.63,79A1.29,1.29,0,0,1,37,80.41v7.06h3.75a1.23,1.23,0,0,1,.89.31,1.33,1.33,0,0,1,0,1.73,1.19,1.19,0,0,1-.89.31H35.65a1.41,1.41,0,0,1-1.06-.37,1.46,1.46,0,0,1-.37-1.06v-8A1.29,1.29,0,0,1,35.63,79m0-1a2.27,2.27,0,0,0-2.41,2.42v8a2.29,2.29,0,0,0,2.43,2.43h5.14a2.17,2.17,0,0,0,1.59-.59,2.34,2.34,0,0,0,0-3.17,2.21,2.21,0,0,0-1.59-.59H38V80.41A2.27,2.27,0,0,0,35.63,78Z" fill="#6f2cdd"/>
    </g>
    <g>
      <path d="M47.05,90.49A6,6,0,0,1,44.44,90a4.11,4.11,0,0,1-1.75-1.57A4.53,4.53,0,0,1,42.08,86a4.58,4.58,0,0,1,.58-2.29,4.21,4.21,0,0,1,1.61-1.58,4.68,4.68,0,0,1,2.29-.56,4.45,4.45,0,0,1,2.22.54,3.74,3.74,0,0,1,1.48,1.57A4.89,4.89,0,0,1,50.77,86a1.07,1.07,0,0,1-1.21,1.1h-.05a1,1,0,0,1,.29.11,1.33,1.33,0,0,1,.69.83A1.56,1.56,0,0,1,49.62,90a5.33,5.33,0,0,1-1.26.42A7.17,7.17,0,0,1,47.05,90.49ZM45.93,87.1a.77.77,0,0,0,.16.15,1.92,1.92,0,0,0,1,.23,3.74,3.74,0,0,0,.69-.07,3.42,3.42,0,0,0,.73-.21,1.73,1.73,0,0,1,.33-.1Zm1.49-2.29a.63.63,0,0,0-.14-.24.83.83,0,0,0-.6-.2.9.9,0,0,0-.66.23,1.2,1.2,0,0,0-.17.21Z" fill="#e2d5f8"/>
      <path d="M46.56,82.1a3.91,3.91,0,0,1,2,.48,3.14,3.14,0,0,1,1.29,1.36A4.44,4.44,0,0,1,50.27,86c0,.4-.23.6-.71.6H45.19a1.59,1.59,0,0,0,.61,1.06,2.38,2.38,0,0,0,1.32.32,4.68,4.68,0,0,0,.77-.08,4,4,0,0,0,.85-.24,1.36,1.36,0,0,1,.46-.1.74.74,0,0,1,.36.09.91.91,0,0,1,.46.54,1.15,1.15,0,0,1,0,.73,1,1,0,0,1-.58.58,4.93,4.93,0,0,1-1.14.38,7.19,7.19,0,0,1-1.22.11,5.51,5.51,0,0,1-2.39-.48,3.57,3.57,0,0,1-1.54-1.38,4.31,4.31,0,0,1,0-4.14,3.62,3.62,0,0,1,1.41-1.39,4.18,4.18,0,0,1,2.05-.5m-1.38,3.21H48a1.66,1.66,0,0,0-.39-1.08,1.27,1.27,0,0,0-1-.36,1.37,1.37,0,0,0-1,.37,1.71,1.71,0,0,0-.5,1.07m1.38-4.21a5.12,5.12,0,0,0-2.54.63,4.73,4.73,0,0,0-1.79,1.76,5.34,5.34,0,0,0,0,5.16,4.56,4.56,0,0,0,2,1.76,6.54,6.54,0,0,0,2.82.58,7.47,7.47,0,0,0,1.41-.13,5.67,5.67,0,0,0,1.39-.46,2,2,0,0,0,1.07-1.11,2.08,2.08,0,0,0,0-1.41,1.93,1.93,0,0,0-.32-.6A1.56,1.56,0,0,0,51.27,86a5.5,5.5,0,0,0-.56-2.52A4.19,4.19,0,0,0,49,81.71a4.93,4.93,0,0,0-2.46-.61Z" fill="#6f2cdd"/>
    </g>
    <g>
      <path d="M54.66,90.46a2.08,2.08,0,0,1-2-1.37l-2.2-5a1.81,1.81,0,0,1,0-1.66,1.67,1.67,0,0,1,1.61-.78,1.8,1.8,0,0,1,1.08.32,2.32,2.32,0,0,1,.73,1.1l.83,2.15L55.64,83A2.31,2.31,0,0,1,56.36,82a1.9,1.9,0,0,1,1.14-.32,1.57,1.57,0,0,1,1,.36,1.5,1.5,0,0,1,.52.93,1.86,1.86,0,0,1-.18,1.16l-2.24,5A2.06,2.06,0,0,1,54.66,90.46Z" fill="#e2d5f8"/>
      <path d="M57.5,82.13a1.09,1.09,0,0,1,.73.24,1,1,0,0,1,.35.64,1.44,1.44,0,0,1-.14.86l-2.24,5a1.64,1.64,0,0,1-3.07,0l-2.2-5a1.37,1.37,0,0,1,0-1.22,1.24,1.24,0,0,1,1.18-.52,1.32,1.32,0,0,1,.79.23,1.9,1.9,0,0,1,.55.86l1.29,3.33,1.36-3.34a1.83,1.83,0,0,1,.56-.85,1.38,1.38,0,0,1,.84-.23m0-1a2.31,2.31,0,0,0-1.43.42,2.77,2.77,0,0,0-.9,1.29l-.41,1-.38-1a2.76,2.76,0,0,0-.89-1.31,2.28,2.28,0,0,0-1.38-.42,2.15,2.15,0,0,0-2,1A2.29,2.29,0,0,0,50,84.26l2.2,5A2.59,2.59,0,0,0,54.66,91a2.56,2.56,0,0,0,2.45-1.66l2.24-5a2.41,2.41,0,0,0,.22-1.43,2.08,2.08,0,0,0-.69-1.23,2.14,2.14,0,0,0-1.38-.48Z" fill="#6f2cdd"/>
    </g>
    <g>
      <path d="M63.55,90.49A6,6,0,0,1,60.94,90a4.11,4.11,0,0,1-1.75-1.57A4.53,4.53,0,0,1,58.58,86a4.58,4.58,0,0,1,.58-2.29,4.26,4.26,0,0,1,1.6-1.58,4.73,4.73,0,0,1,2.29-.56,4.4,4.4,0,0,1,2.22.54,3.7,3.7,0,0,1,1.49,1.57A4.89,4.89,0,0,1,67.27,86a1.07,1.07,0,0,1-1.21,1.1h0a1.15,1.15,0,0,1,.29.11A1.36,1.36,0,0,1,67,88a1.55,1.55,0,0,1,0,1.06,1.5,1.5,0,0,1-.83.85,5.33,5.33,0,0,1-1.26.42A7.26,7.26,0,0,1,63.55,90.49ZM62.43,87.1a.71.71,0,0,0,.15.15,1.93,1.93,0,0,0,1,.23,3.82,3.82,0,0,0,.69-.07A3.6,3.6,0,0,0,65,87.2a1.73,1.73,0,0,1,.33-.1Zm1.49-2.29a1.08,1.08,0,0,0-.14-.24.83.83,0,0,0-.6-.2.89.89,0,0,0-.83.44Z" fill="#e2d5f8"/>
      <path d="M63.05,82.1a3.92,3.92,0,0,1,2,.48,3.26,3.26,0,0,1,1.29,1.36A4.44,4.44,0,0,1,66.77,86c0,.4-.24.6-.71.6H61.69a1.59,1.59,0,0,0,.61,1.06,2.38,2.38,0,0,0,1.32.32,4.79,4.79,0,0,0,.77-.08,3.72,3.72,0,0,0,.84-.24,1.47,1.47,0,0,1,.47-.1.74.74,0,0,1,.36.09.91.91,0,0,1,.46.54,1.15,1.15,0,0,1,0,.73,1,1,0,0,1-.58.58,4.93,4.93,0,0,1-1.14.38,7.19,7.19,0,0,1-1.22.11,5.51,5.51,0,0,1-2.39-.48,3.57,3.57,0,0,1-1.54-1.38,4,4,0,0,1-.54-2.1,4,4,0,0,1,.51-2A3.72,3.72,0,0,1,61,82.6a4.16,4.16,0,0,1,2-.5m-1.38,3.21h2.86a1.66,1.66,0,0,0-.39-1.08,1.27,1.27,0,0,0-1-.36,1.4,1.4,0,0,0-1,.37,1.82,1.82,0,0,0-.5,1.07m1.38-4.21a5.11,5.11,0,0,0-2.53.63,4.66,4.66,0,0,0-1.79,1.76,5.34,5.34,0,0,0,0,5.16,4.56,4.56,0,0,0,2,1.76,6.54,6.54,0,0,0,2.82.58,7.3,7.3,0,0,0,1.4-.13,5.54,5.54,0,0,0,1.39-.46,2,2,0,0,0,1.08-1.11,2.14,2.14,0,0,0,0-1.41,1.93,1.93,0,0,0-.32-.6A1.56,1.56,0,0,0,67.77,86a5.38,5.38,0,0,0-.57-2.52,4.1,4.1,0,0,0-1.68-1.77,5,5,0,0,0-2.47-.61Z" fill="#6f2cdd"/>
    </g>
    <g>
      <path d="M70.82,90.49a3.23,3.23,0,0,1-2.56-1,4,4,0,0,1-.81-2.72V80.25a1.71,1.71,0,0,1,1.85-1.89,1.89,1.89,0,0,1,1.37.5,1.86,1.86,0,0,1,.51,1.39v6.47c0,.36.08.48.1.5a.22.22,0,0,0,.2.09h.12l.29,0h0a1,1,0,0,1,.87.44,2,2,0,0,1,.2,1.07,1.74,1.74,0,0,1-.33,1.12,1.52,1.52,0,0,1-1,.53,3.53,3.53,0,0,1-.39,0Z" fill="#e2d5f8"/>
      <path d="M69.3,78.86a1.25,1.25,0,0,1,1.38,1.39v6.47a1.31,1.31,0,0,0,.22.83.75.75,0,0,0,.58.26l.22,0,.26,0a.43.43,0,0,1,.39.2,1.61,1.61,0,0,1,.13.81,1.24,1.24,0,0,1-.22.81,1,1,0,0,1-.66.34l-.35.06-.43,0a2.74,2.74,0,0,1-2.18-.79A3.55,3.55,0,0,1,68,86.81V80.25a1.21,1.21,0,0,1,1.35-1.39m0-1A2.2,2.2,0,0,0,67,80.25v6.56a4.54,4.54,0,0,0,.94,3A3.7,3.7,0,0,0,70.82,91l.53,0a2.66,2.66,0,0,0,.45-.07A2,2,0,0,0,73,90.2a2.27,2.27,0,0,0,.44-1.44,2.48,2.48,0,0,0-.28-1.34A1.42,1.42,0,0,0,72,86.75h-.13l-.15,0V80.25a2.24,2.24,0,0,0-2.38-2.39Z" fill="#6f2cdd"/>
    </g>
    <g>
      <path d="M79.29,90.32a1.64,1.64,0,1,1,0-3.28h.88v-4.1l-.17.11a1.75,1.75,0,0,1-.89.28l-.2,0a1.54,1.54,0,0,1-.88-.44,1.64,1.64,0,0,1-.45-.85,1.61,1.61,0,0,1,.08-1,1.76,1.76,0,0,1,.76-.85l2.11-1.31a3.19,3.19,0,0,1,1.72-.51,1.76,1.76,0,0,1,1.25.44A1.6,1.6,0,0,1,84,80v7h.73a1.64,1.64,0,1,1,0,3.28Z" fill="#e2d5f8"/>
      <path d="M82.25,78.86a1.3,1.3,0,0,1,.91.3,1.15,1.15,0,0,1,.32.87v7.51h1.23c.78,0,1.17.37,1.17,1.13a1,1,0,0,1-1.17,1.15H79.29a1,1,0,0,1-1.16-1.15c0-.76.38-1.13,1.16-1.13h1.38V82.06l-.93.56a1.18,1.18,0,0,1-.63.21H79a1.08,1.08,0,0,1-.59-.3,1.19,1.19,0,0,1-.33-.6,1.16,1.16,0,0,1,.07-.71,1.25,1.25,0,0,1,.55-.6l2.12-1.32a2.75,2.75,0,0,1,1.45-.43m0-1a3.74,3.74,0,0,0-2,.58l-2.12,1.32a2.28,2.28,0,0,0-1,1.09,2.19,2.19,0,0,0-.1,1.29,2.12,2.12,0,0,0,1.74,1.66l.28,0a1.77,1.77,0,0,0,.56-.09v2.8h-.38a2.14,2.14,0,1,0,0,4.28h5.42a2.14,2.14,0,1,0,0-4.28h-.23V80a2.1,2.1,0,0,0-.64-1.6,2.27,2.27,0,0,0-1.59-.57Z" fill="#6f2cdd"/>
    </g>
  </g>
  <g>
    <path d="M31.44,46.94h-6.1v7.85a.82.82,0,0,1-1.4.58l-8.41-8.43H4.8a3.26,3.26,0,0,1-3.27-3.27V16.94A3.26,3.26,0,0,1,4.8,13.67H31.44a3.27,3.27,0,0,1,3.28,3.27V43.67A3.27,3.27,0,0,1,31.44,46.94Z" fill="none" stroke="#6f2cdd" stroke-linecap="round" stroke-linejoin="round" stroke-width="1"/>
    <path d="M18.08,33.71a1.54,1.54,0,0,1-1.21-.5,2,2,0,0,1-.44-1.33,5.47,5.47,0,0,1,.44-2.17,7.33,7.33,0,0,1,1.5-2.11,5.86,5.86,0,0,0,1-1.24,2.08,2.08,0,0,0,.28-1.06c0-.92-.65-1.38-1.94-1.38a7.68,7.68,0,0,0-1.77.2,7.26,7.26,0,0,0-1.6.62,2.34,2.34,0,0,1-1.56.3,1.72,1.72,0,0,1-1.06-.68,2.22,2.22,0,0,1-.42-1.24,2.66,2.66,0,0,1,.37-1.39A3,3,0,0,1,13,20.61a11,11,0,0,1,2.56-.87,13.14,13.14,0,0,1,2.54-.28,9.26,9.26,0,0,1,3.58.65,5.64,5.64,0,0,1,2.41,1.83A4.57,4.57,0,0,1,25,24.65a5.11,5.11,0,0,1-.61,2.47,7.19,7.19,0,0,1-2.16,2.28,7.27,7.27,0,0,0-1.84,1.71,4.56,4.56,0,0,0-.64,1.51,1.43,1.43,0,0,1-.5.78A1.8,1.8,0,0,1,18.08,33.71Zm-.09,7A2.84,2.84,0,0,1,15.85,40a2.89,2.89,0,0,1-.78-2.08,2.79,2.79,0,0,1,.78-2A2.87,2.87,0,0,1,18,35a2.68,2.68,0,0,1,2.89,2.83A2.92,2.92,0,0,1,20.11,40,2.78,2.78,0,0,1,18,40.76Z" fill="none" stroke="#6f2cdd" stroke-linecap="round" stroke-linejoin="round" stroke-width="1"/>
  </g>
  <g>
    <g>
      <path d="M55,59.77A25,25,0,0,0,38.21,72.85" fill="none" stroke="#6f2cdd" stroke-linecap="round" stroke-linejoin="round" stroke-width="1"/>
      <path d="M81.89,72.86a25.09,25.09,0,0,0-16.12-13" fill="none" stroke="#6f2cdd" stroke-linecap="round" stroke-linejoin="round" stroke-width="1"/>
    </g>
    <path d="M55,56.75V60.2a5.37,5.37,0,1,0,10.74,0V56.75" fill="none" stroke="#6f2cdd" stroke-linecap="round" stroke-linejoin="round" stroke-width="1"/>
    <path d="M44.43,32.78V42a15.62,15.62,0,0,0,31.23,0V33.74" fill="none" stroke="#6f2cdd" stroke-linecap="round" stroke-linejoin="round" stroke-width="1"/>
    <g>
      <path d="M44.49,44.75a3.07,3.07,0,0,1,0-6.13" fill="none" stroke="#6f2cdd" stroke-linecap="round" stroke-linejoin="round" stroke-width="1"/>
      <path d="M75.66,44.75a3.07,3.07,0,1,0,0-6.13" fill="none" stroke="#6f2cdd" stroke-linecap="round" stroke-linejoin="round" stroke-width="1"/>
      <path d="M48.34,36.2H57.4a1,1,0,0,1,1,1v2.18a4,4,0,0,1-4,4H48.34a1,1,0,0,1-1-1V37.2A1,1,0,0,1,48.34,36.2Z" fill="none" stroke="#6f2cdd" stroke-linecap="round" stroke-linejoin="round" stroke-width="1"/>
      <path d="M62.7,36.2h6.06a4,4,0,0,1,4,4v2.18a1,1,0,0,1-1,1H62.7a1,1,0,0,1-1-1V37.2A1,1,0,0,1,62.7,36.2Z" transform="translate(134.46 79.58) rotate(-180)" fill="none" stroke="#6f2cdd" stroke-linecap="round" stroke-linejoin="round" stroke-width="1"/>
      <line x1="58.4" y1="37.79" x2="61.7" y2="37.79" fill="none" stroke="#6f2cdd" stroke-linecap="round" stroke-linejoin="round" stroke-width="1"/>
      <line x1="73.03" y1="38.62" x2="75.66" y2="38.62" fill="none" stroke="#6f2cdd" stroke-linecap="round" stroke-linejoin="round" stroke-width="1"/>
      <line x1="44.49" y1="38.62" x2="47.13" y2="38.62" fill="none" stroke="#6f2cdd" stroke-linecap="round" stroke-linejoin="round" stroke-width="1"/>
      <line x1="50.25" y1="39.79" x2="55.48" y2="39.79" fill="none" stroke="#6f2cdd" stroke-linecap="round" stroke-linejoin="round" stroke-width="1"/>
      <line x1="64.61" y1="39.79" x2="69.84" y2="39.79" fill="none" stroke="#6f2cdd" stroke-linecap="round" stroke-linejoin="round" stroke-width="1"/>
    </g>
    <line x1="60.87" y1="49.46" x2="65.14" y2="49.46" fill="none" stroke="#6f2cdd" stroke-linecap="round" stroke-linejoin="round" stroke-width="1"/>
    <path d="M74.35,23.66a16.59,16.59,0,0,0-11.86-8,16.39,16.39,0,0,0-2.44-.2A16.58,16.58,0,0,0,43.46,32c0,.17,0,.32,0,.48a29.28,29.28,0,0,0,23.38-2.66,14.78,14.78,0,0,0,9.67,3.95A17.19,17.19,0,0,0,76.63,32,16.49,16.49,0,0,0,74.35,23.66Z" fill="none" stroke="#6f2cdd" stroke-linecap="round" stroke-linejoin="round" stroke-width="1"/>
  </g>
  <g>
    <path d="M88.56,37.28h6.1v7.85a.82.82,0,0,0,1.4.58l8.41-8.43H115.2A3.27,3.27,0,0,0,118.47,34V7.28A3.27,3.27,0,0,0,115.2,4H88.56a3.28,3.28,0,0,0-3.28,3.28V34A3.28,3.28,0,0,0,88.56,37.28Z" fill="none" stroke="#6f2cdd" stroke-linecap="round" stroke-linejoin="round" stroke-width="1"/>
    <path d="M101.84,24.19a1.49,1.49,0,0,1-1.21-.5,1.89,1.89,0,0,1-.45-1.32,5.3,5.3,0,0,1,.45-2.17,7.14,7.14,0,0,1,1.5-2.11,6.93,6.93,0,0,0,1-1.24,2.1,2.1,0,0,0,.28-1.06c0-.93-.65-1.39-2-1.39a7.16,7.16,0,0,0-1.77.21,6.72,6.72,0,0,0-1.59.62,2.39,2.39,0,0,1-1.56.29,1.7,1.7,0,0,1-1.07-.68,2.23,2.23,0,0,1-.41-1.23,2.53,2.53,0,0,1,.37-1.39,2.93,2.93,0,0,1,1.34-1.12,11.28,11.28,0,0,1,2.57-.87,12.33,12.33,0,0,1,2.54-.28,9.26,9.26,0,0,1,3.58.65,5.47,5.47,0,0,1,2.4,1.83,4.49,4.49,0,0,1,.86,2.71,5.07,5.07,0,0,1-.61,2.46,7.21,7.21,0,0,1-2.16,2.29,7.54,7.54,0,0,0-1.85,1.71,4.7,4.7,0,0,0-.63,1.5,1.42,1.42,0,0,1-.5.78A1.74,1.74,0,0,1,101.84,24.19Zm-.09,7a2.83,2.83,0,0,1-2.14-.81,2.87,2.87,0,0,1-.78-2.08,2.78,2.78,0,0,1,.78-2,2.86,2.86,0,0,1,2.14-.8,2.7,2.7,0,0,1,2.89,2.83,2.9,2.9,0,0,1-.77,2.08A2.78,2.78,0,0,1,101.75,31.24Z" fill="none" stroke="#6f2cdd" stroke-linecap="round" stroke-linejoin="round" stroke-width="1"/>
  </g>
</svg>
