<svg id="aca90dd8-91f1-4c1d-ae35-2aef59263be5" data-name="Слой 2" xmlns="http://www.w3.org/2000/svg" viewBox="0 0 120 100">
  <circle cx="62.16" cy="49.83" r="44" fill="#f0e9fc"/>
  <g>
    <path d="M95.82,54.28h0c5.1-4,10.29-9.06,10.29-18.58V26.22a20.12,20.12,0,0,0-40.24,0V35.7c0,9.53,5.19,14.54,10.3,18.58h0a23.12,23.12,0,0,0-3.66,2.21l-.51.3-.57-1.89a3.42,3.42,0,0,0-3.27-2.42H24.27a2.44,2.44,0,0,0-2.37,3.41l9,29.3L32,88.61h0a5.49,5.49,0,0,0,5.49,5.49h58.2a5.47,5.47,0,0,0,2.81-.79l-.06.08A16.08,16.08,0,0,0,109.74,78h0V76.94A25,25,0,0,0,95.82,54.28Z" fill="#fff"/>
    <path d="M86,50.51A15,15,0,0,1,71,35.57v.22c0,19,15,22,15,30,0-8,15-11,15-30v-.22A15,15,0,0,1,86,50.51Z" fill="#c5abf1"/>
    <path d="M91.39,53l.07-3.92S89.9,50.69,86,50.51s-4.87-.82-4.87-.82V53s0,5.14,5.14,5.14S91.39,53,91.39,53Z" fill="#fff"/>
    <g>
      <path d="M49.58,19.87h2.85a.89.89,0,0,0,.87-1.25,1.85,1.85,0,0,0-1.63-1.25H48.82A.9.9,0,0,0,48,18.62,1.83,1.83,0,0,0,49.58,19.87Z" fill="#fff"/>
      <path d="M45.23,18.62a1.85,1.85,0,0,0-1.63-1.25H11.18a.9.9,0,0,0-.86,1.25A1.83,1.83,0,0,0,12,19.87H44.37A.89.89,0,0,0,45.23,18.62Z" fill="#fff"/>
      <path d="M55,41.64a1.82,1.82,0,0,0,1.62,1.25h2.85a.89.89,0,0,0,.87-1.25,1.84,1.84,0,0,0-1.63-1.24H55.86A.89.89,0,0,0,55,41.64Z" fill="#fff"/>
      <path d="M22.91,41.64a1.84,1.84,0,0,0,1.63,1.25H51.4a.89.89,0,0,0,.87-1.25,1.84,1.84,0,0,0-1.63-1.24H23.78A.89.89,0,0,0,22.91,41.64Z" fill="#fff"/>
      <path d="M49.72,24.38a1.83,1.83,0,0,0,1.62,1.24h2.85a.89.89,0,0,0,.87-1.24,1.83,1.83,0,0,0-1.63-1.25H50.58A.89.89,0,0,0,49.72,24.38Z" fill="#fff"/>
      <path d="M33.28,24.38a1.84,1.84,0,0,0,1.63,1.24H46.13A.89.89,0,0,0,47,24.38a1.83,1.83,0,0,0-1.63-1.25H34.15A.89.89,0,0,0,33.28,24.38Z" fill="#fff"/>
      <path d="M30.54,24.38a1.83,1.83,0,0,0-1.63-1.25H23.15a.89.89,0,0,0-.87,1.25,1.84,1.84,0,0,0,1.63,1.24h5.77A.89.89,0,0,0,30.54,24.38Z" fill="#fff"/>
      <path d="M53.24,35.89a1.83,1.83,0,0,0,1.62,1.24h2.85a.89.89,0,0,0,.87-1.24A1.83,1.83,0,0,0,57,34.64H54.1A.89.89,0,0,0,53.24,35.89Z" fill="#fff"/>
      <path d="M49.65,37.13a.89.89,0,0,0,.86-1.24,1.83,1.83,0,0,0-1.63-1.25H26.67a.89.89,0,0,0-.87,1.25,1.84,1.84,0,0,0,1.63,1.24Z" fill="#fff"/>
      <path d="M51.48,30.13a1.83,1.83,0,0,0,1.62,1.25H56a.89.89,0,0,0,.87-1.25,1.84,1.84,0,0,0-1.63-1.24H52.34A.89.89,0,0,0,51.48,30.13Z" fill="#fff"/>
      <path d="M29,30.13a1.84,1.84,0,0,0,1.63,1.25H47.89a.89.89,0,0,0,.86-1.25,1.84,1.84,0,0,0-1.63-1.24H29.88A.89.89,0,0,0,29,30.13Z" fill="#fff"/>
      <path d="M26.21,30.13a1.84,1.84,0,0,0-1.63-1.24H16.15a.89.89,0,0,0-.87,1.24,1.83,1.83,0,0,0,1.63,1.25h8.43A.89.89,0,0,0,26.21,30.13Z" fill="#fff"/>
      <path d="M56.76,47.4a1.82,1.82,0,0,0,1.62,1.25h2.85a.89.89,0,0,0,.87-1.25,1.85,1.85,0,0,0-1.63-1.25H57.62A.89.89,0,0,0,56.76,47.4Z" fill="#fff"/>
      <path d="M35.92,48.65H53.16A.89.89,0,0,0,54,47.4a1.85,1.85,0,0,0-1.63-1.25H35.16a.9.9,0,0,0-.87,1.25A1.84,1.84,0,0,0,35.92,48.65Z" fill="#fff"/>
    </g>
    <path d="M104.22,44.64c-.16.35-.36.65-.54,1C103.86,45.29,104.06,45,104.22,44.64Z" fill="#c5abf1"/>
    <path d="M71.31,49.83c-.23-.25-.47-.49-.69-.76C70.84,49.34,71.08,49.58,71.31,49.83Z" fill="#c5abf1"/>
    <path d="M102.91,47c-.19.31-.42.58-.63.86C102.49,47.56,102.72,47.29,102.91,47Z" fill="#c5abf1"/>
    <path d="M66.32,40.05c-.06-.34-.16-.65-.22-1C66.16,39.4,66.26,39.71,66.32,40.05Z" fill="#c5abf1"/>
    <path d="M69.72,47.86c-.22-.29-.45-.57-.65-.88C69.27,47.29,69.5,47.57,69.72,47.86Z" fill="#c5abf1"/>
    <path d="M105.88,39c0,.35-.15.66-.21,1C105.73,39.7,105.83,39.39,105.88,39Z" fill="#c5abf1"/>
    <path d="M68.31,45.64c-.18-.33-.38-.65-.55-1C67.93,45,68.13,45.31,68.31,45.64Z" fill="#c5abf1"/>
    <path d="M105.23,42c-.11.38-.27.71-.41,1.07C105,42.72,105.12,42.39,105.23,42Z" fill="#c5abf1"/>
    <path d="M101.36,49.07c-.21.26-.45.5-.67.75C100.91,49.57,101.15,49.33,101.36,49.07Z" fill="#c5abf1"/>
    <path d="M67.17,43.1c-.14-.37-.3-.71-.42-1.09C66.87,42.39,67,42.73,67.17,43.1Z" fill="#c5abf1"/>
    <path d="M73,51.58c-.23-.21-.46-.41-.68-.63C72.57,51.17,72.8,51.37,73,51.58Z" fill="#c5abf1"/>
    <path d="M74.77,53.13l-.56-.46Z" fill="#c5abf1"/>
    <path d="M97.77,52.67l-.54.45Z" fill="#c5abf1"/>
    <path d="M99.63,51c-.21.22-.44.41-.66.62C99.19,51.36,99.42,51.17,99.63,51Z" fill="#c5abf1"/>
    <path d="M67.76,44.64c-.23-.48-.4-1-.59-1.54C67.36,43.62,67.53,44.16,67.76,44.64Z" fill="#c5abf1"/>
    <path d="M76.16,54.27l-1.39-1.14C75.23,53.52,75.7,53.9,76.16,54.27Z" fill="#c5abf1"/>
    <path d="M74.21,52.67c-.4-.35-.79-.72-1.18-1.09C73.42,52,73.81,52.32,74.21,52.67Z" fill="#c5abf1"/>
    <path d="M69.07,47c-.27-.42-.51-.89-.76-1.34C68.56,46.09,68.8,46.56,69.07,47Z" fill="#c5abf1"/>
    <path d="M70.62,49.07c-.32-.38-.61-.8-.9-1.21C70,48.27,70.3,48.69,70.62,49.07Z" fill="#c5abf1"/>
    <path d="M72.35,51c-.36-.36-.7-.74-1-1.12C71.65,50.21,72,50.59,72.35,51Z" fill="#c5abf1"/>
    <path d="M102.28,47.84c-.3.42-.59.84-.92,1.23C101.69,48.68,102,48.26,102.28,47.84Z" fill="#c5abf1"/>
    <path d="M100.69,49.82c-.35.38-.69.77-1.06,1.13C100,50.59,100.34,50.2,100.69,49.82Z" fill="#c5abf1"/>
    <path d="M103.68,45.62c-.25.46-.49.93-.77,1.36C103.19,46.55,103.43,46.08,103.68,45.62Z" fill="#c5abf1"/>
    <path d="M97.23,53.12l-1.41,1.16Z" fill="#c5abf1"/>
    <path d="M66.75,42c-.18-.62-.3-1.3-.43-2C66.45,40.71,66.57,41.39,66.75,42Z" fill="#c5abf1"/>
    <path d="M99,51.57c-.4.37-.79.74-1.2,1.1C98.18,52.31,98.57,51.94,99,51.57Z" fill="#c5abf1"/>
    <path d="M66.1,39a25.15,25.15,0,0,1-.23-3.34A25.15,25.15,0,0,0,66.1,39Z" fill="#c5abf1"/>
    <path d="M106.11,35.7a23.57,23.57,0,0,1-.23,3.34A23.57,23.57,0,0,0,106.11,35.7Z" fill="#c5abf1"/>
    <path d="M104.82,43.08c-.19.53-.37,1.07-.6,1.56C104.45,44.15,104.63,43.61,104.82,43.08Z" fill="#c5abf1"/>
    <path d="M105.67,40a19.76,19.76,0,0,1-.44,2A19.76,19.76,0,0,0,105.67,40Z" fill="#c5abf1"/>
    <path d="M86,66.5c0-5.31,4.88-8.31,9.83-12.22l1.41-1.16.54-.45c.41-.36.8-.73,1.2-1.1.22-.21.45-.4.66-.62.37-.36.71-.75,1.06-1.13s.46-.49.67-.75.62-.81.92-1.23.44-.55.63-.86.52-.9.77-1.36.38-.63.54-1,.41-1,.6-1.56c.14-.36.3-.69.41-1.07a19.76,19.76,0,0,0,.44-2c.06-.33.16-.64.21-1a23.57,23.57,0,0,0,.23-3.34V26.22a20.12,20.12,0,0,0-40.24,0V35.7A25.15,25.15,0,0,0,66.1,39c.06.36.16.67.22,1,.13.66.25,1.34.43,2,.12.38.28.72.42,1.09s.36,1.06.59,1.54.37.67.55,1,.49.92.76,1.34.43.59.65.88.58.83.9,1.21.46.51.69.76.68.76,1,1.12.45.42.68.63c.39.37.78.74,1.18,1.09l.56.46,1.39,1.14C81.12,58.19,86,61.19,86,66.5ZM71,32A13.52,13.52,0,0,1,84.5,18.47h3A13.53,13.53,0,0,1,101,32v3.83c0,19-15,22-15,30,0-8-15-11-15-30Z" fill="#c5abf1"/>
    <path d="M74.84,29.43h8.58a1,1,0,0,1,1,1V32.3a4,4,0,0,1-4,4H74.84a1,1,0,0,1-1-1V30.43A1,1,0,0,1,74.84,29.43Z" fill="#e2d5f8"/>
    <path d="M88.57,29.43h5.58a4,4,0,0,1,4,4V35.3a1,1,0,0,1-1,1H88.57a1,1,0,0,1-1-1V30.43A1,1,0,0,1,88.57,29.43Z" transform="translate(185.72 65.73) rotate(-180)" fill="#e2d5f8"/>
    <g>
      <path d="M95.82,54.28h0C90.87,58.19,86,61.19,86,66.5c0-5.31-4.87-8.31-9.83-12.23h0a23.12,23.12,0,0,0-3.66,2.21l-.35.21,8.22,26.73,7.14.07v5.11h13.65a5.49,5.49,0,0,1-2.69,4.7h0l-.06.08A16.08,16.08,0,0,0,109.74,78V76.94A25,25,0,0,0,95.82,54.28Z" fill="#c5abf1"/>
      <polygon points="95.82 54.28 95.82 54.28 95.82 54.27 95.82 54.28" fill="#c5abf1"/>
      <path d="M97.26,93.84l-.21.06Z" fill="#c5abf1"/>
    </g>
    <path d="M95.66,94.1H37.46A5.49,5.49,0,0,1,32,88.61h69.19A5.49,5.49,0,0,1,95.66,94.1Z" fill="#f0e9fc"/>
    <path d="M71.42,54.9a3.42,3.42,0,0,0-3.27-2.42h-6a5,5,0,0,1,4.46,3.41l10,32.72h5.08Z" fill="#f0e9fc"/>
    <path d="M49.58,19.87h2.85a.89.89,0,0,0,.87-1.25h0a1.85,1.85,0,0,0-1.63-1.25H48.82A.9.9,0,0,0,48,18.62h0A1.83,1.83,0,0,0,49.58,19.87Z" fill="#c5abf1"/>
    <path d="M56.62,42.89h2.85a.89.89,0,0,0,.87-1.25h0a1.84,1.84,0,0,0-1.63-1.24H55.86A.89.89,0,0,0,55,41.64h0A1.82,1.82,0,0,0,56.62,42.89Z" fill="#c5abf1"/>
    <path d="M51.34,25.62h2.85a.89.89,0,0,0,.87-1.24h0a1.83,1.83,0,0,0-1.63-1.25H50.58a.89.89,0,0,0-.86,1.25h0A1.83,1.83,0,0,0,51.34,25.62Z" fill="#c5abf1"/>
    <path d="M54.86,37.13h2.85a.89.89,0,0,0,.87-1.24h0A1.83,1.83,0,0,0,57,34.64H54.1a.89.89,0,0,0-.86,1.25h0A1.83,1.83,0,0,0,54.86,37.13Z" fill="#c5abf1"/>
    <path d="M53.1,31.38H56a.89.89,0,0,0,.87-1.25h0a1.84,1.84,0,0,0-1.63-1.24H52.34a.89.89,0,0,0-.86,1.24h0A1.83,1.83,0,0,0,53.1,31.38Z" fill="#c5abf1"/>
    <path d="M58.38,48.65h2.85a.89.89,0,0,0,.87-1.25h0a1.85,1.85,0,0,0-1.63-1.25H57.62a.89.89,0,0,0-.86,1.25h0A1.82,1.82,0,0,0,58.38,48.65Z" fill="#c5abf1"/>
  </g>
  <g>
    <g>
      <path d="M74.84,29.43h8.58a1,1,0,0,1,1,1V32.3a4,4,0,0,1-4,4H74.84a1,1,0,0,1-1-1V30.43A1,1,0,0,1,74.84,29.43Z" fill="none" stroke="#6f2cdd" stroke-linecap="round" stroke-linejoin="round" stroke-width="1"/>
      <path d="M88.57,29.43h5.58a4,4,0,0,1,4,4V35.3a1,1,0,0,1-1,1H88.57a1,1,0,0,1-1-1V30.43A1,1,0,0,1,88.57,29.43Z" transform="translate(185.72 65.73) rotate(-180)" fill="none" stroke="#6f2cdd" stroke-linecap="round" stroke-linejoin="round" stroke-width="1"/>
      <line x1="84.41" y1="30.95" x2="87.57" y2="30.95" fill="none" stroke="#6f2cdd" stroke-linecap="round" stroke-linejoin="round" stroke-width="1"/>
      <line x1="98.41" y1="31.74" x2="100.93" y2="31.74" fill="none" stroke="#6f2cdd" stroke-linecap="round" stroke-linejoin="round" stroke-width="1"/>
      <line x1="71.12" y1="31.74" x2="73.63" y2="31.74" fill="none" stroke="#6f2cdd" stroke-linecap="round" stroke-linejoin="round" stroke-width="1"/>
      <path d="M81.63,33.72a2.69,2.69,0,0,0-5,0" fill="none" stroke="#6f2cdd" stroke-linecap="round" stroke-linejoin="round" stroke-width="1"/>
      <path d="M95.36,33.72a2.68,2.68,0,0,0-5,0" fill="none" stroke="#6f2cdd" stroke-linecap="round" stroke-linejoin="round" stroke-width="1"/>
      <path d="M81.12,41.71a6.86,6.86,0,0,0,9.74,0" fill="none" stroke="#6f2cdd" stroke-linecap="round" stroke-linejoin="round" stroke-width="1"/>
      <path d="M76.16,54.28A23.68,23.68,0,0,0,72,56.83" fill="none" stroke="#6f2cdd" stroke-linecap="round" stroke-linejoin="round" stroke-width="1"/>
      <path d="M81.12,52.58a22.3,22.3,0,0,0-3.54,1.08" fill="none" stroke="#6f2cdd" stroke-linecap="round" stroke-linejoin="round" stroke-width="1"/>
      <path d="M95.82,54.28a25,25,0,0,1,13.92,22.66V78" fill="none" stroke="#6f2cdd" stroke-linecap="round" stroke-linejoin="round" stroke-width="1"/>
      <path d="M91.46,52.72a22.52,22.52,0,0,1,3,.94" fill="none" stroke="#6f2cdd" stroke-linecap="round" stroke-linejoin="round" stroke-width="1"/>
      <path d="M81.12,49.69V53a5.14,5.14,0,1,0,10.27,0v-3.3" fill="none" stroke="#6f2cdd" stroke-linecap="round" stroke-linejoin="round" stroke-width="1"/>
      <path d="M71,35.57a15,15,0,0,0,30,0" fill="none" stroke="#6f2cdd" stroke-linecap="round" stroke-linejoin="round" stroke-width="1"/>
      <g>
        <path d="M86,66.5c0-10.78-20.12-12-20.12-30.8V26.22A20.19,20.19,0,0,1,86,6.1h0a20.18,20.18,0,0,1,20.12,20.12V35.7C106.11,54.46,86,55.72,86,66.5Z" fill="none" stroke="#6f2cdd" stroke-linecap="round" stroke-linejoin="round" stroke-width="1"/>
        <path d="M86,65.83c0-8-15-11-15-30V32A13.52,13.52,0,0,1,84.5,18.47h3A13.53,13.53,0,0,1,101,32v3.83c0,19-15,22-15,30" fill="none" stroke="#6f2cdd" stroke-linecap="round" stroke-linejoin="round" stroke-width="1"/>
      </g>
    </g>
    <g>
      <path d="M76.64,88.61l-10-32.72a5,5,0,0,0-4.46-3.41H24.27a2.44,2.44,0,0,0-2.37,3.41l9,29.3L32,88.68" fill="none" stroke="#6f2cdd" stroke-linecap="round" stroke-linejoin="round" stroke-width="1"/>
      <path d="M62.16,52.48h6a3.42,3.42,0,0,1,3.27,2.42l10.3,33.71" fill="none" stroke="#6f2cdd" stroke-linecap="round" stroke-linejoin="round" stroke-width="1"/>
      <path d="M95.66,94.1H37.46A5.49,5.49,0,0,1,32,88.61h69.19A5.49,5.49,0,0,1,95.66,94.1Z" fill="none" stroke="#6f2cdd" stroke-linecap="round" stroke-linejoin="round" stroke-width="1"/>
      <line x1="77.58" y1="88.61" x2="77.58" y2="94.1" fill="none" stroke="#6f2cdd" stroke-linecap="round" stroke-linejoin="round" stroke-width="1"/>
      <g>
        <path d="M54.85,74.47,52.1,76.4a2.27,2.27,0,0,1-2.26,0l-3.93-1.93a3.45,3.45,0,0,1-1.73-2L43,68.65a1.7,1.7,0,0,1,.54-2l2.74-1.93a2.22,2.22,0,0,1,2.26,0l3.93,1.93a3.42,3.42,0,0,1,1.73,2l1.18,3.86A1.72,1.72,0,0,1,54.85,74.47Z" fill="#c5abf1" stroke="#6f2cdd" stroke-miterlimit="10" stroke-width="1"/>
        <path d="M48.93,66.65a1.93,1.93,0,0,0-.69.13l-.32.17a1.3,1.3,0,0,0-.41.43,1.19,1.19,0,0,0-.12.54,2.68,2.68,0,0,0,.1.6l.25.81a1,1,0,0,1,0,.58.35.35,0,0,1-.35.21h-.05l.28.92h0a.71.71,0,0,1,.49.22,1.29,1.29,0,0,1,.32.58l.25.81a2.46,2.46,0,0,0,.27.6,2.26,2.26,0,0,0,.44.53,2.83,2.83,0,0,0,.67.43,3.93,3.93,0,0,0,.43.18,2.63,2.63,0,0,0,.77.12h.13l-.27-.9h0a1,1,0,0,1-.28,0,1.19,1.19,0,0,1-.23-.16,1,1,0,0,1-.13-.16,1.74,1.74,0,0,1-.1-.19,2.44,2.44,0,0,1-.1-.24l0-.09L50,71.83a1.83,1.83,0,0,0-.43-.73,2.26,2.26,0,0,0-.84-.52,1,1,0,0,0,.52-.52,1.14,1.14,0,0,0,0-.73L49,68.45l0-.09a2.23,2.23,0,0,1,0-.23.65.65,0,0,1,0-.19.41.41,0,0,1,0-.16.36.36,0,0,1,.14-.16.48.48,0,0,1,.24-.06h0l-.28-.91h-.13Z" fill="#6f2cdd"/>
      </g>
    </g>
    <g>
      <path d="M98.41,93.39A16.08,16.08,0,0,0,109.74,78" fill="none" stroke="#6f2cdd" stroke-linecap="round" stroke-linejoin="round" stroke-width="1"/>
      <path d="M99,73.19v4.66a5.64,5.64,0,0,1-5.64,5.65H80.16" fill="none" stroke="#6f2cdd" stroke-linecap="round" stroke-linejoin="round" stroke-width="1"/>
      <line x1="87.51" y1="83.5" x2="87.51" y2="88.61" fill="none" stroke="#6f2cdd" stroke-linecap="round" stroke-linejoin="round" stroke-width="1"/>
    </g>
    <line x1="85.99" y1="66.5" x2="85.99" y2="73.19" fill="none" stroke="#6f2cdd" stroke-linecap="round" stroke-linejoin="round" stroke-width="1"/>
    <g>
      <g>
        <path d="M49.58,19.87h2.85a.89.89,0,0,0,.87-1.25h0a1.85,1.85,0,0,0-1.63-1.25H48.82A.9.9,0,0,0,48,18.62h0A1.83,1.83,0,0,0,49.58,19.87Z" fill="none" stroke="#6f2cdd" stroke-linecap="round" stroke-linejoin="round" stroke-width="1"/>
        <path d="M12,19.87H44.37a.89.89,0,0,0,.86-1.25h0a1.85,1.85,0,0,0-1.63-1.25H11.18a.9.9,0,0,0-.86,1.25h0A1.83,1.83,0,0,0,12,19.87Z" fill="none" stroke="#6f2cdd" stroke-linecap="round" stroke-linejoin="round" stroke-width="1"/>
      </g>
      <g>
        <path d="M56.62,42.89h2.85a.89.89,0,0,0,.87-1.25h0a1.84,1.84,0,0,0-1.63-1.24H55.86A.89.89,0,0,0,55,41.64h0A1.82,1.82,0,0,0,56.62,42.89Z" fill="none" stroke="#6f2cdd" stroke-linecap="round" stroke-linejoin="round" stroke-width="1"/>
        <path d="M24.54,42.89H51.4a.89.89,0,0,0,.87-1.25h0a1.84,1.84,0,0,0-1.63-1.24H23.78a.89.89,0,0,0-.87,1.24h0A1.84,1.84,0,0,0,24.54,42.89Z" fill="none" stroke="#6f2cdd" stroke-linecap="round" stroke-linejoin="round" stroke-width="1"/>
      </g>
      <g>
        <path d="M51.34,25.62h2.85a.89.89,0,0,0,.87-1.24h0a1.83,1.83,0,0,0-1.63-1.25H50.58a.89.89,0,0,0-.86,1.25h0A1.83,1.83,0,0,0,51.34,25.62Z" fill="none" stroke="#6f2cdd" stroke-linecap="round" stroke-linejoin="round" stroke-width="1"/>
        <path d="M34.91,25.62H46.13A.89.89,0,0,0,47,24.38h0a1.83,1.83,0,0,0-1.63-1.25H34.15a.89.89,0,0,0-.87,1.25h0A1.84,1.84,0,0,0,34.91,25.62Z" fill="none" stroke="#6f2cdd" stroke-linecap="round" stroke-linejoin="round" stroke-width="1"/>
        <path d="M23.91,25.62h5.77a.89.89,0,0,0,.86-1.24h0a1.83,1.83,0,0,0-1.63-1.25H23.15a.89.89,0,0,0-.87,1.25h0A1.84,1.84,0,0,0,23.91,25.62Z" fill="none" stroke="#6f2cdd" stroke-linecap="round" stroke-linejoin="round" stroke-width="1"/>
      </g>
      <g>
        <path d="M54.86,37.13h2.85a.89.89,0,0,0,.87-1.24h0A1.83,1.83,0,0,0,57,34.64H54.1a.89.89,0,0,0-.86,1.25h0A1.83,1.83,0,0,0,54.86,37.13Z" fill="none" stroke="#6f2cdd" stroke-linecap="round" stroke-linejoin="round" stroke-width="1"/>
        <path d="M27.43,37.13H49.65a.89.89,0,0,0,.86-1.24h0a1.83,1.83,0,0,0-1.63-1.25H26.67a.89.89,0,0,0-.87,1.25h0A1.84,1.84,0,0,0,27.43,37.13Z" fill="none" stroke="#6f2cdd" stroke-linecap="round" stroke-linejoin="round" stroke-width="1"/>
      </g>
      <g>
        <path d="M53.1,31.38H56a.89.89,0,0,0,.87-1.25h0a1.84,1.84,0,0,0-1.63-1.24H52.34a.89.89,0,0,0-.86,1.24h0A1.83,1.83,0,0,0,53.1,31.38Z" fill="none" stroke="#6f2cdd" stroke-linecap="round" stroke-linejoin="round" stroke-width="1"/>
        <path d="M30.64,31.38H47.89a.89.89,0,0,0,.86-1.25h0a1.84,1.84,0,0,0-1.63-1.24H29.88A.89.89,0,0,0,29,30.13h0A1.84,1.84,0,0,0,30.64,31.38Z" fill="none" stroke="#6f2cdd" stroke-linecap="round" stroke-linejoin="round" stroke-width="1"/>
        <path d="M16.91,31.38h8.43a.89.89,0,0,0,.87-1.25h0a1.84,1.84,0,0,0-1.63-1.24H16.15a.89.89,0,0,0-.87,1.24h0A1.83,1.83,0,0,0,16.91,31.38Z" fill="none" stroke="#6f2cdd" stroke-linecap="round" stroke-linejoin="round" stroke-width="1"/>
      </g>
      <g>
        <path d="M58.38,48.65h2.85a.89.89,0,0,0,.87-1.25h0a1.85,1.85,0,0,0-1.63-1.25H57.62a.89.89,0,0,0-.86,1.25h0A1.82,1.82,0,0,0,58.38,48.65Z" fill="none" stroke="#6f2cdd" stroke-linecap="round" stroke-linejoin="round" stroke-width="1"/>
        <path d="M35.92,48.65H53.16A.89.89,0,0,0,54,47.4h0a1.85,1.85,0,0,0-1.63-1.25H35.16a.9.9,0,0,0-.87,1.25h0A1.84,1.84,0,0,0,35.92,48.65Z" fill="none" stroke="#6f2cdd" stroke-linecap="round" stroke-linejoin="round" stroke-width="1"/>
      </g>
    </g>
  </g>
</svg>
