<svg width="245" height="219" viewBox="0 0 245 219" fill="none" xmlns="http://www.w3.org/2000/svg">
<path d="M43.191 140.127C65.8533 144.41 76.6556 161.092 89.9373 172.328C105.577 185.559 124.598 178.224 140.845 175.883C170.062 171.687 179.997 202.466 212.144 198.391C242.903 194.49 254.919 155.941 235.794 133.884C216.669 111.809 217.293 105.151 221.698 89.5441C226.102 73.9375 233.835 44.7012 203.041 42.0654C176.564 39.7938 161.271 33.187 149.619 21.6902C137.967 10.1934 95.0524 -21.4533 75.043 26.6323C65.4718 49.5913 59.6979 57.672 38.2147 63.5678C16.7141 69.4636 1.6984 85.6771 1.02217 104.058C0.397964 121.451 12.9168 134.422 43.191 140.127Z" fill="#EAE6FF"/>
<path d="M158.244 157.977V143.456C158.244 143.456 158.889 138.814 161.358 137.747C163.828 136.679 166.901 136.909 166.901 136.909L210.522 136.884L232.758 136.909C232.758 136.909 227.944 137.374 227.651 142.447C227.358 147.521 227.128 154.85 227.128 154.85L226.822 168.174L224.805 216.312L166.691 217.601L158.566 217.576L158.244 157.977Z" fill="#FFB000"/>
<path d="M148.583 85.251H15.2657C11.7194 85.251 8.84448 88.1259 8.84448 91.6722V172.423C8.84448 175.969 11.7194 178.844 15.2657 178.844H148.583C152.13 178.844 155.004 175.969 155.004 172.423V91.6722C155.004 88.1259 152.13 85.251 148.583 85.251Z" fill="#312436"/>
<path d="M169.383 116.005L174.49 84.4014C174.49 84.4014 174.808 82.1075 179.513 81.375C184.218 80.6424 189.383 80.2113 192.577 80.6424C194.923 81.0022 197.247 81.4927 199.538 82.1117C199.538 82.1117 201.954 82.7982 202.192 84.5312C202.431 86.2641 206.282 114.67 206.282 114.67V126.466L202.28 137.437L189.249 142.46L171.095 138.89L167.181 133.276L168.558 123.021L169.383 116.005Z" fill="#80BBF3"/>
<path d="M181.644 80.9564L181.895 78.1184C183.938 77.3248 186.111 76.9175 188.303 76.917C191.941 76.917 193.933 78.1184 193.933 78.1184L194.662 80.8308L187.416 80.4583L181.644 80.9564Z" fill="#80BBF3"/>
<path d="M185.599 76.9168L186.223 73.049C186.223 73.049 182.351 72.5258 182.255 70.1733C182.158 67.8208 184.632 64.2795 188.529 64.2125C189.843 64.1877 191.13 64.5844 192.202 65.3444C193.274 66.1045 194.075 67.188 194.486 68.4361C194.645 69.1593 194.744 69.8943 194.783 70.6337C194.828 70.9683 194.759 71.3082 194.587 71.5989C194.416 71.8896 194.152 72.1143 193.837 72.2369C192.982 72.6513 192.093 72.9903 191.179 73.2499H190.455L190.945 77.1429C190.077 77.0024 189.199 76.9269 188.32 76.9168C186.528 76.8624 185.599 76.9168 185.599 76.9168Z" fill="#006996"/>
<path d="M167.181 104.95L169.023 107.424L169.906 108.261C169.906 108.261 169.253 108.956 169.459 109.278C169.664 109.6 170.442 110.534 170.442 110.534L169.869 113.669L168.165 113.489L167.181 112.233L166.52 110.061L166.742 106.909L167.181 104.95Z" fill="#006996"/>
<path d="M208.136 100.852L203.569 101.342C203.569 101.342 201.585 101.966 201.087 105.004C200.589 108.043 201.066 110.534 201.87 112.221C202.371 113.247 203.171 114.098 204.164 114.661L208.513 114.347C209.432 114.141 210.266 113.66 210.907 112.97C211.962 111.823 211.891 108.994 211.891 108.994C211.891 108.994 211.631 104.879 211.054 103.234C210.476 101.589 208.136 100.852 208.136 100.852Z" fill="#006996"/>
<path d="M209.928 104.774C209.928 104.774 208.203 105.054 208.517 107.424C208.831 109.793 209.928 110.144 209.928 110.144L213.879 109.282C213.879 109.282 214.993 112.049 215.939 111.965C216.885 111.882 219.363 111.379 219.363 111.379C219.363 111.379 220.966 111.404 221.506 110.542C221.911 109.739 222.193 108.88 222.343 107.993C222.343 107.993 226.312 107.436 226.245 106.08C226.178 104.724 222.134 104.602 222.134 104.602C222.134 104.602 221.657 101.71 219.271 101.63C216.885 101.551 215.554 101.563 215.554 101.563C214.974 101.993 214.496 102.546 214.156 103.183C213.859 103.705 213.646 104.27 213.524 104.858L209.928 104.774Z" fill="#80BBF3"/>
<path d="M238.287 111.706C239.61 111.706 240.682 110.634 240.682 109.312C240.682 107.989 239.61 106.917 238.287 106.917C236.965 106.917 235.893 107.989 235.893 109.312C235.893 110.634 236.965 111.706 238.287 111.706Z" fill="#006996"/>
<path d="M167.064 105.457L165.247 105.134C165.247 105.134 165.247 102.698 163.615 102.497C162.269 102.415 160.919 102.49 159.592 102.723L158.336 104.226L158.043 104.95L155.264 105.017L155.285 108.215L157.666 108.956C157.666 108.956 157.729 110.727 158.696 111.304C159.663 111.882 162.769 112.363 162.769 112.363C163.229 112.144 163.645 111.842 163.996 111.472C164.291 110.88 164.554 110.272 164.782 109.651L166.528 110.044V107.759L167.064 105.457Z" fill="#80BBF3"/>
<path d="M182.669 101.346C182.669 101.346 181.966 100.207 178.483 99.6128C175.001 99.0184 169.982 100.525 169.982 100.525C169.35 100.734 168.773 101.08 168.291 101.538C167.809 101.996 167.434 102.555 167.194 103.175C166.357 105.322 169.902 108.265 169.902 108.265C169.902 108.265 173.364 110.961 176.181 111.966C177.019 112.26 177.915 112.355 178.797 112.242C179.678 112.13 180.521 111.813 181.259 111.317L182.514 110.161C182.514 110.161 183.979 113.347 187.412 113.51C190.844 113.673 195.42 109.291 195.42 109.291C195.42 109.291 198.052 107.277 198.153 104.891C198.253 102.505 194.779 98.2985 194.779 98.2985C194.779 98.2985 192.803 95.6823 189.915 95.293C187.027 94.9037 183.992 98.8761 183.992 98.8761L182.669 101.346Z" fill="white"/>
<path d="M169.902 108.265C169.902 108.265 168.847 108.759 170.438 110.546C172.028 112.334 177.851 114.167 177.851 114.167C178.598 114.148 179.341 114.064 180.074 113.916C180.769 113.719 182.104 112.585 182.104 112.585C182.104 112.585 182.941 115.067 187.32 115.411C191.698 115.754 194.662 112.48 194.662 112.48L196.403 110.04L196.822 107.863C196.822 107.863 194.406 110.023 192.803 111.275C191.2 112.526 187.801 113.502 187.801 113.502C187.801 113.502 185.708 113.28 184.825 112.606C183.989 111.852 183.219 111.028 182.523 110.145C182.054 110.798 181.431 111.326 180.71 111.681C179.988 112.036 179.19 112.207 178.387 112.179C176.532 112.079 174.736 111.493 173.18 110.479L169.902 108.265Z" fill="#006996"/>
<path d="M208.982 131.631C208.936 130.643 209.664 128.873 209.664 128.873L208.513 128.713L209.187 127.382L208.617 127.169L208.743 126.432L207.713 125.009L208.132 124.9L207.868 123.376L208.216 123.469L207.479 121.103L207.726 120.174L207.031 119.023L206.273 114.666L205.131 114.854L205.168 117.211C205.248 117.288 205.299 117.39 205.313 117.5C205.328 117.61 205.305 117.722 205.248 117.818C205.115 118.059 204.916 118.258 204.674 118.391L203.954 120.442L203.913 121.053L202.657 121.166L202.853 121.585L202.523 122.221L201.665 122.443C201.665 122.443 200.869 123.887 199.764 123.242C199.136 122.905 198.652 122.35 198.404 121.681L197.68 121.409L197.826 120.844L196.453 119.781L195.105 119.551L193.929 119.32H193.092C192.507 118.968 191.815 118.837 191.141 118.952C189.856 119.09 189.668 119.546 189.668 119.546L187.956 119.739L187.119 120.233L184.8 120.09L183.167 119.982L182.644 120.233L182.083 119.931L181.585 119.701L180.919 120.12L179.889 119.358L178.215 119.546L176.503 118.37L174.896 118.697L174.523 119.207L173.782 119.036H172.489L171.823 119.454L171.899 119.948L171.137 120.517L169.843 119.91L169.956 116.792L169.454 117.056L169.429 115.469L167.633 119.609L168.156 119.823L167.181 122.489H167.629L167.21 123.891L167.729 123.942L167.361 125.666L166.31 127.554L166.767 129.253L165.758 131.995L166.176 132.795L166.511 134.997C166.511 134.997 166.574 136.558 166.93 136.905C167.286 137.253 167.453 138.743 167.453 138.743L168.508 139.806H169.425L169.772 141.824L170.71 141.058C170.674 141.313 170.733 141.573 170.875 141.787C171.018 142.002 171.235 142.156 171.484 142.221C172.044 142.386 172.625 142.472 173.209 142.477C173.209 142.477 173.786 143.49 174.77 143.582C175.25 143.634 175.732 143.653 176.214 143.636L176.633 143.975L177.399 143.9L177.265 145.156L179.144 144.494L179.63 144.913L180.752 144.185L180.379 145.315L181.853 144.838H182.949L184.339 144.503L184.557 145.101C184.732 144.915 184.956 144.781 185.202 144.713C185.449 144.645 185.709 144.646 185.955 144.716C186.792 144.98 188.161 145.461 188.161 145.461L189.287 144.733C190.454 144.753 191.619 144.641 192.761 144.398C193.512 144.195 194.178 143.755 194.657 143.142L195.277 143.774L197.002 143.017V144.021C197.002 144.021 197.65 142.941 198.442 143.13C198.992 143.246 199.555 143.288 200.116 143.255L201.987 142L202.313 140.953L204.557 139.974L204.8 138.864C204.8 138.864 206.508 138.722 207.077 138.316C207.498 137.933 207.823 137.457 208.027 136.926H208.634C208.634 136.926 207.797 135.465 208.258 134.892C208.546 134.542 208.893 134.245 209.283 134.013L209.019 133.393L209.555 133.1C209.194 132.695 208.991 132.174 208.982 131.631ZM197.789 137.336L196.194 137.45C196.194 137.45 195.662 138.174 195.11 138.249C194.718 138.29 194.323 138.282 193.933 138.224L193.151 138.555L191.547 138.906L188.776 140.112C188.776 140.112 187.977 139.467 187.696 139.467C187.416 139.467 187.37 140.074 187.37 140.074L186.717 140.493L185.532 139.655C184.94 139.815 184.316 139.815 183.724 139.655C183.231 139.436 182.817 139.073 182.535 138.613L182.146 136.587L181.606 136.324L179.931 136.294C179.61 136.38 179.302 136.508 179.015 136.675C178.663 136.91 179.015 137.332 179.015 137.332L178.525 138.538C178.073 138.746 177.602 138.912 177.118 139.032C176.737 139.069 175.812 139.128 175.812 139.128C175.812 139.128 174.343 138.919 173.887 138.538C173.756 138.433 173.655 138.296 173.594 138.141C173.533 137.985 173.515 137.816 173.539 137.65L172.84 137.985C172.546 137.818 172.266 137.626 172.003 137.412C171.725 137.149 171.484 136.849 171.287 136.52L170.145 135.486L169.588 135.302L169.462 133.628L168.776 132.167L168.625 130.806H169.345L168.989 128.822H169.567L169.487 127.148C169.487 127.148 169.726 125.561 169.877 124.879C170.016 124.398 170.263 123.956 170.601 123.586L171.668 121.987L172.2 122.368L173.912 122.518L175.8 122.38L176.218 123L177.872 122.07L178.83 121.949L179.513 122.183L179.856 121.798L181.38 122.481L181.84 121.987L182.405 122.556L183.397 122.882L185.03 122.937L186.06 122.673L187.01 122.481L187.06 121.987L190.672 122.183L191.568 122.711L192.56 122.33L193.247 122.405L193.954 122.075C193.954 122.075 194.427 121.987 195.13 122.564C195.508 122.861 195.847 123.204 196.139 123.586C196.501 123.507 196.871 123.48 197.24 123.506C197.583 123.586 197.504 125.662 197.504 125.662L198.32 126.445L197.734 128.148C197.983 128.832 198.187 129.531 198.345 130.241C198.496 131.079 197.315 131.916 197.315 131.916C197.59 132.419 197.832 132.939 198.04 133.473C198.228 134.046 197.809 135.377 197.809 135.377C197.809 135.377 198.458 136.06 198.429 136.591C198.406 136.764 198.333 136.927 198.219 137.059C198.106 137.191 197.956 137.288 197.789 137.336Z" fill="#5C3419"/>
<path d="M181.832 144.842V147.282L178.295 147.952C178.295 147.952 178.651 151.125 180.472 153.105C182.292 155.085 186.575 155.399 187.893 155.085C189.212 154.771 192 153.456 192 153.456L194.884 151.079L197.496 147.768L191.564 147.11V144.804L189.27 144.733L188.111 145.465L186.667 144.842L185.905 144.72L184.507 145.105L184.289 144.507L182.899 144.842H181.832Z" fill="#80BBF3"/>
<path d="M142.769 195.085L144.397 191.059L146.181 188.128L147.482 186.09L149.651 180.623L148.998 178.84C148.998 178.84 152.631 178.446 153.774 176.353C154.438 175.173 154.933 173.905 155.243 172.586V164.633C156.089 161.546 157.612 158.686 159.701 156.261C161.844 153.94 164.548 152.21 167.554 151.238L171.786 149.681L178.266 147.952C178.266 147.952 178.09 153.465 184.423 154.968C190.756 156.47 194.871 151.083 194.871 151.083L197.483 147.772C197.483 147.772 204.03 148.216 208.722 149.865C213.415 151.514 216.044 152.481 219.66 155.328C223.277 158.174 226.203 162.904 226.203 162.904L229.589 169.501L231.871 176.199L232.771 179.388L237.258 190.799L239.267 197.873L240.016 202.478C240.016 202.478 234.993 205.086 231.799 205.337C228.606 205.588 225.521 205.584 225.521 205.584H223.65L223.825 206.475L220.895 206.547L219.388 206.078L218.25 202.486L216.077 196.739L216.245 206.626C216.245 206.626 212.168 203.407 204.855 201.683C197.542 199.958 192.716 199.05 192.716 199.05L186.24 198.078L182.272 211.658L160.605 210.523L161.195 206.756L159.609 206.534L153.267 204.663C150.732 203.26 148.348 201.6 146.151 199.711C143.137 196.957 142.769 195.085 142.769 195.085Z" fill="#333333"/>
<path d="M139.839 200.477C139.839 200.477 137.587 199.493 136.804 198.727C136.021 197.961 133.531 194.34 133.531 194.34C133.531 194.34 131.777 191.272 130.923 190.079C130.069 188.886 128.47 188.957 128.47 188.957L125.808 190.519C124.026 189.619 122.172 188.87 120.265 188.279C118.795 187.838 117.232 187.805 115.745 188.183L114.355 189.217L113.89 189.97C113.89 189.97 112.718 189.681 111.345 191.548C110.072 193.408 108.952 195.368 107.997 197.409C107.339 198.744 106.967 202.013 107.13 202.85C107.293 203.688 107.934 205.73 108.804 205.76C109.675 205.789 111.203 205.136 111.203 205.136L112.948 203.88L114.644 202.038C114.644 202.038 116.1 205.278 117.993 206.781C119.885 208.284 120.923 208.003 120.923 208.003L121.634 207.518L123.706 209.514L124.64 210.058H127.331L128.093 209.004L128.667 207.162L129.922 206.195C129.922 206.195 130.76 206.978 132.978 207.158C134.227 207.285 135.484 207.019 136.574 206.396L139.609 207.752C139.609 207.752 141.656 207.899 143.083 207.354C144.51 206.81 145.205 203.884 145.205 203.884C145.205 203.884 145.134 201.373 143.949 200.536C143.602 200.286 143.201 200.121 142.779 200.055C142.356 199.989 141.924 200.023 141.517 200.155L139.839 200.477Z" fill="#80BBF3"/>
<path d="M195.884 205.115C195.884 205.115 192.611 204.311 191.158 203.294C189.923 202.345 188.756 201.31 187.667 200.196C187.667 200.196 184.637 196.182 181.807 194.838C178.977 193.495 177.286 194.165 177.286 194.165C176.118 193.189 174.655 192.635 173.134 192.591C170.463 192.448 168.981 193.403 168.981 193.403L167.608 194.328C167.608 194.328 165.536 193.097 163.686 193.009C161.836 192.921 159.5 194.403 158.663 195.069C157.826 195.734 154.326 200.787 154.326 200.787C153.669 202.133 153.34 203.617 153.368 205.115C153.439 207.505 155.917 207.991 155.917 207.991C156.664 208.058 157.414 207.897 158.069 207.53C158.964 206.936 161.38 204.935 161.38 204.935L163.255 202.264C163.255 202.264 164.733 201.549 164.929 201.846C165.126 202.143 164.72 203.876 164.72 203.876L163.799 208.514V210.703L170.275 211.084L171.551 208.807C172.324 208.886 173.102 208.886 173.875 208.807C174.331 208.698 174.753 208.476 175.101 208.162C175.946 208.974 176.867 209.701 177.851 210.335C178.739 210.814 179.658 211.234 180.601 211.591L193.49 212.407C193.49 212.407 195.675 210.825 196.278 209.008C196.88 207.191 195.884 205.115 195.884 205.115Z" fill="#80BBF3"/>
<path d="M129.927 206.178L128.671 207.145L127.335 210.042L141.76 209.887L143.225 208.506L144.401 206.547C144.401 206.547 142.555 208.104 140.412 207.832C139.043 207.626 137.733 207.131 136.57 206.379C135.65 206.898 134.607 207.156 133.552 207.124C132.288 207.08 131.05 206.757 129.927 206.178Z" fill="#5B2F00"/>
<path d="M134.728 196.027C135.362 197.328 136.312 198.449 137.49 199.288C139.307 200.485 139.839 200.464 139.839 200.464L141.756 199.979L140.764 198.983L138.252 197.513L134.728 196.027Z" fill="#5B2F00"/>
<path d="M186.437 198.321C187.493 200.161 188.932 201.752 190.656 202.989C192.201 204.111 193.995 204.843 195.884 205.119C195.884 205.119 193.398 202.231 191.97 200.975C190.543 199.719 186.437 198.321 186.437 198.321Z" fill="#5B2F00"/>
<path d="M143.87 196.923L134.728 195.621L137.624 197.12L139.935 198.497L141.756 199.979C142.211 199.888 142.682 199.917 143.123 200.064C143.563 200.211 143.958 200.47 144.267 200.816C144.88 201.483 145.208 202.363 145.18 203.269L144.878 205.098L144.38 206.53L143.204 208.489L141.739 209.87L151.978 210.029L157.964 210.309C157.964 210.309 159.144 209.996 159.542 209.301C159.939 208.472 160.288 207.62 160.588 206.751L159.592 206.53C159.592 206.53 157.461 208.501 155.364 207.815C153.267 207.128 153.25 204.633 153.25 204.633C153.25 204.633 151.341 204.089 148.001 201.385C144.661 198.681 143.87 196.923 143.87 196.923Z" fill="#FFCE00"/>
<path d="M186.437 198.321C186.437 198.321 189.785 199.506 191.987 200.971C193.281 201.824 194.415 202.898 195.336 204.144C195.336 204.144 196.751 205.755 196.487 207.547C196.223 209.339 195.754 210.059 195.754 210.059L193.494 212.399L195.26 212.595L195.101 217.618L223.486 217.593L224.817 216.338C224.817 216.338 225.018 215.082 223.486 213.374C221.954 211.666 218.044 207.802 216.27 206.647C214.495 205.492 209.991 203.616 207.14 202.382C204.289 201.147 192.749 199.071 192.749 199.071L186.437 198.321Z" fill="#FFCE00"/>
<path d="M223.649 205.584L224.022 207.714L223.473 208.078L217.559 207.622L221.544 211.331L224.022 214.437L224.804 216.316L223.473 217.572H229.689C231.061 217.041 232.279 216.178 233.235 215.061C234.817 213.194 235.01 209.899 235.01 209.899L234.625 204.901L230.347 205.584L226.487 205.718L223.649 205.584Z" fill="#80BBF3"/>
<path d="M141.061 85.251H7.74347C4.19714 85.251 1.32227 88.1259 1.32227 91.6722V172.423C1.32227 175.969 4.19714 178.844 7.74347 178.844H141.061C144.607 178.844 147.482 175.969 147.482 172.423V91.6722C147.482 88.1259 144.607 85.251 141.061 85.251Z" fill="#584260"/>
<path d="M101.437 107.026H43.4452C41.0709 107.026 39.1462 108.951 39.1462 111.325V162.355C39.1462 164.73 41.0709 166.654 43.4452 166.654H101.437C103.811 166.654 105.736 164.73 105.736 162.355V111.325C105.736 108.951 103.811 107.026 101.437 107.026Z" fill="#382A3E"/>
<path d="M96.7907 107.026H38.7989C36.4247 107.026 34.5 108.951 34.5 111.325V162.355C34.5 164.73 36.4247 166.654 38.7989 166.654H96.7907C99.165 166.654 101.09 164.73 101.09 162.355V111.325C101.09 108.951 99.165 107.026 96.7907 107.026Z" fill="#634C6D"/>
<path d="M53.6631 212.876V118.583C53.6664 117.898 53.9409 117.243 54.4264 116.759C54.912 116.276 55.5691 116.005 56.2542 116.005H79.3563C80.0395 116.007 80.6941 116.279 81.1771 116.763C81.6602 117.246 81.9326 117.9 81.9348 118.583V212.876H53.6631Z" fill="#312436"/>
<path d="M50.8838 212.876V118.583C50.8871 117.901 51.1598 117.247 51.6427 116.764C52.1255 116.281 52.7795 116.008 53.4623 116.005H76.5686C77.2518 116.007 77.9064 116.279 78.3895 116.763C78.8726 117.246 79.1449 117.9 79.1472 118.583V212.876H50.8838Z" fill="#584260"/>
<path d="M226.822 163.41L227.429 143.192C227.429 143.192 228.384 136.914 232.758 136.914C237.132 136.914 237.986 143.084 237.986 143.084L236.668 188.045L233.884 181.937L232.41 178.17L230.627 171.753L228.593 167.207L226.822 163.41Z" fill="#FB7000"/>
<path d="M234.625 204.906C234.625 204.906 235.604 210.829 234.42 212.947C233.694 214.237 232.789 215.418 231.732 216.455L228.802 217.631L235.613 217.581L236.065 204.416L234.625 204.906Z" fill="#FB7000"/>
<path d="M81.9268 209.903V217.58L151.995 217.605V210.046L81.9268 209.903Z" fill="#584260"/>
<path d="M195.248 212.583L195.089 217.606H151.995V210.046L195.248 212.583Z" fill="#312436"/>
<path d="M107.892 213.018H13.7671V217.514H107.892V213.018Z" fill="#584260"/>
<path opacity="0.3" d="M198.785 82.2036L201.514 103.518L203.193 101.057H204.47L202.272 84.0245L200.882 82.7855L199.53 82.2036H198.785Z" fill="#006F9F"/>
<path opacity="0.3" d="M190.325 77.0547L190.652 80.3825L194.662 80.8304L194.264 78.3984L193.682 77.8961L192.493 77.4272L190.325 77.0547Z" fill="#006F9F"/>
<g style="mix-blend-mode:multiply" opacity="0.7">
<path d="M186.65 70.4915L186.231 73.0491L184.825 72.6305L182.669 71.3162L182.25 70.1274C182.25 70.1274 182.38 67.4484 188.609 67.4902C194.838 67.5321 194.771 70.6087 194.771 70.6087L194.252 71.9692L192.954 72.7394L190.748 73.271L189.911 70.3869L186.65 70.4915Z" fill="#006996"/>
</g>
<path d="M188.802 64.2169C189.369 64.5798 189.852 65.0595 190.218 65.624C190.585 66.1885 190.827 66.8247 190.928 67.4903L188.802 70.2111L189.241 76.9086L190.916 76.7788L190.736 73.2417C190.736 73.2417 194.411 73.0324 194.767 70.6004C195.123 68.1684 192.557 65.6317 192.557 65.6317L190.313 64.2085L188.802 64.2169Z" fill="#003162"/>
<g style="mix-blend-mode:multiply" opacity="0.7">
<path d="M211.891 104.774H209.928C209.928 104.774 208.308 105.193 208.521 107.554C208.735 109.915 210.237 110.141 210.237 110.141L211.891 109.722C211.891 109.722 211.64 111.97 211.171 112.602C210.702 113.234 210.024 114.142 210.024 114.142L208.961 114.31L207.32 113.674L205.763 111.267C205.763 111.267 204.796 108.412 204.926 106.909C205.055 105.406 205.888 102.769 205.888 102.769C205.888 102.769 207.173 100.986 208.153 100.852C208.474 100.835 208.795 100.89 209.093 101.012C209.39 101.135 209.657 101.322 209.873 101.56L211.234 103.309L211.891 104.774Z" fill="#006996"/>
</g>
<path opacity="0.7" d="M201.263 110.547L205.382 110.128C205.382 110.128 206.282 112.748 207.32 113.665C208.358 114.582 208.961 114.301 208.961 114.301L204.436 114.665L202.9 113.699L201.832 112.246L201.263 110.547Z" fill="#003162"/>
<path d="M205.382 110.145L208.731 108.437C208.731 108.437 209.308 109.948 210.238 110.141C210.527 110.191 210.824 110.18 211.109 110.107C211.394 110.035 211.66 109.904 211.891 109.722L211.171 112.602L210.024 114.142L208.45 114.352L207.32 113.674L205.382 110.145Z" fill="#003162"/>
<path opacity="0.3" d="M208.731 108.437L213.407 107.805L213.712 108.726L217.358 108.437L219.811 106.917C219.811 106.917 224.361 107.281 226.236 106.08C225.939 106.535 225.559 106.93 225.115 107.244C224.445 107.687 222.335 107.993 222.335 107.993L222.18 109.312L221.506 110.542L220.556 111.296L219.363 111.375L216.475 111.957L215.29 111.647L214.453 110.542L213.737 109.307L210.242 110.145L209.17 109.747L208.731 108.437Z" fill="#006F9F"/>
<path opacity="0.7" d="M238.279 106.918H238.107C238.429 106.985 238.725 107.142 238.96 107.37C239.196 107.599 239.363 107.889 239.44 108.209C239.517 108.528 239.503 108.862 239.398 109.173C239.293 109.484 239.102 109.759 238.847 109.966C238.592 110.173 238.283 110.304 237.957 110.343C237.631 110.382 237.301 110.327 237.004 110.186C236.708 110.045 236.458 109.823 236.282 109.545C236.107 109.267 236.014 108.945 236.014 108.617C236.014 108.592 236.014 108.571 236.014 108.55C235.933 108.791 235.892 109.045 235.893 109.299C235.893 109.772 236.033 110.235 236.296 110.628C236.559 111.021 236.933 111.327 237.37 111.508C237.807 111.689 238.287 111.736 238.751 111.643C239.215 111.551 239.641 111.323 239.975 110.988C240.309 110.653 240.536 110.227 240.628 109.763C240.72 109.299 240.672 108.818 240.49 108.382C240.309 107.945 240.002 107.572 239.608 107.31C239.214 107.048 238.752 106.908 238.279 106.909V106.918Z" fill="#003162"/>
<path opacity="0.3" d="M202.892 113.682L203.988 120.078L204.675 118.395L205.374 117.868L205.114 117.173V114.649H204.428L202.892 113.682Z" fill="#006F9F"/>
<path opacity="0.7" d="M169.58 109.462L166.52 109.023L166.847 111.3L168.01 113.309L169.743 113.682L170.388 110.819L169.58 109.462Z" fill="#003162"/>
<path opacity="0.7" d="M162.966 105.457L162.388 106.905L162.418 108.843L164.858 109.542L163.987 111.455L162.761 112.347L161.823 111.928L160.567 109.249C160.567 109.249 160.375 106.813 160.986 105.436C161.309 104.67 161.703 103.935 162.162 103.242C162.3 102.982 162.512 102.768 162.771 102.629C163.031 102.489 163.326 102.43 163.619 102.459C164.686 102.526 165.004 103.749 165.004 103.749L165.251 105.423L162.966 105.457Z" fill="#006F9F"/>
<path opacity="0.3" d="M166.52 108.265L162.396 107.583L162.417 108.856L166.528 110.019L166.52 108.265Z" fill="#006F9F"/>
<path opacity="0.3" d="M160.551 108.47L157.6 108.164V107.424L155.276 107.026V108.21L157.658 108.951L158.244 110.881L161.823 111.961C161.823 111.961 160.454 110.103 160.551 108.47Z" fill="#006F9F"/>
<path opacity="0.3" d="M181.832 146.478C181.832 146.478 182.004 146.851 182.669 146.78L183.343 146.713C183.343 146.713 183.343 147.303 183.762 147.282C184.18 147.261 184.511 147.027 185.198 147.282C185.884 147.537 186.148 147.797 186.696 147.768C187.244 147.738 188.86 149.283 188.86 149.283L192.581 152.975L194.884 151.079L196.801 149.283L197.496 147.768L191.56 147.282V144.804L189.266 144.733L188.065 145.461L186.114 144.75H184.858L183.778 144.691L181.849 144.854L181.832 146.478Z" fill="#006F9F"/>
<path opacity="0.3" d="M193.971 151.82L196.646 152.975C200.494 153.669 204.289 154.632 208.002 155.855C214.013 157.852 219.631 166.345 221.54 170.845C223.448 175.345 222.749 179.104 224.018 180.946C225.286 182.787 228.229 186.065 229.25 189.518C230.272 192.972 232.754 201.775 232.754 201.775L233.315 205.123L237.476 203.667L240.012 202.486C239.742 200.314 239.343 198.16 238.815 196.036C238.095 193.466 236.048 187.337 236.048 187.337L232.335 178.183L230.171 170.757C230.171 170.757 227.429 163.222 224.089 159.74C220.749 156.257 219.187 154.277 213.151 151.502C207.115 148.727 202.268 148.463 202.268 148.463L197.479 147.785L193.971 151.82Z" fill="black"/>
<path opacity="0.3" d="M211.079 185.696C211.079 185.696 209.668 195.152 206.273 197.513C202.879 199.874 207.73 199.606 209.166 198.715C210.602 197.823 207.751 202.482 207.751 202.482L212.544 204.412L216.257 206.622L216.089 196.735L214.377 191.891L211.941 186.55L211.079 185.696Z" fill="black"/>
<path d="M223.649 205.584L223.825 206.475L220.895 206.546L219.388 206.078C219.562 205.884 219.774 205.728 220.011 205.62C220.248 205.512 220.505 205.454 220.765 205.45C221.598 205.475 223.649 205.584 223.649 205.584Z" fill="#34374C"/>
<path opacity="0.3" d="M159.647 180.343C159.647 180.343 160.228 184.642 158.809 185.697C157.39 186.751 156.348 186.015 156.348 186.015C156.348 186.015 157.298 190.104 156.348 191.502C155.398 192.901 154.356 193.595 153.267 193.595C152.179 193.595 152.593 194.207 153.343 195.571C154.092 196.936 148.018 201.406 148.018 201.406L153.271 204.42C153.621 202.454 154.414 200.593 155.59 198.979C157.533 196.35 158.659 195.065 158.659 195.065L161.359 193.39L160.94 188.874L160.4 184.223L159.647 180.343Z" fill="black"/>
<path opacity="0.5" d="M164.929 201.976L164.452 205.446L163.942 207.547L163.791 210.712L160.605 210.532L161.196 206.768L159.869 206.342L161.141 205.115L162.397 203.294L163.699 201.976H164.929Z" fill="black"/>
<path opacity="0.5" d="M171.543 208.798L170.266 211.076L180.183 211.637L177.843 210.326L175.092 208.154C175.092 208.154 174.636 209.175 173.087 208.991L171.543 208.798Z" fill="black"/>
<path opacity="0.3" d="M223.649 205.584L224.022 207.714C224.362 207.517 224.741 207.4 225.133 207.371C225.524 207.342 225.917 207.402 226.282 207.547C227.611 207.998 229.023 208.153 230.418 208.003C231.51 207.869 231.741 210.866 229.916 211.929C228.091 212.993 222.138 212.08 222.138 212.08L224.022 214.437L224.813 216.53L223.473 217.559H229.69C229.69 217.559 232.264 216.14 233.528 214.659C234.792 213.177 235.048 210.69 235.048 210.69L234.997 207.526L234.549 204.663C234.549 204.663 230.615 205.692 223.649 205.584Z" fill="#006F9F"/>
<path d="M196.483 208.506C196.483 208.506 203.984 209.933 209.995 210.712C213.828 211.187 217.69 211.394 221.552 211.331L224.03 214.437L224.821 216.53L223.482 217.56L195.097 217.585V212.474L193.716 212.399C193.716 212.399 196.01 210.105 196.483 208.506Z" fill="#FF9000"/>
<path opacity="0.3" d="M153.451 203.562C153.451 203.562 154.506 205.789 156.922 205.115C159.337 204.441 160.471 202.059 161.89 199.698C163.309 197.338 165.306 196.237 165.712 196.35L166.131 196.454L164.942 201.98C164.942 201.98 165.013 200.661 163.711 201.98C162.409 203.298 159.868 206.337 159.868 206.337C159.868 206.337 157.683 208.15 156.52 207.987C155.356 207.823 153.933 206.685 153.933 206.685L153.368 205.149L153.451 203.562Z" fill="#006F9F"/>
<path opacity="0.3" d="M174.816 195.211C174.816 195.211 172.179 195.341 171.543 197.12C170.907 198.899 169.483 202.98 169.483 202.98L174.816 195.211Z" fill="#006F9F"/>
<path opacity="0.3" d="M163.908 208.238C164.191 208.673 164.596 209.017 165.072 209.224C165.548 209.432 166.075 209.495 166.587 209.405C167.752 209.172 168.786 208.508 169.484 207.547L171.543 208.803L170.266 211.08L163.795 210.716L163.699 209.318L163.908 208.238Z" fill="#006F9F"/>
<path opacity="0.3" d="M168.855 205.998C168.855 205.998 171.459 207.48 173.64 205.814C175.821 204.148 177.864 199.979 177.864 199.979C177.864 199.979 179.224 196.827 180.614 196.693C182.003 196.559 183.469 197.224 185.432 199.091C186.934 200.439 188.556 201.645 190.279 202.695L194.394 204.684L195.905 205.102C195.905 205.102 197.018 207.384 196.495 208.493C196.183 209.16 195.823 209.803 195.419 210.419L193.745 212.386L180.22 211.624L177.88 210.314L176.453 209.301L175.13 208.141C174.078 208.815 172.802 209.047 171.581 208.786C169.341 208.43 168.855 205.998 168.855 205.998Z" fill="#006F9F"/>
<path d="M145.197 202.151L149.768 202.47L151.915 203.851L153.271 204.399C153.301 205.04 153.492 205.664 153.827 206.211C154.163 206.759 154.631 207.212 155.188 207.53C157.135 208.681 159.868 206.325 159.868 206.325L161.195 206.743L160.605 210.511L152.38 210.025L141.756 209.866L143.627 207.811L144.531 206.136L145.197 204.387V202.151Z" fill="#FF9000"/>
<path d="M216.09 196.739L216.257 206.626L217.559 207.622L223.164 208.078L224.001 207.714L223.804 206.458L221.523 206.672C221.523 206.672 219.757 206.705 219.384 206.061C219.012 205.416 216.09 196.739 216.09 196.739Z" fill="#844700"/>
<path d="M158.244 210.327L160.605 210.532L161.195 206.769H160.538L160.006 208.51L159.048 209.887L158.244 210.327Z" fill="#844700"/>
<path opacity="0.3" d="M112.894 195.709C112.219 197.074 111.686 198.505 111.303 199.979C110.797 202.122 109.269 204.068 107.264 203.394C107.264 203.394 107.791 205.96 109.185 205.726C110.579 205.491 112.559 204.144 112.559 204.144L114.652 202.026L113.743 198.982L112.894 195.709Z" fill="#006F9F"/>
<path opacity="0.3" d="M122.568 208.405C122.568 208.405 124.732 209.606 125.808 207.547C126.884 205.487 123.769 200.343 123.598 198.246C123.426 196.149 127.16 193.172 128.47 192.385C129.78 191.598 131.145 191.444 132.237 192.645C133.33 193.846 133.698 195.466 135.435 197.249C137.173 199.033 138.273 200.401 139.86 200.481C141.446 200.561 142.129 199.493 143.364 200.134C144.598 200.774 145.071 202.139 145.155 203.633C145.239 205.127 143.096 207.354 143.096 207.354L140.392 207.831L137.432 206.756L136.566 206.375L133.954 207.132L131.367 206.756L129.952 206.203L128.566 207.216L127.444 209.924L124.28 210.033L122.568 208.405Z" fill="#006F9F"/>
<path opacity="0.3" d="M117.628 205.814C117.628 205.814 120.085 205.96 119.901 203.486C119.717 201.013 119.248 200.975 118.139 197.513C117.03 194.051 117.67 191.59 118.097 190.908C118.524 190.225 120.06 188.861 123.769 189.903L125.807 190.506L121.663 194.491C121.663 194.491 119.692 196.63 119.901 199.493C120.016 201.144 120.224 202.788 120.525 204.416L121.634 207.505C121.161 207.85 120.591 208.034 120.006 208.032C119.169 207.965 117.892 206.655 117.892 206.655L117.628 205.814Z" fill="#006F9F"/>
<path opacity="0.7" d="M129.952 206.216C129.952 206.216 132.811 204.044 133.321 204.086C133.832 204.127 136.565 206.388 136.565 206.388C136.565 206.388 134.728 207.225 133.577 207.196C132.426 207.166 131.785 207.145 131.785 207.145L129.952 206.216Z" fill="#006F9F"/>
<path d="M202.858 121.568C202.858 121.568 203.247 123.988 203.653 123.916C204.059 123.845 204.558 125.344 204.558 125.344C204.405 125.217 204.216 125.142 204.018 125.13C204.002 125.336 204.032 125.542 204.104 125.735C204.176 125.928 204.29 126.103 204.436 126.248L204.918 126.667L204.8 127.19C204.998 127.131 205.188 127.048 205.365 126.943C205.575 126.801 205.286 128.014 205.114 128.525L205.495 128.789C205.495 128.789 204.8 129.923 205.035 130.748C205.269 131.572 205.612 131.585 205.612 131.585C205.367 131.651 205.133 131.752 204.918 131.886C205.038 131.929 205.146 132.001 205.231 132.096C205.324 132.225 205.114 132.267 204.959 132.883C204.959 132.883 204.541 133.301 204.696 133.624C204.851 133.946 204.993 134.285 204.993 134.285H204.574C204.458 134.498 204.421 134.746 204.47 134.984C204.574 135.298 204.026 135.403 203.846 135.403C203.577 135.364 203.311 135.305 203.051 135.227L203.285 135.645C203.222 135.926 203.076 136.181 202.866 136.378C202.676 136.495 202.466 136.577 202.247 136.621C202.247 136.621 202.419 136.596 202 136.939C201.661 137.16 201.261 137.268 200.857 137.249L200.828 137.634C200.777 137.77 200.698 137.893 200.595 137.995C200.493 138.098 200.369 138.177 200.233 138.228L200.744 138.437C200.436 138.59 200.108 138.695 199.769 138.751C199.455 138.751 199.317 139.099 199.317 139.099C199.317 139.099 198.86 139.203 198.756 139.379C198.651 139.555 198.304 139.76 198.199 140.007C198.094 140.254 197.835 140.673 197.458 140.706C197.081 140.74 196.491 140.572 196.244 140.777C196.004 140.952 195.748 141.102 195.478 141.225C195.183 141.254 194.891 141.313 194.608 141.401L195.081 141.577C194.781 141.701 194.5 141.864 194.243 142.062C193.678 142.513 193.041 142.867 192.36 143.109L192.816 143.318C192.399 143.736 191.898 144.06 191.346 144.268C190.793 144.476 190.203 144.563 189.614 144.524C189.614 144.524 191.359 145.286 192.849 144.369C194.34 143.452 194.825 143.188 194.825 143.188L195.206 143.8L197.048 142.962L196.931 144.051C196.931 144.051 197.592 143.096 198.187 143.163C198.781 143.23 199.505 143.293 199.505 143.293L200.874 142.724L202.004 141.887L202.247 140.978L204.491 139.999L204.733 138.889C204.733 138.889 206.575 138.797 206.935 138.4C207.303 137.936 207.645 137.452 207.961 136.951L208.568 137.169C208.568 137.169 207.689 135.516 208.191 134.917C208.501 134.553 208.872 134.246 209.288 134.009C209.288 134.009 208.894 133.67 208.936 133.389C208.978 133.109 209.639 132.971 209.639 132.971C209.359 132.812 209.141 132.562 209.023 132.263C208.904 131.964 208.891 131.633 208.986 131.326C209.155 130.507 209.373 129.699 209.639 128.906L208.488 128.617L209.129 127.541L208.568 127.257L208.718 126.466L207.785 125.13L208.321 125.013L207.885 123.456L208.195 123.339L207.483 121.091L207.73 120.162L207.065 119.362L206.274 114.666H205.114V117.177C205.114 117.177 205.684 117.516 205.374 117.872C205.177 118.091 204.94 118.27 204.675 118.399L203.988 120.074L203.93 121.07L203.318 121.028L202.858 121.568Z" fill="#392010"/>
<path d="M182.25 70.1274C182.335 68.4763 183.072 66.9262 184.298 65.8179C185.525 64.7096 187.142 64.1337 188.793 64.2169C189.607 64.2401 190.407 64.4243 191.149 64.7588C191.891 65.0934 192.559 65.5717 193.115 66.1661C193.671 66.7605 194.103 67.4592 194.388 68.2217C194.672 68.9843 194.802 69.7956 194.771 70.6088" stroke="#34374C" stroke-width="1.5" stroke-linecap="round" stroke-linejoin="round"/>
<path d="M190.928 76.787L190.091 70.617C189.84 70.4839 189.572 70.384 189.295 70.3198C188.796 70.2072 188.28 70.1817 187.772 70.2444C187.395 70.2851 187.024 70.368 186.667 70.4914L185.599 77.0549" stroke="#34374C" stroke-width="1.5" stroke-linecap="round" stroke-linejoin="round"/>
<path d="M186.227 73.0489C183.862 72.5466 182.213 71.4206 182.259 70.1732C182.317 68.5616 185.164 67.3644 188.617 67.49C192.071 67.6156 194.808 69.0388 194.766 70.6336C194.72 71.9354 193.301 72.9736 190.748 73.2498" stroke="#34374C" stroke-width="1.5" stroke-linecap="round" stroke-linejoin="round"/>
<path d="M166.901 105.457H162.966C162.804 105.689 162.672 105.941 162.573 106.206C162.401 106.69 162.314 107.199 162.313 107.713C162.303 108.092 162.339 108.472 162.418 108.843L166.52 110.028" stroke="#34374C" stroke-width="1.5" stroke-linecap="round" stroke-linejoin="round"/>
<path d="M164.858 109.555C164.347 111.287 163.46 112.451 162.572 112.359C161.392 112.234 160.341 109.889 160.626 107.164C160.91 104.439 162.43 102.371 163.614 102.493C164.452 102.585 165.08 103.422 165.247 105.13" stroke="#34374C" stroke-width="1.5" stroke-linecap="round" stroke-linejoin="round"/>
<path d="M169.743 113.682L168.487 113.477C167.148 113.334 166.323 110.71 166.65 107.617C166.721 106.926 166.901 105.448 167.399 104.879" stroke="#34374C" stroke-width="1.5" stroke-linecap="round" stroke-linejoin="round"/>
<path d="M163.614 102.493L160.023 102.656C158.968 102.543 157.93 104.422 157.654 106.842C157.377 109.261 158.039 111.329 159.098 111.446L162.572 112.351" stroke="#34374C" stroke-width="1.5" stroke-linecap="round" stroke-linejoin="round"/>
<path d="M155.255 105.013C156.174 104.862 157.11 104.839 158.035 104.946" stroke="#34374C" stroke-width="1.5" stroke-linecap="round" stroke-linejoin="round"/>
<path d="M157.637 108.726C156.833 108.647 156.041 108.474 155.276 108.211" stroke="#34374C" stroke-width="1.5" stroke-linecap="round" stroke-linejoin="round"/>
<path d="M225.114 106.235C225.114 106.235 231.929 105.004 236.194 107.805" stroke="#34374C" stroke-width="1.5" stroke-linecap="round" stroke-linejoin="round"/>
<path d="M235.898 109.136C235.862 109.609 235.967 110.082 236.2 110.495C236.433 110.909 236.783 111.244 237.207 111.458C237.63 111.672 238.108 111.756 238.579 111.698C239.05 111.641 239.493 111.445 239.853 111.136C240.213 110.827 240.473 110.418 240.6 109.96C240.727 109.503 240.716 109.019 240.568 108.568C240.419 108.117 240.141 107.72 239.767 107.428C239.393 107.136 238.941 106.961 238.468 106.926C237.834 106.878 237.207 107.084 236.725 107.499C236.243 107.913 235.946 108.502 235.898 109.136Z" stroke="#34374C" stroke-width="1.5" stroke-linecap="round" stroke-linejoin="round"/>
<path d="M208.232 100.852L203.98 101.22C202.037 101.338 200.631 104.448 200.878 108.165C201.125 111.882 202.866 114.8 204.804 114.678L208.961 114.331" stroke="#34374C" stroke-width="1.5" stroke-linecap="round" stroke-linejoin="round"/>
<path d="M213.591 109.337L210.242 110.141C209.367 110.195 208.63 109.224 208.526 107.554C208.421 105.884 209.099 104.829 209.974 104.774L213.273 104.825" stroke="#34374C" stroke-width="1.5" stroke-linecap="round" stroke-linejoin="round"/>
<path d="M211.891 109.73C211.813 110.479 211.66 111.218 211.435 111.936C211.071 113.067 209.995 114.255 208.961 114.318C207.019 114.44 205.26 111.522 205.034 107.805C204.808 104.088 206.194 100.978 208.136 100.86C209.166 100.798 210.15 101.593 210.878 102.916C211.186 103.46 211.414 104.044 211.556 104.653" stroke="#34374C" stroke-width="1.5" stroke-linecap="round" stroke-linejoin="round"/>
<path d="M221.942 104.548L220.364 104.716C219.866 104.745 219.527 105.553 219.568 106.495C219.61 107.437 220.079 108.198 220.577 108.169L222.13 108.006C222.13 108.006 226.417 107.516 226.237 106.089C226.057 104.661 221.942 104.548 221.942 104.548Z" stroke="#34374C" stroke-width="1.5" stroke-linecap="round" stroke-linejoin="round"/>
<path d="M219.263 101.635L215.834 101.522C214.327 101.614 213.252 104.034 213.428 106.909C213.603 109.785 214.968 112.054 216.475 111.962L219.614 111.33" stroke="#34374C" stroke-width="1.5" stroke-linecap="round" stroke-linejoin="round"/>
<path d="M222.335 107.998C222.444 109.044 221.846 111.38 219.656 111.271C217.982 111.187 217.48 108.421 217.329 107.01C217.166 105.415 217.287 102.937 218.744 101.886C220.343 100.739 221.599 102.945 222.017 104.201C222.059 104.331 222.097 104.465 222.13 104.595" stroke="#34374C" stroke-width="1.5" stroke-linecap="round" stroke-linejoin="round"/>
<path d="M170.388 110.546L169.58 115.41" stroke="#34374C" stroke-width="1.5" stroke-linecap="round" stroke-linejoin="round"/>
<path d="M204.47 101.057L202.184 84.527C202.184 82.3043 196.274 80.4876 188.626 80.4541C180.978 80.4206 174.498 82.1745 174.49 84.3972L171.979 99.9982" stroke="#34374C" stroke-width="1.5" stroke-linecap="round" stroke-linejoin="round"/>
<path d="M194.662 80.8309L194.373 78.7379C194.373 77.7417 191.727 76.9296 188.303 76.9129C184.879 76.8961 181.983 77.6831 181.978 78.6793L181.644 80.8602" stroke="#34374C" stroke-width="1.5" stroke-linecap="round" stroke-linejoin="round"/>
<path d="M191.15 106.57C191.105 106.948 190.949 107.303 190.701 107.592C190.454 107.881 190.127 108.09 189.76 108.192C189.394 108.295 189.006 108.287 188.645 108.168C188.283 108.05 187.965 107.827 187.73 107.528C187.496 107.229 187.355 106.867 187.326 106.488C187.298 106.108 187.382 105.729 187.569 105.398C187.756 105.067 188.037 104.799 188.376 104.627C188.715 104.456 189.098 104.389 189.476 104.435C189.98 104.497 190.44 104.756 190.754 105.157C191.068 105.557 191.21 106.065 191.15 106.57Z" fill="#34374C"/>
<path d="M182.669 101.346C180.94 99.3156 177.089 99.1984 172.355 99.9435C170.325 100.262 167.378 101.12 167.198 103.175C166.905 106.566 170.873 109.069 172.376 110.082C177.186 113.317 180.673 112.564 182.565 110.036" stroke="#34374C" stroke-width="1.5" stroke-linecap="round" stroke-linejoin="round"/>
<path d="M182.104 112.573C181.31 113.396 180.267 113.936 179.136 114.109C176.093 114.44 174.381 113.016 170.928 110.898C170.162 110.429 168.973 109.148 169.71 108.424" stroke="#34374C" stroke-width="1.5" stroke-linecap="round" stroke-linejoin="round"/>
<path d="M179.492 106.071C179.457 106.402 179.324 106.715 179.11 106.97C178.896 107.225 178.611 107.411 178.291 107.503C177.971 107.595 177.631 107.59 177.314 107.488C176.997 107.386 176.718 107.192 176.512 106.931C176.306 106.669 176.183 106.352 176.158 106.02C176.133 105.688 176.207 105.357 176.371 105.067C176.536 104.778 176.783 104.544 177.08 104.395C177.378 104.247 177.714 104.191 178.044 104.234C178.26 104.259 178.469 104.326 178.659 104.432C178.849 104.538 179.016 104.681 179.15 104.851C179.285 105.022 179.384 105.218 179.443 105.427C179.502 105.637 179.518 105.856 179.492 106.071Z" fill="#34374C"/>
<path d="M186.591 113.384C189.484 114.188 193.728 110.563 193.728 110.563C200.426 106.072 197.914 102.535 196.524 100.642C195.135 98.7504 190.769 91.1655 184.507 98.2439C182.832 100.14 181.736 103.267 181.681 106.038C181.639 108.123 182.456 112.229 186.591 113.384Z" stroke="#34374C" stroke-width="1.5" stroke-linecap="round" stroke-linejoin="round"/>
<path d="M182.56 110.036C182.104 111.292 180.966 114.167 186.533 115.377C191.305 116.415 196.931 111.773 196.931 107.863" stroke="#34374C" stroke-width="1.5" stroke-linecap="round" stroke-linejoin="round"/>
<path d="M185.905 92.2916L185.976 89.1772C185.976 89.1772 195.323 89.3907 199.233 94.2004C195.122 92.5469 191.51 91.919 185.905 92.2916Z" fill="#34374C"/>
<path d="M181.895 94.3471L181.828 91.417C181.828 91.417 173.037 91.6179 169.383 96.1136C173.242 94.5732 176.633 93.9955 181.895 94.3471Z" fill="#34374C"/>
<path d="M223.649 205.583C223.792 206.249 223.926 206.973 224.022 207.714" stroke="#34374C" stroke-width="1.5" stroke-linecap="round" stroke-linejoin="round"/>
<path d="M234.634 204.684C234.709 205.198 234.78 205.697 234.847 206.174C235.839 213.018 233.118 217.606 227.563 217.606" stroke="#34374C" stroke-width="1.5" stroke-linecap="round" stroke-linejoin="round"/>
<path d="M186.679 198.497C192.799 200.452 196.901 204.286 196.437 208.167C196.244 209.807 195.26 211.247 193.707 212.399" stroke="#34374C" stroke-width="1.5" stroke-linecap="round" stroke-linejoin="round"/>
<path d="M144.397 206.178C144.075 207.601 143.141 208.857 141.756 209.887" stroke="#34374C" stroke-width="1.5" stroke-linecap="round" stroke-linejoin="round"/>
<path d="M134.728 195.985C137.716 196.94 140.224 198.342 141.952 199.979" stroke="#34374C" stroke-width="1.5" stroke-linecap="round" stroke-linejoin="round"/>
<path d="M223.474 208.079C223.474 208.079 224.235 206.915 227.559 208.041" stroke="#34374C" stroke-width="1.5" stroke-linecap="round" stroke-linejoin="round"/>
<path d="M160.555 206.689C160.555 206.689 159.998 210.226 157.98 210.327" stroke="#34374C" stroke-width="1.5" stroke-linecap="round" stroke-linejoin="round"/>
<path d="M179.433 201.486C178.491 205.466 175.247 208.916 172.945 208.987C171.927 209.039 170.926 208.705 170.144 208.052C169.362 207.398 168.855 206.473 168.725 205.462C168.483 203.507 169.877 202.812 172.317 199.007C174.757 195.202 176.227 193.984 178.805 193.984C181.384 193.984 184.946 196.391 187.667 200.196C187.667 200.196 190.245 204.01 195.884 205.115" stroke="#34374C" stroke-width="1.5" stroke-linecap="round" stroke-linejoin="round"/>
<path d="M185.411 211.93C186.311 211.633 187.123 211.118 187.776 210.431" stroke="#34374C" stroke-width="1.5" stroke-linecap="round" stroke-linejoin="round"/>
<path d="M175.092 208.154C175.092 208.154 176.649 210.247 180.593 211.657" stroke="#34374C" stroke-width="1.5" stroke-linecap="round" stroke-linejoin="round"/>
<path d="M181.564 204.416C181.564 204.416 179.367 204.47 178.58 203.868" stroke="#34374C" stroke-width="1.5" stroke-linecap="round" stroke-linejoin="round"/>
<path d="M170.245 211.075C170.852 210.43 171.297 209.649 171.543 208.798" stroke="#34374C" stroke-width="1.5" stroke-linecap="round" stroke-linejoin="round"/>
<path d="M177.299 194.165C177.299 194.165 176.227 192.519 172.736 192.591C169.245 192.662 166.457 194.127 165.586 198.103C164.716 202.08 164.82 204.554 164.088 206.999C163.714 208.199 163.614 209.468 163.795 210.711" stroke="#34374C" stroke-width="1.5" stroke-linecap="round" stroke-linejoin="round"/>
<path d="M167.57 194.374C167.57 194.374 166.423 193.042 163.841 193.009C161.258 192.975 158.889 194.231 156.972 197.09C155.054 199.949 153.167 202.256 153.271 204.416C153.376 206.576 154.46 207.731 156.168 207.974C157.876 208.216 160.772 205.809 161.61 204.591C162.447 203.373 163.92 201 164.929 201.975" stroke="#34374C" stroke-width="1.5" stroke-linecap="round" stroke-linejoin="round"/>
<path d="M124.64 210.046C123.154 209.339 121.622 207.832 121.124 206.438C120.333 204.207 118.679 197.945 121.413 194.78C124.146 191.616 127.461 188.803 129.044 188.949C130.626 189.096 132.137 191.398 133.288 193.843C133.996 195.336 134.918 196.718 136.026 197.945C136.026 197.945 138.186 200.322 139.839 200.456C141.492 200.59 142.288 198.945 144.23 200.745C146.172 202.545 145.239 207.941 140.99 207.799C136.741 207.656 134.079 204.127 133.288 204.056C132.497 203.985 128.566 207.221 128.566 207.221" stroke="#34374C" stroke-width="1.5" stroke-linecap="round" stroke-linejoin="round"/>
<path d="M126.021 197.514C129.663 204.667 128.818 208.782 127.332 210.042" stroke="#34374C" stroke-width="1.5" stroke-linecap="round" stroke-linejoin="round"/>
<path d="M127.039 199.698C127.039 199.698 129.186 198.162 129.906 197.731" stroke="#34374C" stroke-width="1.5" stroke-linecap="round" stroke-linejoin="round"/>
<path d="M125.808 190.506C125.808 190.506 118.692 186.5 115.297 188.371C111.902 190.242 112.919 198.953 115.297 203.127C117.675 207.3 120.487 209.242 121.597 207.371" stroke="#34374C" stroke-width="1.5" stroke-linecap="round" stroke-linejoin="round"/>
<path d="M120.479 192.98C120.479 192.98 121.668 194.01 121.806 194.328" stroke="#34374C" stroke-width="1.5" stroke-linecap="round" stroke-linejoin="round"/>
<path d="M113.89 189.958C113.89 189.958 113.053 189.539 111.659 191.159C110.058 192.993 108.815 195.112 107.997 197.405C107.055 200.054 106.532 204.069 108.311 205.496C110.09 206.923 114.096 203.152 114.64 201.779" stroke="#34374C" stroke-width="1.5" stroke-linecap="round" stroke-linejoin="round"/>
<path d="M129.927 206.166C129.927 206.166 130.689 207.049 132.991 207.141C135.293 207.233 136.587 206.38 136.587 206.38" stroke="#34374C" stroke-width="1.5" stroke-linecap="round" stroke-linejoin="round"/>
<path d="M81.9223 178.848H148.596C150.36 178.839 152.05 178.135 153.298 176.887C154.546 175.639 155.251 173.949 155.26 172.184V91.915C155.251 90.1503 154.546 88.4604 153.298 87.2125C152.05 85.9647 150.36 85.2598 148.596 85.251H7.97796C6.21327 85.2598 4.52337 85.9647 3.27553 87.2125C2.02769 88.4604 1.32277 90.1503 1.31396 91.915V172.184C1.32277 173.949 2.02769 175.639 3.27553 176.887C4.52337 178.135 6.21327 178.839 7.97796 178.848H50.8837" stroke="#34374C" stroke-width="1.5" stroke-linecap="round" stroke-linejoin="round"/>
<path d="M140.81 178.848C142.575 178.839 144.265 178.135 145.512 176.887C146.76 175.639 147.465 173.949 147.474 172.184V91.915C147.465 90.1503 146.76 88.4604 145.512 87.2125C144.265 85.9647 142.575 85.2598 140.81 85.251" stroke="#34374C" stroke-width="1.5" stroke-linecap="round" stroke-linejoin="round"/>
<path d="M81.9222 166.617H101.491C102.614 166.615 103.691 166.169 104.486 165.376C105.281 164.583 105.73 163.508 105.736 162.385V111.271C105.733 110.146 105.284 109.069 104.489 108.273C103.694 107.478 102.616 107.03 101.491 107.026H38.7444C37.6175 107.026 36.5366 107.473 35.7386 108.269C34.9406 109.064 34.4906 110.144 34.4873 111.271V162.385C34.4906 163.51 34.939 164.587 35.7344 165.381C36.5298 166.176 37.6075 166.623 38.7318 166.626H50.871" stroke="#34374C" stroke-width="1.5" stroke-linecap="round" stroke-linejoin="round"/>
<path d="M96.8579 166.617C97.9786 166.612 99.0518 166.164 99.8443 165.372C100.637 164.579 101.084 163.506 101.09 162.385V111.271C101.088 110.148 100.642 109.072 99.8487 108.276C99.0559 107.481 97.9808 107.032 96.8579 107.026" stroke="#34374C" stroke-width="1.5" stroke-linecap="round" stroke-linejoin="round"/>
<path d="M50.8838 213.035V118.809C50.8871 118.067 51.1836 117.355 51.7089 116.83C52.2341 116.305 52.9456 116.008 53.6884 116.005H76.3468C77.0899 116.007 77.802 116.303 78.3275 116.829C78.8529 117.354 79.1491 118.066 79.1513 118.809V213.035" stroke="#34374C" stroke-width="1.5" stroke-linecap="round" stroke-linejoin="round"/>
<path d="M56.4636 116.005H79.122C79.8644 116.008 80.5754 116.305 81.1 116.83C81.6246 117.356 81.9202 118.067 81.9224 118.809V213.035" stroke="#34374C" stroke-width="1.5" stroke-linecap="round" stroke-linejoin="round"/>
<path d="M107.892 213.018H13.7671V217.61H107.892V213.018Z" stroke="#34374C" stroke-width="1.5" stroke-linecap="round" stroke-linejoin="round"/>
<path d="M107.687 217.606H195.089V212.474L151.995 210.046H81.918" stroke="#34374C" stroke-width="1.5" stroke-linecap="round" stroke-linejoin="round"/>
<path d="M191.548 147.106C194.114 147.688 205.659 147.847 214.256 151.857C228.723 158.609 232.34 178.174 232.34 178.174" stroke="#34374C" stroke-width="1.5" stroke-linecap="round" stroke-linejoin="round"/>
<path d="M211.347 185.696C212.147 187.174 212.879 188.572 213.407 189.635C215.412 193.679 218.53 205.023 219.405 206.078" stroke="#34374C" stroke-width="1.5" stroke-linecap="round" stroke-linejoin="round"/>
<path d="M230.255 174.051C230.255 174.051 231.833 177.5 233.39 180.632C233.39 180.632 239.343 194.169 240.017 202.478C240.017 202.478 235.701 204.902 230.996 205.45C227.287 205.868 218.702 205.165 219.405 206.078C220.108 206.99 223.825 206.475 223.825 206.475" stroke="#34374C" stroke-width="1.5" stroke-linecap="round" stroke-linejoin="round"/>
<path d="M161.346 204.935C161.267 206.224 161.154 207.338 161.011 208.192C160.886 208.945 160.748 209.732 160.593 210.532" stroke="#34374C" stroke-width="1.5" stroke-linecap="round" stroke-linejoin="round"/>
<path d="M159.584 179.815C159.584 179.815 159.308 178.559 160.471 184.587C160.958 187.503 161.255 190.448 161.359 193.403" stroke="#34374C" stroke-width="1.5" stroke-linecap="round" stroke-linejoin="round"/>
<path d="M155.26 164.654C156.264 160.886 158.964 156.089 162.43 153.9C170.384 148.877 181.819 147.282 181.819 147.282" stroke="#34374C" stroke-width="1.5" stroke-linecap="round" stroke-linejoin="round"/>
<path d="M150.94 185.408C150.68 183.776 150.248 182.176 149.651 180.636C149.396 180.055 149.178 179.46 148.998 178.853" stroke="#34374C" stroke-width="1.5" stroke-linecap="round" stroke-linejoin="round"/>
<path d="M155.188 182.942C155.188 182.942 157.554 190.293 160.902 193.591" stroke="#34374C" stroke-width="1.5" stroke-linecap="round" stroke-linejoin="round"/>
<path d="M159.609 206.546C160.124 206.634 160.651 206.705 161.195 206.768" stroke="#34374C" stroke-width="1.5" stroke-linecap="round" stroke-linejoin="round"/>
<path d="M149.651 180.632C149.651 180.632 147.976 186.074 146.181 188.137C144.385 190.201 142.769 195.086 142.769 195.086C142.769 195.086 145.59 201.197 153.267 204.651" stroke="#34374C" stroke-width="1.5" stroke-linecap="round" stroke-linejoin="round"/>
<path d="M205.068 114.666C205.068 114.666 205.42 116.88 204.976 117.064C205.111 117.146 205.22 117.265 205.29 117.406C205.361 117.548 205.39 117.706 205.374 117.864C205.324 118.232 204.499 118.429 204.499 118.429C204.499 118.429 204.784 119.065 204.311 119.211C204.311 119.211 204.21 120.028 203.988 120.074C203.766 120.12 204.227 120.635 203.913 121.095C203.913 121.095 203.025 120.831 202.569 121.321C202.569 121.321 203.268 121.673 202.695 122.096C202.121 122.518 201.812 122.313 201.812 122.313C201.812 122.313 201.272 123.381 200.346 123.372C199.421 123.364 198.48 122.213 198.459 121.669L197.5 121.539C197.775 121.301 198.08 121.101 198.408 120.944L197.571 120.739L197.776 120.413C197.362 120.338 196.938 120.328 196.521 120.384L196.906 119.806C196.447 119.74 195.982 119.728 195.52 119.768C195.127 119.484 194.664 119.311 194.181 119.27C193.755 119.287 193.332 119.358 192.925 119.484L193.063 118.952C193.063 118.952 190.878 118.533 189.781 119.5C189.781 119.5 187.81 119.5 187.211 120.258C186.756 120.056 186.26 119.966 185.763 119.994C184.926 120.032 184.783 120.124 184.189 119.994C183.594 119.864 183.134 119.86 182.874 120.103C182.615 120.346 182.372 120.103 182.104 119.906C181.96 119.824 181.792 119.79 181.627 119.81C181.462 119.831 181.308 119.904 181.187 120.019C180.97 120.245 180.543 120.019 180.321 119.756C180.208 119.576 180.04 119.438 179.843 119.363C179.645 119.287 179.428 119.278 179.224 119.337C178.592 119.454 178.182 119.567 177.571 119.098C177.3 118.864 176.982 118.691 176.638 118.59C176.294 118.489 175.933 118.462 175.578 118.512C174.883 118.642 174.641 118.705 174.641 118.705L174.779 118.977C174.779 118.977 174.473 119.316 174.201 119.178C173.8 118.925 173.323 118.819 172.853 118.881C172.305 118.998 171.836 119.35 171.618 119.274C171.401 119.199 171.957 119.58 171.941 119.839C171.924 120.099 171.376 120.141 171.229 120.471C171.083 120.802 170.183 120.078 170.183 120.078L169.764 119.986C169.757 119.875 169.784 119.765 169.843 119.672C169.901 119.578 169.988 119.505 170.091 119.463C169.992 119.362 169.931 119.232 169.916 119.092C169.901 118.952 169.933 118.812 170.007 118.692C170.007 118.692 169.86 118.219 170.032 116.662L169.458 117.378L169.584 115.373" stroke="#34374C" stroke-width="1.5" stroke-linecap="round" stroke-linejoin="round"/>
<path d="M197.483 142.67C197.243 142.903 196.932 143.05 196.6 143.088C196.109 143.228 195.648 143.459 195.244 143.77L194.766 143.009C193.979 143.726 193.061 144.286 192.062 144.658C191.151 144.946 190.177 144.969 189.254 144.725C189.254 144.725 189.187 145.043 188.458 145.374C187.73 145.704 187.027 144.955 186.102 144.742C185.8 144.692 185.492 144.706 185.197 144.784C184.902 144.862 184.627 145.002 184.389 145.194L184.306 144.495C184.306 144.495 182.715 145.039 182.401 144.859C182.087 144.679 181.656 144.834 181.225 145.118C180.794 145.403 180.145 145.537 180.346 145.307C180.529 144.952 180.654 144.571 180.718 144.177L179.597 144.905C179.597 144.905 179.178 144.44 179.111 144.486C179.044 144.532 177.232 145.148 177.232 145.148L177.366 143.892C177.366 143.892 176.83 144.13 176.599 143.967C176.534 143.925 176.478 143.869 176.435 143.805C176.392 143.74 176.362 143.667 176.348 143.591C175.781 143.815 175.151 143.818 174.582 143.599C174.013 143.38 173.547 142.956 173.276 142.41C173.276 142.41 172.962 142.741 171.652 142.289C170.342 141.837 170.681 141.033 170.681 141.033C170.404 141.345 170.094 141.626 169.756 141.87C169.756 141.87 169.756 141.736 169.571 141.062C169.476 140.596 169.466 140.117 169.542 139.647C169.424 139.769 169.29 139.875 169.144 139.961C168.923 140.087 168.203 139.739 167.612 138.994C167.425 138.745 167.296 138.457 167.235 138.151C167.173 137.846 167.181 137.53 167.257 137.228C167.277 136.922 166.809 136.34 166.809 136.34L166.737 136.675C166.663 136.539 166.616 136.389 166.6 136.235C166.583 136.081 166.597 135.924 166.641 135.775C166.717 135.407 166.684 135.024 166.545 134.674L166.482 134.972C165.963 134.289 166.172 132.485 166.172 132.485L165.754 132.791C165.754 132.791 165.599 132.586 166.009 131.175C166.244 130.346 166.561 129.543 166.955 128.777L166.537 128.86C166.323 128.509 166.8 127.604 166.8 127.604C166.616 127.634 166.202 127.722 166.202 127.722C166.408 127.247 166.672 126.8 166.989 126.391C167.466 125.809 167.713 123.904 167.713 123.904L167.294 123.992C167.333 123.466 167.443 122.948 167.621 122.452L167.131 122.678C167.217 122.045 167.406 121.432 167.692 120.861C167.914 120.512 168.083 120.133 168.194 119.735L167.671 119.521C167.671 119.521 169.094 116.076 169.592 115.356" stroke="#34374C" stroke-width="1.5" stroke-linecap="round" stroke-linejoin="round"/>
<path d="M196.968 143.025C196.968 143.025 196.671 143.8 196.838 144.164C197.171 143.807 197.548 143.495 197.96 143.235C198.617 142.816 199.53 143.833 200.225 143.143C200.92 142.452 200.694 142.912 201.213 142.54C201.732 142.167 201.987 142.121 202.05 141.728C202.113 141.334 201.941 140.891 202.255 140.761" stroke="#34374C" stroke-width="1.5" stroke-linecap="round" stroke-linejoin="round"/>
<path d="M202.272 140.761C202.272 140.761 204.834 140.066 204.675 139.769C204.516 139.471 204.758 138.86 204.758 138.86C205.482 138.921 206.207 138.776 206.851 138.442C207.739 137.902 207.174 137.454 207.174 137.454L207.86 137.424L207.634 136.935L208.773 137.177C208.773 137.177 208.421 136.859 208.162 135.595C207.902 134.331 209.505 133.921 209.505 133.921C209.505 133.921 209.003 133.791 208.982 133.389C208.961 132.987 210.028 133.105 210.028 133.105C210.028 133.105 208.672 132.753 209.053 131.074C209.2 130.325 209.406 129.589 209.669 128.873L208.471 128.705C208.829 128.34 209.079 127.882 209.191 127.382C209.091 127.409 208.986 127.411 208.884 127.39C208.782 127.369 208.687 127.325 208.605 127.261L208.748 126.424C208.748 126.424 207.789 125.528 207.718 125.001H208.337L208.019 124.071L207.659 123.456H208.203C208.098 122.86 207.889 122.286 207.588 121.761C207.476 121.626 207.419 121.454 207.429 121.279C207.44 121.104 207.516 120.94 207.643 120.819C207.643 120.819 207.961 120.321 207.588 120.003C207.339 119.758 207.151 119.459 207.04 119.128L206.274 114.666" stroke="#34374C" stroke-width="1.5" stroke-linecap="round" stroke-linejoin="round"/>
<path d="M181.819 148.119V144.842" stroke="#34374C" stroke-width="1.5" stroke-linecap="round" stroke-linejoin="round"/>
<path d="M191.547 144.809V148.12" stroke="#34374C" stroke-width="1.5" stroke-linecap="round" stroke-linejoin="round"/>
<path d="M191.548 148.12C191.548 148.752 189.371 149.681 186.684 149.681C183.996 149.681 181.832 148.752 181.832 148.12" stroke="#34374C" stroke-width="1.5" stroke-linecap="round" stroke-linejoin="round"/>
<path d="M178.282 147.952C178.282 147.952 177.864 153.976 185.005 155.093C192.498 156.266 197.483 147.768 197.483 147.768" stroke="#34374C" stroke-width="1.5" stroke-linecap="round" stroke-linejoin="round"/>
<path d="M175.892 148.609C175.892 148.609 175.348 156.395 184.574 157.839C194.256 159.35 200.769 148.211 200.769 148.211" stroke="#34374C" stroke-width="1.5" stroke-linecap="round" stroke-linejoin="round"/>
<path d="M178.994 121.392C178.994 121.392 179.362 122.229 179.551 122.229C179.739 122.229 180.057 121.392 180.057 121.392C180.016 121.564 180.04 121.746 180.127 121.901C180.213 122.056 180.354 122.173 180.522 122.229C181.125 122.418 180.614 122.183 181.125 122.418C181.635 122.652 181.774 121.907 181.774 121.907C181.92 122.152 182.114 122.364 182.345 122.531C182.576 122.698 182.839 122.816 183.117 122.878C183.954 122.974 185.482 123.154 185.855 122.878C186.206 122.682 186.61 122.601 187.01 122.648C187.245 122.648 186.642 121.861 187.383 121.907C188.124 121.953 190.011 122.326 190.652 122.208" stroke="#34374C" stroke-width="1.5" stroke-linecap="round" stroke-linejoin="round"/>
<path d="M179.551 122.225C179.551 122.225 178.253 121.718 177.604 122.225C177.04 122.588 176.41 122.838 175.75 122.962L176.21 122.459C175.706 122.361 175.187 122.361 174.683 122.459C174.27 122.603 173.891 122.83 173.569 123.125L173.85 122.288L172.874 122.87V122.288L172.133 122.614L171.807 122.007C171.464 122.361 171.169 122.758 170.928 123.188C170.765 123.6 170.493 123.961 170.141 124.23C169.865 124.418 169.722 125.662 169.722 126.218C169.722 126.775 169.304 126.959 169.396 127.474C169.488 127.989 169.676 129.148 169.676 129.148L168.981 128.73C168.981 128.73 168.889 130.3 169.35 130.856H168.609C168.511 131.363 168.592 131.889 168.839 132.342C169.258 133.129 169.584 133.82 169.584 134.285C169.584 134.749 169.584 135.54 169.906 135.54C170.134 135.52 170.347 135.421 170.509 135.26C170.509 135.26 170.233 135.817 170.555 136.047C170.668 136.111 170.796 136.145 170.926 136.145C171.056 136.145 171.183 136.111 171.296 136.047C171.296 136.047 171.02 136.838 171.438 137.16C171.721 137.363 172.058 137.477 172.405 137.487C172.379 137.541 172.366 137.602 172.37 137.662C172.373 137.723 172.393 137.781 172.425 137.832C172.458 137.883 172.504 137.925 172.557 137.953C172.611 137.981 172.671 137.995 172.732 137.993C172.907 137.989 173.08 137.945 173.236 137.866C173.393 137.786 173.529 137.672 173.636 137.533C173.636 137.533 173.427 138.458 174.214 138.789C175.001 139.119 175.469 139.019 175.838 139.157C176.206 139.295 176.809 139.019 177.32 138.927C177.83 138.835 178.479 138.835 178.663 138.416C178.847 137.997 178.391 138.182 178.529 137.947C178.667 137.713 179.224 137.805 179.086 137.483C178.948 137.16 178.529 137.24 178.529 137.24C178.529 137.24 178.253 136.871 178.529 136.871C178.806 136.871 178.81 136.687 178.81 136.687C178.81 136.687 179.362 136.779 179.505 136.361C179.647 135.942 179.505 136.038 179.505 136.038C179.812 136.194 180.139 136.308 180.476 136.378C180.811 136.398 181.142 136.293 181.405 136.085C181.405 136.085 181.313 136.177 181.773 136.453C181.886 136.535 182.016 136.59 182.153 136.614C182.29 136.638 182.431 136.63 182.565 136.591C182.565 136.591 182.146 136.591 182.146 137.194C182.146 137.797 182.636 137.474 182.636 137.474C182.576 137.469 182.516 137.476 182.459 137.494C182.402 137.513 182.349 137.542 182.303 137.581C182.258 137.62 182.22 137.668 182.193 137.721C182.166 137.775 182.15 137.833 182.146 137.893C182.134 137.948 182.134 138.006 182.146 138.061C182.159 138.117 182.184 138.169 182.219 138.213C182.254 138.258 182.299 138.294 182.35 138.319C182.401 138.344 182.458 138.357 182.514 138.357C182.514 138.357 182.464 137.851 182.464 138.454C182.462 138.621 182.515 138.783 182.616 138.916C182.717 139.049 182.859 139.144 183.021 139.186C183.021 139.186 182.745 139.429 183.301 139.567C183.858 139.705 184.829 139.89 184.829 139.89C184.829 139.89 185.57 139.89 185.666 139.429C185.763 138.969 185.528 140.078 186.085 140.124C186.232 140.127 186.371 140.187 186.475 140.291C186.579 140.394 186.638 140.534 186.642 140.681C186.642 140.681 187.337 140.43 187.383 139.998C187.389 139.904 187.422 139.813 187.479 139.738C187.537 139.662 187.615 139.605 187.704 139.574C187.793 139.543 187.89 139.539 187.982 139.562C188.073 139.585 188.156 139.635 188.22 139.705C188.39 139.934 188.576 140.151 188.777 140.354C188.777 140.354 189.195 139.843 189.517 139.797C189.871 139.685 190.206 139.523 190.514 139.316C191.018 139.028 191.583 138.86 192.163 138.826C192.858 138.872 193.691 138.039 193.691 138.039C193.691 138.039 193.921 138.362 194.804 138.408C195.687 138.454 196.148 137.391 196.148 137.391C196.148 137.391 196.659 137.897 196.985 137.391C197.312 136.884 197.358 137.851 198.006 137.391C198.655 136.93 198.237 136.043 198.006 135.716L197.772 135.39C197.772 135.39 198.053 135.101 197.96 133.832C197.931 133.125 197.689 132.442 197.266 131.873C197.266 131.873 198.283 131.225 198.354 130.576C198.425 129.927 197.726 128.261 197.726 128.261C197.726 128.261 198.107 126.666 198.358 126.679C198.609 126.691 198.006 126.135 197.726 125.812C197.446 125.49 197.726 123.962 197.404 123.636C197.081 123.309 196.198 123.962 196.106 123.636C196.014 123.309 195.687 122.618 195.319 122.618C194.951 122.618 193.971 121.836 193.787 122.158C193.745 122.232 193.689 122.297 193.622 122.348C193.555 122.4 193.478 122.438 193.396 122.459C193.314 122.481 193.229 122.486 193.145 122.473C193.061 122.461 192.98 122.432 192.908 122.388C192.674 122.204 192.025 122.577 192.025 122.577C192.025 122.577 192.025 122.899 191.384 122.669C190.867 122.407 190.419 122.025 190.078 121.555" stroke="#34374C" stroke-width="1.5" stroke-linecap="round" stroke-linejoin="round"/>
<path d="M186.261 198.078C186.261 198.078 200.388 199.778 209.493 203.16C218.317 206.437 224.332 213.537 224.805 216.316C224.888 216.819 224.114 217.245 223.13 217.572" stroke="#34374C" stroke-width="1.5" stroke-linecap="round" stroke-linejoin="round"/>
<path d="M134.309 195.567C134.309 195.567 138.616 196.086 144.008 197.12" stroke="#34374C" stroke-width="1.5" stroke-linecap="round" stroke-linejoin="round"/>
<path d="M217.462 207.547C219.878 207.739 223.574 208.028 225.621 208.459" stroke="#34374C" stroke-width="1.5" stroke-linecap="round" stroke-linejoin="round"/>
<path d="M173.519 125.13L173.858 128.969C173.858 128.969 174.214 129.881 174.306 132.238C174.306 132.632 176.65 134.75 184.059 134.75C189.103 134.75 190.459 134.26 190.459 134.26L193.277 131.087L193.976 127.738L193.934 125.549C193.934 125.549 189.635 126.65 182.368 126.34C175.101 126.03 173.519 125.13 173.519 125.13Z" fill="white"/>
<path opacity="0.3" d="M173.657 126.675C173.657 126.675 177.843 128.387 189.463 127.826C191.175 127.743 191.975 128.609 191.975 130.443C191.975 133.08 189.463 134.042 188.55 134.57C190.141 134 191.62 133.161 192.925 132.088C193.138 131.669 193.896 127.973 193.896 127.973L193.942 125.524L188.283 126.416L179.555 126.16L174.716 125.428L173.515 125.126L173.657 126.675Z" fill="#296F9B"/>
<path d="M195.106 126.466C194.847 125.946 194.436 125.519 193.927 125.239C193.418 124.96 192.836 124.843 192.259 124.904" stroke="#34374C" stroke-width="1.5" stroke-linecap="round" stroke-linejoin="round"/>
<path d="M174.243 128.994C174.72 129.235 175.223 129.42 175.742 129.547C176.269 129.697 176.809 129.819 177.353 129.932C178.437 130.154 179.538 130.325 180.643 130.459C182.857 130.742 185.09 130.842 187.32 130.761C185.091 130.942 182.851 130.942 180.622 130.761C179.505 130.673 178.387 130.555 177.274 130.38C176.717 130.292 176.16 130.195 175.599 130.066C175.023 129.953 174.461 129.775 173.925 129.534C173.888 129.516 173.855 129.491 173.827 129.46C173.8 129.429 173.779 129.393 173.766 129.354C173.752 129.315 173.747 129.273 173.749 129.232C173.752 129.191 173.762 129.15 173.781 129.113C173.799 129.076 173.824 129.043 173.855 129.016C173.886 128.988 173.922 128.967 173.961 128.954C174 128.941 174.041 128.935 174.083 128.938C174.124 128.94 174.164 128.951 174.201 128.969L174.243 128.994Z" fill="#34374C"/>
<path d="M173.519 125.13C173.519 125.13 173.774 127.186 174.021 129.517C174.268 131.849 173.573 133.285 177.755 134.088C181.31 134.722 184.932 134.884 188.53 134.57C189.723 134.456 190.849 133.962 191.742 133.163C192.635 132.363 193.249 131.298 193.494 130.124C193.787 128.607 193.928 127.065 193.913 125.52C191.79 126.319 187.215 126.612 180.451 126.219C177.854 126.111 175.281 125.667 172.799 124.896" stroke="#34374C" stroke-width="1.5" stroke-linecap="round" stroke-linejoin="round"/>
<path d="M216.09 196.739C216.09 197.614 216.119 198.338 216.09 198.987C216.035 201.209 216.245 206.626 216.245 206.626" stroke="#34374C" stroke-width="1.5" stroke-linecap="round" stroke-linejoin="round"/>
<path d="M178.558 173.474C178.634 172.197 177.893 171.138 176.905 171.1C176.54 171.112 176.186 171.232 175.888 171.444C175.59 171.656 175.361 171.952 175.231 172.293C175.142 171.946 174.949 171.634 174.677 171.4C174.405 171.167 174.068 171.022 173.711 170.987C172.723 170.954 171.857 171.929 171.777 173.168C171.627 175.508 174.477 178.275 174.862 178.3C175.247 178.325 178.416 175.897 178.558 173.474Z" fill="#F12E49"/>
<path d="M182.251 178.589C181.923 178.38 181.654 178.092 181.468 177.751L182.41 176.462C182.682 176.99 182.991 177.266 183.339 177.299C183.442 177.31 183.547 177.293 183.641 177.25C183.736 177.207 183.818 177.141 183.879 177.057C184.026 176.819 184.103 176.545 184.101 176.265C184.168 175.01 184.201 174.357 184.272 173.084L182.334 173C182.372 172.36 182.389 172.042 182.422 171.401L185.922 171.523C185.825 173.406 185.775 174.344 185.679 176.224C185.694 176.988 185.46 177.737 185.013 178.358C184.809 178.588 184.551 178.764 184.263 178.871C183.975 178.977 183.664 179.011 183.36 178.97C182.963 178.94 182.581 178.809 182.251 178.589Z" fill="white"/>
<path d="M190.33 177.781L187.956 177.634L187.445 179.066L185.821 178.957C186.968 176.027 187.542 174.57 188.68 171.594L190.237 171.648C191.075 174.716 191.493 176.253 192.351 179.392L190.702 179.283C190.551 178.681 190.48 178.379 190.33 177.781ZM189.944 176.169C189.702 175.185 189.584 174.691 189.342 173.712C189.007 174.666 188.839 175.143 188.504 176.094L189.944 176.169Z" fill="white"/>
<path d="M198.521 171.946C197.429 175.043 196.88 176.58 195.779 179.623L194.214 179.518C193.377 176.366 192.987 174.809 192.175 171.72L193.887 171.778C194.402 173.804 194.658 174.826 195.177 176.877C195.888 174.893 196.244 173.896 196.951 171.887L198.521 171.946Z" fill="white"/>
<path d="M202.146 178.497L199.773 178.35L199.271 179.853L197.646 179.744C198.772 176.684 199.321 175.14 200.451 172.013L202.008 172.067C202.875 175.282 203.306 176.906 204.177 180.179L202.527 180.071C202.372 179.439 202.297 179.129 202.146 178.497ZM201.749 176.822C201.502 175.788 201.376 175.274 201.129 174.248C200.803 175.248 200.635 175.751 200.292 176.76L201.749 176.822Z" fill="white"/>
<path d="M167.181 170.828L168.763 170.883C168.575 173.645 168.483 175.027 168.299 177.789L166.708 177.685C166.888 174.943 166.984 173.57 167.181 170.828Z" fill="white"/>
<path d="M218.25 203.294C218.25 203.294 221.678 202.323 224.796 202.549C227.915 202.775 233.223 201.683 233.223 201.683" stroke="#34374C" stroke-width="1.5" stroke-linecap="round" stroke-linejoin="round"/>
<path d="M235.357 201.034C235.357 201.034 238.706 199.928 239.602 199.493" stroke="#34374C" stroke-width="1.5" stroke-linecap="round" stroke-linejoin="round"/>
<path d="M144.008 191.896C144.008 191.896 148.29 199.288 154.1 201.485" stroke="#34374C" stroke-width="1.5" stroke-linecap="round" stroke-linejoin="round"/>
<path d="M167.181 136.922H166.194C162.615 136.922 161.02 137.341 159.429 139.71C157.838 142.079 158.215 146.06 158.215 146.06L158.244 158.153" stroke="#34374C" stroke-width="1.5" stroke-linecap="round" stroke-linejoin="round"/>
<path d="M236.609 188.886C237.308 169.3 238.099 145.926 237.986 143.092C237.79 138.12 233.013 136.922 233.013 136.922H208.593" stroke="#34374C" stroke-width="1.5" stroke-linecap="round" stroke-linejoin="round"/>
<path d="M195.089 217.606L235.6 217.58C235.6 217.58 235.784 211.44 236.052 204.223" stroke="#34374C" stroke-width="1.5" stroke-linecap="round" stroke-linejoin="round"/>
<path d="M226.822 163.959C227.128 154.888 227.379 147.312 227.442 144.683C227.643 136.524 233.013 136.922 233.013 136.922" stroke="#34374C" stroke-width="1.5" stroke-linecap="round" stroke-linejoin="round"/>
<path d="M136.758 45.1791C136.858 45.1796 136.956 45.1602 137.048 45.1221C137.14 45.084 137.224 45.028 137.294 44.9573L140.722 41.529C140.793 41.4589 140.849 41.3755 140.888 41.2835C140.926 41.1915 140.946 41.0929 140.946 40.9932C140.946 40.8935 140.926 40.7949 140.888 40.7029C140.849 40.6109 140.793 40.5275 140.722 40.4574L137.29 37.0249C137.147 36.8838 136.954 36.8047 136.754 36.8047C136.553 36.8047 136.361 36.8838 136.218 37.0249C136.077 37.1669 135.998 37.3587 135.998 37.5586C135.998 37.7586 136.077 37.9504 136.218 38.0923L139.136 40.9932L136.205 43.894C136.101 44.0014 136.031 44.1373 136.004 44.2844C135.977 44.4315 135.994 44.5834 136.053 44.7208C136.112 44.8582 136.211 44.9751 136.336 45.0567C136.462 45.1382 136.608 45.1808 136.758 45.1791Z" fill="#00D5C1"/>
<path d="M128.122 45.179C128.221 45.1798 128.319 45.1606 128.411 45.1225C128.502 45.0844 128.585 45.0281 128.654 44.9571C128.725 44.8874 128.781 44.8043 128.819 44.7127C128.857 44.6211 128.877 44.5227 128.877 44.4234C128.877 44.3241 128.857 44.2257 128.819 44.1341C128.781 44.0425 128.725 43.9594 128.654 43.8897L125.74 40.993L128.671 38.0964C128.741 38.0267 128.798 37.9436 128.836 37.852C128.874 37.7603 128.894 37.662 128.894 37.5627C128.894 37.4633 128.874 37.365 128.836 37.2734C128.798 37.1818 128.741 37.0987 128.671 37.029C128.529 36.8881 128.337 36.8091 128.137 36.8091C127.937 36.8091 127.745 36.8881 127.603 37.029L124.167 40.4614C124.025 40.6041 123.946 40.7966 123.946 40.9972C123.946 41.1979 124.025 41.3904 124.167 41.533L127.599 44.9613C127.668 45.0303 127.749 45.0851 127.839 45.1225C127.929 45.1598 128.025 45.179 128.122 45.179Z" fill="#00D5C1"/>
<path d="M133.891 45.7734C133.981 45.7745 134.07 45.7588 134.154 45.7273C134.341 45.6576 134.493 45.5169 134.577 45.3359C134.661 45.1549 134.67 44.9481 134.602 44.7604L131.877 37.3094C131.808 37.1213 131.668 36.9681 131.486 36.8838C131.304 36.7994 131.096 36.7906 130.908 36.8595C130.72 36.9283 130.567 37.069 130.482 37.2508C130.398 37.4325 130.389 37.6403 130.458 37.8285L133.183 45.2836C133.237 45.4277 133.334 45.5519 133.46 45.6394C133.587 45.727 133.737 45.7737 133.891 45.7734Z" fill="#00D5C1"/>
<path d="M121.04 46.0457C121.574 46.0457 122.007 45.6128 122.007 45.0788C122.007 44.5447 121.574 44.1118 121.04 44.1118C120.506 44.1118 120.073 44.5447 120.073 45.0788C120.073 45.6128 120.506 46.0457 121.04 46.0457Z" fill="#00D5C1"/>
<path d="M117.034 46.0457C117.568 46.0457 118.001 45.6128 118.001 45.0788C118.001 44.5447 117.568 44.1118 117.034 44.1118C116.5 44.1118 116.067 44.5447 116.067 45.0788C116.067 45.6128 116.5 46.0457 117.034 46.0457Z" fill="#00D5C1"/>
<path d="M113.024 46.0457C113.558 46.0457 113.991 45.6128 113.991 45.0788C113.991 44.5447 113.558 44.1118 113.024 44.1118C112.49 44.1118 112.057 44.5447 112.057 45.0788C112.057 45.6128 112.49 46.0457 113.024 46.0457Z" fill="#00D5C1"/>
<path d="M35.2451 52.814H138.47C138.574 52.8217 138.678 52.8079 138.777 52.7735C138.875 52.739 138.965 52.6846 139.042 52.6137C139.118 52.5428 139.179 52.4569 139.221 52.3613C139.262 52.2658 139.284 52.1627 139.284 52.0584C139.284 51.9542 139.262 51.8511 139.221 51.7555C139.179 51.66 139.118 51.5741 139.042 51.5032C138.965 51.4322 138.875 51.3778 138.777 51.3434C138.678 51.3089 138.574 51.2951 138.47 51.3029H35.2451C35.1411 51.2951 35.0367 51.3089 34.9383 51.3434C34.8399 51.3778 34.7497 51.4322 34.6733 51.5032C34.597 51.5741 34.536 51.66 34.4943 51.7555C34.4527 51.8511 34.4312 51.9542 34.4312 52.0584C34.4312 52.1627 34.4527 52.2658 34.4943 52.3613C34.536 52.4569 34.597 52.5428 34.6733 52.6137C34.7497 52.6846 34.8399 52.739 34.9383 52.7735C35.0367 52.8079 35.1411 52.8217 35.2451 52.814Z" fill="#00D5C1"/>
<path d="M21.0297 52.814H28.983C29.1737 52.7998 29.3519 52.714 29.482 52.5739C29.6121 52.4338 29.6844 52.2496 29.6844 52.0584C29.6844 51.8672 29.6121 51.6831 29.482 51.543C29.3519 51.4028 29.1737 51.3171 28.983 51.3029H21.0297C20.9258 51.2951 20.8214 51.3089 20.723 51.3434C20.6246 51.3778 20.5344 51.4322 20.458 51.5032C20.3816 51.5741 20.3207 51.66 20.279 51.7555C20.2373 51.8511 20.2158 51.9542 20.2158 52.0584C20.2158 52.1627 20.2373 52.2658 20.279 52.3613C20.3207 52.4569 20.3816 52.5428 20.458 52.6137C20.5344 52.6846 20.6246 52.739 20.723 52.7735C20.8214 52.8079 20.9258 52.8217 21.0297 52.814Z" fill="#00D5C1"/>
<path d="M6.40401 52.814H16.5591C16.663 52.8217 16.7674 52.8079 16.8658 52.7735C16.9642 52.739 17.0544 52.6846 17.1308 52.6137C17.2072 52.5428 17.2681 52.4569 17.3098 52.3613C17.3515 52.2658 17.373 52.1627 17.373 52.0584C17.373 51.9542 17.3515 51.8511 17.3098 51.7555C17.2681 51.66 17.2072 51.5741 17.1308 51.5032C17.0544 51.4322 16.9642 51.3778 16.8658 51.3434C16.7674 51.3089 16.663 51.2951 16.5591 51.3029H6.40401C6.21334 51.3171 6.03509 51.4028 5.90501 51.543C5.77493 51.6831 5.70264 51.8672 5.70264 52.0584C5.70264 52.2496 5.77493 52.4338 5.90501 52.5739C6.03509 52.714 6.21334 52.7998 6.40401 52.814Z" fill="#00D5C1"/>
<path d="M73.8895 60.9391H138.47C138.671 60.9391 138.864 60.8593 139.006 60.7172C139.148 60.5751 139.228 60.3824 139.228 60.1815C139.228 59.9805 139.148 59.7878 139.006 59.6457C138.864 59.5037 138.671 59.4238 138.47 59.4238H73.8895C73.6885 59.4238 73.4958 59.5037 73.3537 59.6457C73.2117 59.7878 73.1318 59.9805 73.1318 60.1815C73.1318 60.3824 73.2117 60.5751 73.3537 60.7172C73.4958 60.8593 73.6885 60.9391 73.8895 60.9391Z" fill="#9164B3"/>
<path d="M52.7088 60.9391H64.2829C64.4838 60.9391 64.6765 60.8593 64.8186 60.7172C64.9607 60.5751 65.0405 60.3824 65.0405 60.1815C65.0405 59.9805 64.9607 59.7878 64.8186 59.6457C64.6765 59.5037 64.4838 59.4238 64.2829 59.4238H52.7088C52.5079 59.4238 52.3152 59.5037 52.1731 59.6457C52.031 59.7878 51.9512 59.9805 51.9512 60.1815C51.9512 60.3824 52.031 60.5751 52.1731 60.7172C52.3152 60.8593 52.5079 60.9391 52.7088 60.9391Z" fill="#9164B3"/>
<path d="M52.7088 65.6105H84.1325C84.3335 65.6105 84.5262 65.5307 84.6683 65.3886C84.8104 65.2465 84.8902 65.0538 84.8902 64.8529C84.8902 64.6519 84.8104 64.4592 84.6683 64.3171C84.5262 64.175 84.3335 64.0952 84.1325 64.0952H52.7088C52.5079 64.0952 52.3152 64.175 52.1731 64.3171C52.031 64.4592 51.9512 64.6519 51.9512 64.8529C51.9512 65.0538 52.031 65.2465 52.1731 65.3886C52.3152 65.5307 52.5079 65.6105 52.7088 65.6105Z" fill="#9164B3"/>
<path d="M88.4481 65.6105H94.7646C94.9656 65.6105 95.1583 65.5307 95.3004 65.3886C95.4425 65.2465 95.5223 65.0538 95.5223 64.8529C95.5223 64.6519 95.4425 64.4592 95.3004 64.3171C95.1583 64.175 94.9656 64.0952 94.7646 64.0952H88.4481C88.2471 64.0952 88.0544 64.175 87.9123 64.3171C87.7703 64.4592 87.6904 64.6519 87.6904 64.8529C87.6904 65.0538 87.7703 65.2465 87.9123 65.3886C88.0544 65.5307 88.2471 65.6105 88.4481 65.6105Z" fill="#9164B3"/>
<path d="M99.8128 65.6105H106.146C106.347 65.6105 106.54 65.5307 106.682 65.3886C106.824 65.2465 106.904 65.0538 106.904 64.8529C106.904 64.6519 106.824 64.4592 106.682 64.3171C106.54 64.175 106.347 64.0952 106.146 64.0952H99.8128C99.6119 64.0952 99.4192 64.175 99.2771 64.3171C99.135 64.4592 99.0552 64.6519 99.0552 64.8529C99.0552 65.0538 99.135 65.2465 99.2771 65.3886C99.4192 65.5307 99.6119 65.6105 99.8128 65.6105Z" fill="#9164B3"/>
<path d="M111.174 65.6105H117.507C117.708 65.6105 117.901 65.5307 118.043 65.3886C118.185 65.2465 118.265 65.0538 118.265 64.8529C118.265 64.6519 118.185 64.4592 118.043 64.3171C117.901 64.175 117.708 64.0952 117.507 64.0952H111.174C110.973 64.0952 110.78 64.175 110.638 64.3171C110.496 64.4592 110.416 64.6519 110.416 64.8529C110.416 65.0538 110.496 65.2465 110.638 65.3886C110.78 65.5307 110.973 65.6105 111.174 65.6105Z" fill="#9164B3"/>
<path d="M122.538 65.6105H128.872C129.073 65.6105 129.265 65.5307 129.407 65.3886C129.55 65.2465 129.629 65.0538 129.629 64.8529C129.629 64.6519 129.55 64.4592 129.407 64.3171C129.265 64.175 129.073 64.0952 128.872 64.0952H122.538C122.337 64.0952 122.145 64.175 122.003 64.3171C121.861 64.4592 121.781 64.6519 121.781 64.8529C121.781 65.0538 121.861 65.2465 122.003 65.3886C122.145 65.5307 122.337 65.6105 122.538 65.6105Z" fill="#9164B3"/>
<path d="M30.9377 71.287H128.888C129.079 71.2728 129.257 71.187 129.387 71.0469C129.517 70.9068 129.59 70.7226 129.59 70.5314C129.59 70.3402 129.517 70.1561 129.387 70.016C129.257 69.8758 129.079 69.7901 128.888 69.7759H30.9377C30.747 69.7901 30.5688 69.8758 30.4387 70.016C30.3086 70.1561 30.2363 70.3402 30.2363 70.5314C30.2363 70.7226 30.3086 70.9068 30.4387 71.0469C30.5688 71.187 30.747 71.2728 30.9377 71.287Z" fill="#FF2666"/>
<path d="M136.205 65.6105H138.487C138.688 65.6105 138.88 65.5307 139.022 65.3886C139.165 65.2465 139.244 65.0538 139.244 64.8529C139.244 64.6519 139.165 64.4592 139.022 64.3171C138.88 64.175 138.688 64.0952 138.487 64.0952H136.205C136.004 64.0952 135.812 64.175 135.67 64.3171C135.528 64.4592 135.448 64.6519 135.448 64.8529C135.448 65.0538 135.528 65.2465 135.67 65.3886C135.812 65.5307 136.004 65.6105 136.205 65.6105Z" fill="#9164B3"/>
<path d="M136.206 71.2866H138.487C138.591 71.2944 138.695 71.2806 138.794 71.2461C138.892 71.2117 138.982 71.1573 139.059 71.0864C139.135 71.0155 139.196 70.9295 139.238 70.834C139.279 70.7384 139.301 70.6353 139.301 70.5311C139.301 70.4269 139.279 70.3237 139.238 70.2282C139.196 70.1326 139.135 70.0467 139.059 69.9758C138.982 69.9049 138.892 69.8505 138.794 69.816C138.695 69.7816 138.591 69.7678 138.487 69.7755H136.206C136.102 69.7678 135.997 69.7816 135.899 69.816C135.8 69.8505 135.71 69.9049 135.634 69.9758C135.557 70.0467 135.496 70.1326 135.455 70.2282C135.413 70.3237 135.392 70.4269 135.392 70.5311C135.392 70.6353 135.413 70.7384 135.455 70.834C135.496 70.9295 135.557 71.0155 135.634 71.0864C135.71 71.1573 135.8 71.2117 135.899 71.2461C135.997 71.2806 136.102 71.2944 136.206 71.2866Z" fill="#9164B3"/>
<path d="M136.206 76.9673H138.487C138.591 76.9751 138.695 76.9613 138.794 76.9268C138.892 76.8923 138.982 76.8379 139.059 76.767C139.135 76.6961 139.196 76.6102 139.238 76.5147C139.279 76.4191 139.301 76.316 139.301 76.2118C139.301 76.1075 139.279 76.0044 139.238 75.9089C139.196 75.8133 139.135 75.7274 139.059 75.6565C138.982 75.5856 138.892 75.5312 138.794 75.4967C138.695 75.4622 138.591 75.4485 138.487 75.4562H136.206C136.102 75.4485 135.997 75.4622 135.899 75.4967C135.8 75.5312 135.71 75.5856 135.634 75.6565C135.557 75.7274 135.496 75.8133 135.455 75.9089C135.413 76.0044 135.392 76.1075 135.392 76.2118C135.392 76.316 135.413 76.4191 135.455 76.5147C135.496 76.6102 135.557 76.6961 135.634 76.767C135.71 76.8379 135.8 76.8923 135.899 76.9268C135.997 76.9613 136.102 76.9751 136.206 76.9673Z" fill="#9164B3"/>
<path d="M11.4648 71.287H25.0063C25.1969 71.2728 25.3752 71.187 25.5053 71.0469C25.6354 70.9068 25.7076 70.7226 25.7076 70.5314C25.7076 70.3402 25.6354 70.1561 25.5053 70.016C25.3752 69.8758 25.1969 69.7901 25.0063 69.7759H11.4648C11.2741 69.7901 11.0959 69.8758 10.9658 70.016C10.8357 70.1561 10.7634 70.3402 10.7634 70.5314C10.7634 70.7226 10.8357 70.9068 10.9658 71.0469C11.0959 71.187 11.2741 71.2728 11.4648 71.287Z" fill="#FF2666"/>
<path d="M102.007 76.9672H129.089C129.28 76.953 129.458 76.8672 129.588 76.7271C129.719 76.5869 129.791 76.4028 129.791 76.2116C129.791 76.0204 129.719 75.8363 129.588 75.6962C129.458 75.556 129.28 75.4703 129.089 75.4561H102.007C101.816 75.4703 101.638 75.556 101.508 75.6962C101.377 75.8363 101.305 76.0204 101.305 76.2116C101.305 76.4028 101.377 76.5869 101.508 76.7271C101.638 76.8672 101.816 76.953 102.007 76.9672Z" fill="#FFAB07"/>
</svg>
