<svg width="74" height="51" viewBox="0 0 74 51" fill="none" xmlns="http://www.w3.org/2000/svg">
<path d="M71.3794 9.03735C70.5154 2.70134 64.4674 -2.48266 58.1314 1.26135C53.5234 4.42936 45.1714 11.6294 43.1554 17.1013C41.1394 22.8613 39.4114 28.9093 40.8514 37.2613C42.5794 45.0373 50.0674 51.0854 58.9954 49.9333H58.7074C66.7714 49.3573 73.6834 42.1573 73.1074 33.8054C72.8194 29.7734 71.3794 22.2853 61.5874 18.2533L71.3794 9.03735ZM31.0594 9.03735C30.1954 2.70134 24.1474 -2.48266 17.8114 1.26135C13.2034 4.42936 4.8514 11.6294 2.8354 17.1013C0.819398 22.8613 -0.908602 28.9093 0.531398 37.2613C2.2594 45.0373 9.7474 51.0854 18.6754 49.9333H18.3874C26.4514 49.3573 33.3634 42.1573 32.7874 33.8054C32.4994 29.7734 31.0594 22.2853 21.2674 18.2533L31.0594 9.03735Z" fill="#454AFD"/>
</svg>
