<svg width="48" height="48" viewBox="0 0 48 48" fill="none" xmlns="http://www.w3.org/2000/svg">
<path d="M36 24C29.4 24 24 29.4 24 36C24 42.6 29.4 48 36 48C42.6 48 48 42.6 48 36C48 29.4 42.6 24 36 24ZM36 46C30.5 46 26 41.5 26 36C26 30.5 30.5 26 36 26C41.5 26 46 30.5 46 36C46 41.5 41.5 46 36 46Z" fill="#454AFD"/>
<path d="M21 35H5C3.3 35 2 33.7 2 32V15H35V21.1C35 21.7 35.4 22.1 36 22.1C36.6 22.1 37 21.7 37 21.1V8C37 5.2 34.8 3 32 3H29C28.9 1.3 27.5 0 25.8 0H25.3C23.6 0 22.2 1.3 22.1 3H15.1V3.3C15 1.5 13.5 0 11.7 0H11.2C9.6 0 8.2 1.3 8 3H5C2.2 3 0 5.2 0 8V32C0 34.8 2.2 37 5 37H21C21.6 37 22 36.6 22 36C22 35.4 21.5 35 21 35ZM24 3.3C24 2.6 24.6 2 25.3 2H25.8C26.4 2 27 2.6 27 3.3V6.8C27 7.4 26.4 8 25.7 8H25.2C24.6 8 24 7.4 24 6.7V3.3ZM10 3.3C10 2.6 10.6 2 11.3 2H11.8C12.4 2 13 2.6 13 3.3V6.8C13 7.4 12.4 8 11.7 8H11.2C10.6 8 10 7.4 10 6.7V3.3ZM5 5H8V6.7C8 8.5 9.5 10 11.3 10H11.8C13.6 10 15.1 8.5 15.1 6.7V5H22.1V6.7C22.1 8.5 23.6 10 25.4 10H25.9C27.7 10 29.2 8.5 29.2 6.7V5H32.2C33.9 5 35.2 6.3 35.2 8V13H2V8C2 6.3 3.3 5 5 5Z" fill="#454AFD"/>
<path d="M41.7 30.3C41.3 29.9 40.7 29.9 40.3 30.3L36 34.6L33.7 32.3C33.3 31.9 32.7 31.9 32.3 32.3C31.9 32.7 31.9 33.3 32.3 33.7L35.3 36.7C35.5 36.9 35.8 37 36 37C36.2 37 36.5 36.9 36.7 36.7L41.7 31.7C42.1 31.3 42.1 30.7 41.7 30.3Z" fill="#454AFD"/>
<path d="M29 35C28.8 35 28.2 35 28 35C27.5 35 27 35.5 27 36C27 36.5 27.5 37 28 37C28.2 37 28.8 37 29 37C29.5 37 30 36.5 30 36C30 35.5 29.5 35 29 35Z" fill="#454AFD"/>
<path d="M44 35C43.8 35 43.2 35 43 35C42.5 35 42 35.5 42 36C42 36.5 42.5 37 43 37C43.2 37 43.8 37 44 37C44.5 37 45 36.5 45 36C45 35.5 44.5 35 44 35Z" fill="#454AFD"/>
<path d="M36 42C35.5 42 35 42.5 35 43C35 43.2 35 43.8 35 44C35 44.5 35.5 45 36 45C36.5 45 37 44.5 37 44C37 43.8 37 43.2 37 43C37 42.5 36.5 42 36 42Z" fill="#454AFD"/>
<path d="M36 30C36.5 30 37 29.5 37 29C37 28.8 37 28.2 37 28C37 27.5 36.5 27 36 27C35.5 27 35 27.5 35 28C35 28.2 35 28.8 35 29C35 29.5 35.5 30 36 30Z" fill="#454AFD"/>
<path d="M20.9999 29H19.9999V20V19.9C19.9999 19.8 19.9999 19.8 19.9999 19.7C19.9999 19.6 19.9999 19.6 19.8999 19.5V19.4C19.8999 19.4 19.8999 19.4 19.7999 19.3C19.7999 19.2 19.6999 19.2 19.6999 19.2C19.5999 19.2 19.5999 19.1 19.4999 19.1C19.3999 19.1 19.3999 19 19.2999 19C19.1999 19 19.1999 19 19.0999 19H18.9999H18.8999C18.7999 19 18.7999 19 18.6999 19C18.5999 19 18.5999 19 18.4999 19.1H18.3999L15.3999 21.1C14.8999 21.4 14.7999 22 15.0999 22.5C15.2999 22.8 15.5999 22.9 15.8999 22.9C16.0999 22.9 16.2999 22.8 16.4999 22.7L17.8999 21.7V29H16.8999C16.2999 29 15.8999 29.4 15.8999 30C15.8999 30.6 16.2999 31 16.8999 31H20.8999C21.4999 31 21.8999 30.6 21.8999 30C21.8999 29.4 21.5999 29 20.9999 29Z" fill="#454AFD"/>
</svg>
