<svg width="48" height="44" viewBox="0 0 48 44" fill="none" xmlns="http://www.w3.org/2000/svg">
<path d="M43 34C40.6 34 38.6 35.7 38.1 38H28.9C28.4 35.7 26.4 34 24 34C21.6 34 19.6 35.7 19.1 38H9.5C5.4 38 2 34.6 2 30.5C2 26.5 5.2 23.2 9.1 23C9.6 25.3 11.6 27 14 27C16.4 27 18.4 25.3 18.9 23H29.1C29.6 25.3 31.6 27 34 27C36.4 27 38.4 25.3 38.9 23C44 22.8 48 18.6 48 13.5C48 8.3 43.7 4 38.5 4H28.9C28.4 1.7 26.4 0 24 0C21.6 0 19.6 1.7 19.1 4H9.9C9.4 1.7 7.4 0 5 0C2.2 0 0 2.2 0 5C0 7.8 2.2 10 5 10C7.4 10 9.4 8.3 9.9 6H19.1C19.6 8.3 21.6 10 24 10C26.4 10 28.4 8.3 28.9 6H38.5C42.6 6 46 9.4 46 13.5C46 17.5 42.8 20.8 38.9 21C38.4 18.7 36.4 17 34 17C31.6 17 29.6 18.7 29.1 21H18.9C18.4 18.7 16.4 17 14 17C11.6 17 9.6 18.7 9.1 21C4 21.2 0 25.4 0 30.5C0 35.7 4.3 40 9.5 40H19.1C19.6 42.3 21.6 44 24 44C26.4 44 28.4 42.3 28.9 40H38.1C38.6 42.3 40.6 44 43 44C45.8 44 48 41.8 48 39C48 36.2 45.8 34 43 34ZM5 8C3.3 8 2 6.7 2 5C2 3.3 3.3 2 5 2C6.7 2 8 3.3 8 5C8 6.7 6.7 8 5 8ZM24 8C22.3 8 21 6.7 21 5C21 3.3 22.3 2 24 2C25.7 2 27 3.3 27 5C27 6.7 25.7 8 24 8ZM34 19C35.7 19 37 20.3 37 22C37 23.7 35.7 25 34 25C32.3 25 31 23.7 31 22C31 20.3 32.3 19 34 19ZM14 19C15.7 19 17 20.3 17 22C17 23.7 15.7 25 14 25C12.3 25 11 23.7 11 22C11 20.3 12.3 19 14 19ZM24 42C22.3 42 21 40.7 21 39C21 37.3 22.3 36 24 36C25.7 36 27 37.3 27 39C27 40.7 25.7 42 24 42ZM43 42C41.3 42 40 40.7 40 39C40 37.3 41.3 36 43 36C44.7 36 46 37.3 46 39C46 40.7 44.7 42 43 42Z" fill="#454AFD"/>
</svg>
