<svg width="244" height="262" viewBox="0 0 244 262" fill="none" xmlns="http://www.w3.org/2000/svg">
<path d="M42.191 203.127C64.8533 207.41 75.6556 224.092 88.9373 235.328C104.577 248.559 123.598 241.224 139.845 238.883C169.062 234.687 178.997 265.466 211.144 261.391C241.903 257.49 253.919 218.941 234.794 196.884C215.669 174.809 216.293 168.151 220.698 152.544C225.102 136.938 232.835 107.701 202.041 105.065C175.564 102.794 160.271 96.187 148.619 84.6902C136.967 73.1934 94.0524 41.5467 74.043 89.6323C64.4718 112.591 58.6979 120.672 37.2147 126.568C15.7141 132.464 0.6984 148.677 0.022173 167.058C-0.602036 184.451 11.9168 197.422 42.191 203.127Z" fill="#EAE6FF"/>
<path d="M32 215.786C36.4311 214.876 40.8492 213.875 45.2759 212.93C49.7027 211.986 54.1382 211.076 58.6041 210.319C63.0701 209.561 67.5578 208.921 72.0759 208.543C76.5977 208.133 81.1454 208.091 85.674 208.417L86.9537 208.517L85.7175 208.852C81.8436 209.905 77.9174 210.715 73.9868 211.464L62.1864 213.657C58.269 214.423 54.3515 215.25 50.508 216.308C46.6548 217.315 42.9106 218.7 39.3301 220.443L39.169 219.799C49.4677 219.594 59.7445 218.646 69.9866 217.462C80.2287 216.278 90.4446 214.793 100.648 213.318L100.778 214.271C94.1575 215.185 87.537 216.077 80.9599 217.205C74.3847 218.282 67.8812 219.759 61.4857 221.627L61.3725 220.543C65.7818 220.879 70.2521 220.256 74.6702 219.555C79.0882 218.855 83.515 217.932 88.0288 217.405C92.5383 216.97 97.0086 216.595 101.522 216.33C106.036 216.064 110.554 215.96 115.077 216.121L119.695 216.286L115.212 217.409C110.128 218.685 104.935 219.151 99.7987 219.682C94.6625 220.213 89.5305 220.67 84.564 221.888L84.4422 220.487C88.2614 220.685 92.0905 220.566 95.8899 220.13C99.716 219.742 103.533 219.19 107.377 218.711C111.233 218.192 115.114 217.874 119.003 217.758C122.939 217.635 126.874 218.019 130.712 218.898L133.602 219.603L130.756 220.474C128.216 221.225 125.631 221.814 123.016 222.237C120.405 222.672 117.819 223.024 115.221 223.334C110.019 223.96 104.817 224.43 99.703 225.244L99.5724 223.477C103.589 223.449 107.6 223.167 111.582 222.633C115.591 222.145 119.599 221.54 123.639 221.04C127.691 220.495 131.77 220.172 135.857 220.073C139.987 219.969 144.115 220.346 148.158 221.196L151.714 221.984L148.232 222.977C145.324 223.804 142.386 224.452 139.435 225.001C136.484 225.549 133.52 225.997 130.551 226.372L130.172 224.631C133.774 223.528 137.401 222.533 141.054 221.645C144.706 220.744 148.384 219.938 152.089 219.259C155.801 218.558 159.548 218.06 163.314 217.766C165.214 217.623 167.121 217.592 169.025 217.675C170.979 217.741 172.913 218.083 174.771 218.689L176.164 219.177L174.962 220.047C173.048 221.344 170.964 222.37 168.768 223.094C166.628 223.83 164.448 224.446 162.239 224.94C157.852 225.945 153.416 226.65 148.989 227.273L148.719 225.967C151.303 225.332 153.918 224.833 156.554 224.474C159.166 224.104 161.821 223.843 164.468 223.712C167.124 223.569 169.786 223.603 172.438 223.817C175.117 223.996 177.756 224.562 180.273 225.497L181 225.788L180.429 226.28C179.817 226.811 179.15 227.277 178.44 227.669C177.752 228.065 177.052 228.418 176.355 228.766C174.97 229.397 173.65 230.161 172.412 231.047L172.194 230.281C175.495 230.643 178.825 230.667 182.131 230.355C185.457 230.102 188.778 229.697 192.112 229.388C195.451 229.031 198.811 228.901 202.167 229.001C205.536 229.087 208.865 229.753 212.009 230.968L211.939 231.134C208.8 230 205.491 229.411 202.154 229.393C198.822 229.341 195.49 229.516 192.182 229.915C188.861 230.276 185.544 230.738 182.201 231.047C178.845 231.424 175.459 231.449 172.098 231.121L171.093 230.999L171.881 230.359C172.51 229.867 173.179 229.43 173.883 229.053C174.566 228.661 175.263 228.309 175.955 227.952C176.647 227.595 177.322 227.242 177.974 226.855C178.622 226.485 179.229 226.047 179.785 225.549L179.933 226.359C177.498 225.49 174.95 224.979 172.368 224.84C169.759 224.662 167.142 224.662 164.533 224.84C161.921 224.996 159.31 225.275 156.737 225.68C154.163 226.059 151.61 226.573 149.089 227.221L148.82 225.915C153.229 225.24 157.625 224.531 161.939 223.503C164.088 223.007 166.208 222.392 168.29 221.662C170.34 220.975 172.287 220.01 174.074 218.794L174.266 220.13C172.551 219.594 170.769 219.301 168.973 219.259C167.132 219.191 165.289 219.233 163.454 219.386C159.75 219.7 156.067 220.215 152.419 220.926C148.759 221.627 145.12 222.45 141.503 223.364C137.885 224.278 134.286 225.279 130.721 226.367L130.342 224.626C133.285 224.252 136.214 223.804 139.126 223.255C142.038 222.707 144.92 222.067 147.744 221.257L147.801 223.042C143.893 222.209 139.9 221.835 135.905 221.928C131.884 222.03 127.871 222.342 123.883 222.863C119.874 223.347 115.86 223.939 111.817 224.422C107.758 224.954 103.67 225.229 99.5767 225.244L99.4418 223.503C104.665 222.694 109.862 222.25 115.038 221.653C117.623 221.357 120.204 221.031 122.76 220.604C125.304 220.203 127.82 219.642 130.294 218.924L130.338 220.5C126.642 219.632 122.85 219.244 119.055 219.346C115.22 219.438 111.391 219.728 107.586 220.217C103.76 220.674 99.9293 221.214 96.064 221.584C92.1807 222.011 88.2688 222.115 84.3682 221.897L79.7803 221.575L84.2332 220.517C89.3347 219.285 94.5232 218.824 99.6594 218.341C104.796 217.858 109.932 217.383 114.894 216.165L115.029 217.47C110.559 217.292 106.071 217.388 101.592 217.623C97.1131 217.858 92.6123 218.219 88.1638 218.646C83.7283 219.146 79.3146 220.038 74.853 220.739C70.3914 221.44 65.8689 222.045 61.2811 221.688L58.3081 221.453L61.1635 220.574C67.6091 218.715 74.162 217.251 80.7858 216.191C87.389 215.085 94.0226 214.219 100.643 213.326L100.778 214.28C90.5621 215.721 80.3201 217.153 70.0737 218.297C59.8272 219.442 49.5112 220.334 39.169 220.474L37.6717 220.496L39.008 219.83C42.6359 218.085 46.4265 216.702 50.3252 215.699C54.1991 214.654 58.1297 213.844 62.0776 213.087L73.8867 210.937C77.8042 210.201 81.7217 209.409 85.5956 208.382L85.6348 208.817C81.1297 208.472 76.6039 208.492 72.1021 208.878C67.5969 209.231 63.1136 209.84 58.652 210.584C54.1904 211.329 49.7506 212.212 45.3195 213.139C40.8884 214.066 36.4746 215.076 32.0348 215.96L32 215.786Z" fill="#34374C"/>
<path d="M92.3206 174.482C92.3206 174.482 88.9428 167.849 87.8503 163.648C86.7577 159.448 85.4301 150.155 85.4301 150.155L85.465 146.107L82.418 137.837C82.418 137.837 79.493 132.574 77.791 123.742C76.0891 114.911 77.791 105.609 77.791 105.609L79.2057 100.146C79.2057 100.146 76.3285 94.7616 74.3828 92.0933C72.4371 89.4251 66.143 81.2114 66.143 81.2114C66.143 81.2114 62.9046 76.0403 61.2636 72.7366C59.6226 69.4328 53.7246 56.3266 53.7246 56.3266C53.7246 56.3266 50.2815 49.0575 50.1074 47.3294C49.9333 45.6014 49.9768 44.3565 50.5427 44.0605L51.1521 43.7602L51.9617 44.9702C51.9617 44.9702 55.7225 44.683 57.6812 43.7297C59.64 42.7765 63.0308 40.6349 63.5836 38.5064L64.1364 36.3953L63.5836 35.5813C63.5836 35.5813 64.7632 34.9719 65.477 36.3953C66.1909 37.8187 69.9648 48.7223 69.9648 48.7223L73.5384 57.1798L75.3143 60.9231C75.3143 60.9231 76.4286 62.2551 76.1326 62.4771C75.8099 62.6911 75.4757 62.8872 75.1315 63.0647L74.1782 64.3575L75.0488 64.2922L77.0554 63.6262L76.372 65.0539L77.3906 65.6415L78.5179 67.3391L81.8652 72.3709L86.6271 77.9512C86.6271 77.9512 87.9025 77.5159 88.2203 78.073C88.538 78.6302 123.334 82.3257 123.334 82.3257L125.994 84.402L146.887 92.0628C147.467 92.5548 147.883 93.2124 148.08 93.9476C148.515 95.3013 148.793 96.4069 148.793 96.4069C149.688 96.7246 150.505 97.2274 151.192 97.8825C152.093 98.8488 152.367 99.1883 152.367 99.1883L163.823 103.358L170.701 106.579L175.328 115.285L179.742 125.84L182.68 133.044L184.599 136.77C184.599 136.77 183.215 138.355 178.222 139.66C175.072 140.421 171.781 140.388 168.646 139.565L166.248 133.07L164.133 126.907L162.853 124.487L163.245 123.729C160.131 121.712 156.78 120.087 153.268 118.893C149.436 117.724 145.5 116.924 141.516 116.504C141.516 116.504 139.861 120.63 138.086 126.001C136.31 131.373 136.318 135.277 136.318 135.277C137.69 136.069 138.797 137.248 139.5 138.668L140.475 140.879C140.475 140.879 144.589 143.143 147.348 145.754C150.108 148.366 153.999 152.871 153.999 152.871L159.893 161.341C159.893 161.341 158.787 167.3 157.225 170.77C155.662 174.239 153.655 178.722 150.961 178.304C148.267 177.886 147.244 176.511 145.059 174.156C142.874 171.801 137.959 163.627 137.959 163.627L132.135 152.871L130.133 148.984C129.485 148.444 128.705 148.085 127.874 147.944C126.699 147.835 125.262 147.604 125.262 147.604L98.0662 164.75L93.6046 168.284L92.3206 174.482Z" fill="#EC0972"/>
<path d="M98.0793 150.138C96.8199 150.139 95.5825 150.468 94.4882 151.091C94.5471 151.429 94.5733 151.771 94.5666 152.114C94.6579 152.646 94.6711 153.188 94.6058 153.724C94.7068 154.947 94.6981 156.177 94.5796 157.398C94.5835 157.848 94.5323 158.297 94.4273 158.734C94.4609 159.29 94.411 159.848 94.2793 160.388C94.3322 161.048 94.2658 161.711 94.0834 162.347C94.0865 162.726 94.05 163.104 93.9746 163.475C95.1779 164.318 96.61 164.773 98.0793 164.78C100.019 164.78 101.879 164.01 103.25 162.639C104.621 161.267 105.392 159.407 105.392 157.468C105.392 155.528 104.621 153.668 103.25 152.297C101.879 150.926 100.019 150.155 98.0793 150.155V150.138Z" fill="#006893"/>
<path d="M51.0261 30.7413C49.7961 31.4743 48.6194 32.2932 47.5047 33.1919C45.9899 34.4673 47.2871 37.1834 47.2871 37.1834L49.1588 40.2304L51.1523 43.7604L52.1448 45.0663C52.1448 45.0663 55.3005 45.1403 59.218 42.8899C61.5154 41.6038 63.2137 39.4645 63.9451 36.9353L61.3335 27.2373C61.3335 27.2373 61.5163 26.406 59.5271 26.332C57.5378 26.258 51.0261 30.7413 51.0261 30.7413Z" fill="white"/>
<path d="M170.288 140.139L171.532 149.633C171.532 149.633 173.774 149.998 177.792 150.634C180.058 151.039 182.386 150.922 184.599 150.29L186.88 148.701C186.88 148.701 186.741 145.741 186.062 144.301C185.678 143.467 185.186 142.687 184.599 141.981L184.003 141.032L183.307 137.715C183.307 137.715 181.365 139.021 177.152 139.856C172.938 140.692 170.288 140.139 170.288 140.139Z" fill="white"/>
<path d="M66.6654 211.263C66.6654 211.263 65.9951 209.779 68.8113 208.369C71.6276 206.958 73.8388 205.561 73.7561 203.015C73.6734 200.468 69.1857 192.377 69.1857 192.377L63.7012 183.645C65.9556 183.82 68.1867 184.221 70.3609 184.842C74.0782 185.891 81.5649 188.986 81.5649 188.986L84.5292 191.21L87.7894 195.811C87.7894 195.811 90.1703 200.007 91.128 203.032C92.0856 206.057 94.0617 212.173 94.0269 214.349C93.9921 216.526 94.3621 217.753 92.856 219.246C91.3499 220.739 86.3269 221.571 86.3269 221.571C86.3269 221.571 80.3636 222.419 78.8575 222.406C77.3514 222.393 76.0369 222.237 76.0369 222.237L75.1664 221.941C75.1664 221.941 76.8378 222.01 76.5505 220.378C76.2633 218.746 75.3927 216.286 72.633 213.122C69.8734 209.957 67.9756 210.946 67.9756 210.946L66.6654 211.263Z" fill="#006893"/>
<path d="M88.4556 31.4505L88.5426 81.2114C88.5426 81.2114 88.1335 83.5314 95.1936 85.2159C102.254 86.9004 109.967 86.0865 118.481 84.0146C126.995 81.9426 130.434 77.024 130.434 77.024L130.743 76.1535L115.473 27.0107C115.473 27.0107 113.588 25.1826 109.597 25.2696C105.605 25.3567 99.9033 25.7963 96.4211 27.0107C92.9389 28.2251 89.0519 29.5832 88.4556 31.4505Z" fill="#8FBBEF"/>
<path d="M59.8012 30.0056C59.8012 30.0056 57.2461 26.7627 57.0894 24.6212C56.9327 22.4796 57.1808 20.3163 57.9164 18.8799C58.6521 17.4435 56.9414 13.304 55.505 11.2538C54.0686 9.20368 50.8301 5.43854 47.2348 3.54073C43.6394 1.64292 41.5762 0.0715755 40.057 1.64292C38.5379 3.21427 40.2921 5.99569 41.4891 7.13612C42.771 8.22149 44.117 9.2288 45.5198 10.1526L47.1651 11.0231C46.7432 10.836 46.2793 10.764 45.8205 10.8144C45.3618 10.8649 44.9246 11.036 44.5534 11.3104C43.9446 11.7826 43.374 12.3022 42.8472 12.8644C42.8472 12.8644 42.2204 12.638 40.8536 13.1516C39.4868 13.6653 38.1679 15.8199 38.6772 18.61C39.1865 21.4001 40.9798 22.7713 42.5338 22.9889C44.0877 23.2065 44.8146 21.7005 44.8146 21.7005C44.8146 21.7005 44.1878 24.2817 45.0584 26.4885C45.9289 28.6954 48.3882 29.9707 48.3882 29.9707L51.026 30.7586L52.149 33.9492C53.6571 33.4391 55.1276 32.8238 56.5497 32.1079C57.6806 31.4827 58.767 30.7803 59.8012 30.0056Z" fill="#8FBBEF"/>
<path d="M102.515 86.0908C102.515 86.0908 101.736 87.1703 101.117 92.7723C100.499 98.3743 101.392 101.043 101.392 101.043L115.399 101.891C115.399 101.891 117.262 94.6266 118.263 91.9801C119.264 89.3337 120.5 86.7263 120.5 86.7263L119.734 85.0331L118.489 84.0059C118.489 84.0059 115.521 85.3596 109.605 85.6947C103.69 86.0299 102.515 86.0908 102.515 86.0908Z" fill="#8FBBEF"/>
<path d="M175.206 150.39C175.471 151.197 175.511 152.061 175.324 152.889C175.001 154.238 173.735 154.464 172.803 155.831C171.872 157.198 172.155 160.467 172.529 161.346C172.903 162.225 172.795 165.185 172.795 165.185C172.795 165.185 171.833 167.549 171.841 168.176C171.85 168.802 171.798 170.974 174.396 170.844C176.995 170.713 178.693 167.118 178.693 167.118C179.051 165.92 179.143 164.659 178.962 163.422C178.623 161.585 178.366 160.702 178.366 160.702C179.38 161.048 180.361 161.485 181.296 162.008C183.124 162.991 185.087 165.055 185.087 165.055C185.087 165.055 183.973 167.427 185.796 168.872C187.62 170.317 188.952 169.151 188.952 169.151C188.952 169.151 191.612 172.158 193.409 172.171C195.207 172.184 195.869 170.282 195.869 170.282C195.869 170.282 196.482 168.062 195.93 166.722C195.574 165.879 195.151 165.067 194.663 164.293L194.554 163.335L194.001 162.264C194.001 162.264 194.354 161.894 194.437 159.435C194.519 156.976 194.184 155.261 191.168 153.537C188.151 151.813 186.693 152.027 185.944 151.404C185.472 151.008 184.955 150.669 184.403 150.394C183.049 150.684 181.67 150.851 180.286 150.895C178.584 150.823 176.888 150.654 175.206 150.39Z" fill="#8FBBEF"/>
<path d="M66.6657 211.264L69.3818 210.663C69.3818 210.663 70.6398 210.363 72.642 213.118C74.6443 215.873 76.6553 219.112 76.5595 220.374C76.4638 221.636 75.837 221.732 75.837 221.732C75.837 221.732 66.3871 222.581 62.4696 222.407C58.5521 222.233 57.477 220.705 57.0112 219.173C56.5455 217.64 58.8699 215.329 61.1638 214.119C63.4577 212.909 66.6657 211.264 66.6657 211.264Z" fill="#8FBBEF"/>
<path d="M87.3803 162.234L88.808 166.53L90.4533 170.783L77.9087 181.068L77.5517 182.03C77.5517 182.03 73.434 180.089 71.4579 179.593C69.4817 179.097 68.5633 178.866 68.5633 178.866C68.5633 178.866 68.4414 177.56 69.9997 176.311L87.3803 162.234Z" fill="#8FBBEF"/>
<path d="M64.5672 185.138C64.5672 185.138 60.5888 183.192 60.5409 180.398C60.493 177.603 65.2593 178.182 66.4955 178.426C70.7807 179.395 74.9205 180.922 78.8095 182.966C84.2635 185.891 86.91 189.656 86.4877 191.084C86.3305 191.728 86.0921 192.35 85.7782 192.934C85.7782 192.934 84.7597 190.684 81.5648 188.986C78.3698 187.288 70.3607 184.842 70.3607 184.842L64.6455 183.645H63.701L64.5672 185.138Z" fill="#8FBBEF"/>
<path d="M162.844 204.63L162.122 204.704L161.478 205.379L163.288 207.977L166.292 211.324L167.319 209.422L165.739 207.755L163.545 205.762L162.844 204.63Z" fill="#8FBBEF"/>
<path d="M167.371 216.74C167.371 216.74 170.666 224.683 169.656 228.057C168.647 231.43 165.739 231.9 162.844 230.451C160.625 229.261 158.501 227.904 156.489 226.39L153.085 222.402C153.085 222.402 153.978 219.151 158.113 216.996C162.248 214.842 167.371 216.74 167.371 216.74Z" fill="#8FBBEF"/>
<path d="M94.7972 137.162L94.7319 144.71C94.7319 144.71 97.6178 145.767 104.617 145.767C109.309 145.734 113.995 145.443 118.655 144.897L122.803 143.817V139.704C122.803 139.704 118.811 136.009 116.666 133.105C114.52 130.202 112.796 127.603 112.796 127.603L102.306 126.977L99.0325 130.315L94.7972 137.162Z" fill="#8FBBEF"/>
<path d="M75.7016 55.0425C75.7016 55.0425 71.2531 55.5909 71.1748 57.097C71.0964 58.6031 75.9628 58.8381 75.9628 58.8381L75.7016 55.0425Z" fill="#8FBBEF"/>
<path d="M80.8902 51.6909L76.8639 52.605C75.9052 53.8418 75.4622 55.4016 75.6277 56.9578C75.7435 58.5482 76.3905 60.0536 77.4646 61.2322L81.2907 61.5935C81.2907 61.5935 82.1613 61.5064 82.7663 60.2093C83.3713 58.9122 83.2016 54.7074 82.6009 53.5931C82.1717 52.8451 81.5886 52.1968 80.8902 51.6909Z" fill="#8FBBEF"/>
<path d="M84.4946 54.0415L80.5771 54.7205C80.4176 55.2966 80.3299 55.8902 80.3159 56.4878C80.3161 57.0335 80.4302 57.5731 80.6511 58.0722L84.9037 58.6119C84.9037 58.6119 84.8036 57.4628 84.5947 56.0003C84.4581 55.3567 84.4243 54.6956 84.4946 54.0415Z" fill="#8FBBEF"/>
<path d="M94.8105 27.4115V24.9C94.8105 24.9 95.2763 23.7595 99.7596 22.5886C104.243 21.4178 106.681 22.7584 106.681 22.7584L107.738 25.2351C105.53 25.1877 103.324 25.4128 101.17 25.9055C97.1262 26.7499 94.8105 27.4115 94.8105 27.4115Z" fill="#8FBBEF"/>
<path d="M142.852 44.6395C142.852 44.6395 142.125 43.6079 139.879 43.7297C137.633 43.8516 136.636 44.4001 136.636 44.4001C136.636 44.4001 136.036 45.4491 136.436 46.3457C136.627 46.8222 136.896 47.2635 137.233 47.6516L140.906 46.5547C140.906 46.5547 142.826 45.8234 142.852 44.6395Z" fill="#8FBBEF"/>
<path d="M88.4813 209.496C87.7399 209.335 86.9723 209.335 86.2309 209.496C85.1601 209.775 84.2548 210.589 84.0241 212.413C83.7934 214.237 86.2527 215.286 86.2527 215.286C86.2527 215.286 88.2071 216.056 89.7088 214.646C91.2105 213.235 90.3443 211.325 90.3443 211.325L88.4813 209.496Z" fill="#8FBBEF"/>
<path d="M94.0834 163.64L93.6177 168.298L98.0227 164.759C98.0227 164.759 96.3643 164.815 95.5242 164.302C95.0766 164.016 94.5918 163.793 94.0834 163.64Z" fill="#8FBBEF"/>
<path d="M120.962 167.51C125.001 167.51 128.275 164.236 128.275 160.197C128.275 156.158 125.001 152.884 120.962 152.884C116.923 152.884 113.649 156.158 113.649 160.197C113.649 164.236 116.923 167.51 120.962 167.51Z" fill="#006893"/>
<path d="M94.175 146.238C94.175 146.238 95.2458 152.04 94.9454 153.938C94.6451 155.835 94.6016 160.197 94.6016 160.197C94.6016 160.197 96.5255 162.304 101.131 163.222C104.05 163.789 107.011 164.114 109.984 164.193L114.498 163.64L125.38 154.373L125.276 143.635C125.221 143.386 125.094 143.159 124.91 142.983C124.727 142.807 124.495 142.69 124.244 142.647C123.77 142.521 123.289 142.423 122.803 142.355V143.8C119.124 144.821 115.337 145.406 111.521 145.541C105.331 145.741 101.618 145.95 98.728 145.541C95.8378 145.132 94.7321 144.671 94.7321 144.671V142.93L93.6353 143.326L94.175 146.238Z" fill="#006893"/>
<path d="M61.9253 61.9634C63.2451 61.9634 64.315 60.8935 64.315 59.5737C64.315 58.254 63.2451 57.1841 61.9253 57.1841C60.6055 57.1841 59.5356 58.254 59.5356 59.5737C59.5356 60.8935 60.6055 61.9634 61.9253 61.9634Z" fill="#006893"/>
<path d="M84.9861 52.4482C84.5912 53.7558 84.4552 55.1279 84.5856 56.4876C84.9034 57.989 85.3912 59.4493 86.0394 60.8404L86.9753 61.7936L88.5249 61.6456L88.49 54.9903L84.9861 52.4482Z" fill="#006893"/>
<path d="M87.4152 54.2156C87.4152 54.2156 86.4315 54.9861 87.7634 56.2049C89.0954 57.4236 92.0118 58.2463 93.4656 58.5031C94.9194 58.7599 97.6181 58.107 98.5322 57.6326C99.1544 57.226 99.648 56.6508 99.9555 55.9742C100.604 56.8689 101.411 57.6375 102.337 58.242C103.899 59.2692 104.735 59.8003 107.02 59.304C109.305 58.8078 112.196 55.9568 112.196 55.9568C112.196 55.9568 114.973 53.4887 115.277 52.5703C115.47 52.0973 115.47 51.5677 115.277 51.0947L114.59 50.5332C114.59 50.5332 111.773 53.4844 110.537 54.4942C109.301 55.5041 106.48 57.0362 105.475 56.9361C104.43 56.8913 103.441 56.4528 102.707 55.7086C101.849 54.8826 101.057 53.9905 100.339 53.0404C100.027 54.1696 99.3844 55.1794 98.493 55.9393C97.0871 57.045 95.7812 57.7022 93.9052 57.1233C92.0292 56.5444 90.8017 56.4312 89.4523 55.6912C88.7058 55.3001 88.0196 54.8031 87.4152 54.2156Z" fill="#026E9C"/>
<path d="M99.2721 46.5109C98.6112 45.9083 97.8267 45.4573 96.9733 45.1897C96.1199 44.922 95.2183 44.8441 94.3317 44.9614C91.4875 45.2572 88.7016 45.9655 86.0614 47.0637C85.4407 47.3718 84.9311 47.8655 84.6036 48.4762C84.276 49.0869 84.1466 49.7844 84.2333 50.472C84.403 51.0335 85.1909 53.236 88.9952 55.3297C92.7995 57.4233 95.1631 57.4538 96.9521 56.7356C98.0738 56.2524 99.0418 55.4711 99.7509 54.4765L100.339 53.0401C100.339 53.0401 102.023 56.1567 104.426 56.7356C106.828 57.3145 109.34 55.3297 109.34 55.3297L112.822 52.2827C112.822 52.2827 115.699 49.8147 115.869 47.3075C116.039 44.8003 114.219 43.39 112.848 41.8361C111.477 40.2821 108.631 37.2308 106.176 37.7053C103.721 38.1797 102.384 39.5509 101.013 41.7577C100.157 43.227 99.5674 44.8362 99.2721 46.5109Z" fill="white"/>
<path d="M97.9707 16.3814L98.1361 23.0063L101.174 22.336L103.316 22.1096L101.357 15.9287H99.5203L97.9707 16.3814Z" fill="#006893"/>
<path d="M93.6006 16.7689C93.6006 16.7689 93.8052 14.6839 97.1394 13.6175C99.2407 12.9816 101.465 12.868 103.621 13.2866C103.621 13.2866 105.649 13.8177 105.971 15.1235C106.293 16.4293 104.5 17.3782 104.5 17.3782L102.515 18.3228C102.515 18.3228 98.8674 19.0541 96.8956 18.8669C94.9238 18.6797 93.6528 17.7047 93.6006 16.7689Z" fill="#006893"/>
<path d="M98.8367 9.80015C98.8367 9.80015 101.309 9.5564 102.632 10.4444C103.553 11.1122 104.391 11.8882 105.126 12.7557L105.801 14.3009C105.801 14.3009 104.06 12.9951 100.97 13.0473C99.225 13.0424 97.4993 13.4089 95.9073 14.1225L93.5481 16.177C93.5349 14.6455 94.0708 13.16 95.0585 11.9896C95.5087 11.3894 96.0754 10.8861 96.7245 10.51C97.3737 10.1338 98.0921 9.89235 98.8367 9.80015Z" fill="#006893"/>
<path d="M93.77 67.9575C93.77 67.9575 95.2935 69.4635 95.1934 72.5583C95.0933 75.6532 94.4447 76.9111 97.7397 77.3464C101.035 77.7817 105.605 77.4204 107.638 77.0591C109.671 76.6978 111.521 75.5487 112.221 74.5519C112.724 73.7363 113.118 72.8583 113.392 71.9402L115.277 64.0835C111.746 65.6787 108.013 66.7816 104.182 67.3611C100.736 67.8708 97.2515 68.0703 93.77 67.9575Z" fill="white"/>
<path d="M124.196 42.5678L119.647 43.8214C119.647 43.8214 116.914 45.5625 118.259 50.9382C119.604 56.3138 122.612 56.7361 122.612 56.7361L127.073 55.6914C127.073 55.6914 128.44 55.6218 129.21 53.28C129.981 50.9382 128.505 45.7105 127.578 44.6049C126.651 43.4993 125.937 42.533 124.196 42.5678Z" fill="#006893"/>
<path d="M155.227 48.1569C156.544 48.1569 157.612 47.0889 157.612 45.7715C157.612 44.4542 156.544 43.3862 155.227 43.3862C153.909 43.3862 152.841 44.4542 152.841 45.7715C152.841 47.0889 153.909 48.1569 155.227 48.1569Z" fill="#006893"/>
<path d="M91.0192 135.895L93.6308 137.819L94.793 137.162C96.0177 134.943 97.3558 132.789 98.8019 130.707C99.8111 129.33 100.98 128.078 102.284 126.977L112.774 127.603L117.971 134.751L121.841 138.803L123.813 140.544L126.533 139.369C126.533 139.369 124.945 132.405 124.078 125.505C123.212 118.606 122.773 106.902 122.773 106.902L121.963 95.2145C121.963 95.2145 121.693 90.5222 121.092 88.6244L120.479 86.7266L118.241 91.9804L116.444 97.4388L115.386 101.918L101.383 101.052C101.383 101.052 100.513 96.7293 101.109 92.7813C101.431 90.523 101.901 88.2882 102.515 86.0911L100.125 86.0215C100.125 86.0215 95.3371 90.1305 92.2423 93.4734C89.1475 96.8163 85.7697 104.477 85.7697 104.477L84.6685 108.073C84.6685 108.073 84.1505 114.698 85.687 120.138C87.2235 125.579 91.0192 135.895 91.0192 135.895Z" fill="#FFD009"/>
<path d="M134.882 184.842L118.063 164.75C118.063 164.75 116.043 161.011 119.508 158.473C122.973 155.935 126.555 160.249 126.555 160.249L142.791 179.593C142.791 179.593 140.749 178.565 138.216 179.963C135.683 181.36 134.882 184.842 134.882 184.842Z" fill="#8FBBEF"/>
<path d="M141.529 200.36C141.529 200.36 139.661 201.056 137.742 196.643C135.822 192.229 134.865 189.743 134.926 185.569C134.987 181.395 138.186 179.218 141.529 179.31C144.872 179.401 148.928 183.619 148.928 183.619C148.928 183.619 153.098 187.92 154.635 191.598C156.171 195.276 154.779 195.707 154.779 195.707L151.079 190.684C151.079 190.684 148.637 186.697 145.464 184.842C142.29 182.988 140.893 183.293 138.8 186.087C136.706 188.882 139.396 194.975 139.396 194.975L141.529 200.36Z" fill="#8FBBEF"/>
<path d="M144.576 213.84C144.576 213.84 144.654 216.831 145.403 218.563C146.151 220.295 146.608 221.214 146.608 221.214L148.106 220.417L146.343 213.84H144.576Z" fill="#8FBBEF"/>
<path d="M154.5 224.688C154.5 224.688 151.975 224.688 150.121 223.308C148.267 221.928 146.974 215.686 146.974 215.686C146.974 215.686 144.497 207.185 142.543 202.597C140.588 198.01 138.382 193.178 138.281 189.104C138.181 185.03 140.51 183.393 142.791 183.702C145.072 184.011 148.045 186.523 149.555 188.612C151.066 190.701 157.36 199.842 157.36 199.842C157.36 199.842 162.583 207.307 164.381 209.305C166.178 211.303 168.764 213.754 168.764 213.754C168.764 213.754 170.879 216.365 170.209 218.028C169.86 218.913 169.456 219.775 168.999 220.609L167.371 216.74C167.371 216.74 164.738 215.142 159.902 216.343C155.066 217.545 153.094 222.403 153.094 222.403L154.5 224.688Z" fill="#006893"/>
<path d="M130.155 45.5928L126.398 46.0759C125.955 46.4303 125.644 46.9242 125.517 47.4773C125.39 48.0305 125.453 48.6104 125.697 49.1229C126.568 50.9554 127.547 51.3732 127.547 51.3732L130.986 49.9847L130.372 47.3295L130.155 45.5928Z" fill="#8FBBEF"/>
<path d="M135.596 41.2881L132.692 41.7887H131.591C131.008 42.5009 130.59 43.3341 130.369 44.2278C130.148 45.1214 130.128 46.0532 130.311 46.9554C130.986 49.9544 132.209 51.4562 132.88 51.7434C133.201 51.8969 133.54 52.0096 133.889 52.0786L137.637 50.7728C138.357 50.4171 138.936 49.83 139.283 49.1057C139.718 47.9957 139.1 45.1185 138.316 43.3861C137.533 41.6537 135.596 41.2881 135.596 41.2881Z" fill="#8FBBEF"/>
<path opacity="0.5" d="M93.7656 144.301C93.7656 144.301 94.7581 145.702 102.306 145.724C109.853 145.746 113.436 145.946 117.218 145.11C121.001 144.275 122.224 143.952 122.224 143.952L122.803 143.8V142.355C122.803 142.355 125.188 142.651 125.275 143.635C125.362 144.618 119.617 146.09 119.617 146.09C119.617 146.09 115.799 147.091 108.765 147.352C104.655 147.525 100.538 147.282 96.4774 146.625L94.1748 146.246L93.7656 144.301Z" fill="#8FBBEF"/>
<path opacity="0.7" d="M97.9707 9.79976C97.9707 9.79976 100.852 10.5963 101.745 12.9686L100.038 15.5802L101.174 22.3531L103.316 22.1268L102.01 18.4966C102.01 18.4966 106.406 16.799 105.971 15.1667C105.536 13.5344 105.175 11.9109 101.988 10.1872C100.456 9.34272 97.9707 9.79976 97.9707 9.79976Z" fill="#04315F"/>
<path opacity="0.5" d="M102.515 22.3316L103.325 25.5265L107.595 25.1826L106.955 23.1803C106.955 23.1803 106.785 22.3359 105.057 22.2227C104.209 22.1329 103.352 22.1695 102.515 22.3316Z" fill="#026E9C"/>
<path opacity="0.3" d="M124.744 56.431C124.356 56.5186 123.959 56.5624 123.56 56.5616C122.562 56.606 121.579 56.3059 120.777 55.7114C119.974 55.117 119.4 54.2645 119.151 53.297C118.779 52.613 118.565 51.8545 118.524 51.0771C118.233 50.316 118.117 49.4994 118.185 48.6874C117.78 46.6155 118.585 44.265 120.596 43.2987L115.473 27.0106C114.81 26.329 113.95 25.8723 113.014 25.7048C111.886 25.4806 110.744 25.3352 109.597 25.2695L125.584 81.1417C125.584 81.1417 128.388 79.3701 129.415 78.1948C129.977 77.5932 130.429 76.8979 130.751 76.1403L124.744 56.431Z" fill="#026E9C"/>
<path d="M107.978 66.6163C107.978 66.6163 110.829 65.2582 110.776 67.9569C110.724 70.6557 108.844 71.1214 108.844 71.1214C108.844 71.1214 110.28 71.0431 109.375 73.9551C108.47 76.8671 107.634 77.0629 107.634 77.0629C107.634 77.0629 111.734 76.2533 112.626 73.8593C113.519 71.4653 115.273 64.2832 115.273 64.2832L111.46 65.663L107.978 66.6163Z" fill="#D8E2EA"/>
<path opacity="0.5" d="M101.475 90.1603L113.649 101.66L115.39 101.9L117.972 92.7893L120.492 86.7346L119.726 85.0371L118.481 84.0142L115.412 84.9369L102.506 86.3342L101.475 90.1603Z" fill="#026E9C"/>
<path opacity="0.7" d="M118.62 52.0958L122.642 51.3558L125.715 49.1055C125.715 49.1055 126.895 51.5517 127.565 51.3558C128.235 51.16 129.459 50.7291 129.459 50.7291C129.459 50.7291 129.667 54.8816 127.761 55.4475C125.854 56.0133 123.117 56.6227 123.117 56.6227C123.117 56.6227 120.94 56.6923 120.07 54.9948C119.199 53.2972 118.62 52.0958 118.62 52.0958Z" fill="#04315F"/>
<path opacity="0.5" d="M125.698 49.1228L130.172 48.1782L130.986 49.9846L127.548 51.3732C127.548 51.3732 126.442 51.1338 126.272 50.5026C126.129 50.0239 125.937 49.5615 125.698 49.1228Z" fill="#026E9C"/>
<path opacity="0.5" d="M130.312 46.9681L134.042 46.0976L136.436 46.35C136.436 46.35 142.025 45.3794 142.652 44.4435C143.278 43.5077 142.652 45.8973 140.911 46.559C139.169 47.2206 139.348 47.1814 139.348 47.1814C139.348 47.1814 139.844 49.9672 137.79 50.7333C135.735 51.4993 133.894 52.1 133.894 52.1C133.463 52.0613 133.048 51.9161 132.688 51.6775C132.327 51.439 132.031 51.1145 131.826 50.7333C131.199 49.531 130.692 48.2699 130.312 46.9681Z" fill="#026E9C"/>
<path opacity="0.7" d="M156.646 43.8604C156.739 44.0868 156.786 44.3294 156.785 44.5742C156.787 45.0495 156.616 45.5093 156.304 45.8674C155.991 46.2256 155.559 46.4576 155.088 46.5201C154.617 46.5825 154.139 46.4711 153.744 46.2066C153.349 45.9422 153.064 45.5429 152.942 45.0835C152.844 45.4114 152.817 45.7566 152.865 46.0956C152.912 46.4346 153.031 46.7595 153.215 47.0483C153.399 47.337 153.643 47.5828 153.93 47.769C154.217 47.9551 154.541 48.0773 154.88 48.1271C155.218 48.177 155.564 48.1534 155.892 48.0579C156.221 47.9625 156.525 47.7974 156.785 47.5739C157.044 47.3504 157.252 47.0737 157.395 46.7627C157.538 46.4516 157.612 46.1135 157.612 45.7712C157.613 45.3991 157.526 45.0321 157.358 44.7001C157.19 44.368 156.946 44.0803 156.646 43.8604Z" fill="#04315F"/>
<path opacity="0.7" d="M63.3399 57.4233C63.4396 57.6711 63.4874 57.9367 63.4804 58.2037C63.4734 58.4707 63.4118 58.7335 63.2993 58.9757C63.1868 59.218 63.0258 59.4346 62.8263 59.6122C62.6269 59.7898 62.3931 59.9247 62.1395 60.0084C61.8859 60.0922 61.6178 60.123 61.3517 60.0991C61.0857 60.0752 60.8274 59.997 60.5928 59.8694C60.3582 59.7418 60.1522 59.5674 59.9876 59.3571C59.823 59.1467 59.7032 58.9049 59.6357 58.6465C59.5676 58.8709 59.5324 59.104 59.5313 59.3386C59.53 59.747 59.6334 60.1489 59.8317 60.506C60.0299 60.8631 60.3164 61.1634 60.6637 61.3783C61.0111 61.5932 61.4077 61.7155 61.8157 61.7334C62.2238 61.7514 62.6296 61.6645 62.9945 61.481C63.3594 61.2975 63.6712 61.0236 63.9001 60.6853C64.129 60.347 64.2673 59.9557 64.302 59.5488C64.3366 59.1418 64.2664 58.7328 64.098 58.3607C63.9295 57.9886 63.6686 57.6659 63.3399 57.4233Z" fill="#04315F"/>
<g style="mix-blend-mode:multiply">
<path d="M101.779 86.021C100.948 88.6003 100.391 91.26 100.117 93.9561C99.8707 96.3055 99.9941 98.6789 100.482 100.99L101.383 101.047C101.383 101.047 100.391 96.4459 101.24 92.0713C102.088 87.6968 102.515 86.0906 102.515 86.0906L101.779 86.021Z" fill="#7C4700"/>
</g>
<path d="M101.105 126.902C99.4341 128.363 98.0086 130.083 96.8826 131.995C95.0283 135.16 93.8096 137.819 93.8096 137.819L94.7976 137.162C94.7976 137.162 98.3408 131.142 99.6858 129.601C100.498 128.674 101.37 127.801 102.297 126.989L101.105 126.902Z" fill="#7C4700"/>
<path opacity="0.3" d="M58.4343 216.112C58.4343 216.112 57.3157 219.198 61.1243 218.82C64.933 218.441 74.2871 215.438 73.4644 214.28C72.6417 213.122 75.471 217.823 76.1501 218.811C76.8291 219.799 76.4635 221.636 76.4635 221.636C76.4635 221.636 66.4956 223.26 62.7044 222.433C58.9131 221.606 57.4027 221.127 57.2025 219.712C57.0023 218.297 57.3722 216.269 58.4343 216.112Z" fill="#026E9C"/>
<path opacity="0.7" d="M92.7649 208.391C92.7649 208.391 90.854 202.227 89.509 198.941C88.164 195.654 85.0562 191.824 85.0562 191.824L82.9668 189.852L79.9678 188.233L76.5944 187.014C80.4074 190.531 83.2628 203.463 82.1659 206.258C81.069 209.052 75.9632 213.749 73.5344 212.051C71.1055 210.354 69.3818 210.663 69.3818 210.663L70.7747 211.324C70.7747 211.324 74.9751 215.446 76.1504 218.811C77.3256 222.176 75.6759 221.736 75.6759 221.736L76.6248 222.289H80.9776C80.9776 222.289 91.7333 221.209 93.4309 218.593C95.1285 215.977 92.7649 208.391 92.7649 208.391ZM89.718 214.646C88.2163 216.056 86.2619 215.285 86.2619 215.285C86.2619 215.285 83.8026 214.236 84.0333 212.413C84.264 210.589 85.1693 209.775 86.2401 209.496C86.9815 209.334 87.7491 209.334 88.4905 209.496L90.3535 211.324C90.3535 211.324 91.1979 213.222 89.7093 214.646H89.718Z" fill="#04315F"/>
<path d="M140.284 184.198C140.284 184.198 143.605 182.992 146.334 187.68C149.063 192.368 151.666 201.639 154.308 204.656C156.95 207.672 161.747 211.655 163.245 212.952C164.742 214.249 164.154 215.181 160.803 215.912C157.451 216.643 162.108 215.912 164.668 215.973C167.227 216.034 167.362 216.743 167.362 216.743L168.999 220.626C168.999 220.626 171.206 217.379 169.817 215.359C168.429 213.34 165.569 210.671 165.569 210.671L161.442 206.062L156.006 197.639L151.061 190.675C151.061 190.675 148.362 186.731 146.586 185.56C144.811 184.389 142.482 182.605 140.284 184.198Z" fill="#04315F"/>
<path opacity="0.3" d="M162.344 216.112C162.344 216.112 165.243 219.712 165.939 223.594C166.479 226.585 164.063 230.968 159.893 228.226C155.723 225.484 159.371 228.874 160.803 229.505C162.235 230.137 166.283 231.96 168.107 230.494C169.931 229.027 169.887 225.214 169.639 224.156C169.391 223.098 167.362 216.756 167.362 216.756C165.766 216.138 164.044 215.917 162.344 216.112Z" fill="#026E9C"/>
<path opacity="0.3" d="M134.882 187.793C134.882 187.793 136.501 193.939 137.681 193.778C138.861 193.617 138.282 189.086 138.282 189.086L139.661 195.68L141.346 200.39C141.346 200.39 139.17 199.854 137.742 196.642C136.314 193.43 134.081 188.994 134.882 187.793Z" fill="#026E9C"/>
<path opacity="0.3" d="M142.404 183.649C144.069 183.63 145.71 184.041 147.17 184.842C149.664 186.187 148.537 182.757 146.343 181.403C144.149 180.05 149.068 183.105 151.431 186.535C153.795 189.965 154.914 192.055 155.096 192.934C155.216 193.474 155.297 194.023 155.34 194.575L155.053 195.471H154.587C154.587 195.471 150.543 190.248 149.255 188.272C147.967 186.296 145.49 184.842 145.49 184.842L142.404 183.649Z" fill="#026E9C"/>
<path opacity="0.3" d="M145.133 217.784L147.122 216.739L148.106 220.417L146.608 221.214L145.133 217.784Z" fill="#026E9C"/>
<path d="M161.478 205.379L166.44 211.324L167.319 209.422L163.859 205.831L162.844 204.63L161.478 205.379Z" fill="#026E9C"/>
<path opacity="0.3" d="M120.962 158.138L138.982 179.623L141.529 179.309L142.791 179.597L125.276 158.808L123.334 157.672H121.763L120.962 158.138Z" fill="#026E9C"/>
<path opacity="0.3" d="M117.476 161.781L135.783 182.296L134.882 184.842L117.863 164.301L117.476 161.781Z" fill="#026E9C"/>
<path opacity="0.3" d="M60.541 180.398C60.541 180.398 60.9981 182.161 62.7914 182.03C64.5847 181.9 67.2573 181.012 72.0454 182.692C76.8334 184.372 79.5017 183.445 77.5429 182.296C75.5842 181.147 82.3919 185.273 82.3919 185.273C82.3919 185.273 86.1614 188.62 86.3094 189.852C86.4574 191.084 85.8437 192.777 85.8437 192.777C85.8437 192.777 83.4975 189.73 80.9773 188.699C78.457 187.667 74.3001 185.678 70.3434 184.842L64.6457 183.645L63.5836 183.667L64.5586 185.138C64.5586 185.138 62.3082 184.006 61.6205 183.062C61.1224 182.236 60.7581 181.337 60.541 180.398Z" fill="#026E9C"/>
<path opacity="0.3" d="M88.4815 209.496C88.4815 209.496 85.3605 209.409 85.0602 212.543C84.7599 215.677 87.9069 215.921 88.4815 215.294C89.056 214.667 90.5708 214.206 90.5099 212.138C90.4875 211.542 90.2803 210.967 89.9169 210.494C89.5535 210.02 89.0518 209.671 88.4815 209.496Z" fill="#026E9C"/>
<path opacity="0.3" d="M73.5166 180.289C74.0796 179.482 74.7759 178.777 75.5755 178.204C76.7725 177.403 88.8732 167.357 88.8732 167.357L90.4532 170.783L77.9085 181.068L77.5516 182.296L73.5166 180.289Z" fill="#026E9C"/>
<path opacity="0.3" d="M94.0834 163.64L93.6177 168.297L98.0227 164.758L95.5634 164.301L94.0834 163.64Z" fill="#026E9C"/>
<path opacity="0.7" d="M114.637 156.527C114.464 157.594 114.648 158.687 115.162 159.637C115.675 160.588 116.489 161.342 117.475 161.781C117.301 162.641 117.44 163.535 117.867 164.301C118.674 165.433 119.561 166.505 120.522 167.509C119.56 167.476 118.615 167.24 117.75 166.818C116.885 166.396 116.118 165.797 115.499 165.059C113.318 162.525 113.758 158.447 114.637 156.527Z" fill="#04315F"/>
<path opacity="0.7" d="M119.926 152.962C120.751 153.342 121.417 153.999 121.806 154.819C122.196 155.64 122.286 156.571 122.059 157.45C122.059 157.45 124.122 157.798 125.106 158.53C126.089 159.261 127.878 162.012 127.878 162.012C128.159 161.517 128.33 160.968 128.377 160.401C128.424 159.834 128.348 159.264 128.153 158.73C127.495 156.867 126.912 154.812 124.762 153.942C123.207 153.38 121.577 153.05 119.926 152.962Z" fill="#04315F"/>
<path d="M114.637 164.192L113.915 161.781V158.247C112.761 162.443 104.617 162.256 100.669 160.554C97.9706 159.391 97.2698 157.546 97.1871 155.866C97.1871 155.522 97.1871 154.804 97.1871 154.804C97.1871 151.13 97.1871 146.829 97.1871 146.829L94.1837 146.237L94.8671 150.895L94.7408 156.667L94.0923 163.631L96.791 164.502C97.7536 164.643 98.7317 164.643 99.6943 164.502C101.357 164.271 101.144 163.196 101.98 163.631C102.358 163.823 103.842 163.975 105.335 164.088H105.401H105.497C107.238 164.214 108.909 164.28 108.909 164.28L107.56 164.114L111.617 164.171L114.637 164.192Z" fill="#04315F"/>
<path d="M118.89 146.237V152.962L120.971 152.884L123.77 153.276L125.554 154.355L125.276 143.634C125.276 143.634 124.936 144.505 122.229 145.423C119.521 146.342 118.89 146.237 118.89 146.237Z" fill="#04315F"/>
<path d="M118.89 146.237L116.714 145.179L121.767 144.083L122.808 143.713V142.354C122.808 142.354 124.928 142.65 125.28 143.634C125.633 144.618 122.233 145.423 122.233 145.423L118.89 146.237Z" fill="#04315F"/>
<path d="M97.1784 146.829L98.3449 145.523L94.7321 144.931L94.7496 142.62L93.6353 143.347L94.175 146.237L97.1784 146.829Z" fill="#04315F"/>
<path opacity="0.3" d="M98.0228 145.384L98.0794 131.743L94.6016 137.715L94.7321 144.932L98.0228 145.384Z" fill="#026E9C"/>
<path opacity="0.3" d="M116.709 145.18L116.666 133.105L120.392 137.423L122.803 140.048V143.713L120.239 144.418L116.709 145.18Z" fill="#026E9C"/>
<path d="M86.3703 102.862L98.3448 118.332L114.071 119.106L122.803 112.904L124.022 124.852L124.744 131.159L126.555 139.368L123.835 140.544L119.917 136.9L115.926 131.882L112.8 127.568L101.117 126.893L98.0923 130.188L95.8332 133.867L93.8092 137.819L91.0191 135.895L88.2202 128.016C86.8869 125.135 85.9484 122.087 85.4301 118.954C84.991 116.152 84.7004 113.329 84.5596 110.497L84.6423 108.072L86.3703 102.862Z" fill="#FF9700"/>
<g opacity="0.5">
<path opacity="0.5" d="M39.8654 1.52051C39.2691 1.63803 39.0993 1.72073 39.8654 1.52051V1.52051Z" fill="#026E9C"/>
<path opacity="0.5" d="M44.7232 11.2886C44.5736 11.3099 44.4332 11.3733 44.3183 11.4714C43.8874 11.8153 44.1878 11.5889 44.7232 11.2886Z" fill="#026E9C"/>
<path opacity="0.5" d="M40.3793 1.38154L39.8657 1.52083C40.3533 1.4283 40.8461 1.36579 41.3413 1.33366C41.0209 1.28137 40.693 1.29769 40.3793 1.38154Z" fill="#026E9C"/>
<path opacity="0.5" d="M58.9872 28.9005C58.9872 28.9005 57.0024 26.2583 57.0546 23.8774C57.0317 22.0757 57.3599 20.2868 58.0209 18.6105C58.6477 16.8694 57.5552 15.3982 56.2798 12.5166C55.0045 9.63511 53.2851 8.27705 50.4689 5.83515C47.6526 3.39325 45.6329 2.68375 43.6829 1.67826C42.943 1.37094 42.1378 1.25421 41.3411 1.33874C44.3402 1.77402 48.4492 7.12792 50.5472 9.2216C52.8759 11.5547 52.4755 12.7038 52.5408 13.7485C52.6061 14.7931 50.7431 15.0151 49.9291 13.9487C48.9868 12.7658 47.9086 11.6978 46.7168 10.7668C46.2815 10.4839 45.3544 10.9409 44.7232 11.2935C45.4675 11.2108 46.0726 12.5471 46.769 13.2914C47.4655 14.0358 46.4513 15.2415 46.1074 15.6071C47.6918 14.8584 48.3882 15.7551 48.3882 15.7551C48.3882 15.7551 47.6178 16.3993 48.3882 17.457C49.1587 18.5148 48.8235 19.7292 46.9605 20.3952C45.0976 21.0611 44.6753 19.3766 44.6753 19.3766C44.6753 19.3766 43.931 17.9271 44.7363 16.6997C44.4836 16.9378 44.2452 17.1907 44.0224 17.457C43.0169 18.6584 42.1203 16.7606 42.1203 16.7606C42.1203 16.7606 41.685 19.529 40.3792 19.4593C39.0733 19.3897 38.5728 17.457 38.5728 17.457C38.6626 18.2641 38.808 19.064 39.008 19.8511C39.3345 21.1177 40.5533 22.1232 42.1377 22.8719C43.7221 23.6206 44.6449 22.0013 44.6449 22.0013C44.6449 22.0013 44.9713 22.602 44.6884 24.7827C44.4055 26.9635 45.6199 27.6773 46.9344 29.1007C48.249 30.524 51.1131 30.6285 51.1131 30.6285L52.1664 33.9366L54.0164 33.2489L56.0491 32.3783L59.8186 30.0104L58.9872 28.9005Z" fill="#026E9C"/>
</g>
<path d="M51.0957 30.6235L52.1491 33.9316C50.9215 34.3442 49.6642 34.6629 48.3883 34.8849C46.7734 35.1112 46.7212 34.5193 46.7212 34.5193C47.0752 33.6893 47.6523 32.9736 48.3883 32.4517C49.6027 31.6073 51.0957 30.6235 51.0957 30.6235Z" fill="#7E8EA5"/>
<path d="M57.8076 26.8715L59.8012 30.0054C59.8012 30.0054 61.107 28.7388 61.2115 27.9945C61.316 27.2501 61.6468 26.2316 60.2626 26.3143C59.4201 26.3699 58.5916 26.5579 57.8076 26.8715Z" fill="#7E8EA5"/>
<path d="M55.0047 44.2215C55.0047 44.2215 58.4869 42.9157 59.5664 41.3008C60.6459 39.686 59.266 36.7653 58.8003 35.4725C58.3345 34.1797 58.0342 31.8858 56.4716 32.3733C54.9089 32.8608 58.9352 30.5539 59.8014 30.0054C60.6676 29.457 61.264 27.668 61.264 27.668L63.9453 36.935C63.9453 36.935 63.9191 39.7164 61.0594 41.7971C58.1996 43.8777 54.4736 44.6264 54.4736 44.6264L55.0047 44.2215Z" fill="#D8E2EA"/>
<path opacity="0.3" d="M171.833 168.175C171.833 168.175 173.752 169.773 175.428 168.646C178.584 166.517 177.169 159.705 178.584 160.249C179.572 160.681 180.485 161.269 181.287 161.99L178.584 160.758C178.584 160.758 179.863 165.455 178.475 167.492C177.086 169.529 175.171 171.379 173.826 170.813C172.481 170.247 171.833 168.698 171.833 168.698V168.175Z" fill="#026E9C"/>
<path opacity="0.3" d="M185.078 165.05C185.078 165.05 189.305 169.807 191.503 169.659C193.701 169.511 194.898 167.631 193.2 165.576C191.503 163.522 188.108 159.13 187.307 158.83C186.506 158.529 192.426 162.26 192.426 162.26C192.426 162.26 190.715 158.129 189.414 156.884C188.112 155.639 187.342 154.307 185.061 153.276C183.673 152.632 182.393 151.776 181.27 150.738L184.29 150.39L186.841 151.804L190.062 152.962C190.062 152.962 192.635 153.537 193.462 155.435C193.966 156.609 194.279 157.857 194.389 159.13L193.975 162.26L194.794 164.471C194.794 164.471 197.122 167.849 195.864 170.282C194.606 172.715 193.405 172.171 193.405 172.171L190.998 170.939L185.078 165.05Z" fill="#026E9C"/>
<path opacity="0.5" d="M185.078 165.05L189.135 169.085C189.135 169.085 186.959 170.277 185.54 168.65C184.121 167.022 185.078 165.05 185.078 165.05Z" fill="#026E9C"/>
<path d="M122.803 140.048V142.081C122.803 142.081 125.249 142.516 125.276 143.634L125.38 147.63L127.874 147.957L130.133 148.997L127.865 142.62L126.56 139.377L123.839 140.553L122.803 140.048Z" fill="#560303"/>
<path d="M91.019 135.895L93.6351 143.347L94.7494 142.62L94.7972 137.162L93.8092 137.819L91.019 135.895Z" fill="#560303"/>
<path opacity="0.7" d="M84.6687 107.202C84.6687 107.202 83.4238 109.848 81.5434 120.46C79.663 131.072 83.5457 141.353 83.5457 141.353C83.5457 141.353 86.0311 147.108 87.3848 149.502C88.7386 151.896 90.5232 153.911 91.4025 160.184C92.2817 166.456 92.4906 173.877 92.4906 173.877C92.4906 173.877 93.7312 166.843 94.4059 160.184C95.0805 153.524 94.593 148.866 93.6398 143.334C92.6865 137.802 88.2249 128.004 88.2249 128.004C88.2249 128.004 85.4957 121.57 85.0996 117.313C84.7035 113.056 84.6687 107.202 84.6687 107.202Z" fill="#560303"/>
<path opacity="0.3" d="M92.8559 84.6019C92.8559 84.6019 91.7938 84.6454 90.2442 83.344C88.6946 82.0425 88.6772 81.6812 88.6772 81.6812L88.242 78.0858L86.54 77.8377L81.5474 71.9441L77.3905 65.663L76.4416 65.2756L76.7376 64.3137L77.0553 63.6477L75.0487 64.3137L74.3087 64.3441L75.1401 63.0949L76.1413 62.5073L74.3131 58.9989C74.2458 59.0129 74.1773 59.0201 74.1085 59.0207C73.5353 59.05 72.9732 58.8548 72.5415 58.4766C72.3182 58.4879 72.0958 58.4399 71.8971 58.3375C71.6983 58.235 71.5302 58.0818 71.4098 57.8933C71.2547 57.6169 71.2135 57.2909 71.2947 56.9846C71.376 56.6782 71.5734 56.4156 71.8451 56.2523C72.1541 56.0695 72.4588 55.8867 72.7766 55.7213L72.9159 55.6517L69.3074 46.9461L65.7207 36.9348L64.5585 35.5288H63.688L63.9622 36.3994C63.9622 36.3994 64.0623 38.4321 63.0046 39.7249C61.9469 41.0177 58.752 43.1592 58.752 43.1592C58.752 43.1592 62.2342 41.5313 63.6096 44.2039C64.9851 46.8765 65.8121 48.7873 67.1441 52.8441C68.476 56.9009 69.7557 60.4441 71.1704 61.7847C72.585 63.1254 69.2682 65.589 69.9342 65.9503C70.6002 66.3116 73.7385 65.1886 72.7679 65.9503C71.7972 66.712 71.6057 67.1168 72.7679 67.3824C73.9301 67.6479 75.1097 70.5773 76.9161 74.0378C78.7225 77.4982 81.6649 82.4865 84.1852 83.9882C86.7054 85.4899 86.4573 89.921 86.4573 89.921L92.8559 84.6019Z" fill="#560303"/>
<path opacity="0.5" d="M131.983 108.377L134.073 109.204C134.073 109.204 126.124 136.335 129.441 145.18C132.758 154.024 128.884 145.384 128.884 145.384C128.884 145.384 127.182 138.072 128.013 131.168C128.845 124.265 130.912 112.738 130.912 112.738L131.983 108.377Z" fill="#560303"/>
<path opacity="0.5" d="M130.986 97.3164L131.822 98.8616C131.822 98.8616 127.086 101.882 125.994 103.811L124.688 103.328C124.688 103.328 127.613 99.2752 130.986 97.3164Z" fill="#560303"/>
<path opacity="0.5" d="M120.492 86.7352C120.492 86.7352 124.344 83.3966 128.762 88.2456L126.007 84.4151L124.035 82.8786L123.347 82.3389L118.494 84.0147L120.492 86.7352Z" fill="#560303"/>
<path opacity="0.5" d="M139.078 108.377C139.078 108.377 134.965 120.129 134.66 124.648C134.451 127.695 133.789 137.549 136.07 140.553C135.876 137.598 136.107 134.631 136.758 131.743C137.842 126.754 139.022 122.785 139.022 122.785L141.333 116.843C141.333 116.843 140.066 115.193 139.531 114.262C138.995 113.33 139.078 108.377 139.078 108.377Z" fill="#560303"/>
<path opacity="0.3" d="M132.549 153.772C132.549 153.772 140.467 164.906 146.19 167.266C151.914 169.625 152.136 160.989 151.562 157.672C150.987 154.355 147.801 148.644 144.34 146.829C140.88 145.014 140.24 144.814 140.24 144.814C140.24 144.814 139.683 141.946 138.216 140.553C136.749 139.16 136.083 140.553 136.083 140.553L136.288 135.303C136.288 135.303 138.351 136.457 139.187 138.189C140.023 139.922 140.445 140.875 140.445 140.875C140.445 140.875 142.921 141.31 147.348 145.767C151.775 150.225 154.343 153.376 154.343 153.376L159.893 161.355C159.893 161.355 158.269 168.968 156.572 172.236C154.874 175.505 153.09 179.022 150.961 178.33C148.833 177.638 146.913 176.876 144.179 173.037C141.446 169.198 132.549 153.772 132.549 153.772Z" fill="#560303"/>
<path opacity="0.5" d="M139.078 108.377C139.078 108.377 138.965 112.447 142.778 113.287C146.591 114.127 146.125 112.93 151.549 115.063C156.972 117.196 163.258 121.109 164.028 120.138C164.798 119.167 164.751 119.498 164.751 119.498C164.751 119.498 164.694 122.249 165.895 126.976C167.097 131.703 168.707 139.164 171.819 139.621L168.612 139.678L164.829 129.174L163.018 124.465L163.227 123.594C163.227 123.594 156.977 120.6 153.251 118.902C149.525 117.204 141.337 116.856 141.337 116.856L139.535 114.275L139.1 111.663L139.078 108.377Z" fill="#560303"/>
<path opacity="0.3" d="M128.749 88.2456C128.749 88.2456 134.355 90.348 137.15 91.989C139.944 93.63 143.579 95.3276 143.357 95.7411C143.135 96.1546 145.02 99.9154 146.878 100.564C148.737 101.212 152.062 103.21 158.195 104.943C164.328 106.675 167.336 109.335 170.218 115.063C173.099 120.791 175.767 130.354 178.053 132.361C180.338 134.368 182.049 137.149 179.794 138.564C177.539 139.978 181.761 138.564 181.761 138.564L184.638 136.775L181.552 130.315L175.001 114.523L170.701 106.579L163.236 102.845L154.343 99.8283L152.084 98.8446L150.487 97.2994L148.785 96.5681C148.785 96.5681 148.941 92.9814 146.878 92.0891C144.815 91.1968 125.985 84.4282 125.985 84.4282L128.749 88.2456Z" fill="#560303"/>
<path d="M170.54 142.089C170.545 142.179 170.556 142.267 170.575 142.355L170.54 142.089Z" fill="#D8E2EA"/>
<path d="M186.062 144.301C185.811 143.655 185.473 143.048 185.057 142.494C184.451 141.754 183.607 139.534 183.607 139.534L183.298 137.715C183.298 137.715 182.21 138.903 176.625 139.856C175.937 139.974 175.285 140.061 174.684 140.118L170.288 140.139L170.54 142.089L171.532 149.633L176.473 150.569L174.24 150.068C172.007 149.572 172.429 147.748 171.833 144.187C171.367 141.436 172.342 141.14 172.812 141.14L173.043 141.167C174.24 141.306 175.489 141.524 177.121 141.08C179.32 140.479 180.12 139.43 180.604 141.902C181.087 144.375 181.605 148.549 182.201 149.006C182.797 149.463 181.975 151.043 180.229 150.899C178.484 150.756 181.97 151.335 183.851 150.547C184.941 150.092 185.958 149.478 186.867 148.723L186.062 144.301Z" fill="#D8E2EA"/>
<path opacity="0.3" d="M71.841 56.2437C71.841 56.2437 71.5146 57.0576 73.2426 57.2013C74.9707 57.3449 75.6497 56.9793 75.6497 56.9793V56.4265L78.5182 56.2437L80.3507 56.7399L84.6643 56.8008L84.895 58.6116H83.18C83.18 58.6116 82.5576 61.6585 81.4128 61.554C80.268 61.4496 77.4648 61.1927 77.4648 61.1927L76.899 60.492L75.7977 58.7987C75.7977 58.7987 73.4516 58.9163 71.8149 58.1328C70.1783 57.3493 71.841 56.2437 71.841 56.2437Z" fill="#026E9C"/>
<path d="M84.5859 56.0132H87.5676L88.5426 56.9447L88.2205 61.8024L86.7319 61.5543L85.574 60.1048L84.895 58.6118L84.5859 56.0132Z" fill="#04315F"/>
<path d="M97.406 12.2751C97.8916 11.8778 98.1248 11.3596 97.9269 11.1178C97.729 10.8759 97.1749 11.0019 96.6893 11.3992C96.2037 11.7966 95.9705 12.3147 96.1684 12.5566C96.3663 12.7985 96.9204 12.6725 97.406 12.2751Z" fill="#00A5D8"/>
<path d="M61.6207 58.9079C61.9524 58.9079 62.2214 58.639 62.2214 58.3072C62.2214 57.9755 61.9524 57.7065 61.6207 57.7065C61.289 57.7065 61.02 57.9755 61.02 58.3072C61.02 58.639 61.289 58.9079 61.6207 58.9079Z" fill="#00A5D8"/>
<path d="M154.626 45.2443C154.958 45.2443 155.227 44.9754 155.227 44.6436C155.227 44.3119 154.958 44.043 154.626 44.043C154.294 44.043 154.025 44.3119 154.025 44.6436C154.025 44.9754 154.294 45.2443 154.626 45.2443Z" fill="#00A5D8"/>
<path opacity="0.5" d="M90.0137 86.9919C90.0137 86.9919 92.0464 85.2508 93.9747 87.1007C95.903 88.9506 94.4448 91.2315 94.4448 91.2315C94.4448 91.2315 94.8583 90.4828 97.4917 88.2629C100.125 86.043 101.096 86.0386 101.096 86.0386L95.1978 85.2334L92.325 84.6196L91.0192 85.821" fill="#560303"/>
<g style="mix-blend-mode:multiply" opacity="0.3">
<path d="M95.3677 90.1605H100.339L101.779 86.021L100.456 86.0297L95.3677 90.1605Z" fill="#7C4700"/>
</g>
<g style="mix-blend-mode:multiply" opacity="0.3">
<path d="M115.391 101.9L122.921 109.6C122.921 109.6 121.994 97.6211 121.994 96.4198C121.994 95.2184 121.123 88.6327 121.123 88.6327L120.509 86.7349L117.75 93.473L115.391 101.9Z" fill="#7C4700"/>
</g>
<path d="M175.128 150.542C175.128 150.542 176.272 153.084 174.083 154.551C171.893 156.018 171.998 158.172 172.416 160.714C172.834 163.256 173.186 165.407 172.176 167.069C171.167 168.732 172.207 172.645 176.481 170.003C180.756 167.361 178.357 160.719 178.357 160.719C178.357 160.719 180.534 160.91 184.612 164.636C188.691 168.362 192.116 173.538 194.624 171.875C197.131 170.212 196.8 165.128 192.447 162.299C188.094 159.47 187.341 159.252 187.341 159.252" stroke="#34374C" stroke-width="1.44" stroke-linecap="round" stroke-linejoin="round"/>
<path d="M184.403 150.542C184.403 150.542 185.444 151.413 189.405 152.792C193.366 154.172 194.302 156.314 194.406 159.147C194.51 161.981 193.992 162.277 193.992 162.277" stroke="#34374C" stroke-width="1.44" stroke-linecap="round" stroke-linejoin="round"/>
<path d="M189.414 156.884C189.414 156.884 194.959 162.177 194.794 164.471" stroke="#34374C" stroke-width="1.44" stroke-linecap="round" stroke-linejoin="round"/>
<path d="M185.078 165.05C185.078 165.05 183.986 167.544 185.949 169.011C187.912 170.478 188.926 169.011 188.926 169.011" stroke="#34374C" stroke-width="1.44" stroke-linecap="round" stroke-linejoin="round"/>
<path d="M161.442 205.422C161.655 205.17 161.882 204.93 162.121 204.704C162.358 204.65 162.601 204.626 162.844 204.63C163.923 206.262 166.326 207.751 167.319 209.418C167.114 209.945 166.596 211.124 166.2 211.32" stroke="#34374C" stroke-width="1.44" stroke-linecap="round" stroke-linejoin="round"/>
<path d="M146.395 213.784C145.788 213.76 145.18 213.779 144.575 213.84C144.436 216.574 145.446 218.946 146.608 221.214C146.899 221.19 147.182 221.108 147.439 220.971C147.697 220.834 147.923 220.645 148.105 220.417" stroke="#34374C" stroke-width="1.44" stroke-linecap="round" stroke-linejoin="round"/>
<path d="M141.346 200.39C141.346 200.39 141.524 200.355 141.528 200.36L141.346 200.395C138.847 200.168 136.923 194.867 136.074 192.873C134.142 188.324 134.09 181.39 138.982 179.623C141.489 178.718 144.527 179.867 147.009 181.861C150.351 184.537 157.172 192.908 154.761 195.707" stroke="#34374C" stroke-width="1.44" stroke-linecap="round" stroke-linejoin="round"/>
<path d="M168.999 220.622C171.793 216.374 169.273 213.849 166.231 211.311C164.572 209.927 158.692 202.114 157.368 199.842C155.466 196.56 153.56 194.257 151.514 191.136C148.95 187.219 147.004 185.665 144.415 184.237C141.681 182.736 139.191 184.272 138.482 186.54C137.272 190.414 140.458 198.092 142.543 202.593C144.502 206.819 145.629 211.298 146.974 215.682C147.496 217.371 147.679 219.003 148.28 220.626C148.789 222.002 150.639 225.075 154.496 224.683" stroke="#34374C" stroke-width="1.44" stroke-linecap="round" stroke-linejoin="round"/>
<path d="M167.371 216.739C169.769 222.202 171.079 228.67 168.115 230.494C164.685 232.605 157.581 228.635 153.146 222.711" stroke="#34374C" stroke-width="1.44" stroke-linecap="round" stroke-linejoin="round"/>
<path d="M152.841 223.308C152.841 223.308 153.533 218.759 158.774 216.713C164.015 214.667 168.764 217.183 168.764 217.183" stroke="#34374C" stroke-width="1.44" stroke-linecap="round" stroke-linejoin="round"/>
<path d="M93.6004 16.7685C93.4052 15.1322 93.8678 13.4853 94.8865 12.1899C95.9051 10.8946 97.3965 10.0567 99.0327 9.86063C99.8363 9.74289 100.655 9.78608 101.442 9.98766C102.229 10.1892 102.968 10.5452 103.616 11.0349C104.264 11.5245 104.808 12.1381 105.217 12.8399C105.626 13.5418 105.891 14.3179 105.997 15.1231" stroke="#34374C" stroke-width="1.44" stroke-miterlimit="10"/>
<path d="M130.742 75.5093L124.744 56.4268" stroke="#34374C" stroke-width="1.44" stroke-miterlimit="10"/>
<path d="M103.316 22.2969L101.357 15.9288C101.088 15.8414 100.808 15.7888 100.526 15.7721C100.015 15.7453 99.5039 15.8087 99.0154 15.9593C98.6526 16.0665 98.3023 16.2124 97.9707 16.3945L98.0534 23.0064" stroke="#34374C" stroke-width="1.44" stroke-miterlimit="10"/>
<path d="M97.9878 18.9668C95.5851 18.8754 93.7743 18.0484 93.6089 16.8122C93.3957 15.2234 95.9899 13.565 99.3981 13.1036C102.806 12.6422 105.753 13.5607 105.966 15.1494C106.141 16.4553 104.465 17.7611 102.005 18.4793" stroke="#34374C" stroke-width="1.44" stroke-miterlimit="10"/>
<path d="M84.4941 54.0415L80.6332 54.7205C80.5124 54.9768 80.4246 55.2474 80.372 55.5258C80.2848 56.0299 80.2848 56.5452 80.372 57.0493C80.4304 57.4232 80.5296 57.7896 80.668 58.1418L84.8989 58.6119" stroke="#34374C" stroke-width="1.44" stroke-miterlimit="10"/>
<path d="M83.1799 58.4116C82.971 60.2006 82.3094 61.4933 81.4127 61.5543C80.2288 61.6283 78.8011 59.5085 78.6226 56.7662C78.4441 54.024 79.5802 51.7518 80.7642 51.6778C81.6347 51.6213 82.4313 52.7312 82.8796 54.3809" stroke="#34374C" stroke-width="1.44" stroke-miterlimit="10"/>
<path d="M88.673 61.6411H87.4063C86.0657 61.7281 84.7947 59.2949 84.6119 56.2045C84.4944 54.8612 84.6423 53.5079 85.0471 52.2217" stroke="#34374C" stroke-width="1.44" stroke-miterlimit="10"/>
<path d="M80.7508 51.6953L77.2686 52.457C76.2109 52.5267 75.4927 54.5507 75.6494 56.9796C75.8061 59.4084 76.7898 61.3323 77.8258 61.254L81.395 61.5543" stroke="#34374C" stroke-width="1.44" stroke-miterlimit="10"/>
<path d="M75.9629 58.8207C73.3773 58.9904 71.227 58.2853 71.1748 57.2406C71.1226 56.196 73.1466 55.2122 75.7322 55.0425" stroke="#34374C" stroke-width="1.44" stroke-miterlimit="10"/>
<path d="M71.1446 57.2408C71.1446 57.2408 67.3838 55.9089 63.1094 58.6598" stroke="#34374C" stroke-width="1.44" stroke-miterlimit="10"/>
<path d="M64.3062 59.3257C64.3379 59.7975 64.229 60.2682 63.9931 60.6781C63.7572 61.088 63.4049 61.4187 62.981 61.6283C62.557 61.8379 62.0804 61.917 61.6115 61.8556C61.1426 61.7941 60.7024 61.5949 60.3468 61.2832C59.9911 60.9715 59.7359 60.5612 59.6136 60.1044C59.4912 59.6476 59.5072 59.1647 59.6594 58.7169C59.8116 58.2692 60.0933 57.8766 60.4688 57.5891C60.8442 57.3015 61.2965 57.1318 61.7685 57.1014C62.0812 57.0807 62.3949 57.1218 62.6917 57.2224C62.9885 57.323 63.2625 57.4811 63.4982 57.6877C63.7339 57.8943 63.9265 58.1452 64.0652 58.4263C64.2038 58.7073 64.2857 59.0129 64.3062 59.3257V59.3257Z" stroke="#34374C" stroke-width="1.44" stroke-miterlimit="10"/>
<path d="M90.2397 67.5219C90.2397 67.5219 104.913 70.0204 117.196 63.0864" stroke="#34374C" stroke-width="1.44" stroke-miterlimit="10"/>
<path d="M93.7178 67.8788C94.5857 69.2109 95.0941 70.7449 95.1934 72.3317C95.3239 74.8867 93.8353 77.5115 99.0064 77.5158C104.177 77.5202 111.777 78.0991 113.292 72.3404C114.807 66.5817 115.277 64.3052 115.277 64.3052" stroke="#34374C" stroke-width="1.44" stroke-miterlimit="10"/>
<path d="M95.2108 72.0184C96.46 72.1011 97.7267 72.1315 98.989 72.1315C100.251 72.1315 101.514 72.0923 102.772 72.0053C105.3 71.8762 107.802 71.4287 110.219 70.6733C107.831 71.5305 105.345 72.0833 102.819 72.3187C101.557 72.458 100.286 72.545 99.0151 72.6016C97.7441 72.6582 96.4774 72.6756 95.1934 72.6451L95.2108 72.0184Z" fill="#34374C"/>
<path d="M141.772 44.979C141.772 44.979 148.254 42.6155 152.916 44.6482" stroke="#34374C" stroke-width="1.44" stroke-miterlimit="10"/>
<path d="M152.85 46.002C152.896 46.4721 153.081 46.9181 153.38 47.2835C153.679 47.649 154.08 47.9175 154.532 48.0551C154.984 48.1927 155.467 48.1933 155.919 48.0568C156.371 47.9202 156.773 47.6527 157.073 47.288C157.374 46.9233 157.559 46.4777 157.606 46.0077C157.653 45.5376 157.56 45.0641 157.338 44.647C157.117 44.2299 156.776 43.8879 156.36 43.6642C155.944 43.4405 155.471 43.3452 155.001 43.3903C154.688 43.4203 154.384 43.5117 154.106 43.6592C153.829 43.8068 153.583 44.0076 153.384 44.2501C153.184 44.4927 153.034 44.7723 152.943 45.0729C152.851 45.3735 152.82 45.6892 152.85 46.002Z" stroke="#34374C" stroke-width="1.44" stroke-miterlimit="10"/>
<path d="M124.279 42.5327L120.165 43.6122C118.281 44.0475 117.445 47.3425 118.294 50.951C119.142 54.5594 121.367 57.1275 123.251 56.6836L127.282 55.652" stroke="#34374C" stroke-width="1.44" stroke-linecap="round" stroke-linejoin="round"/>
<path d="M130.986 49.9673L127.826 51.3254C126.956 51.5256 126.085 50.6986 125.706 49.075C125.328 47.4514 125.811 46.2979 126.66 46.0977L129.902 45.5928" stroke="#34374C" stroke-width="1.44" stroke-linecap="round" stroke-linejoin="round"/>
<path d="M129.384 50.6421C129.432 51.39 129.406 52.1409 129.306 52.8837C129.141 54.0546 128.288 55.404 127.282 55.6434C125.397 56.0787 123.177 53.5192 122.324 49.9108C121.471 46.3023 122.324 43.0117 124.196 42.5677C125.197 42.3326 126.298 42.9464 127.243 44.1216C127.638 44.604 127.962 45.1405 128.205 45.7147" stroke="#34374C" stroke-width="1.44" stroke-linecap="round" stroke-linejoin="round"/>
<path d="M138.373 43.8561L136.854 44.2914C136.371 44.4045 136.153 45.249 136.375 46.1718C136.597 47.0946 137.159 47.7562 137.642 47.643L139.139 47.2077C139.139 47.2077 143.266 46.002 142.852 44.6309C142.439 43.2598 138.373 43.8561 138.373 43.8561Z" stroke="#34374C" stroke-width="1.44" stroke-linecap="round" stroke-linejoin="round"/>
<path d="M135.252 41.4492L131.866 41.915C130.403 42.2588 129.755 44.8096 130.412 47.6127C131.069 50.4159 132.797 52.4008 134.26 52.0569L137.233 50.9078" stroke="#34374C" stroke-width="1.44" stroke-linecap="round" stroke-linejoin="round"/>
<path d="M139.344 47.1773C139.627 48.1828 139.431 50.5812 137.268 50.8424C135.609 51.0426 134.656 48.4135 134.264 47.0511C133.829 45.5146 133.533 43.0596 134.782 41.7843C136.149 40.3914 137.781 42.3501 138.386 43.5254C138.447 43.6472 138.508 43.7691 138.565 43.891" stroke="#34374C" stroke-width="1.44" stroke-linecap="round" stroke-linejoin="round"/>
<path d="M130.756 75.5225C131.213 78.9133 122.511 84.0713 110.855 85.6427C99.1981 87.214 89.0213 84.6024 88.5425 81.2115" stroke="#34374C" stroke-width="1.44" stroke-linecap="round" stroke-linejoin="round"/>
<path d="M88.4556 56.6226L88.5252 81.1939" stroke="#34374C" stroke-width="1.44" stroke-linecap="round" stroke-linejoin="round"/>
<path d="M120.631 43.3817L115.595 27.542C115.229 25.3656 109.109 24.5777 101.596 25.8357C94.0836 27.0936 88.0202 29.9099 88.3858 32.0949L88.425 46.0934" stroke="#34374C" stroke-width="1.44" stroke-linecap="round" stroke-linejoin="round"/>
<path d="M107.586 25.1827L106.946 23.1805C106.785 22.2011 104.043 21.8746 100.682 22.4144C97.3221 22.9541 94.5885 24.2382 94.7714 25.2132L94.8105 27.3896" stroke="#34374C" stroke-width="1.44" stroke-linecap="round" stroke-linejoin="round"/>
<path d="M91.3979 136.069C92.1674 136.696 92.9726 137.277 93.8094 137.81C95.4702 133.711 97.953 129.996 101.105 126.894C106.937 127.15 112.796 127.594 112.796 127.594C112.796 127.594 118.019 136.113 123.861 140.544C124.697 140.23 125.602 139.839 126.555 139.369" stroke="#34374C" stroke-width="1.44" stroke-linecap="round" stroke-linejoin="round"/>
<path d="M101.779 86.021C99.0719 93.0942 100.474 100.995 100.474 100.995L115.382 101.9C115.382 101.9 117.188 93.4729 120.483 86.4824" stroke="#34374C" stroke-width="1.44" stroke-linecap="round" stroke-linejoin="round"/>
<path d="M115.386 85.042L115.473 86.4436C115.512 87.9888 113.479 89.299 110.933 89.3643C108.387 89.4296 106.293 88.2239 106.254 86.6743L106.08 86.239" stroke="#34374C" stroke-width="1.44" stroke-linecap="round" stroke-linejoin="round"/>
<path d="M85.1342 211.951C84.7773 213.592 85.6783 215.185 87.1452 215.503C88.6121 215.821 90.0877 214.746 90.4446 213.105C90.8015 211.464 89.9048 209.871 88.438 209.549C86.9711 209.226 85.4911 210.306 85.1342 211.951Z" stroke="#34374C" stroke-width="1.44" stroke-linecap="round" stroke-linejoin="round"/>
<path d="M84.0893 211.721C83.9086 212.349 83.9212 213.018 84.1252 213.639C84.3293 214.26 84.7156 214.806 85.2337 215.205C85.7519 215.603 86.378 215.837 87.0308 215.876C87.6837 215.914 88.3329 215.756 88.8944 215.42C89.4558 215.085 89.9034 214.589 90.1791 213.996C90.4547 213.403 90.5457 212.74 90.4401 212.095C90.3345 211.45 90.0373 210.851 89.5871 210.377C89.1368 209.902 88.5544 209.574 87.9153 209.436C87.105 209.232 86.2472 209.359 85.53 209.787C84.8127 210.216 84.2946 210.911 84.0893 211.721V211.721Z" stroke="#34374C" stroke-width="1.44" stroke-linecap="round" stroke-linejoin="round"/>
<path d="M66.6653 211.264C66.2605 210.955 66.1778 209.727 68.8113 208.369C70.3478 207.577 73.0073 206.955 73.7168 204.016C74.4742 200.882 68.0582 189.835 63.5923 183.676C63.5923 183.676 65.2637 183.075 74.7136 186.192C84.1635 189.308 85.0688 192.003 85.0688 192.003C87.7117 195.194 89.7422 198.847 91.0582 202.776C92.2502 206.181 93.1772 209.674 93.831 213.222C94.0486 214.567 94.2662 217.253 93.4479 218.603C91.5196 221.824 76.4721 223.173 75.5406 222.002" stroke="#34374C" stroke-width="1.44" stroke-linecap="round" stroke-linejoin="round"/>
<path d="M76.4634 221.636C74.4742 221.962 61.3028 223.751 58.2819 221.162C54.0249 217.505 61.281 213.927 63.9188 212.695C65.5818 211.877 67.31 211.199 69.0855 210.667" stroke="#34374C" stroke-width="1.44" stroke-linecap="round" stroke-linejoin="round"/>
<path d="M67.5142 210.989C67.5142 210.989 69.3946 209.727 71.7929 212.177C74.1913 214.628 77.1947 219.486 76.4896 221.566" stroke="#34374C" stroke-width="1.44" stroke-linecap="round" stroke-linejoin="round"/>
<path d="M64.5675 185.138C64.5675 185.138 59.3442 182.827 60.8024 179.436C62.9788 174.374 91.2718 185.835 85.7786 192.93" stroke="#34374C" stroke-width="1.44" stroke-linecap="round" stroke-linejoin="round"/>
<path d="M94.1748 146.237C97.2217 147.042 102.476 147.543 108.4 147.365C117.836 147.051 125.275 145.066 125.275 143.634C125.275 143.151 124.588 142.494 122.803 142.354" stroke="#34374C" stroke-width="1.44" stroke-linecap="round" stroke-linejoin="round"/>
<path d="M93.7656 144.64C96.1553 145.51 101.796 146.02 108.356 145.824C115.421 145.615 121.375 144.666 123.334 143.543" stroke="#34374C" stroke-width="1.44" stroke-linecap="round" stroke-linejoin="round"/>
<path d="M90.4533 170.783C84.8209 175.283 78.0697 180.724 77.9087 181.068L77.5518 182.296" stroke="#34374C" stroke-width="1.44" stroke-linecap="round" stroke-linejoin="round"/>
<path d="M98.0227 164.758C98.0227 164.758 96.077 166.338 93.6177 168.297" stroke="#34374C" stroke-width="1.44" stroke-linecap="round" stroke-linejoin="round"/>
<path d="M87.38 162.234L69.9994 176.311C69.3748 176.905 68.885 177.626 68.563 178.426" stroke="#34374C" stroke-width="1.44" stroke-linecap="round" stroke-linejoin="round"/>
<path d="M118.232 165.011L134.372 183.88C134.621 184.152 134.796 184.483 134.882 184.842" stroke="#34374C" stroke-width="1.44" stroke-linecap="round" stroke-linejoin="round"/>
<path d="M125.972 159.583L142.791 179.593" stroke="#34374C" stroke-width="1.44" stroke-linecap="round" stroke-linejoin="round"/>
<path d="M125.275 143.634L125.484 154.355" stroke="#34374C" stroke-width="1.44" stroke-linecap="round" stroke-linejoin="round"/>
<path d="M94.6016 160.249C97.6485 162.73 102.82 164.271 108.9 164.301C110.82 164.271 112.735 164.126 114.637 163.866" stroke="#34374C" stroke-width="1.44" stroke-linecap="round" stroke-linejoin="round"/>
<path d="M101.714 163.64C100.636 164.338 99.3845 164.721 98.1004 164.747C96.8164 164.774 95.5504 164.441 94.4448 163.788" stroke="#34374C" stroke-width="1.44" stroke-linecap="round" stroke-linejoin="round"/>
<path d="M120.361 167.518C118.943 167.4 117.59 166.872 116.467 165.998C115.344 165.124 114.499 163.942 114.037 162.596C113.575 161.25 113.515 159.798 113.865 158.419C114.214 157.039 114.958 155.791 116.005 154.827C117.052 153.863 118.358 153.226 119.761 152.991C121.165 152.757 122.607 152.937 123.91 153.509C125.213 154.081 126.321 155.02 127.1 156.211C127.878 157.403 128.292 158.795 128.292 160.218C128.292 160.845 128.213 161.47 128.057 162.077" stroke="#34374C" stroke-width="1.44" stroke-linecap="round" stroke-linejoin="round"/>
<path d="M118.254 165.059C117.585 164.019 117.348 162.759 117.595 161.548C117.841 160.336 118.551 159.269 119.573 158.573C120.595 157.878 121.848 157.609 123.066 157.824C124.283 158.04 125.368 158.722 126.089 159.727" stroke="#34374C" stroke-width="1.44" stroke-linecap="round" stroke-linejoin="round"/>
<path d="M94.7319 144.709V137.423" stroke="#34374C" stroke-width="1.44" stroke-linecap="round" stroke-linejoin="round"/>
<path d="M122.803 143.713V140.048" stroke="#34374C" stroke-width="1.44" stroke-linecap="round" stroke-linejoin="round"/>
<path d="M140.445 140.875C140.445 140.875 147.548 144.157 154.965 154.146C157.612 157.715 159.893 161.354 159.893 161.354C159.893 161.354 157.612 173.542 153.255 177.564C151.475 179.214 148.106 178.435 144.179 173.024C135.909 161.676 127.791 146.472 125.097 132.574C122.402 118.675 123.408 97.2554 120.796 87.7011C119.839 84.2189 118.689 83.936 118.489 84.0143" stroke="#34374C" stroke-width="1.44" stroke-linecap="round" stroke-linejoin="round"/>
<path d="M136.288 135.273C136.288 135.273 141.69 138.385 140.24 144.814" stroke="#34374C" stroke-width="1.44" stroke-linecap="round" stroke-linejoin="round"/>
<path d="M136.092 140.043C135.883 128.012 141.485 116.538 141.485 116.538C141.485 116.538 141.098 116.926 140.092 115.354C138.29 112.53 138.786 104.507 141.485 99.3232C144.184 94.1391 145.403 91.4404 146.878 92.0628C148.354 92.6852 149.364 99.3232 149.364 99.3232" stroke="#34374C" stroke-width="1.44" stroke-linecap="round" stroke-linejoin="round"/>
<path d="M131.017 150.451C123.682 136.478 132.549 106.231 132.549 106.231L124.67 103.328C124.67 103.328 128.766 98.0215 132.549 96.485C128.318 84.5889 123.491 82.5562 123.491 82.5562" stroke="#34374C" stroke-width="1.44" stroke-linecap="round" stroke-linejoin="round"/>
<path d="M125.994 84.415C125.994 84.415 144.593 90.831 146.887 92.0759" stroke="#34374C" stroke-width="1.44" stroke-linecap="round" stroke-linejoin="round"/>
<path d="M154.343 102.862C154.343 102.862 152.554 97.6387 148.785 96.4199" stroke="#34374C" stroke-width="1.44" stroke-linecap="round" stroke-linejoin="round"/>
<path d="M141.485 116.551C141.485 116.551 151.618 116.673 163.249 123.725" stroke="#34374C" stroke-width="1.44" stroke-linecap="round" stroke-linejoin="round"/>
<path d="M164.816 119.172C164.529 121.218 163.945 123.499 162.818 124.435C162.818 124.435 163.027 123.342 165.099 129.775C167.171 136.209 168.625 139.678 168.625 139.678C168.625 139.678 173.604 140.714 178.17 139.678C182.736 138.642 184.599 136.775 184.599 136.775C184.599 136.775 183.354 135.425 179.206 124.435C175.058 113.444 170.701 106.588 170.701 106.588C170.701 106.588 164.716 103.476 159.736 101.8C157.129 100.963 154.574 99.9734 152.084 98.8359" stroke="#34374C" stroke-width="1.44" stroke-linecap="round" stroke-linejoin="round"/>
<path d="M100.456 86.1519C99.6936 86.5322 98.9828 87.0075 98.3403 87.5665C88.799 95.2404 84.0284 104.573 81.5386 120.46C79.0488 136.348 85.6868 146.473 89.4215 153.106C93.1561 159.74 92.3204 174.483 92.3204 174.483C92.3204 174.483 93.1692 172.411 94.623 158.926C95.6241 149.611 92.9646 140.209 90.9797 135.264C90.3399 133.675 82.5876 117.958 85.0556 106.101" stroke="#34374C" stroke-width="1.44" stroke-linecap="round" stroke-linejoin="round"/>
<path d="M92.8558 84.6021L85.7826 90.4739C85.7826 90.4739 87.959 93.6166 87.5237 95.262L82.3004 94.5351C82.3004 94.5351 69.3726 110.719 83.5496 141.34" stroke="#34374C" stroke-width="1.44" stroke-linecap="round" stroke-linejoin="round"/>
<path d="M92.3207 174.483C92.3207 174.483 84.86 161.655 85.4651 146.098" stroke="#34374C" stroke-width="1.44" stroke-linecap="round" stroke-linejoin="round"/>
<path d="M52.1489 28.073C52.1489 28.073 47.2912 27.2895 48.0399 23.3633" stroke="#34374C" stroke-width="1.44" stroke-linecap="round" stroke-linejoin="round"/>
<path d="M46.9604 10.9578C46.9604 10.9578 45.0583 10.0176 42.834 12.8425C40.6097 15.6675 44.1181 22.7668 46.7515 22.4186" stroke="#34374C" stroke-width="1.44" stroke-linecap="round" stroke-linejoin="round"/>
<path d="M44.8145 21.7005C44.8145 21.7005 43.8786 24.0162 40.9666 22.41C37.5845 20.5514 37.4191 12.3638 42.834 12.8339" stroke="#34374C" stroke-width="1.44" stroke-linecap="round" stroke-linejoin="round"/>
<path d="M50.4165 14.8883C50.4165 14.8883 49.3457 11.9414 45.6285 10.1742C41.0276 7.97607 37.7674 3.10532 40.379 1.38162C42.9907 -0.342072 52.7061 7.04022 54.3906 9.54306C56.0751 12.0459 59.2439 16.2986 57.5638 19.907C55.8836 23.5154 57.8467 28.1207 59.8011 30.0054" stroke="#34374C" stroke-width="1.44" stroke-linecap="round" stroke-linejoin="round"/>
<path d="M53.2676 23.1544C53.2676 23.1544 55.5093 21.1652 52.1489 18.967C48.7886 16.7689 49.6635 14.4619 45.9985 15.7329C42.3334 17.0039 45.6241 21.4786 46.93 22.4188C47.8657 23.0136 48.9467 23.3403 50.0553 23.3633" stroke="#34374C" stroke-width="1.44" stroke-linecap="round" stroke-linejoin="round"/>
<path d="M44.762 22.3315C44.762 22.3315 43.8218 26.8149 46.9384 29.0957C48.1608 29.9576 49.5681 30.5211 51.0474 30.7411L52.1705 33.6531" stroke="#34374C" stroke-width="1.44" stroke-linecap="round" stroke-linejoin="round"/>
<path d="M79.1883 100.129C76.7029 94.7356 72.7462 89.7778 66.5131 81.7121C61.6685 75.4484 53.8552 56.466 51.2784 50.7291C48.3055 44.078 51.1478 43.7646 51.1478 43.7646" stroke="#34374C" stroke-width="1.44" stroke-linecap="round" stroke-linejoin="round"/>
<path d="M74.2218 58.7988C74.6425 59.8579 75.2143 60.8504 75.9193 61.7457C76.0978 61.9546 76.2893 62.2506 76.1413 62.49C76.0664 62.5884 75.9653 62.6638 75.8497 62.7076C75.4637 62.8416 75.1083 63.0511 74.8041 63.3238C74.5 63.5966 74.2532 63.9272 74.0781 64.2964C75.384 64.6098 75.7104 63.6826 77.0554 63.6304C77.1773 64.4444 75.8192 64.501 76.6201 65.415C76.7812 65.5935 77.1816 65.4934 77.3732 65.6457C77.6835 65.9391 77.9347 66.2893 78.1131 66.6773C79.0721 68.4136 80.1407 70.087 81.3124 71.6874C84.2505 75.5004 86.6097 77.9554 86.6097 77.9554" stroke="#34374C" stroke-width="1.44" stroke-linecap="round" stroke-linejoin="round"/>
<path d="M63.5923 35.6029C63.5923 35.6029 65.1854 33.7225 67.0484 40.3605C67.9189 43.5032 70.0953 49.3837 72.7505 55.495" stroke="#34374C" stroke-width="1.44" stroke-linecap="round" stroke-linejoin="round"/>
<path d="M51.0957 45.1704C51.0957 45.1704 63.1093 44.7351 64.154 36.417" stroke="#34374C" stroke-width="1.44" stroke-linecap="round" stroke-linejoin="round"/>
<path d="M51.026 30.7411C51.026 30.7411 46.5165 33.2396 46.7211 34.5193C46.9257 35.799 53.3591 33.9317 57.8207 31.4419C62.2823 28.9521 62.6958 24.8039 57.8207 26.8759" stroke="#34374C" stroke-width="1.44" stroke-linecap="round" stroke-linejoin="round"/>
<path d="M46.7212 34.5195C46.8353 36.4748 47.5789 38.3408 48.841 39.8386C50.0497 41.4418 51.0966 43.1608 51.9663 44.9705" stroke="#34374C" stroke-width="1.44" stroke-linecap="round" stroke-linejoin="round"/>
<path d="M61.2637 27.0107L63.945 36.9525" stroke="#34374C" stroke-width="1.44" stroke-linecap="round" stroke-linejoin="round"/>
<path d="M170.288 140.139L171.532 149.633C174.379 150.369 177.299 150.787 180.238 150.878C185.422 151.086 186.876 148.701 186.876 148.701C186.876 148.701 186.506 143.739 185.052 142.494C183.598 141.249 183.311 137.706 183.311 137.706" stroke="#34374C" stroke-width="1.44" stroke-linecap="round" stroke-linejoin="round"/>
<path d="M130.264 148.984C128.205 147.617 125.476 147.617 125.476 147.617" stroke="#34374C" stroke-width="1.44" stroke-linecap="round" stroke-linejoin="round"/>
<path d="M93.8091 137.819L94.7972 137.162C94.7972 137.162 98.4883 129.706 102.306 126.977" stroke="#34374C" stroke-width="1.44" stroke-linecap="round" stroke-linejoin="round"/>
<path d="M102.515 86.1211C101.734 88.5067 101.246 90.9783 101.061 93.4816C100.916 95.9382 100.988 98.4028 101.278 100.847" stroke="#34374C" stroke-width="1.44" stroke-linecap="round" stroke-linejoin="round"/>
<path d="M93.6353 143.347C93.958 143.118 94.3373 142.981 94.7321 142.951" stroke="#34374C" stroke-width="1.44" stroke-linecap="round" stroke-linejoin="round"/>
<path d="M84.6685 79.2005C84.6685 79.2005 86.4662 77.1459 88.2247 78.0862" stroke="#34374C" stroke-width="1.44" stroke-linecap="round" stroke-linejoin="round"/>
<path d="M84.377 42.5027C88.1377 40.4786 91.3414 38.8159 94.3491 35.7559C94.532 36.7701 94.4536 38.3022 94.5276 39.0509C91.9377 40.8965 87.8287 43.0206 84.4118 42.4548" fill="#34374C"/>
<path d="M100.282 35.0374L100.404 32.3735C100.404 32.3735 108.4 32.7392 111.656 36.9352C108.173 35.4422 105.083 34.8285 100.282 35.0374Z" fill="#34374C"/>
<path d="M97.4872 50.7251C97.4881 51.0378 97.3962 51.3437 97.2231 51.6041C97.05 51.8645 96.8035 52.0677 96.5149 52.188C96.2262 52.3083 95.9084 52.3402 95.6016 52.2797C95.2948 52.2192 95.0129 52.0691 94.7915 51.8483C94.5701 51.6275 94.4191 51.3459 94.3578 51.0393C94.2965 50.7327 94.3275 50.4148 94.447 50.1258C94.5665 49.8368 94.769 49.5898 95.0289 49.416C95.2888 49.2422 95.5945 49.1494 95.9072 49.1494C96.3255 49.1494 96.7267 49.3153 97.0229 49.6107C97.3191 49.906 97.4861 50.3068 97.4872 50.7251Z" fill="#34374C"/>
<path d="M100.338 53.0408C99.2459 56.6971 95.7594 58.769 89.8918 55.7569C88.3292 54.956 84.2332 52.9973 84.1113 49.6979C84.0504 47.6956 86.7927 46.5334 88.7079 45.9937C93.6047 44.6182 97.5832 44.3701 99.2895 46.7162" stroke="#34374C" stroke-width="1.44" stroke-linecap="round" stroke-linejoin="round"/>
<path d="M99.9556 55.957C99.3811 56.9625 98.7108 57.7764 96.7955 58.2204C93.8966 58.8864 92.1642 58.3641 88.5949 56.7231C87.8027 56.3574 86.5143 55.2605 87.1411 54.4771" stroke="#34374C" stroke-width="1.44" stroke-linecap="round" stroke-linejoin="round"/>
<path d="M109.749 48.7398C109.749 49.09 109.645 49.4324 109.451 49.7236C109.256 50.0149 108.98 50.2419 108.657 50.3761C108.333 50.5103 107.977 50.5457 107.634 50.4777C107.29 50.4097 106.974 50.2414 106.726 49.9941C106.479 49.7467 106.309 49.4315 106.241 49.0881C106.172 48.7447 106.206 48.3887 106.34 48.0649C106.473 47.7411 106.699 47.4641 106.99 47.2689C107.281 47.0738 107.623 46.9691 107.973 46.9683C108.444 46.9683 108.895 47.1548 109.228 47.4869C109.56 47.819 109.748 48.2696 109.749 48.7398Z" fill="#34374C"/>
<path d="M112.091 53.1709C112.091 53.1709 108.213 56.9361 105.127 56.9361C102.041 56.9361 96.3776 50.1806 101.14 41.6535C105.901 33.1264 112.104 40.8787 113.763 42.6503C115.421 44.4218 118.385 47.743 112.091 53.1709Z" stroke="#34374C" stroke-width="1.44" stroke-linecap="round" stroke-linejoin="round"/>
<path d="M100.774 53.8542C98.9195 54.5593 99.6595 57.3799 104.691 59.3169C107.564 60.4225 111.068 56.8663 113.231 54.9641C114.494 53.8585 116.605 51.9172 114.69 50.4634" stroke="#34374C" stroke-width="1.44" stroke-linecap="round" stroke-linejoin="round"/>
<path d="M101.449 63.696C101.449 63.696 101.179 66.6341 103.843 66.4165C106.989 66.0231 110.087 65.3159 113.092 64.3054C114.833 63.5872 115.813 63.8135 116.466 65.7418C116.922 67.1916 117.28 68.6705 117.536 70.1685C117.536 70.1685 119.621 62.7166 116.083 61.1366C112.544 59.5565 108.404 61.8591 105.562 62.1812C102.72 62.5033 101.396 62.795 101.449 63.696Z" fill="#34374C"/>
<path d="M98.8716 63.0863C98.8716 63.0863 100.613 62.5205 100.944 64.0875C101.274 65.6545 100.865 66.6208 98.8716 66.8428C96.8781 67.0648 94.2707 66.4684 92.8909 67.0604C91.3587 67.7177 92.2728 71.609 92.2728 71.609C92.2728 71.609 89.487 68.8755 90.0964 66.4771C90.7058 64.0788 92.4513 63.6391 94.2664 63.4781C96.0815 63.317 98.8716 63.0863 98.8716 63.0863Z" fill="#34374C"/>
</svg>
