<svg id="ba76f041-1074-4e43-abed-1fc61144d3f8" data-name="Слой 2" xmlns="http://www.w3.org/2000/svg" viewBox="0 0 120 100">
  <circle cx="60" cy="50" r="44" fill="#f0e9fc"/>
  <g>
    <g>
      <path d="M18,27.3V25.44a13.41,13.41,0,0,0,9.22,12.23H27v0a13.89,13.89,0,0,0,4.39.69,12.78,12.78,0,0,0,4.88-1v0a13.39,13.39,0,0,0,8.6-12.46V27.3a2.65,2.65,0,1,0,0-5.29V17.79l0-.05c.27,0,.53.09.8.1.05-.5.08-1,.08-1.52a14.15,14.15,0,0,0-2-7.22A14.31,14.31,0,0,0,33.53,2.17,14.65,14.65,0,0,0,31.42,2,14.32,14.32,0,0,0,17.11,16.32c0,.14,0,.27,0,.41.34.11.71.15,1.06.24h-.25V22A2.64,2.64,0,0,0,18,27.3Z" fill="#fff"/>
      <path d="M43.77,9.1A14.31,14.31,0,0,0,33.53,2.17,14.65,14.65,0,0,0,31.42,2,14.32,14.32,0,0,0,17.11,16.32c0,.14,0,.27,0,.41a25.33,25.33,0,0,0,7.49,1.13,25.15,25.15,0,0,0,12.69-3.43,12.81,12.81,0,0,0,8.35,3.41c.05-.5.08-1,.08-1.52A14.25,14.25,0,0,0,43.77,9.1Z" fill="#c5abf1"/>
      <path d="M75.12,73.73V71.88A13.43,13.43,0,0,0,84.35,84.1h-.2v0a14,14,0,0,0,4.4.69,12.78,12.78,0,0,0,4.88-1v0A13.41,13.41,0,0,0,102,71.35v2.38a2.65,2.65,0,1,0,0-5.29V64.23l0,0c.27,0,.52.08.79.09a12.79,12.79,0,0,0,.09-1.52A14.35,14.35,0,0,0,90.66,48.6a14.65,14.65,0,0,0-2.11-.17A14.32,14.32,0,0,0,74.23,62.75c0,.14,0,.27,0,.41.35.11.72.15,1.07.25h-.25v5.05a2.64,2.64,0,0,0,.05,5.28Z" fill="#fff"/>
      <path d="M21.45,19.92H29a1,1,0,0,1,1,1v1.2a4,4,0,0,1-4,4H21.45a1,1,0,0,1-1-1v-4.2A1,1,0,0,1,21.45,19.92Z" fill="#e2d5f8"/>
      <path d="M33.85,19.92h4.55a4,4,0,0,1,4,4v1.2a1,1,0,0,1-1,1H33.85a1,1,0,0,1-1-1v-4.2A1,1,0,0,1,33.85,19.92Z" transform="translate(75.24 46.05) rotate(-180)" fill="#e2d5f8"/>
      <g>
        <path d="M78.6,66.36h7.55a1,1,0,0,1,1,1v1.2a4,4,0,0,1-4,4H78.6a1,1,0,0,1-1-1v-4.2A1,1,0,0,1,78.6,66.36Z" fill="#e2d5f8"/>
        <path d="M91,66.36h4.55a4,4,0,0,1,4,4v1.2a1,1,0,0,1-1,1H91a1,1,0,0,1-1-1v-4.2A1,1,0,0,1,91,66.36Z" transform="translate(189.55 138.91) rotate(-180)" fill="#e2d5f8"/>
      </g>
      <path d="M100.93,55.53A14.34,14.34,0,0,0,90.68,48.6a14.63,14.63,0,0,0-2.1-.17A14.32,14.32,0,0,0,74.26,62.75c0,.14,0,.27,0,.41a25.28,25.28,0,0,0,20.19-2.3,12.71,12.71,0,0,0,8.34,3.41c0-.5.08-1,.08-1.52A14.24,14.24,0,0,0,100.93,55.53Z" fill="#c5abf1"/>
    </g>
    <g>
      <g>
        <g>
          <path d="M27,40.27a21.54,21.54,0,0,0-14.46,11.3" fill="none" stroke="#6f2cdd" stroke-linecap="round" stroke-linejoin="round" stroke-width="1"/>
          <path d="M50.28,51.57A21.67,21.67,0,0,0,36.36,40.39" fill="none" stroke="#6f2cdd" stroke-linecap="round" stroke-linejoin="round" stroke-width="1"/>
        </g>
        <path d="M27,37.67v3a4.64,4.64,0,1,0,9.27,0v-3" fill="none" stroke="#6f2cdd" stroke-linecap="round" stroke-linejoin="round" stroke-width="1"/>
        <path d="M17.94,17v8a13.48,13.48,0,0,0,27,0V17.79" fill="none" stroke="#6f2cdd" stroke-linecap="round" stroke-linejoin="round" stroke-width="1"/>
        <g>
          <path d="M18,27.3A2.65,2.65,0,1,1,18,22" fill="none" stroke="#6f2cdd" stroke-linecap="round" stroke-linejoin="round" stroke-width="1"/>
          <path d="M44.9,27.3a2.65,2.65,0,1,0,0-5.29" fill="none" stroke="#6f2cdd" stroke-linecap="round" stroke-linejoin="round" stroke-width="1"/>
          <path d="M21.45,19.92H29a1,1,0,0,1,1,1v1.2a4,4,0,0,1-4,4H21.45a1,1,0,0,1-1-1v-4.2A1,1,0,0,1,21.45,19.92Z" fill="none" stroke="#6f2cdd" stroke-linecap="round" stroke-linejoin="round" stroke-width="1"/>
          <path d="M33.85,19.92h4.55a4,4,0,0,1,4,4v1.2a1,1,0,0,1-1,1H33.85a1,1,0,0,1-1-1v-4.2A1,1,0,0,1,33.85,19.92Z" transform="translate(75.24 46.05) rotate(-180)" fill="none" stroke="#6f2cdd" stroke-linecap="round" stroke-linejoin="round" stroke-width="1"/>
          <line x1="30" y1="21.29" x2="32.85" y2="21.29" fill="none" stroke="#6f2cdd" stroke-linecap="round" stroke-linejoin="round" stroke-width="1"/>
          <line x1="42.63" y1="22.01" x2="44.9" y2="22.01" fill="none" stroke="#6f2cdd" stroke-linecap="round" stroke-linejoin="round" stroke-width="1"/>
          <line x1="18" y1="22.01" x2="20.27" y2="22.01" fill="none" stroke="#6f2cdd" stroke-linecap="round" stroke-linejoin="round" stroke-width="1"/>
        </g>
        <path d="M43.77,9.1A14.31,14.31,0,0,0,33.53,2.17,14.65,14.65,0,0,0,31.42,2,14.32,14.32,0,0,0,17.11,16.32c0,.14,0,.27,0,.41a25.33,25.33,0,0,0,7.49,1.13,25.15,25.15,0,0,0,12.69-3.43,12.81,12.81,0,0,0,8.35,3.41c.05-.5.08-1,.08-1.52A14.25,14.25,0,0,0,43.77,9.1Z" fill="none" stroke="#6f2cdd" stroke-linecap="round" stroke-linejoin="round" stroke-width="1"/>
      </g>
      <g>
        <g>
          <path d="M84.18,86.7A21.64,21.64,0,0,0,69.72,98" fill="none" stroke="#6f2cdd" stroke-linecap="round" stroke-linejoin="round" stroke-width="1"/>
          <path d="M107.43,98A21.64,21.64,0,0,0,93.51,86.82" fill="none" stroke="#6f2cdd" stroke-linecap="round" stroke-linejoin="round" stroke-width="1"/>
        </g>
        <path d="M84.18,84.1v3a4.64,4.64,0,1,0,9.27,0v-3" fill="none" stroke="#6f2cdd" stroke-linecap="round" stroke-linejoin="round" stroke-width="1"/>
        <path d="M75.1,63.4v7.95a13.48,13.48,0,1,0,27,0V64.23" fill="none" stroke="#6f2cdd" stroke-linecap="round" stroke-linejoin="round" stroke-width="1"/>
        <g>
          <path d="M75.15,73.73a2.65,2.65,0,1,1,0-5.29" fill="none" stroke="#6f2cdd" stroke-linecap="round" stroke-linejoin="round" stroke-width="1"/>
          <path d="M102.06,73.73a2.65,2.65,0,0,0,0-5.29" fill="none" stroke="#6f2cdd" stroke-linecap="round" stroke-linejoin="round" stroke-width="1"/>
          <path d="M78.6,66.36h7.55a1,1,0,0,1,1,1v1.2a4,4,0,0,1-4,4H78.6a1,1,0,0,1-1-1v-4.2A1,1,0,0,1,78.6,66.36Z" fill="none" stroke="#6f2cdd" stroke-linecap="round" stroke-linejoin="round" stroke-width="1"/>
          <path d="M91,66.36h4.55a4,4,0,0,1,4,4v1.2a1,1,0,0,1-1,1H91a1,1,0,0,1-1-1v-4.2A1,1,0,0,1,91,66.36Z" transform="translate(189.55 138.91) rotate(-180)" fill="none" stroke="#6f2cdd" stroke-linecap="round" stroke-linejoin="round" stroke-width="1"/>
          <line x1="87.15" y1="67.73" x2="90" y2="67.73" fill="none" stroke="#6f2cdd" stroke-linecap="round" stroke-linejoin="round" stroke-width="1"/>
          <line x1="99.78" y1="68.44" x2="102.06" y2="68.44" fill="none" stroke="#6f2cdd" stroke-linecap="round" stroke-linejoin="round" stroke-width="1"/>
          <line x1="75.15" y1="68.44" x2="77.42" y2="68.44" fill="none" stroke="#6f2cdd" stroke-linecap="round" stroke-linejoin="round" stroke-width="1"/>
        </g>
        <path d="M100.93,55.53A14.34,14.34,0,0,0,90.68,48.6a14.63,14.63,0,0,0-2.1-.17A14.32,14.32,0,0,0,74.26,62.75c0,.14,0,.27,0,.41a25.28,25.28,0,0,0,20.19-2.3,12.71,12.71,0,0,0,8.34,3.41c0-.5.08-1,.08-1.52A14.24,14.24,0,0,0,100.93,55.53Z" fill="none" stroke="#6f2cdd" stroke-linecap="round" stroke-linejoin="round" stroke-width="1"/>
      </g>
      <g>
        <path d="M34.12,59.19A28,28,0,0,0,60.57,78" fill="none" stroke="#6f2cdd" stroke-linecap="round" stroke-linejoin="round" stroke-width="1"/>
        <path d="M31.82,67.21a.5.5,0,0,0,.61-.37l1.78-7.44,6,4.76a.49.49,0,0,0,.7-.07.52.52,0,0,0-.08-.71l-6.6-5.25a.47.47,0,0,0-.47-.08.49.49,0,0,0-.33.35l-2,8.21a.54.54,0,0,0,0,.28A.49.49,0,0,0,31.82,67.21Z" fill="#6f2cdd"/>
      </g>
      <g>
        <path d="M87,40.81A28,28,0,0,0,60.57,22" fill="none" stroke="#6f2cdd" stroke-linecap="round" stroke-linejoin="round" stroke-width="1"/>
        <path d="M89.31,32.79a.49.49,0,0,0-.6.37L86.92,40.6l-6-4.76a.5.5,0,1,0-.62.78l6.6,5.25a.47.47,0,0,0,.47.08.49.49,0,0,0,.32-.35l2-8.21a.53.53,0,0,0,0-.28A.53.53,0,0,0,89.31,32.79Z" fill="#6f2cdd"/>
      </g>
    </g>
  </g>
</svg>
