<svg width="199" height="45" viewBox="0 0 199 45" fill="none" xmlns="http://www.w3.org/2000/svg">
<path d="M64.8999 22.325C64.8999 14.725 68.7999 10.225 76.2999 10.225C83.7999 10.225 87.4999 14.725 87.4999 22.025C87.4999 29.325 83.7999 34.125 75.9999 34.125C68.4999 34.125 64.8999 29.625 64.8999 22.325ZM80.4999 22.025C80.4999 18.025 79.0999 16.025 76.2999 16.025C73.4999 16.025 71.8999 18.225 71.8999 22.125C71.8999 26.225 73.3999 28.325 76.2999 28.325C79.1999 28.325 80.4999 26.225 80.4999 22.025Z" fill="#3B3C46"/>
<path d="M90.1001 10.625H99.4001C108.7 10.625 111.1 15.725 111.1 22.225C111.1 28.725 108.5 33.725 99.4001 33.725H90.1001V10.625ZM100.2 28.025C103 28.025 104.2 25.625 104.2 22.125C104.2 18.625 103.1 16.225 100.2 16.225H97.0001V28.025H100.2Z" fill="#3B3C46"/>
<path d="M132.9 33.625C131.2 32.125 129.9 30.125 129.3 27.925H120.7V24.925H128.7C128.6 24.025 128.5 23.225 128.6 22.325C128.6 21.325 128.7 20.425 128.8 19.425H120.8V16.425H129.6C130.2 14.525 131.2 12.825 132.6 11.425C132.9 11.125 133.2 10.825 133.5 10.625H113.9V33.725H133L132.9 33.625Z" fill="#3B3C46"/>
<path d="M157.7 33.725V25.925L149.7 10.625H157.1L161 19.825L164.8 10.625H172.3L164.4 25.825V33.725H157.7ZM192.3 33.725L192 20.125L188.1 29.325H183.5L179.7 20.225L179.4 33.725H172.7L173.7 10.625H181.5L185.8 21.225L190.1 10.625H198L199 33.725H192.3ZM144.5 28.125H143.9C141.1 28.125 138.4 27.025 138.4 22.325C138.4 17.525 141.1 16.325 144.4 16.325C146.3 16.325 148.1 16.625 150 17.025L147.4 12.025L146.6 10.425C145.6 10.325 144.5 10.325 143.4 10.325C135.7 10.325 131.4 15.025 131.4 22.425C131.4 30.925 136.4 34.225 143.5 34.225C146.1 34.225 148.7 33.825 151.3 33.125V24.025H144.6V28.125H144.5Z" fill="url(#paint0_linear)"/>
<path d="M62.5999 27.725C61.2999 27.925 60.0999 28.025 58.7999 28.125C55.5999 28.125 52.8999 27.025 52.8999 22.325C52.8999 17.625 55.6999 16.525 58.7999 16.525C60.0999 16.525 61.3999 16.625 62.6999 16.825C63.2999 14.825 64.2999 13.025 65.6999 11.525C64.1999 11.125 62.6999 10.825 61.0999 10.625C61.0999 10.625 59.3999 10.425 58.4999 10.425H57.2999H56.8999H56.4999H56.3999C50.1999 10.925 45.8999 14.325 45.8999 22.125V22.425C45.8999 30.325 50.1999 33.725 56.3999 34.225H56.4999H56.8999H58.3999C59.2999 34.225 60.9999 34.025 60.9999 34.025C62.4999 33.825 63.9999 33.625 65.4999 33.225C64.0999 31.525 63.0999 29.725 62.5999 27.725Z" fill="#3B3C46"/>
<path d="M36.4 36.225L24.3 43.225C21.8 44.725 18.7 44.725 16.1 43.225L4 36.225C1.6 34.725 0 32.025 0 29.125V15.225C0 12.325 1.6 9.625 4.1 8.125L16.2 1.125C18.7 -0.375 21.9 -0.375 24.4 1.125L36.5 8.125C39 9.625 40.6 12.325 40.6 15.225V29.125C40.5 32.025 38.9 34.725 36.4 36.225Z" fill="url(#paint1_linear)"/>
<path d="M23.7 36.325C22.8 36.325 21.9 36.225 21 35.825C20.5 35.625 20.1 35.425 19.6 35.225C18.9 34.825 18.2 34.325 17.7 33.725C17.2 33.125 16.9 32.525 16.7 31.825C16.5 31.125 16.4 30.425 16.4 29.625V26.725C16.4 26.025 16.3 25.225 15.9 24.625C15.5 24.125 14.9 23.825 14.2 23.825V20.525C14.9 20.625 15.5 20.325 15.9 19.725C16.3 19.125 16.5 18.425 16.4 17.625V14.725C16.4 14.025 16.5 13.225 16.7 12.525C16.9 11.825 17.2 11.125 17.7 10.625C18.3 10.025 18.9 9.42499 19.7 9.02499C20.1 8.82499 20.6 8.62499 21.1 8.42499C21.9 8.12499 22.8 8.02499 23.7 8.02499H24.1V11.325C23.8 11.325 23.4 11.425 23.1 11.525C22.8 11.625 22.6 11.825 22.4 12.125C22.3 12.325 22.2 12.525 22.1 12.725C22 12.925 22 13.225 22 13.425C22 13.725 21.9 13.925 21.9 14.225V14.525V17.725C21.9 18.625 21.6 19.525 21.1 20.325C20.5 21.225 19.6 21.825 18.6 22.225C19.6 22.625 20.5 23.225 21.1 24.125C21.6 24.925 21.9 25.825 21.9 26.725V29.925V30.325C21.9 30.625 21.9 30.925 22 31.125C22 31.325 22.1 31.625 22.1 31.825C22.2 32.025 22.3 32.225 22.4 32.425C22.6 32.625 22.8 32.825 23.1 33.025C23.4 33.125 23.8 33.225 24.1 33.225V36.525H23.7V36.325Z" fill="white"/>
<defs>
<linearGradient id="paint0_linear" x1="165.19" y1="10.2266" x2="165.19" y2="34.1266" gradientUnits="userSpaceOnUse">
<stop stop-color="#F28F41"/>
<stop offset="1" stop-color="#EB5E30"/>
</linearGradient>
<linearGradient id="paint1_linear" x1="20.2398" y1="0.6071" x2="20.2398" y2="44.4766" gradientUnits="userSpaceOnUse">
<stop stop-color="#F28F41"/>
<stop offset="1" stop-color="#EB5E30"/>
</linearGradient>
</defs>
</svg>
